<?plantuml 1.2026.2?><svg xmlns="http://www.w3.org/2000/svg" xmlns:xlink="http://www.w3.org/1999/xlink" contentStyleType="text/css" data-diagram-type="CLASS" height="774px" preserveAspectRatio="none" style="width:2772px;height:774px;background:#FFFFFF;" version="1.1" viewBox="0 0 2772 774" width="2772px" zoomAndPan="magnify"><defs/><g><!--class dyno_lab.cli.CLITestMixin--><g class="entity" data-qualified-name="dyno_lab.cli.CLITestMixin" data-source-line="2" id="ent0002"><rect fill="#F1F1F1" height="67.0679" rx="2.5" ry="2.5" style="stroke:#181818;stroke-width:0.5;" width="456.8483" x="7" y="92.81"/><ellipse cx="188.9993" cy="108.81" fill="#ADD1B2" rx="11" ry="11" style="stroke:#181818;stroke-width:1;"/><path d="M189.1087,104.3413 Q188.1868,104.3413 187.4524,104.6538 Q186.7337,104.9663 186.2337,105.56 Q185.7337,106.1381 185.4524,107.0131 Q185.1868,107.8881 185.1868,108.9819 Q185.1868,110.4194 185.6243,111.4663 Q186.0774,112.5131 186.9212,113.06 Q187.7806,113.6069 189.0931,113.6069 Q189.8743,113.6069 190.5618,113.4819 Q191.2649,113.3413 192.2649,113.0288 L192.2649,114.9038 Q191.4056,115.2319 190.6399,115.3569 Q189.8899,115.4819 188.8743,115.4819 Q186.9524,115.4819 185.6399,114.685 Q184.3431,113.8725 183.6868,112.4038 Q183.0306,110.9194 183.0306,108.9506 Q183.0306,107.5288 183.4212,106.3569 Q183.8274,105.1694 184.6087,104.2944 Q185.3899,103.4194 186.5306,102.9506 Q187.6712,102.4663 189.1399,102.4663 Q190.0931,102.4663 190.9837,102.6694 Q191.8899,102.8569 192.8274,103.3256 L191.9993,105.1069 Q191.2181,104.7319 190.5618,104.5444 Q189.9056,104.3413 189.1087,104.3413 Z " fill="#000000"/><text fill="#000000" font-family="sans-serif" font-size="14" lengthAdjust="spacing" textLength="84.3497" x="209.4993" y="114.242">CLITestMixin</text><line style="stroke:#181818;stroke-width:0.5;" x1="8" x2="462.8483" y1="124.81" y2="124.81"/><line style="stroke:#181818;stroke-width:0.5;" x1="8" x2="462.8483" y1="132.81" y2="132.81"/><text fill="#000000" font-family="sans-serif" font-size="14" lengthAdjust="spacing" textLength="444.8483" x="13" y="151.7759">run_cli(func: Any, args: list[str] | None, stdin: str | None) -&gt; CliResult</text></g><!--class dyno_lab.proc.CapturedCall--><g class="entity" data-qualified-name="dyno_lab.proc.CapturedCall" data-source-line="5" id="ent0003"><rect fill="#F1F1F1" height="86.1358" rx="2.5" ry="2.5" style="stroke:#181818;stroke-width:0.5;" width="191.9414" x="1746.45" y="372.35"/><ellipse cx="1795.5548" cy="388.35" fill="#ADD1B2" rx="11" ry="11" style="stroke:#181818;stroke-width:1;"/><path d="M1795.6642,383.8813 Q1794.7423,383.8813 1794.008,384.1938 Q1793.2892,384.5063 1792.7892,385.1 Q1792.2892,385.6781 1792.008,386.5531 Q1791.7423,387.4281 1791.7423,388.5219 Q1791.7423,389.9594 1792.1798,391.0063 Q1792.633,392.0531 1793.4767,392.6 Q1794.3361,393.1469 1795.6486,393.1469 Q1796.4298,393.1469 1797.1173,393.0219 Q1797.8205,392.8813 1798.8205,392.5688 L1798.8205,394.4438 Q1797.9611,394.7719 1797.1955,394.8969 Q1796.4455,395.0219 1795.4298,395.0219 Q1793.508,395.0219 1792.1955,394.225 Q1790.8986,393.4125 1790.2423,391.9438 Q1789.5861,390.4594 1789.5861,388.4906 Q1789.5861,387.0688 1789.9767,385.8969 Q1790.383,384.7094 1791.1642,383.8344 Q1791.9455,382.9594 1793.0861,382.4906 Q1794.2267,382.0063 1795.6955,382.0063 Q1796.6486,382.0063 1797.5392,382.2094 Q1798.4455,382.3969 1799.383,382.8656 L1798.5548,384.6469 Q1797.7736,384.2719 1797.1173,384.0844 Q1796.4611,383.8813 1795.6642,383.8813 Z " fill="#000000"/><text fill="#000000" font-family="sans-serif" font-size="14" lengthAdjust="spacing" textLength="85.2317" x="1816.0548" y="393.782">CapturedCall</text><line style="stroke:#181818;stroke-width:0.5;" x1="1747.45" x2="1937.3914" y1="404.35" y2="404.35"/><text fill="#000000" font-family="sans-serif" font-size="14" lengthAdjust="spacing" textLength="179.9414" x="1752.45" y="423.3159">args : list[str] | tuple[str, ...]</text><text fill="#000000" font-family="sans-serif" font-size="14" lengthAdjust="spacing" textLength="141.3435" x="1752.45" y="442.3839">kwargs : dict[str, Any]</text><line style="stroke:#181818;stroke-width:0.5;" x1="1747.45" x2="1937.3914" y1="450.4858" y2="450.4858"/></g><!--class dyno_lab.cli.CliResult--><g class="entity" data-qualified-name="dyno_lab.cli.CliResult" data-source-line="9" id="ent0004"><rect fill="#F1F1F1" height="200.5433" rx="2.5" ry="2.5" style="stroke:#181818;stroke-width:0.5;" width="337.6527" x="498.6" y="26.07"/><ellipse cx="634.8265" cy="42.07" fill="#ADD1B2" rx="11" ry="11" style="stroke:#181818;stroke-width:1;"/><path d="M634.9359,37.6013 Q634.014,37.6013 633.2796,37.9138 Q632.5609,38.2263 632.0609,38.82 Q631.5609,39.3981 631.2796,40.2731 Q631.014,41.1481 631.014,42.2419 Q631.014,43.6794 631.4515,44.7263 Q631.9046,45.7731 632.7484,46.32 Q633.6077,46.8669 634.9202,46.8669 Q635.7015,46.8669 636.389,46.7419 Q637.0921,46.6013 638.0921,46.2888 L638.0921,48.1638 Q637.2327,48.4919 636.4671,48.6169 Q635.7171,48.7419 634.7015,48.7419 Q632.7796,48.7419 631.4671,47.945 Q630.1702,47.1325 629.514,45.6638 Q628.8577,44.1794 628.8577,42.2106 Q628.8577,40.7888 629.2484,39.6169 Q629.6546,38.4294 630.4359,37.5544 Q631.2171,36.6794 632.3577,36.2106 Q633.4984,35.7263 634.9671,35.7263 Q635.9202,35.7263 636.8109,35.9294 Q637.7171,36.1169 638.6546,36.5856 L637.8265,38.3669 Q637.0452,37.9919 636.389,37.8044 Q635.7327,37.6013 634.9359,37.6013 Z " fill="#000000"/><text fill="#000000" font-family="sans-serif" font-size="14" lengthAdjust="spacing" textLength="56.6998" x="655.3265" y="47.502">CliResult</text><line style="stroke:#181818;stroke-width:0.5;" x1="499.6" x2="835.2527" y1="58.07" y2="58.07"/><text fill="#000000" font-family="sans-serif" font-size="14" lengthAdjust="spacing" textLength="90.2296" x="504.6" y="77.0359">exit_code : int</text><text fill="#000000" font-family="sans-serif" font-size="14" lengthAdjust="spacing" textLength="73.0657" x="504.6" y="96.1039">output : str</text><text fill="#000000" font-family="sans-serif" font-size="14" lengthAdjust="spacing" textLength="68.4038" x="504.6" y="115.1718">stderr : str</text><text fill="#000000" font-family="sans-serif" font-size="14" lengthAdjust="spacing" textLength="71.1198" x="504.6" y="134.2397">stdout : str</text><line style="stroke:#181818;stroke-width:0.5;" x1="499.6" x2="835.2527" y1="142.3417" y2="142.3417"/><text fill="#000000" font-family="sans-serif" font-size="14" lengthAdjust="spacing" textLength="256.059" x="504.6" y="161.3076">assert_error_contains(text: str) -&gt; None</text><text fill="#000000" font-family="sans-serif" font-size="14" lengthAdjust="spacing" textLength="325.6527" x="504.6" y="180.3755">assert_failure(expected_code: int | None) -&gt; None</text><text fill="#000000" font-family="sans-serif" font-size="14" lengthAdjust="spacing" textLength="266.839" x="504.6" y="199.4434">assert_output_contains(text: str) -&gt; None</text><text fill="#000000" font-family="sans-serif" font-size="14" lengthAdjust="spacing" textLength="160.1734" x="504.6" y="218.5114">assert_success() -&gt; None</text></g><!--class dyno_lab.base.DynoTestCase--><g class="entity" data-qualified-name="dyno_lab.base.DynoTestCase" data-source-line="19" id="ent0005"><rect fill="#F1F1F1" height="238.6792" rx="2.5" ry="2.5" style="stroke:#181818;stroke-width:0.5;" width="568.6379" x="871.11" y="7"/><ellipse cx="1104.5662" cy="23" fill="#ADD1B2" rx="11" ry="11" style="stroke:#181818;stroke-width:1;"/><path d="M1104.6755,18.5313 Q1103.7537,18.5313 1103.0193,18.8438 Q1102.3005,19.1563 1101.8005,19.75 Q1101.3005,20.3281 1101.0193,21.2031 Q1100.7537,22.0781 1100.7537,23.1719 Q1100.7537,24.6094 1101.1912,25.6563 Q1101.6443,26.7031 1102.488,27.25 Q1103.3474,27.7969 1104.6599,27.7969 Q1105.4412,27.7969 1106.1287,27.6719 Q1106.8318,27.5313 1107.8318,27.2188 L1107.8318,29.0938 Q1106.9724,29.4219 1106.2068,29.5469 Q1105.4568,29.6719 1104.4412,29.6719 Q1102.5193,29.6719 1101.2068,28.875 Q1099.9099,28.0625 1099.2537,26.5938 Q1098.5974,25.1094 1098.5974,23.1406 Q1098.5974,21.7188 1098.988,20.5469 Q1099.3943,19.3594 1100.1755,18.4844 Q1100.9568,17.6094 1102.0974,17.1406 Q1103.238,16.6563 1104.7068,16.6563 Q1105.6599,16.6563 1106.5505,16.8594 Q1107.4568,17.0469 1108.3943,17.5156 L1107.5662,19.2969 Q1106.7849,18.9219 1106.1287,18.7344 Q1105.4724,18.5313 1104.6755,18.5313 Z " fill="#000000"/><text fill="#000000" font-family="sans-serif" font-size="14" lengthAdjust="spacing" textLength="93.2256" x="1125.0662" y="28.432">DynoTestCase</text><line style="stroke:#181818;stroke-width:0.5;" x1="872.11" x2="1438.7479" y1="39" y2="39"/><line style="stroke:#181818;stroke-width:0.5;" x1="872.11" x2="1438.7479" y1="47" y2="47"/><text fill="#000000" font-family="sans-serif" font-size="14" lengthAdjust="spacing" textLength="516.2621" x="877.11" y="65.9659">assertApproxEqual(first: float, second: float, rel: float, msg: str | None) -&gt; None</text><text fill="#000000" font-family="sans-serif" font-size="14" lengthAdjust="spacing" textLength="488.1502" x="877.11" y="85.0339">assertContainsAll(container: Any, items: list[Any], msg: str | None) -&gt; None</text><text fill="#000000" font-family="sans-serif" font-size="14" lengthAdjust="spacing" textLength="556.6379" x="877.11" y="104.1018">assertDictSubset(subset: dict[str, Any], whole: dict[str, Any], msg: str | None) -&gt; None</text><text fill="#000000" font-family="sans-serif" font-size="14" lengthAdjust="spacing" textLength="372.2446" x="877.11" y="123.1697">assertDirExists(path: str | Path, msg: str | None) -&gt; None</text><text fill="#000000" font-family="sans-serif" font-size="14" lengthAdjust="spacing" textLength="421.5104" x="877.11" y="142.2376">assertExitCode(code: int, expected: int, msg: str | None) -&gt; None</text><text fill="#000000" font-family="sans-serif" font-size="14" lengthAdjust="spacing" textLength="453.3323" x="877.11" y="161.3055">assertFileContains(path: str | Path, text: str, msg: str | None) -&gt; None</text><text fill="#000000" font-family="sans-serif" font-size="14" lengthAdjust="spacing" textLength="375.0166" x="877.11" y="180.3734">assertFileExists(path: str | Path, msg: str | None) -&gt; None</text><text fill="#000000" font-family="sans-serif" font-size="14" lengthAdjust="spacing" textLength="477.4962" x="877.11" y="199.4414">assertFileNotContains(path: str | Path, text: str, msg: str | None) -&gt; None</text><text fill="#000000" font-family="sans-serif" font-size="14" lengthAdjust="spacing" textLength="465.5402" x="877.11" y="218.5093">assertNoneOf(container: Any, items: list[Any], msg: str | None) -&gt; None</text><text fill="#000000" font-family="sans-serif" font-size="14" lengthAdjust="spacing" textLength="511.1101" x="877.11" y="237.5772">assertOutputContains(output: str, text: str, label: str, msg: str | None) -&gt; None</text></g><!--class dyno_lab.env.EnvPatch--><g class="entity" data-qualified-name="dyno_lab.env.EnvPatch" data-source-line="31" id="ent0006"><rect fill="#F1F1F1" height="67.0679" rx="2.5" ry="2.5" style="stroke:#181818;stroke-width:0.5;" width="191.7733" x="1474.54" y="92.81"/><ellipse cx="1536.0278" cy="108.81" fill="#ADD1B2" rx="11" ry="11" style="stroke:#181818;stroke-width:1;"/><path d="M1536.1372,104.3413 Q1535.2153,104.3413 1534.4809,104.6538 Q1533.7622,104.9663 1533.2622,105.56 Q1532.7622,106.1381 1532.4809,107.0131 Q1532.2153,107.8881 1532.2153,108.9819 Q1532.2153,110.4194 1532.6528,111.4663 Q1533.1059,112.5131 1533.9497,113.06 Q1534.809,113.6069 1536.1215,113.6069 Q1536.9028,113.6069 1537.5903,113.4819 Q1538.2934,113.3413 1539.2934,113.0288 L1539.2934,114.9038 Q1538.434,115.2319 1537.6684,115.3569 Q1536.9184,115.4819 1535.9028,115.4819 Q1533.9809,115.4819 1532.6684,114.685 Q1531.3715,113.8725 1530.7153,112.4038 Q1530.059,110.9194 1530.059,108.9506 Q1530.059,107.5288 1530.4497,106.3569 Q1530.8559,105.1694 1531.6372,104.2944 Q1532.4184,103.4194 1533.559,102.9506 Q1534.6997,102.4663 1536.1684,102.4663 Q1537.1215,102.4663 1538.0122,102.6694 Q1538.9184,102.8569 1539.8559,103.3256 L1539.0278,105.1069 Q1538.2465,104.7319 1537.5903,104.5444 Q1536.934,104.3413 1536.1372,104.3413 Z " fill="#000000"/><text fill="#000000" font-family="sans-serif" font-size="14" lengthAdjust="spacing" textLength="60.2978" x="1556.5278" y="114.242">EnvPatch</text><line style="stroke:#181818;stroke-width:0.5;" x1="1475.54" x2="1665.3133" y1="124.81" y2="124.81"/><line style="stroke:#181818;stroke-width:0.5;" x1="1475.54" x2="1665.3133" y1="132.81" y2="132.81"/><text fill="#000000" font-family="sans-serif" font-size="14" lengthAdjust="spacing" textLength="179.7733" x="1480.54" y="151.7759">decorator(env: dict[str, str])</text></g><!--class dyno_lab.proc.ProcessRecorder--><g class="entity" data-qualified-name="dyno_lab.proc.ProcessRecorder" data-source-line="34" id="ent0007"><rect fill="#F1F1F1" height="124.2717" rx="2.5" ry="2.5" style="stroke:#181818;stroke-width:0.5;" width="281.541" x="1701.65" y="64.21"/><ellipse cx="1782.8637" cy="80.21" fill="#ADD1B2" rx="11" ry="11" style="stroke:#181818;stroke-width:1;"/><path d="M1782.9731,75.7413 Q1782.0512,75.7413 1781.3168,76.0538 Q1780.5981,76.3663 1780.0981,76.96 Q1779.5981,77.5381 1779.3168,78.4131 Q1779.0512,79.2881 1779.0512,80.3819 Q1779.0512,81.8194 1779.4887,82.8663 Q1779.9418,83.9131 1780.7856,84.46 Q1781.645,85.0069 1782.9575,85.0069 Q1783.7387,85.0069 1784.4262,84.8819 Q1785.1293,84.7413 1786.1293,84.4288 L1786.1293,86.3038 Q1785.27,86.6319 1784.5043,86.7569 Q1783.7543,86.8819 1782.7387,86.8819 Q1780.8168,86.8819 1779.5043,86.085 Q1778.2075,85.2725 1777.5512,83.8038 Q1776.895,82.3194 1776.895,80.3506 Q1776.895,78.9288 1777.2856,77.7569 Q1777.6918,76.5694 1778.4731,75.6944 Q1779.2543,74.8194 1780.395,74.3506 Q1781.5356,73.8663 1783.0043,73.8663 Q1783.9575,73.8663 1784.8481,74.0694 Q1785.7543,74.2569 1786.6918,74.7256 L1785.8637,76.5069 Q1785.0825,76.1319 1784.4262,75.9444 Q1783.77,75.7413 1782.9731,75.7413 Z " fill="#000000"/><text fill="#000000" font-family="sans-serif" font-size="14" lengthAdjust="spacing" textLength="110.6136" x="1803.3637" y="85.642">ProcessRecorder</text><line style="stroke:#181818;stroke-width:0.5;" x1="1702.65" x2="1982.191" y1="96.21" y2="96.21"/><text fill="#000000" font-family="sans-serif" font-size="14" lengthAdjust="spacing" textLength="93.9116" x="1707.65" y="115.1759">call_count : int</text><text fill="#000000" font-family="sans-serif" font-size="14" lengthAdjust="spacing" textLength="152.9634" x="1707.65" y="134.2439">calls : list[CapturedCall]</text><line style="stroke:#181818;stroke-width:0.5;" x1="1702.65" x2="1982.191" y1="142.3458" y2="142.3458"/><text fill="#000000" font-family="sans-serif" font-size="14" lengthAdjust="spacing" textLength="269.541" x="1707.65" y="161.3118">commands() -&gt; list[list[str] | tuple[str, ...]]</text><text fill="#000000" font-family="sans-serif" font-size="14" lengthAdjust="spacing" textLength="154.0694" x="1707.65" y="180.3797">stdin_inputs() -&gt; list[str]</text></g><!--class dyno_lab.http.RaisingSession--><g class="entity" data-qualified-name="dyno_lab.http.RaisingSession" data-source-line="40" id="ent0008"><rect fill="#F1F1F1" height="86.1358" rx="2.5" ry="2.5" style="stroke:#181818;stroke-width:0.5;" width="129.4816" x="170.68" y="372.35"/><ellipse cx="185.68" cy="388.35" fill="#ADD1B2" rx="11" ry="11" style="stroke:#181818;stroke-width:1;"/><path d="M185.7894,383.8813 Q184.8675,383.8813 184.1331,384.1938 Q183.4144,384.5063 182.9144,385.1 Q182.4144,385.6781 182.1331,386.5531 Q181.8675,387.4281 181.8675,388.5219 Q181.8675,389.9594 182.305,391.0063 Q182.7581,392.0531 183.6019,392.6 Q184.4613,393.1469 185.7738,393.1469 Q186.555,393.1469 187.2425,393.0219 Q187.9456,392.8813 188.9456,392.5688 L188.9456,394.4438 Q188.0863,394.7719 187.3206,394.8969 Q186.5706,395.0219 185.555,395.0219 Q183.6331,395.0219 182.3206,394.225 Q181.0238,393.4125 180.3675,391.9438 Q179.7113,390.4594 179.7113,388.4906 Q179.7113,387.0688 180.1019,385.8969 Q180.5081,384.7094 181.2894,383.8344 Q182.0706,382.9594 183.2113,382.4906 Q184.3519,382.0063 185.8206,382.0063 Q186.7738,382.0063 187.6644,382.2094 Q188.5706,382.3969 189.5081,382.8656 L188.68,384.6469 Q187.8988,384.2719 187.2425,384.0844 Q186.5863,383.8813 185.7894,383.8813 Z " fill="#000000"/><text fill="#000000" font-family="sans-serif" font-size="14" lengthAdjust="spacing" textLength="97.4816" x="199.68" y="393.782">RaisingSession</text><line style="stroke:#181818;stroke-width:0.5;" x1="171.68" x2="299.1616" y1="404.35" y2="404.35"/><line style="stroke:#181818;stroke-width:0.5;" x1="171.68" x2="299.1616" y1="412.35" y2="412.35"/><text fill="#000000" font-family="sans-serif" font-size="14" lengthAdjust="spacing" textLength="85.4137" x="176.68" y="431.3159">get() -&gt; None</text><text fill="#000000" font-family="sans-serif" font-size="14" lengthAdjust="spacing" textLength="92.6936" x="176.68" y="450.3839">post() -&gt; None</text></g><!--class dyno_lab.http.SequenceSession--><g class="entity" data-qualified-name="dyno_lab.http.SequenceSession" data-source-line="44" id="ent0009"><rect fill="#F1F1F1" height="143.3396" rx="2.5" ry="2.5" style="stroke:#181818;stroke-width:0.5;" width="410.5785" x="2018.13" y="54.67"/><ellipse cx="2162.3015" cy="70.67" fill="#ADD1B2" rx="11" ry="11" style="stroke:#181818;stroke-width:1;"/><path d="M2162.4109,66.2013 Q2161.489,66.2013 2160.7546,66.5138 Q2160.0359,66.8263 2159.5359,67.42 Q2159.0359,67.9981 2158.7546,68.8731 Q2158.489,69.7481 2158.489,70.8419 Q2158.489,72.2794 2158.9265,73.3263 Q2159.3796,74.3731 2160.2234,74.92 Q2161.0827,75.4669 2162.3952,75.4669 Q2163.1765,75.4669 2163.864,75.3419 Q2164.5671,75.2013 2165.5671,74.8888 L2165.5671,76.7638 Q2164.7077,77.0919 2163.9421,77.2169 Q2163.1921,77.3419 2162.1765,77.3419 Q2160.2546,77.3419 2158.9421,76.545 Q2157.6452,75.7325 2156.989,74.2638 Q2156.3327,72.7794 2156.3327,70.8106 Q2156.3327,69.3888 2156.7234,68.2169 Q2157.1296,67.0294 2157.9109,66.1544 Q2158.6921,65.2794 2159.8327,64.8106 Q2160.9734,64.3263 2162.4421,64.3263 Q2163.3952,64.3263 2164.2859,64.5294 Q2165.1921,64.7169 2166.1296,65.1856 L2165.3015,66.9669 Q2164.5202,66.5919 2163.864,66.4044 Q2163.2077,66.2013 2162.4109,66.2013 Z " fill="#000000"/><text fill="#000000" font-family="sans-serif" font-size="14" lengthAdjust="spacing" textLength="113.7355" x="2182.8015" y="76.102">SequenceSession</text><line style="stroke:#181818;stroke-width:0.5;" x1="2019.13" x2="2427.7085" y1="86.67" y2="86.67"/><text fill="#000000" font-family="sans-serif" font-size="14" lengthAdjust="spacing" textLength="93.9116" x="2024.13" y="105.6359">call_count : int</text><text fill="#000000" font-family="sans-serif" font-size="14" lengthAdjust="spacing" textLength="188.7753" x="2024.13" y="124.7039">calls : list[_CapturedRequest]</text><line style="stroke:#181818;stroke-width:0.5;" x1="2019.13" x2="2427.7085" y1="132.8058" y2="132.8058"/><text fill="#000000" font-family="sans-serif" font-size="14" lengthAdjust="spacing" textLength="391.2986" x="2024.13" y="151.7718">get(url: str, params: dict[str, Any] | None) -&gt; _FakeResponse</text><text fill="#000000" font-family="sans-serif" font-size="14" lengthAdjust="spacing" textLength="398.5785" x="2024.13" y="170.8397">post(url: str, params: dict[str, Any] | None) -&gt; _FakeResponse</text><text fill="#000000" font-family="sans-serif" font-size="14" lengthAdjust="spacing" textLength="143.2055" x="2024.13" y="189.9076">urls_called() -&gt; list[str]</text></g><!--class dyno_lab.smoke.SmokeResult--><g class="entity" data-qualified-name="dyno_lab.smoke.SmokeResult" data-source-line="51" id="ent0010"><rect fill="#F1F1F1" height="181.4754" rx="2.5" ry="2.5" style="stroke:#181818;stroke-width:0.5;" width="397.3206" x="334.76" y="324.68"/><ellipse cx="486.5474" cy="340.68" fill="#ADD1B2" rx="11" ry="11" style="stroke:#181818;stroke-width:1;"/><path d="M486.6568,336.2113 Q485.7349,336.2113 485.0006,336.5238 Q484.2818,336.8363 483.7818,337.43 Q483.2818,338.0081 483.0006,338.8831 Q482.7349,339.7581 482.7349,340.8519 Q482.7349,342.2894 483.1724,343.3363 Q483.6256,344.3831 484.4693,344.93 Q485.3287,345.4769 486.6412,345.4769 Q487.4224,345.4769 488.1099,345.3519 Q488.8131,345.2113 489.8131,344.8988 L489.8131,346.7738 Q488.9537,347.1019 488.1881,347.2269 Q487.4381,347.3519 486.4224,347.3519 Q484.5006,347.3519 483.1881,346.555 Q481.8912,345.7425 481.2349,344.2738 Q480.5787,342.7894 480.5787,340.8206 Q480.5787,339.3988 480.9693,338.2269 Q481.3756,337.0394 482.1568,336.1644 Q482.9381,335.2894 484.0787,334.8206 Q485.2193,334.3363 486.6881,334.3363 Q487.6412,334.3363 488.5318,334.5394 Q489.4381,334.7269 490.3756,335.1956 L489.5474,336.9769 Q488.7662,336.6019 488.1099,336.4144 Q487.4537,336.2113 486.6568,336.2113 Z " fill="#000000"/><text fill="#000000" font-family="sans-serif" font-size="14" lengthAdjust="spacing" textLength="85.2457" x="507.0474" y="346.112">SmokeResult</text><line style="stroke:#181818;stroke-width:0.5;" x1="335.76" x2="731.0806" y1="356.68" y2="356.68"/><text fill="#000000" font-family="sans-serif" font-size="14" lengthAdjust="spacing" textLength="71.9177" x="340.76" y="375.6459">details : str</text><text fill="#000000" font-family="sans-serif" font-size="14" lengthAdjust="spacing" textLength="87.3317" x="340.76" y="394.7139">message : str</text><text fill="#000000" font-family="sans-serif" font-size="14" lengthAdjust="spacing" textLength="66.0658" x="340.76" y="413.7818">name : str</text><text fill="#000000" font-family="sans-serif" font-size="14" lengthAdjust="spacing" textLength="86.5757" x="340.76" y="432.8497">passed : bool</text><text fill="#000000" font-family="sans-serif" font-size="14" lengthAdjust="spacing" textLength="90.2997" x="340.76" y="451.9176">passed_result</text><line style="stroke:#181818;stroke-width:0.5;" x1="335.76" x2="731.0806" y1="460.0196" y2="460.0196"/><text fill="#000000" font-family="sans-serif" font-size="14" lengthAdjust="spacing" textLength="385.3206" x="340.76" y="478.9855">failed(name: str, message: str, details: str) -&gt; 'SmokeResult'</text><text fill="#000000" font-family="sans-serif" font-size="14" lengthAdjust="spacing" textLength="364.8666" x="340.76" y="498.0534">ok(name: str, message: str, details: str) -&gt; 'SmokeResult'</text></g><!--class dyno_lab.smoke.SmokeRunner--><g class="entity" data-qualified-name="dyno_lab.smoke.SmokeRunner" data-source-line="60" id="ent0011"><rect fill="#F1F1F1" height="67.0679" rx="2.5" ry="2.5" style="stroke:#181818;stroke-width:0.5;" width="192.4873" x="767.18" y="381.88"/><ellipse cx="812.6938" cy="397.88" fill="#ADD1B2" rx="11" ry="11" style="stroke:#181818;stroke-width:1;"/><path d="M812.8032,393.4113 Q811.8813,393.4113 811.147,393.7238 Q810.4282,394.0363 809.9282,394.63 Q809.4282,395.2081 809.147,396.0831 Q808.8813,396.9581 808.8813,398.0519 Q808.8813,399.4894 809.3188,400.5363 Q809.772,401.5831 810.6157,402.13 Q811.4751,402.6769 812.7876,402.6769 Q813.5688,402.6769 814.2563,402.5519 Q814.9595,402.4113 815.9595,402.0988 L815.9595,403.9738 Q815.1001,404.3019 814.3345,404.4269 Q813.5845,404.5519 812.5688,404.5519 Q810.647,404.5519 809.3345,403.755 Q808.0376,402.9425 807.3813,401.4738 Q806.7251,399.9894 806.7251,398.0206 Q806.7251,396.5988 807.1157,395.4269 Q807.522,394.2394 808.3032,393.3644 Q809.0845,392.4894 810.2251,392.0206 Q811.3657,391.5363 812.8345,391.5363 Q813.7876,391.5363 814.6782,391.7394 Q815.5845,391.9269 816.522,392.3956 L815.6938,394.1769 Q814.9126,393.8019 814.2563,393.6144 Q813.6001,393.4113 812.8032,393.4113 Z " fill="#000000"/><text fill="#000000" font-family="sans-serif" font-size="14" lengthAdjust="spacing" textLength="92.9596" x="833.1938" y="403.312">SmokeRunner</text><line style="stroke:#181818;stroke-width:0.5;" x1="768.18" x2="958.6673" y1="413.88" y2="413.88"/><line style="stroke:#181818;stroke-width:0.5;" x1="768.18" x2="958.6673" y1="421.88" y2="421.88"/><text fill="#000000" font-family="sans-serif" font-size="14" lengthAdjust="spacing" textLength="180.4873" x="773.18" y="440.8459">run_all() -&gt; SmokeSummary</text></g><!--class dyno_lab.smoke.SmokeSummary--><g class="entity" data-qualified-name="dyno_lab.smoke.SmokeSummary" data-source-line="63" id="ent0012"><rect fill="#F1F1F1" height="143.3396" rx="2.5" ry="2.5" style="stroke:#181818;stroke-width:0.5;" width="182.8554" x="995" y="343.75"/><ellipse cx="1029.3247" cy="359.75" fill="#ADD1B2" rx="11" ry="11" style="stroke:#181818;stroke-width:1;"/><path d="M1029.4341,355.2813 Q1028.5122,355.2813 1027.7778,355.5938 Q1027.0591,355.9063 1026.5591,356.5 Q1026.0591,357.0781 1025.7778,357.9531 Q1025.5122,358.8281 1025.5122,359.9219 Q1025.5122,361.3594 1025.9497,362.4063 Q1026.4028,363.4531 1027.2466,364 Q1028.1059,364.5469 1029.4184,364.5469 Q1030.1997,364.5469 1030.8872,364.4219 Q1031.5903,364.2813 1032.5903,363.9688 L1032.5903,365.8438 Q1031.7309,366.1719 1030.9653,366.2969 Q1030.2153,366.4219 1029.1997,366.4219 Q1027.2778,366.4219 1025.9653,365.625 Q1024.6684,364.8125 1024.0122,363.3438 Q1023.3559,361.8594 1023.3559,359.8906 Q1023.3559,358.4688 1023.7466,357.2969 Q1024.1528,356.1094 1024.9341,355.2344 Q1025.7153,354.3594 1026.8559,353.8906 Q1027.9966,353.4063 1029.4653,353.4063 Q1030.4184,353.4063 1031.3091,353.6094 Q1032.2153,353.7969 1033.1528,354.2656 L1032.3247,356.0469 Q1031.5434,355.6719 1030.8872,355.4844 Q1030.2309,355.2813 1029.4341,355.2813 Z " fill="#000000"/><text fill="#000000" font-family="sans-serif" font-size="14" lengthAdjust="spacing" textLength="107.9116" x="1047.6191" y="365.182">SmokeSummary</text><line style="stroke:#181818;stroke-width:0.5;" x1="996" x2="1176.8554" y1="375.75" y2="375.75"/><text fill="#000000" font-family="sans-serif" font-size="14" lengthAdjust="spacing" textLength="107.8696" x="1001" y="394.7159">all_passed : bool</text><text fill="#000000" font-family="sans-serif" font-size="14" lengthAdjust="spacing" textLength="160.8734" x="1001" y="413.7839">failed : list[SmokeResult]</text><text fill="#000000" font-family="sans-serif" font-size="14" lengthAdjust="spacing" textLength="170.8554" x="1001" y="432.8518">passed : list[SmokeResult]</text><text fill="#000000" font-family="sans-serif" font-size="14" lengthAdjust="spacing" textLength="168.8814" x="1001" y="451.9197">results : list[SmokeResult]</text><line style="stroke:#181818;stroke-width:0.5;" x1="996" x2="1176.8554" y1="460.0217" y2="460.0217"/><text fill="#000000" font-family="sans-serif" font-size="14" lengthAdjust="spacing" textLength="152.9634" x="1001" y="478.9876">raise_if_failed() -&gt; None</text></g><!--class dyno_lab.smoke.SmokeTest--><g class="entity" data-qualified-name="dyno_lab.smoke.SmokeTest" data-source-line="70" id="ent0013"><rect fill="#F1F1F1" height="105.2038" rx="2.5" ry="2.5" style="stroke:#181818;stroke-width:0.5;" width="182.0153" x="144.42" y="614.83"/><ellipse cx="195.1488" cy="630.83" fill="#ADD1B2" rx="11" ry="11" style="stroke:#181818;stroke-width:1;"/><path d="M195.2582,626.3613 Q194.3363,626.3613 193.6019,626.6738 Q192.8832,626.9863 192.3832,627.58 Q191.8832,628.1581 191.6019,629.0331 Q191.3363,629.9081 191.3363,631.0019 Q191.3363,632.4394 191.7738,633.4863 Q192.2269,634.5331 193.0707,635.08 Q193.93,635.6269 195.2425,635.6269 Q196.0238,635.6269 196.7113,635.5019 Q197.4144,635.3613 198.4144,635.0488 L198.4144,636.9238 Q197.555,637.2519 196.7894,637.3769 Q196.0394,637.5019 195.0238,637.5019 Q193.1019,637.5019 191.7894,636.705 Q190.4925,635.8925 189.8363,634.4238 Q189.18,632.9394 189.18,630.9706 Q189.18,629.5488 189.5707,628.3769 Q189.9769,627.1894 190.7582,626.3144 Q191.5394,625.4394 192.68,624.9706 Q193.8207,624.4863 195.2894,624.4863 Q196.2425,624.4863 197.1332,624.6894 Q198.0394,624.8769 198.9769,625.3456 L198.1488,627.1269 Q197.3675,626.7519 196.7113,626.5644 Q196.055,626.3613 195.2582,626.3613 Z " fill="#000000"/><text fill="#000000" font-family="sans-serif" font-size="14" lengthAdjust="spacing" textLength="72.0577" x="215.6488" y="636.262">SmokeTest</text><line style="stroke:#181818;stroke-width:0.5;" x1="145.42" x2="325.4353" y1="646.83" y2="646.83"/><text fill="#000000" font-family="sans-serif" font-size="14" lengthAdjust="spacing" textLength="66.0658" x="150.42" y="665.7959">name : str</text><line style="stroke:#181818;stroke-width:0.5;" x1="145.42" x2="325.4353" y1="673.8979" y2="673.8979"/><text fill="#000000" font-family="sans-serif" font-size="14" font-style="italic" lengthAdjust="spacing" textLength="128.1135" x="150.42" y="692.8639">run() -&gt; SmokeResult</text><text fill="#000000" font-family="sans-serif" font-size="14" lengthAdjust="spacing" textLength="170.0153" x="150.42" y="711.9318">run_safe() -&gt; SmokeResult</text></g><!--class dyno_lab.http.StaticSession--><g class="entity" data-qualified-name="dyno_lab.http.StaticSession" data-source-line="75" id="ent0014"><rect fill="#F1F1F1" height="105.2038" rx="2.5" ry="2.5" style="stroke:#181818;stroke-width:0.5;" width="301.7849" x="2463.53" y="73.74"/><ellipse cx="2567.3186" cy="89.74" fill="#ADD1B2" rx="11" ry="11" style="stroke:#181818;stroke-width:1;"/><path d="M2567.428,85.2713 Q2566.5061,85.2713 2565.7718,85.5838 Q2565.053,85.8963 2564.553,86.49 Q2564.053,87.0681 2563.7718,87.9431 Q2563.5061,88.8181 2563.5061,89.9119 Q2563.5061,91.3494 2563.9436,92.3963 Q2564.3968,93.4431 2565.2405,93.99 Q2566.0999,94.5369 2567.4124,94.5369 Q2568.1936,94.5369 2568.8811,94.4119 Q2569.5843,94.2713 2570.5843,93.9588 L2570.5843,95.8338 Q2569.7249,96.1619 2568.9593,96.2869 Q2568.2093,96.4119 2567.1936,96.4119 Q2565.2718,96.4119 2563.9593,95.615 Q2562.6624,94.8025 2562.0061,93.3338 Q2561.3499,91.8494 2561.3499,89.8806 Q2561.3499,88.4588 2561.7405,87.2869 Q2562.1468,86.0994 2562.928,85.2244 Q2563.7093,84.3494 2564.8499,83.8806 Q2565.9905,83.3963 2567.4593,83.3963 Q2568.4124,83.3963 2569.303,83.5994 Q2570.2093,83.7869 2571.1468,84.2556 L2570.3186,86.0369 Q2569.5374,85.6619 2568.8811,85.4744 Q2568.2249,85.2713 2567.428,85.2713 Z " fill="#000000"/><text fill="#000000" font-family="sans-serif" font-size="14" lengthAdjust="spacing" textLength="85.7077" x="2587.8186" y="95.172">StaticSession</text><line style="stroke:#181818;stroke-width:0.5;" x1="2464.53" x2="2764.3149" y1="105.74" y2="105.74"/><text fill="#000000" font-family="sans-serif" font-size="14" lengthAdjust="spacing" textLength="188.7753" x="2469.53" y="124.7059">calls : list[_CapturedRequest]</text><line style="stroke:#181818;stroke-width:0.5;" x1="2464.53" x2="2764.3149" y1="132.8079" y2="132.8079"/><text fill="#000000" font-family="sans-serif" font-size="14" lengthAdjust="spacing" textLength="282.5049" x="2469.53" y="151.7739">get(url: str, params: Any) -&gt; _FakeResponse</text><text fill="#000000" font-family="sans-serif" font-size="14" lengthAdjust="spacing" textLength="289.7849" x="2469.53" y="170.8418">post(url: str, params: Any) -&gt; _FakeResponse</text></g><!--class dyno_lab.proc.SubprocessPatch--><g class="entity" data-qualified-name="dyno_lab.proc.SubprocessPatch" data-source-line="80" id="ent0015"><rect fill="#F1F1F1" height="86.1358" rx="2.5" ry="2.5" style="stroke:#181818;stroke-width:0.5;" width="144.5876" x="361.13" y="624.36"/><ellipse cx="376.13" cy="640.36" fill="#ADD1B2" rx="11" ry="11" style="stroke:#181818;stroke-width:1;"/><path d="M376.2394,635.8913 Q375.3175,635.8913 374.5831,636.2038 Q373.8644,636.5163 373.3644,637.11 Q372.8644,637.6881 372.5831,638.5631 Q372.3175,639.4381 372.3175,640.5319 Q372.3175,641.9694 372.755,643.0163 Q373.2081,644.0631 374.0519,644.61 Q374.9113,645.1569 376.2238,645.1569 Q377.005,645.1569 377.6925,645.0319 Q378.3956,644.8913 379.3956,644.5788 L379.3956,646.4538 Q378.5363,646.7819 377.7706,646.9069 Q377.0206,647.0319 376.005,647.0319 Q374.0831,647.0319 372.7706,646.235 Q371.4738,645.4225 370.8175,643.9538 Q370.1613,642.4694 370.1613,640.5006 Q370.1613,639.0788 370.5519,637.9069 Q370.9581,636.7194 371.7394,635.8444 Q372.5206,634.9694 373.6613,634.5006 Q374.8019,634.0163 376.2706,634.0163 Q377.2238,634.0163 378.1144,634.2194 Q379.0206,634.4069 379.9581,634.8756 L379.13,636.6569 Q378.3488,636.2819 377.6925,636.0944 Q377.0363,635.8913 376.2394,635.8913 Z " fill="#000000"/><text fill="#000000" font-family="sans-serif" font-size="14" lengthAdjust="spacing" textLength="112.5876" x="390.13" y="645.792">SubprocessPatch</text><line style="stroke:#181818;stroke-width:0.5;" x1="362.13" x2="504.7176" y1="656.36" y2="656.36"/><text fill="#000000" font-family="sans-serif" font-size="14" lengthAdjust="spacing" textLength="106.0076" x="367.13" y="675.3259">side_effect : Any</text><text fill="#000000" font-family="sans-serif" font-size="14" lengthAdjust="spacing" textLength="68.8238" x="367.13" y="694.3939">target : str</text><line style="stroke:#181818;stroke-width:0.5;" x1="362.13" x2="504.7176" y1="702.4958" y2="702.4958"/></g><!--class dyno_lab.fs.TempWorkdir--><g class="entity" data-qualified-name="dyno_lab.fs.TempWorkdir" data-source-line="84" id="ent0016"><rect fill="#F1F1F1" height="200.5433" rx="2.5" ry="2.5" style="stroke:#181818;stroke-width:0.5;" width="358.5547" x="541.15" y="567.16"/><ellipse cx="671.1115" cy="583.16" fill="#ADD1B2" rx="11" ry="11" style="stroke:#181818;stroke-width:1;"/><path d="M671.2209,578.6913 Q670.299,578.6913 669.5646,579.0038 Q668.8459,579.3163 668.3459,579.91 Q667.8459,580.4881 667.5646,581.3631 Q667.299,582.2381 667.299,583.3319 Q667.299,584.7694 667.7365,585.8163 Q668.1896,586.8631 669.0334,587.41 Q669.8928,587.9569 671.2053,587.9569 Q671.9865,587.9569 672.674,587.8319 Q673.3771,587.6913 674.3771,587.3788 L674.3771,589.2538 Q673.5178,589.5819 672.7521,589.7069 Q672.0021,589.8319 670.9865,589.8319 Q669.0646,589.8319 667.7521,589.035 Q666.4553,588.2225 665.799,586.7538 Q665.1428,585.2694 665.1428,583.3006 Q665.1428,581.8788 665.5334,580.7069 Q665.9396,579.5194 666.7209,578.6444 Q667.5021,577.7694 668.6428,577.3006 Q669.7834,576.8163 671.2521,576.8163 Q672.2053,576.8163 673.0959,577.0194 Q674.0021,577.2069 674.9396,577.6756 L674.1115,579.4569 Q673.3303,579.0819 672.674,578.8944 Q672.0178,578.6913 671.2209,578.6913 Z " fill="#000000"/><text fill="#000000" font-family="sans-serif" font-size="14" lengthAdjust="spacing" textLength="90.1317" x="691.6115" y="588.592">TempWorkdir</text><line style="stroke:#181818;stroke-width:0.5;" x1="542.15" x2="898.7047" y1="599.16" y2="599.16"/><text fill="#000000" font-family="sans-serif" font-size="14" lengthAdjust="spacing" textLength="71.2317" x="547.15" y="618.1259">path : Path</text><line style="stroke:#181818;stroke-width:0.5;" x1="542.15" x2="898.7047" y1="626.2279" y2="626.2279"/><text fill="#000000" font-family="sans-serif" font-size="14" lengthAdjust="spacing" textLength="302.1328" x="547.15" y="645.1939">assert_contains(rel_path: str, text: str) -&gt; None</text><text fill="#000000" font-family="sans-serif" font-size="14" lengthAdjust="spacing" textLength="226.0571" x="547.15" y="664.2618">assert_exists(rel_path: str) -&gt; None</text><text fill="#000000" font-family="sans-serif" font-size="14" lengthAdjust="spacing" textLength="254.449" x="547.15" y="683.3297">assert_not_exists(rel_path: str) -&gt; None</text><text fill="#000000" font-family="sans-serif" font-size="14" lengthAdjust="spacing" textLength="175.4053" x="547.15" y="702.3976">mkdir(rel_path: str) -&gt; Path</text><text fill="#000000" font-family="sans-serif" font-size="14" lengthAdjust="spacing" textLength="232.3291" x="547.15" y="721.4655">populate(files: dict[str, str]) -&gt; None</text><text fill="#000000" font-family="sans-serif" font-size="14" lengthAdjust="spacing" textLength="248.0371" x="547.15" y="740.5334">read(rel_path: str, encoding: str) -&gt; str</text><text fill="#000000" font-family="sans-serif" font-size="14" lengthAdjust="spacing" textLength="346.5547" x="547.15" y="759.6014">write(rel_path: str, content: str, encoding: str) -&gt; Path</text></g><!--class dyno_lab.http._CapturedRequest--><g class="entity" data-qualified-name="dyno_lab.http._CapturedRequest" data-source-line="94" id="ent0017"><rect fill="#F1F1F1" height="124.2717" rx="2.5" ry="2.5" style="stroke:#181818;stroke-width:0.5;" width="206.4593" x="2316.19" y="353.28"/><ellipse cx="2355.2271" cy="369.28" fill="#ADD1B2" rx="11" ry="11" style="stroke:#181818;stroke-width:1;"/><path d="M2355.3365,364.8113 Q2354.4146,364.8113 2353.6802,365.1238 Q2352.9615,365.4363 2352.4615,366.03 Q2351.9615,366.6081 2351.6802,367.4831 Q2351.4146,368.3581 2351.4146,369.4519 Q2351.4146,370.8894 2351.8521,371.9363 Q2352.3052,372.9831 2353.149,373.53 Q2354.0083,374.0769 2355.3208,374.0769 Q2356.1021,374.0769 2356.7896,373.9519 Q2357.4927,373.8113 2358.4927,373.4988 L2358.4927,375.3738 Q2357.6333,375.7019 2356.8677,375.8269 Q2356.1177,375.9519 2355.1021,375.9519 Q2353.1802,375.9519 2351.8677,375.155 Q2350.5708,374.3425 2349.9146,372.8738 Q2349.2583,371.3894 2349.2583,369.4206 Q2349.2583,367.9988 2349.649,366.8269 Q2350.0552,365.6394 2350.8365,364.7644 Q2351.6177,363.8894 2352.7583,363.4206 Q2353.899,362.9363 2355.3677,362.9363 Q2356.3208,362.9363 2357.2115,363.1394 Q2358.1177,363.3269 2359.0552,363.7956 L2358.2271,365.5769 Q2357.4458,365.2019 2356.7896,365.0144 Q2356.1333,364.8113 2355.3365,364.8113 Z " fill="#000000"/><text fill="#000000" font-family="sans-serif" font-size="14" lengthAdjust="spacing" textLength="121.0435" x="2374.5687" y="374.712">_CapturedRequest</text><line style="stroke:#181818;stroke-width:0.5;" x1="2317.19" x2="2521.6493" y1="385.28" y2="385.28"/><text fill="#000000" font-family="sans-serif" font-size="14" lengthAdjust="spacing" textLength="141.3435" x="2322.19" y="404.2459">kwargs : dict[str, Any]</text><text fill="#000000" font-family="sans-serif" font-size="14" lengthAdjust="spacing" textLength="80.3457" x="2322.19" y="423.3139">method : str</text><text fill="#000000" font-family="sans-serif" font-size="14" lengthAdjust="spacing" textLength="194.4593" x="2322.19" y="442.3818">params : dict[str, Any] | None</text><text fill="#000000" font-family="sans-serif" font-size="14" lengthAdjust="spacing" textLength="46.6198" x="2322.19" y="461.4497">url : str</text><line style="stroke:#181818;stroke-width:0.5;" x1="2317.19" x2="2521.6493" y1="469.5517" y2="469.5517"/></g><!--class dyno_lab.http._FakeResponse--><g class="entity" data-qualified-name="dyno_lab.http._FakeResponse" data-source-line="100" id="ent0018"><rect fill="#F1F1F1" height="162.4075" rx="2.5" ry="2.5" style="stroke:#181818;stroke-width:0.5;" width="179.2294" x="934.81" y="586.22"/><ellipse cx="970.905" cy="602.22" fill="#ADD1B2" rx="11" ry="11" style="stroke:#181818;stroke-width:1;"/><path d="M971.0144,597.7513 Q970.0925,597.7513 969.3581,598.0638 Q968.6394,598.3763 968.1394,598.97 Q967.6394,599.5481 967.3581,600.4231 Q967.0925,601.2981 967.0925,602.3919 Q967.0925,603.8294 967.53,604.8763 Q967.9831,605.9231 968.8269,606.47 Q969.6862,607.0169 970.9987,607.0169 Q971.78,607.0169 972.4675,606.8919 Q973.1706,606.7513 974.1706,606.4388 L974.1706,608.3138 Q973.3112,608.6419 972.5456,608.7669 Q971.7956,608.8919 970.78,608.8919 Q968.8581,608.8919 967.5456,608.095 Q966.2487,607.2825 965.5925,605.8138 Q964.9362,604.3294 964.9362,602.3606 Q964.9362,600.9388 965.3269,599.7669 Q965.7331,598.5794 966.5144,597.7044 Q967.2956,596.8294 968.4362,596.3606 Q969.5769,595.8763 971.0456,595.8763 Q971.9987,595.8763 972.8894,596.0794 Q973.7956,596.2669 974.7331,596.7356 L973.905,598.5169 Q973.1237,598.1419 972.4675,597.9544 Q971.8112,597.7513 971.0144,597.7513 Z " fill="#000000"/><text fill="#000000" font-family="sans-serif" font-size="14" lengthAdjust="spacing" textLength="100.3516" x="989.5928" y="607.652">_FakeResponse</text><line style="stroke:#181818;stroke-width:0.5;" x1="935.81" x2="1113.0394" y1="618.22" y2="618.22"/><text fill="#000000" font-family="sans-serif" font-size="14" lengthAdjust="spacing" textLength="61.4038" x="940.81" y="637.1859">body : str</text><text fill="#000000" font-family="sans-serif" font-size="14" lengthAdjust="spacing" textLength="140.1115" x="940.81" y="656.2539">headers : dict[str, str]</text><text fill="#000000" font-family="sans-serif" font-size="14" lengthAdjust="spacing" textLength="106.2876" x="940.81" y="675.3218">status_code : int</text><text fill="#000000" font-family="sans-serif" font-size="14" lengthAdjust="spacing" textLength="53.9838" x="940.81" y="694.3897">text : str</text><line style="stroke:#181818;stroke-width:0.5;" x1="935.81" x2="1113.0394" y1="702.4917" y2="702.4917"/><text fill="#000000" font-family="sans-serif" font-size="14" lengthAdjust="spacing" textLength="80.3737" x="940.81" y="721.4576">json() -&gt; Any</text><text fill="#000000" font-family="sans-serif" font-size="14" lengthAdjust="spacing" textLength="167.2294" x="940.81" y="740.5255">raise_for_status() -&gt; None</text></g><!--link dyno_lab.http.SequenceSession to dyno_lab.http._CapturedRequest--><g class="link" data-entity-1="ent0009" data-entity-2="ent0017" data-link-type="dependency" data-source-line="108" id="lnk19"><path codeLine="108" d="M2271.87,198.3 C2304.3,245.79 2343.1573,302.7045 2374.1273,348.0745" fill="none" id="dyno_lab.http.SequenceSession-to-dyno_lab.http._CapturedRequest" style="stroke:#181818;stroke-width:1;"/><polygon fill="#181818" points="2377.51,353.03,2375.7396,343.3416,2374.6911,348.9004,2369.1323,347.8518,2377.51,353.03" style="stroke:#181818;stroke-width:1;"/><text fill="#000000" font-family="sans-serif" font-size="13" lengthAdjust="spacing" textLength="26.468" x="2334.16" y="290.577">calls</text></g><!--link dyno_lab.http.StaticSession to dyno_lab.http._CapturedRequest--><g class="link" data-entity-1="ent0014" data-entity-2="ent0017" data-link-type="dependency" data-source-line="109" id="lnk20"><path codeLine="109" d="M2579.11,179.33 C2545.97,228.13 2499.7313,296.1867 2464.6213,347.8767" fill="none" id="dyno_lab.http.StaticSession-to-dyno_lab.http._CapturedRequest" style="stroke:#181818;stroke-width:1;"/><polygon fill="#181818" points="2461.25,352.84,2469.6158,347.6426,2464.0594,348.7039,2462.9981,343.1475,2461.25,352.84" style="stroke:#181818;stroke-width:1;"/><text fill="#000000" font-family="sans-serif" font-size="13" lengthAdjust="spacing" textLength="26.468" x="2512.08" y="290.577">calls</text></g><!--link dyno_lab.proc.ProcessRecorder to dyno_lab.proc.CapturedCall--><g class="link" data-entity-1="ent0007" data-entity-2="ent0003" data-link-type="dependency" data-source-line="110" id="lnk21"><path codeLine="110" d="M1842.42,188.93 C1842.42,244.12 1842.42,317.62 1842.42,365.99" fill="none" id="dyno_lab.proc.ProcessRecorder-to-dyno_lab.proc.CapturedCall" style="stroke:#181818;stroke-width:1;"/><polygon fill="#181818" points="1842.42,371.99,1846.42,362.99,1842.42,366.99,1838.42,362.99,1842.42,371.99" style="stroke:#181818;stroke-width:1;"/><text fill="#000000" font-family="sans-serif" font-size="13" lengthAdjust="spacing" textLength="26.468" x="1843.42" y="290.577">calls</text></g><?plantuml-src hLVDRjiu4BxdAOXUgWAk7Y271G8t1GhijeLTO0yBGw2baSs69bLor3ZezjrtI4eK9SkED-t99kVluyVveImWK_m0jk4bhA7XXgCsJ6a5DwNarh9Nopy_V06BVucZKAyOjwnwKhgGV9kNKkIfbFsuOSoqgY11LhUgl6Ltwcd1kDdPMoQ5nNyicWtxbtqa_mjciHBgbdvCj_M6lVs3BQLOWMqbtloC47Y3hO5goQKSGsYCBlDKx36uW6mS4Tj6WbiiM9xd6r9wUEpKAb5Ya13QJHAr1p9pwbxamy5HO57g2iYPK4WxkiMcHURFHaiwA1YJBdKYfM1Wi20DRSYDGYwKpH2Ew3KyAOwTGRNcGjA1CpWsK29KFhYFdH8vjWcGhlDlsx84QxD154bvHpIu2rzo2sDUjhIJf-9m5TxZNKCNTRp_rdAPrS9OYbnBpP5o00XH5PS6PFn_iBkJv1ZXN7PdkPCowyu5fiivWN3eayvTwnNktb4UhDkj1Soi_vccne8zxhM4q-qhN9lx8q6nMSDnt-j-flzN69Cb7RM2BDxoWlKttosVzV5UIEZfci4Ga-5ALoy_ZBF-gF4tON6BJ_NlkFnFlZmYh50j7Om44IMwoz3Bw6AntAllTAPoFouKKD_pNk9hfA8Qy7qt8r6QNQvtlHdSVQPcHsMvSkhKK6OwuKJ3Uo-fArBPjmfZUt9RiK6ctTFrnL8V3bnLNVLxbGkDT1FwcL25KCHOQkKC1l0hBgnGkpN14teoIFQ8JJvMyD1tL8hfLJNQubnJMiEt5fGROEUSJpIk8gRecLavOukR3b5h-Wnmuz8bshWVfFbGlESFGAEYqSh64_oA0xArXOC9rLcgrmVjRKv6btM2F15twKSvxuyTvX6z1YpVGLoxzq5SDAvSAbfkjPPnNPWmiHbpeucWEPk-J8AxRjK56oRFwmJEQpSw7rviF26WLMfQ92a1NXoVBCHeuDCBrotLW7cQUEnspxhiv67kKMvDkGhSzEcLGD-anCu90xtsd9Gg1mfH5ntvSnNYBDnWFWlU2JtoqNN_u5lwmqlyIIGb1Atw-tRSMLx3gMo8ZHn5UQ4sKtcip1UK8TNE_ocwUVK1ThjjGZkTwU6-squqF7GhAYYWhcawCn-2zf0Ucj2_zwB_Bt1e_jRceHAJ9ArjdiYyLpSboTuDoE6L5fzoz6WguXnDnjNComx2u1vPpAWf_RpgmQ6R4NSW6zsqaYFGUq-2FPbgYIC3l9gUWNgrfg6o6zo6V7mqDDkdoeu8K7ZMr2EAl4_pQIOZfoh-3ivzBxY6YNjT9ItIvHSxqzL33vycmoW7vn2bSWzdgwkd679F588Pn_GpmGrdZgqTVvwu38csNwtkAZjaQ-WcDNsB1DDHExayLT-IuZDCteRYlhdK0bxYPlRvCt9q-gdOEVaF?></g></svg>
