<?plantuml 1.2026.2?><svg xmlns="http://www.w3.org/2000/svg" xmlns:xlink="http://www.w3.org/1999/xlink" contentStyleType="text/css" data-diagram-type="DESCRIPTION" height="227px" preserveAspectRatio="none" style="width:1506px;height:227px;background:#FFFFFF;" version="1.1" viewBox="0 0 1506 227" width="1506px" zoomAndPan="magnify"><defs/><g><!--entity dyno_lab--><g class="entity" data-qualified-name="dyno_lab" data-source-line="4" id="ent0002"><rect fill="#F1F1F1" height="96.2717" rx="2.5" ry="2.5" style="stroke:#181818;stroke-width:0.5;" width="175.2734" x="639.65" y="7"/><text fill="#000000" font-family="sans-serif" font-size="14" lengthAdjust="spacing" textLength="59.1638" x="649.65" y="31.9659">dyno_lab</text><text fill="#000000" font-family="sans-serif" font-size="14" lengthAdjust="spacing" textLength="155.2734" x="649.65" y="51.0339">0 child pkg, 11 modules</text><text fill="#000000" font-family="sans-serif" font-size="14" lengthAdjust="spacing" textLength="96.5156" x="649.65" y="70.1018">12 python files</text><text fill="#000000" font-family="sans-serif" font-size="14" lengthAdjust="spacing" textLength="153.9154" x="649.65" y="89.1697">examples: base, cli, env</text></g><!--entity dyno_lab.base--><g class="entity" data-qualified-name="dyno_lab.base" data-source-line="5" id="ent0003"><rect fill="#F1F1F1" height="58.1358" rx="2.5" ry="2.5" style="stroke:#181818;stroke-width:0.5;" width="113.9816" x="742.3" y="163.27"/><text fill="#000000" font-family="sans-serif" font-size="14" lengthAdjust="spacing" textLength="93.9816" x="752.3" y="188.2359">dyno_lab.base</text><text fill="#000000" font-family="sans-serif" font-size="14" lengthAdjust="spacing" textLength="81.8017" x="752.3" y="207.3039">1 python file</text></g><!--entity dyno_lab.cli--><g class="entity" data-qualified-name="dyno_lab.cli" data-source-line="6" id="ent0004"><rect fill="#F1F1F1" height="58.1358" rx="2.5" ry="2.5" style="stroke:#181818;stroke-width:0.5;" width="101.8017" x="605.39" y="163.27"/><text fill="#000000" font-family="sans-serif" font-size="14" lengthAdjust="spacing" textLength="76.8597" x="615.39" y="188.2359">dyno_lab.cli</text><text fill="#000000" font-family="sans-serif" font-size="14" lengthAdjust="spacing" textLength="81.8017" x="615.39" y="207.3039">1 python file</text></g><!--entity dyno_lab.env--><g class="entity" data-qualified-name="dyno_lab.env" data-source-line="7" id="ent0005"><rect fill="#F1F1F1" height="58.1358" rx="2.5" ry="2.5" style="stroke:#181818;stroke-width:0.5;" width="106.5757" x="7" y="163.27"/><text fill="#000000" font-family="sans-serif" font-size="14" lengthAdjust="spacing" textLength="86.5757" x="17" y="188.2359">dyno_lab.env</text><text fill="#000000" font-family="sans-serif" font-size="14" lengthAdjust="spacing" textLength="81.8017" x="17" y="207.3039">1 python file</text></g><!--entity dyno_lab.fixtures--><g class="entity" data-qualified-name="dyno_lab.fixtures" data-source-line="8" id="ent0006"><rect fill="#F1F1F1" height="58.1358" rx="2.5" ry="2.5" style="stroke:#181818;stroke-width:0.5;" width="132.8396" x="287.87" y="26.07"/><text fill="#000000" font-family="sans-serif" font-size="14" lengthAdjust="spacing" textLength="112.8396" x="297.87" y="51.0359">dyno_lab.fixtures</text><text fill="#000000" font-family="sans-serif" font-size="14" lengthAdjust="spacing" textLength="81.8017" x="297.87" y="70.1039">1 python file</text></g><!--entity dyno_lab.fs--><g class="entity" data-qualified-name="dyno_lab.fs" data-source-line="9" id="ent0007"><rect fill="#F1F1F1" height="58.1358" rx="2.5" ry="2.5" style="stroke:#181818;stroke-width:0.5;" width="101.8017" x="148.39" y="163.27"/><text fill="#000000" font-family="sans-serif" font-size="14" lengthAdjust="spacing" textLength="74.4377" x="158.39" y="188.2359">dyno_lab.fs</text><text fill="#000000" font-family="sans-serif" font-size="14" lengthAdjust="spacing" textLength="81.8017" x="158.39" y="207.3039">1 python file</text></g><!--entity dyno_lab.http--><g class="entity" data-qualified-name="dyno_lab.http" data-source-line="10" id="ent0008"><rect fill="#F1F1F1" height="58.1358" rx="2.5" ry="2.5" style="stroke:#181818;stroke-width:0.5;" width="110.2857" x="891.14" y="163.27"/><text fill="#000000" font-family="sans-serif" font-size="14" lengthAdjust="spacing" textLength="90.2857" x="901.14" y="188.2359">dyno_lab.http</text><text fill="#000000" font-family="sans-serif" font-size="14" lengthAdjust="spacing" textLength="81.8017" x="901.14" y="207.3039">1 python file</text></g><!--entity dyno_lab.markers--><g class="entity" data-qualified-name="dyno_lab.markers" data-source-line="11" id="ent0009"><rect fill="#F1F1F1" height="58.1358" rx="2.5" ry="2.5" style="stroke:#181818;stroke-width:0.5;" width="137.5016" x="285.54" y="163.27"/><text fill="#000000" font-family="sans-serif" font-size="14" lengthAdjust="spacing" textLength="117.5016" x="295.54" y="188.2359">dyno_lab.markers</text><text fill="#000000" font-family="sans-serif" font-size="14" lengthAdjust="spacing" textLength="81.8017" x="295.54" y="207.3039">1 python file</text></g><!--entity dyno_lab.module--><g class="entity" data-qualified-name="dyno_lab.module" data-source-line="12" id="ent0010"><rect fill="#F1F1F1" height="58.1358" rx="2.5" ry="2.5" style="stroke:#181818;stroke-width:0.5;" width="133.2456" x="1036.67" y="163.27"/><text fill="#000000" font-family="sans-serif" font-size="14" lengthAdjust="spacing" textLength="113.2456" x="1046.67" y="188.2359">dyno_lab.module</text><text fill="#000000" font-family="sans-serif" font-size="14" lengthAdjust="spacing" textLength="81.8017" x="1046.67" y="207.3039">1 python file</text></g><!--entity dyno_lab.proc--><g class="entity" data-qualified-name="dyno_lab.proc" data-source-line="13" id="ent0011"><rect fill="#F1F1F1" height="58.1358" rx="2.5" ry="2.5" style="stroke:#181818;stroke-width:0.5;" width="112.4977" x="458.04" y="163.27"/><text fill="#000000" font-family="sans-serif" font-size="14" lengthAdjust="spacing" textLength="92.4977" x="468.04" y="188.2359">dyno_lab.proc</text><text fill="#000000" font-family="sans-serif" font-size="14" lengthAdjust="spacing" textLength="81.8017" x="468.04" y="207.3039">1 python file</text></g><!--entity dyno_lab.schema--><g class="entity" data-qualified-name="dyno_lab.schema" data-source-line="14" id="ent0012"><rect fill="#F1F1F1" height="58.1358" rx="2.5" ry="2.5" style="stroke:#181818;stroke-width:0.5;" width="133.8336" x="1205.37" y="163.27"/><text fill="#000000" font-family="sans-serif" font-size="14" lengthAdjust="spacing" textLength="113.8336" x="1215.37" y="188.2359">dyno_lab.schema</text><text fill="#000000" font-family="sans-serif" font-size="14" lengthAdjust="spacing" textLength="81.8017" x="1215.37" y="207.3039">1 python file</text></g><!--entity dyno_lab.smoke--><g class="entity" data-qualified-name="dyno_lab.smoke" data-source-line="15" id="ent0013"><rect fill="#F1F1F1" height="58.1358" rx="2.5" ry="2.5" style="stroke:#181818;stroke-width:0.5;" width="126.5536" x="1374.01" y="163.27"/><text fill="#000000" font-family="sans-serif" font-size="14" lengthAdjust="spacing" textLength="106.5536" x="1384.01" y="188.2359">dyno_lab.smoke</text><text fill="#000000" font-family="sans-serif" font-size="14" lengthAdjust="spacing" textLength="81.8017" x="1384.01" y="207.3039">1 python file</text></g><!--link dyno_lab to dyno_lab.base--><g class="link" data-entity-1="ent0002" data-entity-2="ent0003" data-link-type="dependency" data-source-line="16" id="lnk14"><path d="M752.47,103.43 C763.01,123.23 772.0985,140.2948 781.2685,157.5048" fill="none" id="dyno_lab-to-dyno_lab.base" style="stroke:#181818;stroke-width:1;"/><polygon fill="#181818" points="784.09,162.8,783.388,152.9762,781.7388,158.3873,776.3277,156.7381,784.09,162.8" style="stroke:#181818;stroke-width:1;"/></g><!--link dyno_lab to dyno_lab.cli--><g class="link" data-entity-1="ent0002" data-entity-2="ent0004" data-link-type="dependency" data-source-line="17" id="lnk15"><path d="M702.46,103.43 C692.06,123.23 683.1126,140.2795 674.0626,157.4895" fill="none" id="dyno_lab-to-dyno_lab.cli" style="stroke:#181818;stroke-width:1;"/><polygon fill="#181818" points="671.27,162.8,678.9992,156.6959,673.5971,158.3746,671.9185,152.9725,671.27,162.8" style="stroke:#181818;stroke-width:1;"/></g><!--link dyno_lab to dyno_lab.env--><g class="link" data-entity-1="ent0002" data-entity-2="ent0005" data-link-type="dependency" data-source-line="18" id="lnk16"><path d="M639.36,70.95 C485.56,97.01 179.41,149.58 131.29,163.27 C125.55,164.91 125.2963,164.8285 119.4463,166.8985" fill="none" id="dyno_lab-to-dyno_lab.env" style="stroke:#181818;stroke-width:1;"/><polygon fill="#181818" points="113.79,168.9,123.6088,169.6687,118.5036,167.2321,120.9402,162.1269,113.79,168.9" style="stroke:#181818;stroke-width:1;"/></g><!--link dyno_lab to dyno_lab.fs--><g class="link" data-entity-1="ent0002" data-entity-2="ent0007" data-link-type="dependency" data-source-line="19" id="lnk17"><path d="M639.47,72.37 C546.26,90.58 395.21,122.92 268.29,163.27 C262.5,165.12 262.118,165.1233 256.198,167.3433" fill="none" id="dyno_lab-to-dyno_lab.fs" style="stroke:#181818;stroke-width:1;"/><polygon fill="#181818" points="250.58,169.45,260.4115,170.0352,255.2616,167.6944,257.6025,162.5446,250.58,169.45" style="stroke:#181818;stroke-width:1;"/></g><!--link dyno_lab to dyno_lab.http--><g class="link" data-entity-1="ent0002" data-entity-2="ent0008" data-link-type="dependency" data-source-line="20" id="lnk18"><path d="M804.19,103.62 C836.24,123.4 867.2747,142.5579 895.0847,159.7279" fill="none" id="dyno_lab-to-dyno_lab.http" style="stroke:#181818;stroke-width:1;"/><polygon fill="#181818" points="900.19,162.88,894.6334,154.7484,895.9355,160.2533,890.4306,161.5555,900.19,162.88" style="stroke:#181818;stroke-width:1;"/></g><!--link dyno_lab to dyno_lab.markers--><g class="link" data-entity-1="ent0002" data-entity-2="ent0009" data-link-type="dependency" data-source-line="21" id="lnk19"><path d="M639.36,88.01 C573.35,111.94 489.8509,142.2055 428.9309,164.2855" fill="none" id="dyno_lab-to-dyno_lab.markers" style="stroke:#181818;stroke-width:1;"/><polygon fill="#181818" points="423.29,166.33,433.1144,167.0238,427.9908,164.6262,430.3884,159.5026,423.29,166.33" style="stroke:#181818;stroke-width:1;"/></g><!--link dyno_lab to dyno_lab.module--><g class="link" data-entity-1="ent0002" data-entity-2="ent0010" data-link-type="dependency" data-source-line="22" id="lnk20"><path d="M814.97,87.67 C882.56,111.97 968.9839,143.0498 1030.7239,165.2498" fill="none" id="dyno_lab-to-dyno_lab.module" style="stroke:#181818;stroke-width:1;"/><polygon fill="#181818" points="1036.37,167.28,1029.2543,160.4707,1031.6649,165.5882,1026.5474,167.9988,1036.37,167.28" style="stroke:#181818;stroke-width:1;"/></g><!--link dyno_lab to dyno_lab.proc--><g class="link" data-entity-1="ent0002" data-entity-2="ent0011" data-link-type="dependency" data-source-line="23" id="lnk21"><path d="M652.49,103.62 C621.33,123.4 591.2357,142.4946 564.1857,159.6646" fill="none" id="dyno_lab-to-dyno_lab.proc" style="stroke:#181818;stroke-width:1;"/><polygon fill="#181818" points="559.12,162.88,568.8621,161.434,563.3414,160.2005,564.5749,154.6797,559.12,162.88" style="stroke:#181818;stroke-width:1;"/></g><!--link dyno_lab to dyno_lab.schema--><g class="link" data-entity-1="ent0002" data-entity-2="ent0012" data-link-type="dependency" data-source-line="24" id="lnk22"><path d="M815.21,74.15 C908.24,93.78 1059.01,127.23 1187.29,163.27 C1193.12,164.91 1193.4166,164.9315 1199.4466,166.7915" fill="none" id="dyno_lab-to-dyno_lab.schema" style="stroke:#181818;stroke-width:1;"/><polygon fill="#181818" points="1205.18,168.56,1197.7589,162.0849,1200.4021,167.0862,1195.4008,169.7295,1205.18,168.56" style="stroke:#181818;stroke-width:1;"/></g><!--link dyno_lab to dyno_lab.smoke--><g class="link" data-entity-1="ent0002" data-entity-2="ent0013" data-link-type="dependency" data-source-line="25" id="lnk23"><path d="M815.24,66.46 C937.74,81.89 1166.1,114.48 1356.29,163.27 C1362.05,164.75 1362.2649,164.6968 1368.1849,166.5168" fill="none" id="dyno_lab-to-dyno_lab.smoke" style="stroke:#181818;stroke-width:1;"/><polygon fill="#181818" points="1373.92,168.28,1366.4928,161.8119,1369.1408,166.8107,1364.1419,169.4587,1373.92,168.28" style="stroke:#181818;stroke-width:1;"/></g><!--link dyno_lab.fixtures to dyno_lab.cli--><g class="link" data-entity-1="ent0006" data-entity-2="ent0004" data-link-type="dependency" data-source-line="26" id="lnk24"><path d="M417.97,84.65 C473.69,109.59 548.1036,142.9087 599.7336,166.0187" fill="none" id="dyno_lab.fixtures-to-dyno_lab.cli" style="stroke:#181818;stroke-width:1;"/><polygon fill="#181818" points="605.21,168.47,598.6296,161.1421,600.6463,166.4273,595.3612,168.444,605.21,168.47" style="stroke:#181818;stroke-width:1;"/></g><!--link dyno_lab.fixtures to dyno_lab.env--><g class="link" data-entity-1="ent0006" data-entity-2="ent0005" data-link-type="dependency" data-source-line="27" id="lnk25"><path d="M292.3,84.65 C239.4,108.97 169.571,141.0828 119.261,164.2228" fill="none" id="dyno_lab.fixtures-to-dyno_lab.env" style="stroke:#181818;stroke-width:1;"/><polygon fill="#181818" points="113.81,166.73,123.658,166.6032,118.3525,164.6407,120.3151,159.3352,113.81,166.73" style="stroke:#181818;stroke-width:1;"/></g><!--link dyno_lab.fixtures to dyno_lab.fs--><g class="link" data-entity-1="ent0006" data-entity-2="ent0007" data-link-type="dependency" data-source-line="28" id="lnk26"><path d="M321.79,84.48 C295.43,107.48 262.9519,135.8064 236.5219,158.8564" fill="none" id="dyno_lab.fixtures-to-dyno_lab.fs" style="stroke:#181818;stroke-width:1;"/><polygon fill="#181818" points="232,162.8,241.412,159.8992,235.7683,159.5136,236.1538,153.8699,232,162.8" style="stroke:#181818;stroke-width:1;"/></g><!--link dyno_lab.fixtures to dyno_lab.markers--><g class="link" data-entity-1="ent0006" data-entity-2="ent0009" data-link-type="dependency" data-source-line="29" id="lnk27"><path d="M354.29,84.48 C354.29,107.56 354.29,133.97 354.29,157.04" fill="none" id="dyno_lab.fixtures-to-dyno_lab.markers" style="stroke:#181818;stroke-width:1;"/><polygon fill="#181818" points="354.29,163.04,358.29,154.04,354.29,158.04,350.29,154.04,354.29,163.04" style="stroke:#181818;stroke-width:1;"/></g><!--link dyno_lab.fixtures to dyno_lab.proc--><g class="link" data-entity-1="ent0006" data-entity-2="ent0011" data-link-type="dependency" data-source-line="30" id="lnk28"><path d="M387.83,84.48 C415.04,107.48 448.6569,135.8776 475.9369,158.9276" fill="none" id="dyno_lab.fixtures-to-dyno_lab.proc" style="stroke:#181818;stroke-width:1;"/><polygon fill="#181818" points="480.52,162.8,476.227,153.936,476.7008,159.573,471.0638,160.0467,480.52,162.8" style="stroke:#181818;stroke-width:1;"/></g><?plantuml-src XPB1Zi8W48RlVOg9PzsiUzp3leHNamsbeoKj387HwDile3Lg1lP6-t_V0CD4P73AOlHAumwz2eefW2E77PC79kY9cImC9g1cGwwBat4PjA39-aGwtl5rHiY0SiSPkySALiFLqU-i-htx13sQUG0_7TUmtOAbuJHZtBlj5_WhZ-JWOCeFl2Zhq-eRUXLn3NesQq1tNe6Ai1IKDld8V2huNEz5Ae1efZsQOif5BnshwQLSz0xcmgTGhb-N5qYky8yhMoEpRteP44shmeIXlUcTaVtotcsz8ABj0-cccm7HZ7f4gvhk3P5jIrFxq8Neba_OR7xUnasEya39IHuPEKblAWVbqUHeUP9AUkku79QMoj6zOvNmfIEFAQxVlu8yDwA2F7MaGhpVluBbk_u1?></g></svg>
