<?plantuml 1.2026.2?><svg xmlns="http://www.w3.org/2000/svg" xmlns:xlink="http://www.w3.org/1999/xlink" contentStyleType="text/css" data-diagram-type="DESCRIPTION" height="227px" preserveAspectRatio="none" style="width:2122px;height:227px;background:#FFFFFF;" version="1.1" viewBox="0 0 2122 227" width="2122px" zoomAndPan="magnify"><defs/><g><!--entity dyno_lab--><g class="entity" data-qualified-name="dyno_lab" data-source-line="4" id="ent0002"><rect fill="#F1F1F1" height="96.2717" rx="2.5" ry="2.5" style="stroke:#181818;stroke-width:0.5;" width="175.2734" x="957.26" y="7"/><text fill="#000000" font-family="sans-serif" font-size="14" lengthAdjust="spacing" textLength="59.1638" x="967.26" y="31.9659">dyno_lab</text><text fill="#000000" font-family="sans-serif" font-size="14" lengthAdjust="spacing" textLength="155.2734" x="967.26" y="51.0339">0 child pkg, 15 modules</text><text fill="#000000" font-family="sans-serif" font-size="14" lengthAdjust="spacing" textLength="96.5156" x="967.26" y="70.1018">16 python files</text><text fill="#000000" font-family="sans-serif" font-size="14" lengthAdjust="spacing" textLength="153.9154" x="967.26" y="89.1697">examples: base, cli, env</text></g><!--entity dyno_lab.base--><g class="entity" data-qualified-name="dyno_lab.base" data-source-line="5" id="ent0003"><rect fill="#F1F1F1" height="58.1358" rx="2.5" ry="2.5" style="stroke:#181818;stroke-width:0.5;" width="113.9816" x="1856.91" y="163.27"/><text fill="#000000" font-family="sans-serif" font-size="14" lengthAdjust="spacing" textLength="93.9816" x="1866.91" y="188.2359">dyno_lab.base</text><text fill="#000000" font-family="sans-serif" font-size="14" lengthAdjust="spacing" textLength="81.8017" x="1866.91" y="207.3039">1 python file</text></g><!--entity dyno_lab.cli--><g class="entity" data-qualified-name="dyno_lab.cli" data-source-line="6" id="ent0004"><rect fill="#F1F1F1" height="58.1358" rx="2.5" ry="2.5" style="stroke:#181818;stroke-width:0.5;" width="101.8017" x="7" y="163.27"/><text fill="#000000" font-family="sans-serif" font-size="14" lengthAdjust="spacing" textLength="76.8597" x="17" y="188.2359">dyno_lab.cli</text><text fill="#000000" font-family="sans-serif" font-size="14" lengthAdjust="spacing" textLength="81.8017" x="17" y="207.3039">1 python file</text></g><!--entity dyno_lab.env--><g class="entity" data-qualified-name="dyno_lab.env" data-source-line="7" id="ent0005"><rect fill="#F1F1F1" height="58.1358" rx="2.5" ry="2.5" style="stroke:#181818;stroke-width:0.5;" width="106.5757" x="143.61" y="163.27"/><text fill="#000000" font-family="sans-serif" font-size="14" lengthAdjust="spacing" textLength="86.5757" x="153.61" y="188.2359">dyno_lab.env</text><text fill="#000000" font-family="sans-serif" font-size="14" lengthAdjust="spacing" textLength="81.8017" x="153.61" y="207.3039">1 python file</text></g><!--entity dyno_lab.fixtures--><g class="entity" data-qualified-name="dyno_lab.fixtures" data-source-line="8" id="ent0006"><rect fill="#F1F1F1" height="58.1358" rx="2.5" ry="2.5" style="stroke:#181818;stroke-width:0.5;" width="132.8396" x="347.48" y="26.07"/><text fill="#000000" font-family="sans-serif" font-size="14" lengthAdjust="spacing" textLength="112.8396" x="357.48" y="51.0359">dyno_lab.fixtures</text><text fill="#000000" font-family="sans-serif" font-size="14" lengthAdjust="spacing" textLength="81.8017" x="357.48" y="70.1039">1 python file</text></g><!--entity dyno_lab.fs--><g class="entity" data-qualified-name="dyno_lab.fs" data-source-line="9" id="ent0007"><rect fill="#F1F1F1" height="58.1358" rx="2.5" ry="2.5" style="stroke:#181818;stroke-width:0.5;" width="101.8017" x="285" y="163.27"/><text fill="#000000" font-family="sans-serif" font-size="14" lengthAdjust="spacing" textLength="74.4377" x="295" y="188.2359">dyno_lab.fs</text><text fill="#000000" font-family="sans-serif" font-size="14" lengthAdjust="spacing" textLength="81.8017" x="295" y="207.3039">1 python file</text></g><!--entity dyno_lab.http--><g class="entity" data-qualified-name="dyno_lab.http" data-source-line="10" id="ent0008"><rect fill="#F1F1F1" height="58.1358" rx="2.5" ry="2.5" style="stroke:#181818;stroke-width:0.5;" width="110.2857" x="2005.76" y="163.27"/><text fill="#000000" font-family="sans-serif" font-size="14" lengthAdjust="spacing" textLength="90.2857" x="2015.76" y="188.2359">dyno_lab.http</text><text fill="#000000" font-family="sans-serif" font-size="14" lengthAdjust="spacing" textLength="81.8017" x="2015.76" y="207.3039">1 python file</text></g><!--entity dyno_lab.log--><g class="entity" data-qualified-name="dyno_lab.log" data-source-line="11" id="ent0009"><rect fill="#F1F1F1" height="58.1358" rx="2.5" ry="2.5" style="stroke:#181818;stroke-width:0.5;" width="103.6077" x="917.1" y="163.27"/><text fill="#000000" font-family="sans-serif" font-size="14" lengthAdjust="spacing" textLength="83.6077" x="927.1" y="188.2359">dyno_lab.log</text><text fill="#000000" font-family="sans-serif" font-size="14" lengthAdjust="spacing" textLength="81.8017" x="927.1" y="207.3039">1 python file</text></g><!--entity dyno_lab.markers--><g class="entity" data-qualified-name="dyno_lab.markers" data-source-line="12" id="ent0010"><rect fill="#F1F1F1" height="58.1358" rx="2.5" ry="2.5" style="stroke:#181818;stroke-width:0.5;" width="137.5016" x="422.15" y="163.27"/><text fill="#000000" font-family="sans-serif" font-size="14" lengthAdjust="spacing" textLength="117.5016" x="432.15" y="188.2359">dyno_lab.markers</text><text fill="#000000" font-family="sans-serif" font-size="14" lengthAdjust="spacing" textLength="81.8017" x="432.15" y="207.3039">1 python file</text></g><!--entity dyno_lab.module--><g class="entity" data-qualified-name="dyno_lab.module" data-source-line="13" id="ent0011"><rect fill="#F1F1F1" height="58.1358" rx="2.5" ry="2.5" style="stroke:#181818;stroke-width:0.5;" width="133.2456" x="1055.28" y="163.27"/><text fill="#000000" font-family="sans-serif" font-size="14" lengthAdjust="spacing" textLength="113.2456" x="1065.28" y="188.2359">dyno_lab.module</text><text fill="#000000" font-family="sans-serif" font-size="14" lengthAdjust="spacing" textLength="81.8017" x="1065.28" y="207.3039">1 python file</text></g><!--entity dyno_lab.patch--><g class="entity" data-qualified-name="dyno_lab.patch" data-source-line="14" id="ent0012"><rect fill="#F1F1F1" height="58.1358" rx="2.5" ry="2.5" style="stroke:#181818;stroke-width:0.5;" width="119.8056" x="1224" y="163.27"/><text fill="#000000" font-family="sans-serif" font-size="14" lengthAdjust="spacing" textLength="99.8056" x="1234" y="188.2359">dyno_lab.patch</text><text fill="#000000" font-family="sans-serif" font-size="14" lengthAdjust="spacing" textLength="81.8017" x="1234" y="207.3039">1 python file</text></g><!--entity dyno_lab.preflight--><g class="entity" data-qualified-name="dyno_lab.preflight" data-source-line="15" id="ent0013"><rect fill="#F1F1F1" height="58.1358" rx="2.5" ry="2.5" style="stroke:#181818;stroke-width:0.5;" width="139.5595" x="595.12" y="163.27"/><text fill="#000000" font-family="sans-serif" font-size="14" lengthAdjust="spacing" textLength="119.5595" x="605.12" y="188.2359">dyno_lab.preflight</text><text fill="#000000" font-family="sans-serif" font-size="14" lengthAdjust="spacing" textLength="81.8017" x="605.12" y="207.3039">1 python file</text></g><!--entity dyno_lab.proc--><g class="entity" data-qualified-name="dyno_lab.proc" data-source-line="16" id="ent0014"><rect fill="#F1F1F1" height="58.1358" rx="2.5" ry="2.5" style="stroke:#181818;stroke-width:0.5;" width="112.4977" x="769.65" y="163.27"/><text fill="#000000" font-family="sans-serif" font-size="14" lengthAdjust="spacing" textLength="92.4977" x="779.65" y="188.2359">dyno_lab.proc</text><text fill="#000000" font-family="sans-serif" font-size="14" lengthAdjust="spacing" textLength="81.8017" x="779.65" y="207.3039">1 python file</text></g><!--entity dyno_lab.schema--><g class="entity" data-qualified-name="dyno_lab.schema" data-source-line="17" id="ent0015"><rect fill="#F1F1F1" height="58.1358" rx="2.5" ry="2.5" style="stroke:#181818;stroke-width:0.5;" width="133.8336" x="1378.98" y="163.27"/><text fill="#000000" font-family="sans-serif" font-size="14" lengthAdjust="spacing" textLength="113.8336" x="1388.98" y="188.2359">dyno_lab.schema</text><text fill="#000000" font-family="sans-serif" font-size="14" lengthAdjust="spacing" textLength="81.8017" x="1388.98" y="207.3039">1 python file</text></g><!--entity dyno_lab.smoke--><g class="entity" data-qualified-name="dyno_lab.smoke" data-source-line="18" id="ent0016"><rect fill="#F1F1F1" height="58.1358" rx="2.5" ry="2.5" style="stroke:#181818;stroke-width:0.5;" width="126.5536" x="1547.62" y="163.27"/><text fill="#000000" font-family="sans-serif" font-size="14" lengthAdjust="spacing" textLength="106.5536" x="1557.62" y="188.2359">dyno_lab.smoke</text><text fill="#000000" font-family="sans-serif" font-size="14" lengthAdjust="spacing" textLength="81.8017" x="1557.62" y="207.3039">1 python file</text></g><!--entity dyno_lab.time--><g class="entity" data-qualified-name="dyno_lab.time" data-source-line="19" id="ent0017"><rect fill="#F1F1F1" height="58.1358" rx="2.5" ry="2.5" style="stroke:#181818;stroke-width:0.5;" width="112.5676" x="1709.62" y="163.27"/><text fill="#000000" font-family="sans-serif" font-size="14" lengthAdjust="spacing" textLength="92.5676" x="1719.62" y="188.2359">dyno_lab.time</text><text fill="#000000" font-family="sans-serif" font-size="14" lengthAdjust="spacing" textLength="81.8017" x="1719.62" y="207.3039">1 python file</text></g><!--link dyno_lab to dyno_lab.base--><g class="link" data-entity-1="ent0002" data-entity-2="ent0003" data-link-type="dependency" data-source-line="20" id="lnk18"><path d="M1132.9,61.41 C1280.85,71.73 1587.96,99.41 1839.9,163.27 C1845.36,164.66 1845.2637,164.4657 1850.8337,166.2757" fill="none" id="dyno_lab-to-dyno_lab.base" style="stroke:#181818;stroke-width:1;"/><polygon fill="#181818" points="1856.54,168.13,1849.2168,161.5444,1851.7848,166.5848,1846.7444,169.1528,1856.54,168.13" style="stroke:#181818;stroke-width:1;"/></g><!--link dyno_lab to dyno_lab.cli--><g class="link" data-entity-1="ent0002" data-entity-2="ent0004" data-link-type="dependency" data-source-line="21" id="lnk19"><path d="M956.77,63.3 C758.39,79.92 281.97,122.8 125.9,163.27 C120.34,164.72 120.287,164.5205 114.657,166.5105" fill="none" id="dyno_lab-to-dyno_lab.cli" style="stroke:#181818;stroke-width:1;"/><polygon fill="#181818" points="109,168.51,118.8186,169.282,113.7142,166.8437,116.1525,161.7393,109,168.51" style="stroke:#181818;stroke-width:1;"/></g><!--link dyno_lab to dyno_lab.env--><g class="link" data-entity-1="ent0002" data-entity-2="ent0005" data-link-type="dependency" data-source-line="22" id="lnk20"><path d="M957.04,61.38 C811.64,71.58 512.71,99 267.9,163.27 C262.13,164.79 261.8735,164.6876 256.0035,166.7076" fill="none" id="dyno_lab-to-dyno_lab.env" style="stroke:#181818;stroke-width:1;"/><polygon fill="#181818" points="250.33,168.66,260.1418,169.5138,255.0579,167.033,257.5386,161.9491,250.33,168.66" style="stroke:#181818;stroke-width:1;"/></g><!--link dyno_lab to dyno_lab.fs--><g class="link" data-entity-1="ent0002" data-entity-2="ent0007" data-link-type="dependency" data-source-line="23" id="lnk21"><path d="M956.86,64.66 C832.21,78.12 597.97,108.57 404.9,163.27 C399.05,164.93 398.6729,164.891 392.7229,167.041" fill="none" id="dyno_lab-to-dyno_lab.fs" style="stroke:#181818;stroke-width:1;"/><polygon fill="#181818" points="387.08,169.08,396.9037,169.7834,391.7824,167.3808,394.185,162.2595,387.08,169.08" style="stroke:#181818;stroke-width:1;"/></g><!--link dyno_lab to dyno_lab.http--><g class="link" data-entity-1="ent0002" data-entity-2="ent0008" data-link-type="dependency" data-source-line="24" id="lnk22"><path d="M1132.98,58.71 C1301.37,65.25 1679.62,87.8 1987.9,163.27 C1993.7,164.69 1993.9702,164.5858 1999.8702,166.5258" fill="none" id="dyno_lab-to-dyno_lab.http" style="stroke:#181818;stroke-width:1;"/><polygon fill="#181818" points="2005.57,168.4,1998.2698,161.7889,2000.8202,166.8382,1995.7709,169.3886,2005.57,168.4" style="stroke:#181818;stroke-width:1;"/></g><!--link dyno_lab to dyno_lab.log--><g class="link" data-entity-1="ent0002" data-entity-2="ent0009" data-link-type="dependency" data-source-line="25" id="lnk23"><path d="M1018.32,103.43 C1007.19,123.23 997.5614,140.3605 987.8814,157.5705" fill="none" id="dyno_lab-to-dyno_lab.log" style="stroke:#181818;stroke-width:1;"/><polygon fill="#181818" points="984.94,162.8,992.8385,156.9166,987.3912,158.4421,985.8658,152.9947,984.94,162.8" style="stroke:#181818;stroke-width:1;"/></g><!--link dyno_lab to dyno_lab.markers--><g class="link" data-entity-1="ent0002" data-entity-2="ent0010" data-link-type="dependency" data-source-line="26" id="lnk24"><path d="M956.97,73.94 C862.67,93.58 708.82,127.21 577.9,163.27 C572.09,164.88 571.8251,164.8898 565.8151,166.6998" fill="none" id="dyno_lab-to-dyno_lab.markers" style="stroke:#181818;stroke-width:1;"/><polygon fill="#181818" points="560.07,168.43,569.8412,169.6647,564.8576,166.9881,567.5342,162.0046,560.07,168.43" style="stroke:#181818;stroke-width:1;"/></g><!--link dyno_lab to dyno_lab.module--><g class="link" data-entity-1="ent0002" data-entity-2="ent0011" data-link-type="dependency" data-source-line="27" id="lnk25"><path d="M1071.83,103.43 C1083.11,123.23 1092.8687,140.3774 1102.6787,157.5874" fill="none" id="dyno_lab-to-dyno_lab.module" style="stroke:#181818;stroke-width:1;"/><polygon fill="#181818" points="1105.65,162.8,1104.6682,153.0002,1103.1739,158.4561,1097.718,156.9619,1105.65,162.8" style="stroke:#181818;stroke-width:1;"/></g><!--link dyno_lab to dyno_lab.patch--><g class="link" data-entity-1="ent0002" data-entity-2="ent0012" data-link-type="dependency" data-source-line="28" id="lnk26"><path d="M1128.83,103.62 C1163.8,123.4 1198.0174,142.7564 1228.3774,159.9264" fill="none" id="dyno_lab-to-dyno_lab.patch" style="stroke:#181818;stroke-width:1;"/><polygon fill="#181818" points="1233.6,162.88,1227.7351,154.9678,1229.2478,160.4186,1223.7969,161.9313,1233.6,162.88" style="stroke:#181818;stroke-width:1;"/></g><!--link dyno_lab to dyno_lab.preflight--><g class="link" data-entity-1="ent0002" data-entity-2="ent0013" data-link-type="dependency" data-source-line="29" id="lnk27"><path d="M956.77,87.5 C889.35,111.48 803.2829,142.1088 740.7729,164.3488" fill="none" id="dyno_lab-to-dyno_lab.preflight" style="stroke:#181818;stroke-width:1;"/><polygon fill="#181818" points="735.12,166.36,744.9401,167.1118,739.8307,164.684,742.2585,159.5746,735.12,166.36" style="stroke:#181818;stroke-width:1;"/></g><!--link dyno_lab to dyno_lab.proc--><g class="link" data-entity-1="ent0002" data-entity-2="ent0014" data-link-type="dependency" data-source-line="30" id="lnk28"><path d="M968,103.62 C935.95,123.4 904.9153,142.5579 877.1053,159.7279" fill="none" id="dyno_lab-to-dyno_lab.proc" style="stroke:#181818;stroke-width:1;"/><polygon fill="#181818" points="872,162.88,881.7594,161.5555,876.2545,160.2533,877.5566,154.7484,872,162.88" style="stroke:#181818;stroke-width:1;"/></g><!--link dyno_lab to dyno_lab.schema--><g class="link" data-entity-1="ent0002" data-entity-2="ent0015" data-link-type="dependency" data-source-line="31" id="lnk29"><path d="M1132.9,85.81 C1206.91,110.76 1305.4645,143.9929 1372.9345,166.7429" fill="none" id="dyno_lab-to-dyno_lab.schema" style="stroke:#181818;stroke-width:1;"/><polygon fill="#181818" points="1378.62,168.66,1371.3698,161.9941,1373.8821,167.0624,1368.8137,169.5747,1378.62,168.66" style="stroke:#181818;stroke-width:1;"/></g><!--link dyno_lab to dyno_lab.smoke--><g class="link" data-entity-1="ent0002" data-entity-2="ent0016" data-link-type="dependency" data-source-line="32" id="lnk30"><path d="M1132.84,72.37 C1230.59,91.15 1392.78,124.51 1529.9,163.27 C1535.63,164.89 1535.8332,164.8684 1541.7332,166.7484" fill="none" id="dyno_lab-to-dyno_lab.smoke" style="stroke:#181818;stroke-width:1;"/><polygon fill="#181818" points="1547.45,168.57,1540.0892,162.0264,1542.686,167.052,1537.6604,169.6488,1547.45,168.57" style="stroke:#181818;stroke-width:1;"/></g><!--link dyno_lab to dyno_lab.time--><g class="link" data-entity-1="ent0002" data-entity-2="ent0017" data-link-type="dependency" data-source-line="33" id="lnk31"><path d="M1132.94,65.11 C1258.53,79.16 1495.67,110.38 1691.9,163.27 C1697.61,164.81 1697.7899,164.7268 1703.6199,166.6768" fill="none" id="dyno_lab-to-dyno_lab.time" style="stroke:#181818;stroke-width:1;"/><polygon fill="#181818" points="1709.31,168.58,1702.0436,161.9317,1704.5682,166.994,1699.506,169.5186,1709.31,168.58" style="stroke:#181818;stroke-width:1;"/></g><!--link dyno_lab.fixtures to dyno_lab.cli--><g class="link" data-entity-1="ent0006" data-entity-2="ent0004" data-link-type="dependency" data-source-line="34" id="lnk32"><path d="M347.01,80.26 C288.48,101.55 201.27,133.71 125.9,163.27 C120.43,165.42 120.29,165.4446 114.62,167.7446" fill="none" id="dyno_lab.fixtures-to-dyno_lab.cli" style="stroke:#181818;stroke-width:1;"/><polygon fill="#181818" points="109.06,170,118.9035,170.3236,113.6933,168.1205,115.8964,162.9103,109.06,170" style="stroke:#181818;stroke-width:1;"/></g><!--link dyno_lab.fixtures to dyno_lab.env--><g class="link" data-entity-1="ent0006" data-entity-2="ent0005" data-link-type="dependency" data-source-line="35" id="lnk33"><path d="M368.15,84.65 C331.22,107.66 284.6026,136.6974 247.6826,159.6974" fill="none" id="dyno_lab.fixtures-to-dyno_lab.env" style="stroke:#181818;stroke-width:1;"/><polygon fill="#181818" points="242.59,162.87,252.344,161.5063,246.8339,160.2262,248.1139,154.7161,242.59,162.87" style="stroke:#181818;stroke-width:1;"/></g><!--link dyno_lab.fixtures to dyno_lab.fs--><g class="link" data-entity-1="ent0006" data-entity-2="ent0007" data-link-type="dependency" data-source-line="36" id="lnk34"><path d="M397.55,84.48 C384.24,107.56 368.5384,134.7729 355.2284,157.8429" fill="none" id="dyno_lab.fixtures-to-dyno_lab.fs" style="stroke:#181818;stroke-width:1;"/><polygon fill="#181818" points="352.23,163.04,360.1923,157.2433,354.7287,158.7091,353.2629,153.2455,352.23,163.04" style="stroke:#181818;stroke-width:1;"/></g><!--link dyno_lab.fixtures to dyno_lab.markers--><g class="link" data-entity-1="ent0006" data-entity-2="ent0010" data-link-type="dependency" data-source-line="37" id="lnk35"><path d="M430.04,84.48 C443.18,107.56 458.6705,134.7564 471.8105,157.8264" fill="none" id="dyno_lab.fixtures-to-dyno_lab.markers" style="stroke:#181818;stroke-width:1;"/><polygon fill="#181818" points="474.78,163.04,473.8015,153.2399,472.3054,158.6953,466.85,157.1992,474.78,163.04" style="stroke:#181818;stroke-width:1;"/></g><!--link dyno_lab.fixtures to dyno_lab.preflight--><g class="link" data-entity-1="ent0006" data-entity-2="ent0013" data-link-type="dependency" data-source-line="38" id="lnk36"><path d="M466.82,84.65 C509.54,107.66 564.0676,137.0247 606.7676,160.0247" fill="none" id="dyno_lab.fixtures-to-dyno_lab.preflight" style="stroke:#181818;stroke-width:1;"/><polygon fill="#181818" points="612.05,162.87,606.0232,155.0804,607.648,160.4989,602.2295,162.1236,612.05,162.87" style="stroke:#181818;stroke-width:1;"/></g><!--link dyno_lab.fixtures to dyno_lab.proc--><g class="link" data-entity-1="ent0006" data-entity-2="ent0014" data-link-type="dependency" data-source-line="39" id="lnk37"><path d="M480.64,76.09 C549.08,96.84 658.44,130.77 751.9,163.27 C757.61,165.26 757.9065,165.325 763.8265,167.495" fill="none" id="dyno_lab.fixtures-to-dyno_lab.proc" style="stroke:#181818;stroke-width:1;"/><polygon fill="#181818" points="769.46,169.56,762.3865,162.7069,764.7654,167.8392,759.6332,170.2182,769.46,169.56" style="stroke:#181818;stroke-width:1;"/></g><?plantuml-src XPJ1Ri8m38RlVGgBCqpZi1rss4jmHPhIrBHHapXgpGHlloHG1Cm9jzB_-znYEvsHmIk7Sr0QTnZKf9WcyEInOGh012qnauFEJAZPa6_cqVW4Ej3aGYGzx_Xi4HAWV6-nkLt1gZjx-h6gtVjtq8En7OInNyFs0nnrHulptcy_8Pnv80y7as_WIRaGhxwWLJEkGLkp1lI_Ar0pB0MbXxmbFXQyh_SWPK0qupEgOin5BxvMrOkvw1tCYOzJ_ljbUO7a2YzSsHgOGzLBW6XQwgjYp4NFgMd4gVwoLqRsyvxKzOo8Tb2iXwgS2TcTy61DFt3TNwX23T8lTDAYEUi1dQgw5qIs7OtrfcL2TDcukfg0Pla5cyttqm6JetI4v2GT4Zc9Mom7UKtbA2sYd2nhLaWlMoI7boqfPBSDAELnn79qdM0Xp1EIiuSHt3uKvOONaFlE5v2x4HI8vxOMiFzjAeAa_m00?></g></svg>
