<?plantuml 1.2026.2?><svg xmlns="http://www.w3.org/2000/svg" xmlns:xlink="http://www.w3.org/1999/xlink" contentStyleType="text/css" data-diagram-type="CLASS" height="1035px" preserveAspectRatio="none" style="width:3498px;height:1035px;background:#FFFFFF;" version="1.1" viewBox="0 0 3498 1035" width="3498px" zoomAndPan="magnify"><defs/><g><!--class dyno_lab.patch.AttrPatch--><g class="entity" data-qualified-name="dyno_lab.patch.AttrPatch" data-source-line="2" id="ent0002"><rect fill="#F1F1F1" height="48" rx="2.5" ry="2.5" style="stroke:#181818;stroke-width:0.5;" width="93.5858" x="32.5" y="102.34"/><ellipse cx="47.5" cy="118.34" fill="#ADD1B2" rx="11" ry="11" style="stroke:#181818;stroke-width:1;"/><path d="M47.6094,113.6212 Q46.6875,113.6212 45.9531,113.9337 Q45.2344,114.2462 44.7344,114.84 Q44.2344,115.4181 43.9531,116.2931 Q43.6875,117.1681 43.6875,118.2619 Q43.6875,119.6994 44.125,120.7462 Q44.5781,121.7931 45.4219,122.34 Q46.2813,122.8869 47.5938,122.8869 Q48.375,122.8869 49.0625,122.7619 Q49.7656,122.6212 50.7656,122.3087 L50.7656,124.1837 Q49.9063,124.5119 49.1406,124.6369 Q48.3906,124.7619 47.375,124.7619 Q45.4531,124.7619 44.1406,123.965 Q42.8438,123.1525 42.1875,121.6837 Q41.5313,120.1994 41.5313,118.2306 Q41.5313,116.8087 41.9219,115.6369 Q42.3281,114.4494 43.1094,113.5744 Q43.8906,112.6994 45.0313,112.2306 Q46.1719,111.7462 47.6406,111.7462 Q48.5938,111.7462 49.4844,111.9494 Q50.3906,112.1369 51.3281,112.6056 L50.5,114.3869 Q49.7188,114.0119 49.0625,113.8244 Q48.4063,113.6212 47.6094,113.6212 Z " fill="#000000"/><text fill="#000000" font-family="sans-serif" font-size="14" lengthAdjust="spacing" textLength="61.5858" x="61.5" y="123.772">AttrPatch</text><line style="stroke:#181818;stroke-width:0.5;" x1="33.5" x2="125.0858" y1="134.34" y2="134.34"/><line style="stroke:#181818;stroke-width:0.5;" x1="33.5" x2="125.0858" y1="142.34" y2="142.34"/></g><!--class dyno_lab.auto_pass.AutoPassLoadCall--><g class="entity" data-qualified-name="dyno_lab.auto_pass.AutoPassLoadCall" data-source-line="4" id="ent0003"><rect fill="#F1F1F1" height="124.2717" rx="2.5" ry="2.5" style="stroke:#181818;stroke-width:0.5;" width="149.0536" x="1806.77" y="613.75"/><ellipse cx="1821.77" cy="629.75" fill="#ADD1B2" rx="11" ry="11" style="stroke:#181818;stroke-width:1;"/><path d="M1821.8794,625.0312 Q1820.9575,625.0312 1820.2231,625.3437 Q1819.5044,625.6562 1819.0044,626.25 Q1818.5044,626.8281 1818.2231,627.7031 Q1817.9575,628.5781 1817.9575,629.6719 Q1817.9575,631.1094 1818.395,632.1562 Q1818.8481,633.2031 1819.6919,633.75 Q1820.5513,634.2969 1821.8638,634.2969 Q1822.645,634.2969 1823.3325,634.1719 Q1824.0356,634.0312 1825.0356,633.7187 L1825.0356,635.5937 Q1824.1763,635.9219 1823.4106,636.0469 Q1822.6606,636.1719 1821.645,636.1719 Q1819.7231,636.1719 1818.4106,635.375 Q1817.1138,634.5625 1816.4575,633.0937 Q1815.8013,631.6094 1815.8013,629.6406 Q1815.8013,628.2187 1816.1919,627.0469 Q1816.5981,625.8594 1817.3794,624.9844 Q1818.1606,624.1094 1819.3013,623.6406 Q1820.4419,623.1562 1821.9106,623.1562 Q1822.8638,623.1562 1823.7544,623.3594 Q1824.6606,623.5469 1825.5981,624.0156 L1824.77,625.7969 Q1823.9888,625.4219 1823.3325,625.2344 Q1822.6763,625.0312 1821.8794,625.0312 Z " fill="#000000"/><text fill="#000000" font-family="sans-serif" font-size="14" lengthAdjust="spacing" textLength="117.0536" x="1835.77" y="635.182">AutoPassLoadCall</text><line style="stroke:#181818;stroke-width:0.5;" x1="1807.77" x2="1954.8236" y1="645.75" y2="645.75"/><text fill="#000000" font-family="sans-serif" font-size="14" lengthAdjust="spacing" textLength="101.5696" x="1812.77" y="664.7159">environ : object</text><text fill="#000000" font-family="sans-serif" font-size="14" lengthAdjust="spacing" textLength="95.3536" x="1812.77" y="683.7839">override : bool</text><text fill="#000000" font-family="sans-serif" font-size="14" lengthAdjust="spacing" textLength="81.5637" x="1812.77" y="702.8518">path : object</text><text fill="#000000" font-family="sans-serif" font-size="14" lengthAdjust="spacing" textLength="94.1916" x="1812.77" y="721.9197">profile : object</text><line style="stroke:#181818;stroke-width:0.5;" x1="1807.77" x2="1954.8236" y1="730.0217" y2="730.0217"/></g><!--class dyno_lab.auto_pass.AutoPassPatch--><g class="entity" data-qualified-name="dyno_lab.auto_pass.AutoPassPatch" data-source-line="10" id="ent0004"><rect fill="#F1F1F1" height="67.0679" rx="2.5" ry="2.5" style="stroke:#181818;stroke-width:0.5;" width="129.6077" x="1855.49" y="92.8"/><ellipse cx="1870.49" cy="108.8" fill="#ADD1B2" rx="11" ry="11" style="stroke:#181818;stroke-width:1;"/><path d="M1870.5994,104.0812 Q1869.6775,104.0812 1868.9431,104.3937 Q1868.2244,104.7062 1867.7244,105.3 Q1867.2244,105.8781 1866.9431,106.7531 Q1866.6775,107.6281 1866.6775,108.7219 Q1866.6775,110.1594 1867.115,111.2062 Q1867.5681,112.2531 1868.4119,112.8 Q1869.2713,113.3469 1870.5838,113.3469 Q1871.365,113.3469 1872.0525,113.2219 Q1872.7556,113.0812 1873.7556,112.7687 L1873.7556,114.6437 Q1872.8963,114.9719 1872.1306,115.0969 Q1871.3806,115.2219 1870.365,115.2219 Q1868.4431,115.2219 1867.1306,114.425 Q1865.8338,113.6125 1865.1775,112.1437 Q1864.5213,110.6594 1864.5213,108.6906 Q1864.5213,107.2687 1864.9119,106.0969 Q1865.3181,104.9094 1866.0994,104.0344 Q1866.8806,103.1594 1868.0213,102.6906 Q1869.1619,102.2062 1870.6306,102.2062 Q1871.5838,102.2062 1872.4744,102.4094 Q1873.3806,102.5969 1874.3181,103.0656 L1873.49,104.8469 Q1872.7088,104.4719 1872.0525,104.2844 Q1871.3963,104.0812 1870.5994,104.0812 Z " fill="#000000"/><text fill="#000000" font-family="sans-serif" font-size="14" lengthAdjust="spacing" textLength="97.6077" x="1884.49" y="114.232">AutoPassPatch</text><line style="stroke:#181818;stroke-width:0.5;" x1="1856.49" x2="1984.0977" y1="124.8" y2="124.8"/><text fill="#000000" font-family="sans-serif" font-size="14" lengthAdjust="spacing" textLength="56.9378" x="1861.49" y="143.7659">recorder</text><line style="stroke:#181818;stroke-width:0.5;" x1="1856.49" x2="1984.0977" y1="151.8679" y2="151.8679"/></g><!--class dyno_lab.auto_pass.AutoPassRecorder--><g class="entity" data-qualified-name="dyno_lab.auto_pass.AutoPassRecorder" data-source-line="13" id="ent0005"><rect fill="#F1F1F1" height="181.4754" rx="2.5" ry="2.5" style="stroke:#181818;stroke-width:0.5;" width="493.7243" x="1731.43" y="324.68"/><ellipse cx="1913.6814" cy="340.68" fill="#ADD1B2" rx="11" ry="11" style="stroke:#181818;stroke-width:1;"/><path d="M1913.7907,335.9612 Q1912.8689,335.9612 1912.1345,336.2737 Q1911.4157,336.5862 1910.9157,337.18 Q1910.4157,337.7581 1910.1345,338.6331 Q1909.8689,339.5081 1909.8689,340.6019 Q1909.8689,342.0394 1910.3064,343.0862 Q1910.7595,344.1331 1911.6032,344.68 Q1912.4626,345.2269 1913.7751,345.2269 Q1914.5564,345.2269 1915.2439,345.1019 Q1915.947,344.9612 1916.947,344.6487 L1916.947,346.5237 Q1916.0876,346.8519 1915.322,346.9769 Q1914.572,347.1019 1913.5564,347.1019 Q1911.6345,347.1019 1910.322,346.305 Q1909.0251,345.4925 1908.3689,344.0237 Q1907.7126,342.5394 1907.7126,340.5706 Q1907.7126,339.1487 1908.1032,337.9769 Q1908.5095,336.7894 1909.2907,335.9144 Q1910.072,335.0394 1911.2126,334.5706 Q1912.3532,334.0862 1913.822,334.0862 Q1914.7751,334.0862 1915.6657,334.2894 Q1916.572,334.4769 1917.5095,334.9456 L1916.6814,336.7269 Q1915.9001,336.3519 1915.2439,336.1644 Q1914.5876,335.9612 1913.7907,335.9612 Z " fill="#000000"/><text fill="#000000" font-family="sans-serif" font-size="14" lengthAdjust="spacing" textLength="120.7216" x="1934.1814" y="346.112">AutoPassRecorder</text><line style="stroke:#181818;stroke-width:0.5;" x1="1732.43" x2="2224.1543" y1="356.68" y2="356.68"/><text fill="#000000" font-family="sans-serif" font-size="14" lengthAdjust="spacing" textLength="156.5474" x="1737.43" y="375.6459">KeepassCommandError</text><text fill="#000000" font-family="sans-serif" font-size="14" lengthAdjust="spacing" textLength="219.5472" x="1737.43" y="394.7139">load_calls : list[AutoPassLoadCall]</text><text fill="#000000" font-family="sans-serif" font-size="14" lengthAdjust="spacing" textLength="256.605" x="1737.43" y="413.7818">resolve_calls : list[AutoPassResolveCall]</text><line style="stroke:#181818;stroke-width:0.5;" x1="1732.43" x2="2224.1543" y1="421.8838" y2="421.8838"/><text fill="#000000" font-family="sans-serif" font-size="14" lengthAdjust="spacing" textLength="313.1928" x="1737.43" y="440.8497">add_response(entry: str, outcome: Any) -&gt; None</text><text fill="#000000" font-family="sans-serif" font-size="14" lengthAdjust="spacing" textLength="391.5086" x="1737.43" y="459.9176">keepass_error(message: str) -&gt; StubKeepassCommandError</text><text fill="#000000" font-family="sans-serif" font-size="14" lengthAdjust="spacing" textLength="474.6403" x="1737.43" y="478.9855">load_config_environment(path: object) -&gt; tuple[dict[str, str], dict[str, str]]</text><text fill="#000000" font-family="sans-serif" font-size="14" lengthAdjust="spacing" textLength="481.7243" x="1737.43" y="498.0534">resolve_keepassxc_entry(entry: str, attrs_map: dict[str, str]) -&gt; dict[str, str]</text></g><!--class dyno_lab.auto_pass.AutoPassResolveCall--><g class="entity" data-qualified-name="dyno_lab.auto_pass.AutoPassResolveCall" data-source-line="22" id="ent0006"><rect fill="#F1F1F1" height="124.2717" rx="2.5" ry="2.5" style="stroke:#181818;stroke-width:0.5;" width="167.1835" x="1990.7" y="613.75"/><ellipse cx="2005.7" cy="629.75" fill="#ADD1B2" rx="11" ry="11" style="stroke:#181818;stroke-width:1;"/><path d="M2005.8094,625.0312 Q2004.8875,625.0312 2004.1531,625.3437 Q2003.4344,625.6562 2002.9344,626.25 Q2002.4344,626.8281 2002.1531,627.7031 Q2001.8875,628.5781 2001.8875,629.6719 Q2001.8875,631.1094 2002.325,632.1562 Q2002.7781,633.2031 2003.6219,633.75 Q2004.4813,634.2969 2005.7938,634.2969 Q2006.575,634.2969 2007.2625,634.1719 Q2007.9656,634.0312 2008.9656,633.7187 L2008.9656,635.5937 Q2008.1063,635.9219 2007.3406,636.0469 Q2006.5906,636.1719 2005.575,636.1719 Q2003.6531,636.1719 2002.3406,635.375 Q2001.0438,634.5625 2000.3875,633.0937 Q1999.7313,631.6094 1999.7313,629.6406 Q1999.7313,628.2187 2000.1219,627.0469 Q2000.5281,625.8594 2001.3094,624.9844 Q2002.0906,624.1094 2003.2313,623.6406 Q2004.3719,623.1562 2005.8406,623.1562 Q2006.7938,623.1562 2007.6844,623.3594 Q2008.5906,623.5469 2009.5281,624.0156 L2008.7,625.7969 Q2007.9188,625.4219 2007.2625,625.2344 Q2006.6063,625.0312 2005.8094,625.0312 Z " fill="#000000"/><text fill="#000000" font-family="sans-serif" font-size="14" lengthAdjust="spacing" textLength="135.1835" x="2019.7" y="635.182">AutoPassResolveCall</text><line style="stroke:#181818;stroke-width:0.5;" x1="1991.7" x2="2156.8835" y1="645.75" y2="645.75"/><text fill="#000000" font-family="sans-serif" font-size="14" lengthAdjust="spacing" textLength="150.2054" x="1996.7" y="664.7159">allow_interactive : bool</text><text fill="#000000" font-family="sans-serif" font-size="14" lengthAdjust="spacing" textLength="152.9355" x="1996.7" y="683.7839">attrs_map : dict[str, str]</text><text fill="#000000" font-family="sans-serif" font-size="14" lengthAdjust="spacing" textLength="92.2736" x="1996.7" y="702.8518">config : object</text><text fill="#000000" font-family="sans-serif" font-size="14" lengthAdjust="spacing" textLength="63.0978" x="1996.7" y="721.9197">entry : str</text><line style="stroke:#181818;stroke-width:0.5;" x1="1991.7" x2="2156.8835" y1="730.0217" y2="730.0217"/></g><!--class dyno_lab.cli.CLITestMixin--><g class="entity" data-qualified-name="dyno_lab.cli.CLITestMixin" data-source-line="28" id="ent0007"><rect fill="#F1F1F1" height="67.0679" rx="2.5" ry="2.5" style="stroke:#181818;stroke-width:0.5;" width="456.8483" x="160.87" y="92.8"/><ellipse cx="342.8693" cy="108.8" fill="#ADD1B2" rx="11" ry="11" style="stroke:#181818;stroke-width:1;"/><path d="M342.9787,104.0812 Q342.0568,104.0812 341.3224,104.3937 Q340.6037,104.7062 340.1037,105.3 Q339.6037,105.8781 339.3224,106.7531 Q339.0568,107.6281 339.0568,108.7219 Q339.0568,110.1594 339.4943,111.2062 Q339.9474,112.2531 340.7912,112.8 Q341.6506,113.3469 342.9631,113.3469 Q343.7443,113.3469 344.4318,113.2219 Q345.1349,113.0812 346.1349,112.7687 L346.1349,114.6437 Q345.2756,114.9719 344.5099,115.0969 Q343.7599,115.2219 342.7443,115.2219 Q340.8224,115.2219 339.5099,114.425 Q338.2131,113.6125 337.5568,112.1437 Q336.9006,110.6594 336.9006,108.6906 Q336.9006,107.2687 337.2912,106.0969 Q337.6974,104.9094 338.4787,104.0344 Q339.2599,103.1594 340.4006,102.6906 Q341.5412,102.2062 343.0099,102.2062 Q343.9631,102.2062 344.8537,102.4094 Q345.7599,102.5969 346.6974,103.0656 L345.8693,104.8469 Q345.0881,104.4719 344.4318,104.2844 Q343.7756,104.0812 342.9787,104.0812 Z " fill="#000000"/><text fill="#000000" font-family="sans-serif" font-size="14" lengthAdjust="spacing" textLength="84.3497" x="363.3693" y="114.232">CLITestMixin</text><line style="stroke:#181818;stroke-width:0.5;" x1="161.87" x2="616.7183" y1="124.8" y2="124.8"/><line style="stroke:#181818;stroke-width:0.5;" x1="161.87" x2="616.7183" y1="132.8" y2="132.8"/><text fill="#000000" font-family="sans-serif" font-size="14" lengthAdjust="spacing" textLength="444.8483" x="166.87" y="151.7659">run_cli(func: Any, args: list[str] | None, stdin: str | None) -&gt; CliResult</text></g><!--class dyno_lab.proc.CapturedCall--><g class="entity" data-qualified-name="dyno_lab.proc.CapturedCall" data-source-line="31" id="ent0008"><rect fill="#F1F1F1" height="86.1358" rx="2.5" ry="2.5" style="stroke:#181818;stroke-width:0.5;" width="191.9414" x="2318.32" y="372.35"/><ellipse cx="2367.4248" cy="388.35" fill="#ADD1B2" rx="11" ry="11" style="stroke:#181818;stroke-width:1;"/><path d="M2367.5342,383.6312 Q2366.6123,383.6312 2365.878,383.9437 Q2365.1592,384.2562 2364.6592,384.85 Q2364.1592,385.4281 2363.878,386.3031 Q2363.6123,387.1781 2363.6123,388.2719 Q2363.6123,389.7094 2364.0498,390.7562 Q2364.503,391.8031 2365.3467,392.35 Q2366.2061,392.8969 2367.5186,392.8969 Q2368.2998,392.8969 2368.9873,392.7719 Q2369.6905,392.6312 2370.6905,392.3187 L2370.6905,394.1937 Q2369.8311,394.5219 2369.0655,394.6469 Q2368.3155,394.7719 2367.2998,394.7719 Q2365.378,394.7719 2364.0655,393.975 Q2362.7686,393.1625 2362.1123,391.6937 Q2361.4561,390.2094 2361.4561,388.2406 Q2361.4561,386.8187 2361.8467,385.6469 Q2362.253,384.4594 2363.0342,383.5844 Q2363.8155,382.7094 2364.9561,382.2406 Q2366.0967,381.7562 2367.5655,381.7562 Q2368.5186,381.7562 2369.4092,381.9594 Q2370.3155,382.1469 2371.253,382.6156 L2370.4248,384.3969 Q2369.6436,384.0219 2368.9873,383.8344 Q2368.3311,383.6312 2367.5342,383.6312 Z " fill="#000000"/><text fill="#000000" font-family="sans-serif" font-size="14" lengthAdjust="spacing" textLength="85.2317" x="2387.9248" y="393.782">CapturedCall</text><line style="stroke:#181818;stroke-width:0.5;" x1="2319.32" x2="2509.2614" y1="404.35" y2="404.35"/><text fill="#000000" font-family="sans-serif" font-size="14" lengthAdjust="spacing" textLength="179.9414" x="2324.32" y="423.3159">args : list[str] | tuple[str, ...]</text><text fill="#000000" font-family="sans-serif" font-size="14" lengthAdjust="spacing" textLength="141.3435" x="2324.32" y="442.3839">kwargs : dict[str, Any]</text><line style="stroke:#181818;stroke-width:0.5;" x1="2319.32" x2="2509.2614" y1="450.4858" y2="450.4858"/></g><!--class dyno_lab.cli.CliResult--><g class="entity" data-qualified-name="dyno_lab.cli.CliResult" data-source-line="35" id="ent0009"><rect fill="#F1F1F1" height="200.5433" rx="2.5" ry="2.5" style="stroke:#181818;stroke-width:0.5;" width="337.6527" x="652.47" y="26.06"/><ellipse cx="788.6965" cy="42.06" fill="#ADD1B2" rx="11" ry="11" style="stroke:#181818;stroke-width:1;"/><path d="M788.8059,37.3412 Q787.884,37.3412 787.1496,37.6537 Q786.4309,37.9662 785.9309,38.56 Q785.4309,39.1381 785.1496,40.0131 Q784.884,40.8881 784.884,41.9819 Q784.884,43.4194 785.3215,44.4662 Q785.7746,45.5131 786.6184,46.06 Q787.4777,46.6069 788.7902,46.6069 Q789.5715,46.6069 790.259,46.4819 Q790.9621,46.3412 791.9621,46.0287 L791.9621,47.9037 Q791.1027,48.2319 790.3371,48.3569 Q789.5871,48.4819 788.5715,48.4819 Q786.6496,48.4819 785.3371,47.685 Q784.0402,46.8725 783.384,45.4037 Q782.7277,43.9194 782.7277,41.9506 Q782.7277,40.5287 783.1184,39.3569 Q783.5246,38.1694 784.3059,37.2944 Q785.0871,36.4194 786.2277,35.9506 Q787.3684,35.4662 788.8371,35.4662 Q789.7902,35.4662 790.6809,35.6694 Q791.5871,35.8569 792.5246,36.3256 L791.6965,38.1069 Q790.9152,37.7319 790.259,37.5444 Q789.6027,37.3412 788.8059,37.3412 Z " fill="#000000"/><text fill="#000000" font-family="sans-serif" font-size="14" lengthAdjust="spacing" textLength="56.6998" x="809.1965" y="47.492">CliResult</text><line style="stroke:#181818;stroke-width:0.5;" x1="653.47" x2="989.1227" y1="58.06" y2="58.06"/><text fill="#000000" font-family="sans-serif" font-size="14" lengthAdjust="spacing" textLength="90.2296" x="658.47" y="77.0259">exit_code : int</text><text fill="#000000" font-family="sans-serif" font-size="14" lengthAdjust="spacing" textLength="73.0657" x="658.47" y="96.0939">output : str</text><text fill="#000000" font-family="sans-serif" font-size="14" lengthAdjust="spacing" textLength="68.4038" x="658.47" y="115.1618">stderr : str</text><text fill="#000000" font-family="sans-serif" font-size="14" lengthAdjust="spacing" textLength="71.1198" x="658.47" y="134.2297">stdout : str</text><line style="stroke:#181818;stroke-width:0.5;" x1="653.47" x2="989.1227" y1="142.3317" y2="142.3317"/><text fill="#000000" font-family="sans-serif" font-size="14" lengthAdjust="spacing" textLength="256.059" x="658.47" y="161.2976">assert_error_contains(text: str) -&gt; None</text><text fill="#000000" font-family="sans-serif" font-size="14" lengthAdjust="spacing" textLength="325.6527" x="658.47" y="180.3655">assert_failure(expected_code: int | None) -&gt; None</text><text fill="#000000" font-family="sans-serif" font-size="14" lengthAdjust="spacing" textLength="266.839" x="658.47" y="199.4334">assert_output_contains(text: str) -&gt; None</text><text fill="#000000" font-family="sans-serif" font-size="14" lengthAdjust="spacing" textLength="160.1734" x="658.47" y="218.5014">assert_success() -&gt; None</text></g><!--class dyno_lab.base.DynoTestCase--><g class="entity" data-qualified-name="dyno_lab.base.DynoTestCase" data-source-line="45" id="ent0010"><rect fill="#F1F1F1" height="238.6792" rx="2.5" ry="2.5" style="stroke:#181818;stroke-width:0.5;" width="568.6379" x="1024.97" y="7"/><ellipse cx="1258.4262" cy="23" fill="#ADD1B2" rx="11" ry="11" style="stroke:#181818;stroke-width:1;"/><path d="M1258.5355,18.2813 Q1257.6137,18.2813 1256.8793,18.5938 Q1256.1605,18.9063 1255.6605,19.5 Q1255.1605,20.0781 1254.8793,20.9531 Q1254.6137,21.8281 1254.6137,22.9219 Q1254.6137,24.3594 1255.0512,25.4063 Q1255.5043,26.4531 1256.348,27 Q1257.2074,27.5469 1258.5199,27.5469 Q1259.3012,27.5469 1259.9887,27.4219 Q1260.6918,27.2813 1261.6918,26.9688 L1261.6918,28.8438 Q1260.8324,29.1719 1260.0668,29.2969 Q1259.3168,29.4219 1258.3012,29.4219 Q1256.3793,29.4219 1255.0668,28.625 Q1253.7699,27.8125 1253.1137,26.3438 Q1252.4574,24.8594 1252.4574,22.8906 Q1252.4574,21.4688 1252.848,20.2969 Q1253.2543,19.1094 1254.0355,18.2344 Q1254.8168,17.3594 1255.9574,16.8906 Q1257.098,16.4063 1258.5668,16.4063 Q1259.5199,16.4063 1260.4105,16.6094 Q1261.3168,16.7969 1262.2543,17.2656 L1261.4262,19.0469 Q1260.6449,18.6719 1259.9887,18.4844 Q1259.3324,18.2813 1258.5355,18.2813 Z " fill="#000000"/><text fill="#000000" font-family="sans-serif" font-size="14" lengthAdjust="spacing" textLength="93.2256" x="1278.9262" y="28.432">DynoTestCase</text><line style="stroke:#181818;stroke-width:0.5;" x1="1025.97" x2="1592.6079" y1="39" y2="39"/><line style="stroke:#181818;stroke-width:0.5;" x1="1025.97" x2="1592.6079" y1="47" y2="47"/><text fill="#000000" font-family="sans-serif" font-size="14" lengthAdjust="spacing" textLength="516.2621" x="1030.97" y="65.9659">assertApproxEqual(first: float, second: float, rel: float, msg: str | None) -&gt; None</text><text fill="#000000" font-family="sans-serif" font-size="14" lengthAdjust="spacing" textLength="488.1502" x="1030.97" y="85.0339">assertContainsAll(container: Any, items: list[Any], msg: str | None) -&gt; None</text><text fill="#000000" font-family="sans-serif" font-size="14" lengthAdjust="spacing" textLength="556.6379" x="1030.97" y="104.1018">assertDictSubset(subset: dict[str, Any], whole: dict[str, Any], msg: str | None) -&gt; None</text><text fill="#000000" font-family="sans-serif" font-size="14" lengthAdjust="spacing" textLength="372.2446" x="1030.97" y="123.1697">assertDirExists(path: str | Path, msg: str | None) -&gt; None</text><text fill="#000000" font-family="sans-serif" font-size="14" lengthAdjust="spacing" textLength="421.5104" x="1030.97" y="142.2376">assertExitCode(code: int, expected: int, msg: str | None) -&gt; None</text><text fill="#000000" font-family="sans-serif" font-size="14" lengthAdjust="spacing" textLength="453.3323" x="1030.97" y="161.3055">assertFileContains(path: str | Path, text: str, msg: str | None) -&gt; None</text><text fill="#000000" font-family="sans-serif" font-size="14" lengthAdjust="spacing" textLength="375.0166" x="1030.97" y="180.3734">assertFileExists(path: str | Path, msg: str | None) -&gt; None</text><text fill="#000000" font-family="sans-serif" font-size="14" lengthAdjust="spacing" textLength="477.4962" x="1030.97" y="199.4414">assertFileNotContains(path: str | Path, text: str, msg: str | None) -&gt; None</text><text fill="#000000" font-family="sans-serif" font-size="14" lengthAdjust="spacing" textLength="465.5402" x="1030.97" y="218.5093">assertNoneOf(container: Any, items: list[Any], msg: str | None) -&gt; None</text><text fill="#000000" font-family="sans-serif" font-size="14" lengthAdjust="spacing" textLength="511.1101" x="1030.97" y="237.5772">assertOutputContains(output: str, text: str, label: str, msg: str | None) -&gt; None</text></g><!--class dyno_lab.env.EnvPatch--><g class="entity" data-qualified-name="dyno_lab.env.EnvPatch" data-source-line="57" id="ent0011"><rect fill="#F1F1F1" height="67.0679" rx="2.5" ry="2.5" style="stroke:#181818;stroke-width:0.5;" width="191.7733" x="1628.41" y="92.8"/><ellipse cx="1689.8978" cy="108.8" fill="#ADD1B2" rx="11" ry="11" style="stroke:#181818;stroke-width:1;"/><path d="M1690.0072,104.0812 Q1689.0853,104.0812 1688.3509,104.3937 Q1687.6322,104.7062 1687.1322,105.3 Q1686.6322,105.8781 1686.3509,106.7531 Q1686.0853,107.6281 1686.0853,108.7219 Q1686.0853,110.1594 1686.5228,111.2062 Q1686.9759,112.2531 1687.8197,112.8 Q1688.679,113.3469 1689.9915,113.3469 Q1690.7728,113.3469 1691.4603,113.2219 Q1692.1634,113.0812 1693.1634,112.7687 L1693.1634,114.6437 Q1692.304,114.9719 1691.5384,115.0969 Q1690.7884,115.2219 1689.7728,115.2219 Q1687.8509,115.2219 1686.5384,114.425 Q1685.2415,113.6125 1684.5853,112.1437 Q1683.929,110.6594 1683.929,108.6906 Q1683.929,107.2687 1684.3197,106.0969 Q1684.7259,104.9094 1685.5072,104.0344 Q1686.2884,103.1594 1687.429,102.6906 Q1688.5697,102.2062 1690.0384,102.2062 Q1690.9915,102.2062 1691.8822,102.4094 Q1692.7884,102.5969 1693.7259,103.0656 L1692.8978,104.8469 Q1692.1165,104.4719 1691.4603,104.2844 Q1690.804,104.0812 1690.0072,104.0812 Z " fill="#000000"/><text fill="#000000" font-family="sans-serif" font-size="14" lengthAdjust="spacing" textLength="60.2978" x="1710.3978" y="114.232">EnvPatch</text><line style="stroke:#181818;stroke-width:0.5;" x1="1629.41" x2="1819.1833" y1="124.8" y2="124.8"/><line style="stroke:#181818;stroke-width:0.5;" x1="1629.41" x2="1819.1833" y1="132.8" y2="132.8"/><text fill="#000000" font-family="sans-serif" font-size="14" lengthAdjust="spacing" textLength="179.7733" x="1634.41" y="151.7659">decorator(env: dict[str, str])</text></g><!--class dyno_lab.time.FastSleep--><g class="entity" data-qualified-name="dyno_lab.time.FastSleep" data-source-line="60" id="ent0012"><rect fill="#F1F1F1" height="105.2038" rx="2.5" ry="2.5" style="stroke:#181818;stroke-width:0.5;" width="120.9756" x="18.81" y="362.81"/><ellipse cx="45.6881" cy="378.81" fill="#ADD1B2" rx="11" ry="11" style="stroke:#181818;stroke-width:1;"/><path d="M45.7975,374.0912 Q44.8756,374.0912 44.1412,374.4037 Q43.4225,374.7162 42.9225,375.31 Q42.4225,375.8881 42.1412,376.7631 Q41.8756,377.6381 41.8756,378.7319 Q41.8756,380.1694 42.3131,381.2162 Q42.7662,382.2631 43.61,382.81 Q44.4694,383.3569 45.7819,383.3569 Q46.5631,383.3569 47.2506,383.2319 Q47.9537,383.0912 48.9537,382.7787 L48.9537,384.6537 Q48.0944,384.9819 47.3287,385.1069 Q46.5787,385.2319 45.5631,385.2319 Q43.6412,385.2319 42.3287,384.435 Q41.0319,383.6225 40.3756,382.1537 Q39.7194,380.6694 39.7194,378.7006 Q39.7194,377.2787 40.11,376.1069 Q40.5162,374.9194 41.2975,374.0444 Q42.0787,373.1694 43.2194,372.7006 Q44.36,372.2162 45.8287,372.2162 Q46.7819,372.2162 47.6725,372.4194 Q48.5787,372.6069 49.5162,373.0756 L48.6881,374.8569 Q47.9069,374.4819 47.2506,374.2944 Q46.5944,374.0912 45.7975,374.0912 Z " fill="#000000"/><text fill="#000000" font-family="sans-serif" font-size="14" lengthAdjust="spacing" textLength="62.5798" x="62.3277" y="384.242">FastSleep</text><line style="stroke:#181818;stroke-width:0.5;" x1="19.81" x2="138.7856" y1="394.81" y2="394.81"/><text fill="#000000" font-family="sans-serif" font-size="14" lengthAdjust="spacing" textLength="93.9116" x="24.81" y="413.7759">call_count : int</text><text fill="#000000" font-family="sans-serif" font-size="14" lengthAdjust="spacing" textLength="97.5376" x="24.81" y="432.8439">calls : list[float]</text><text fill="#000000" font-family="sans-serif" font-size="14" lengthAdjust="spacing" textLength="108.9756" x="24.81" y="451.9118">total_slept : float</text><line style="stroke:#181818;stroke-width:0.5;" x1="19.81" x2="138.7856" y1="460.0138" y2="460.0138"/></g><!--class dyno_lab.time.FrozenTime--><g class="entity" data-qualified-name="dyno_lab.time.FrozenTime" data-source-line="65" id="ent0013"><rect fill="#F1F1F1" height="67.0679" rx="2.5" ry="2.5" style="stroke:#181818;stroke-width:0.5;" width="123.8036" x="174.39" y="381.88"/><ellipse cx="196.0392" cy="397.88" fill="#ADD1B2" rx="11" ry="11" style="stroke:#181818;stroke-width:1;"/><path d="M196.1485,393.1613 Q195.2267,393.1613 194.4923,393.4738 Q193.7735,393.7863 193.2735,394.38 Q192.7735,394.9581 192.4923,395.8331 Q192.2267,396.7081 192.2267,397.8019 Q192.2267,399.2394 192.6642,400.2863 Q193.1173,401.3331 193.961,401.88 Q194.8204,402.4269 196.1329,402.4269 Q196.9142,402.4269 197.6017,402.3019 Q198.3048,402.1613 199.3048,401.8488 L199.3048,403.7238 Q198.4454,404.0519 197.6798,404.1769 Q196.9298,404.3019 195.9142,404.3019 Q193.9923,404.3019 192.6798,403.505 Q191.3829,402.6925 190.7267,401.2238 Q190.0704,399.7394 190.0704,397.7706 Q190.0704,396.3488 190.461,395.1769 Q190.8673,393.9894 191.6485,393.1144 Q192.4298,392.2394 193.5704,391.7706 Q194.711,391.2863 196.1798,391.2863 Q197.1329,391.2863 198.0235,391.4894 Q198.9298,391.6769 199.8673,392.1456 L199.0392,393.9269 Q198.2579,393.5519 197.6017,393.3644 Q196.9454,393.1613 196.1485,393.1613 Z " fill="#000000"/><text fill="#000000" font-family="sans-serif" font-size="14" lengthAdjust="spacing" textLength="77.0277" x="211.5167" y="403.312">FrozenTime</text><line style="stroke:#181818;stroke-width:0.5;" x1="175.39" x2="297.1936" y1="413.88" y2="413.88"/><text fill="#000000" font-family="sans-serif" font-size="14" lengthAdjust="spacing" textLength="111.8036" x="180.39" y="432.8459">timestamp : float</text><line style="stroke:#181818;stroke-width:0.5;" x1="175.39" x2="297.1936" y1="440.9479" y2="440.9479"/></g><!--class dyno_lab.log.LogCapture--><g class="entity" data-qualified-name="dyno_lab.log.LogCapture" data-source-line="68" id="ent0014"><rect fill="#F1F1F1" height="143.3396" rx="2.5" ry="2.5" style="stroke:#181818;stroke-width:0.5;" width="345.1847" x="332.7" y="343.74"/><ellipse cx="462.4865" cy="359.74" fill="#ADD1B2" rx="11" ry="11" style="stroke:#181818;stroke-width:1;"/><path d="M462.5959,355.0213 Q461.674,355.0213 460.9396,355.3338 Q460.2209,355.6463 459.7209,356.24 Q459.2209,356.8181 458.9396,357.6931 Q458.674,358.5681 458.674,359.6619 Q458.674,361.0994 459.1115,362.1463 Q459.5646,363.1931 460.4084,363.74 Q461.2678,364.2869 462.5803,364.2869 Q463.3615,364.2869 464.049,364.1619 Q464.7521,364.0213 465.7521,363.7088 L465.7521,365.5838 Q464.8928,365.9119 464.1271,366.0369 Q463.3771,366.1619 462.3615,366.1619 Q460.4396,366.1619 459.1271,365.365 Q457.8303,364.5525 457.174,363.0838 Q456.5178,361.5994 456.5178,359.6306 Q456.5178,358.2088 456.9084,357.0369 Q457.3146,355.8494 458.0959,354.9744 Q458.8771,354.0994 460.0178,353.6306 Q461.1584,353.1463 462.6271,353.1463 Q463.5803,353.1463 464.4709,353.3494 Q465.3771,353.5369 466.3146,354.0056 L465.4865,355.7869 Q464.7053,355.4119 464.049,355.2244 Q463.3928,355.0213 462.5959,355.0213 Z " fill="#000000"/><text fill="#000000" font-family="sans-serif" font-size="14" lengthAdjust="spacing" textLength="77.1117" x="482.9865" y="365.172">LogCapture</text><line style="stroke:#181818;stroke-width:0.5;" x1="333.7" x2="676.8847" y1="375.74" y2="375.74"/><text fill="#000000" font-family="sans-serif" font-size="14" lengthAdjust="spacing" textLength="213.7232" x="338.7" y="394.7059">records : list[logging.LogRecord]</text><line style="stroke:#181818;stroke-width:0.5;" x1="333.7" x2="676.8847" y1="402.8079" y2="402.8079"/><text fill="#000000" font-family="sans-serif" font-size="14" lengthAdjust="spacing" textLength="304.7928" x="338.7" y="421.7739">assert_logged(level: int, fragment: str) -&gt; None</text><text fill="#000000" font-family="sans-serif" font-size="14" lengthAdjust="spacing" textLength="333.1847" x="338.7" y="440.8418">assert_not_logged(level: int, fragment: str) -&gt; None</text><text fill="#000000" font-family="sans-serif" font-size="14" lengthAdjust="spacing" textLength="188.5512" x="338.7" y="459.9097">count(level: int | None) -&gt; int</text><text fill="#000000" font-family="sans-serif" font-size="14" lengthAdjust="spacing" textLength="244.8871" x="338.7" y="478.9776">messages(level: int | None) -&gt; list[str]</text></g><!--class dyno_lab.preflight.PreflightError--><g class="entity" data-qualified-name="dyno_lab.preflight.PreflightError" data-source-line="75" id="ent0015"><rect fill="#F1F1F1" height="48" rx="2.5" ry="2.5" style="stroke:#181818;stroke-width:0.5;" width="122.1037" x="713.24" y="391.41"/><ellipse cx="728.24" cy="407.41" fill="#ADD1B2" rx="11" ry="11" style="stroke:#181818;stroke-width:1;"/><path d="M728.3494,402.6912 Q727.4275,402.6912 726.6931,403.0037 Q725.9744,403.3162 725.4744,403.91 Q724.9744,404.4881 724.6931,405.3631 Q724.4275,406.2381 724.4275,407.3319 Q724.4275,408.7694 724.865,409.8162 Q725.3181,410.8631 726.1619,411.41 Q727.0213,411.9569 728.3338,411.9569 Q729.115,411.9569 729.8025,411.8319 Q730.5056,411.6912 731.5056,411.3787 L731.5056,413.2537 Q730.6463,413.5819 729.8806,413.7069 Q729.1306,413.8319 728.115,413.8319 Q726.1931,413.8319 724.8806,413.035 Q723.5838,412.2225 722.9275,410.7537 Q722.2713,409.2694 722.2713,407.3006 Q722.2713,405.8787 722.6619,404.7069 Q723.0681,403.5194 723.8494,402.6444 Q724.6306,401.7694 725.7713,401.3006 Q726.9119,400.8162 728.3806,400.8162 Q729.3338,400.8162 730.2244,401.0194 Q731.1306,401.2069 732.0681,401.6756 L731.24,403.4569 Q730.4588,403.0819 729.8025,402.8944 Q729.1463,402.6912 728.3494,402.6912 Z " fill="#000000"/><text fill="#FF0000" font-family="sans-serif" font-size="14" lengthAdjust="spacing" textLength="90.1037" x="742.24" y="412.842">PreflightError</text><line style="stroke:#181818;stroke-width:0.5;" x1="714.24" x2="834.3437" y1="423.41" y2="423.41"/><line style="stroke:#181818;stroke-width:0.5;" x1="714.24" x2="834.3437" y1="431.41" y2="431.41"/></g><!--class dyno_lab.preflight.PreflightReport--><g class="entity" data-qualified-name="dyno_lab.preflight.PreflightReport" data-source-line="77" id="ent0016"><rect fill="#F1F1F1" height="143.3396" rx="2.5" ry="2.5" style="stroke:#181818;stroke-width:0.5;" width="184.0453" x="2557.27" y="343.74"/><ellipse cx="2595.2298" cy="359.74" fill="#ADD1B2" rx="11" ry="11" style="stroke:#181818;stroke-width:1;"/><path d="M2595.3391,355.0213 Q2594.4173,355.0213 2593.6829,355.3338 Q2592.9641,355.6463 2592.4641,356.24 Q2591.9641,356.8181 2591.6829,357.6931 Q2591.4173,358.5681 2591.4173,359.6619 Q2591.4173,361.0994 2591.8548,362.1463 Q2592.3079,363.1931 2593.1516,363.74 Q2594.011,364.2869 2595.3235,364.2869 Q2596.1048,364.2869 2596.7923,364.1619 Q2597.4954,364.0213 2598.4954,363.7088 L2598.4954,365.5838 Q2597.636,365.9119 2596.8704,366.0369 Q2596.1204,366.1619 2595.1048,366.1619 Q2593.1829,366.1619 2591.8704,365.365 Q2590.5735,364.5525 2589.9173,363.0838 Q2589.261,361.5994 2589.261,359.6306 Q2589.261,358.2088 2589.6516,357.0369 Q2590.0579,355.8494 2590.8391,354.9744 Q2591.6204,354.0994 2592.761,353.6306 Q2593.9016,353.1463 2595.3704,353.1463 Q2596.3235,353.1463 2597.2141,353.3494 Q2598.1204,353.5369 2599.0579,354.0056 L2598.2298,355.7869 Q2597.4485,355.4119 2596.7923,355.2244 Q2596.136,355.0213 2595.3391,355.0213 Z " fill="#000000"/><text fill="#000000" font-family="sans-serif" font-size="14" lengthAdjust="spacing" textLength="101.0236" x="2614.3319" y="365.172">PreflightReport</text><line style="stroke:#181818;stroke-width:0.5;" x1="2558.27" x2="2740.3153" y1="375.74" y2="375.74"/><text fill="#000000" font-family="sans-serif" font-size="14" lengthAdjust="spacing" textLength="107.8696" x="2563.27" y="394.7059">all_passed : bool</text><text fill="#000000" font-family="sans-serif" font-size="14" lengthAdjust="spacing" textLength="162.0634" x="2563.27" y="413.7739">failed : list[_CheckResult]</text><text fill="#000000" font-family="sans-serif" font-size="14" lengthAdjust="spacing" textLength="172.0453" x="2563.27" y="432.8418">passed : list[_CheckResult]</text><text fill="#000000" font-family="sans-serif" font-size="14" lengthAdjust="spacing" textLength="170.0713" x="2563.27" y="451.9097">results : list[_CheckResult]</text><line style="stroke:#181818;stroke-width:0.5;" x1="2558.27" x2="2740.3153" y1="460.0117" y2="460.0117"/><text fill="#000000" font-family="sans-serif" font-size="14" lengthAdjust="spacing" textLength="152.9634" x="2563.27" y="478.9776">raise_if_failed() -&gt; None</text></g><!--class dyno_lab.preflight.PreflightSuite--><g class="entity" data-qualified-name="dyno_lab.preflight.PreflightSuite" data-source-line="84" id="ent0017"><rect fill="#F1F1F1" height="162.4075" rx="2.5" ry="2.5" style="stroke:#181818;stroke-width:0.5;" width="422.2125" x="870.19" y="334.21"/><ellipse cx="1032.3444" cy="350.21" fill="#ADD1B2" rx="11" ry="11" style="stroke:#181818;stroke-width:1;"/><path d="M1032.4538,345.4912 Q1031.5319,345.4912 1030.7976,345.8037 Q1030.0788,346.1162 1029.5788,346.71 Q1029.0788,347.2881 1028.7976,348.1631 Q1028.5319,349.0381 1028.5319,350.1319 Q1028.5319,351.5694 1028.9694,352.6162 Q1029.4226,353.6631 1030.2663,354.21 Q1031.1257,354.7569 1032.4382,354.7569 Q1033.2194,354.7569 1033.9069,354.6319 Q1034.6101,354.4912 1035.6101,354.1787 L1035.6101,356.0537 Q1034.7507,356.3819 1033.9851,356.5069 Q1033.2351,356.6319 1032.2194,356.6319 Q1030.2976,356.6319 1028.9851,355.835 Q1027.6882,355.0225 1027.0319,353.5537 Q1026.3757,352.0694 1026.3757,350.1006 Q1026.3757,348.6787 1026.7663,347.5069 Q1027.1726,346.3194 1027.9538,345.4444 Q1028.7351,344.5694 1029.8757,344.1006 Q1031.0163,343.6162 1032.4851,343.6162 Q1033.4382,343.6162 1034.3288,343.8194 Q1035.2351,344.0069 1036.1726,344.4756 L1035.3444,346.2569 Q1034.5632,345.8819 1033.9069,345.6944 Q1033.2507,345.4912 1032.4538,345.4912 Z " fill="#000000"/><text fill="#000000" font-family="sans-serif" font-size="14" lengthAdjust="spacing" textLength="89.4037" x="1052.8444" y="355.642">PreflightSuite</text><line style="stroke:#181818;stroke-width:0.5;" x1="871.19" x2="1291.4025" y1="366.21" y2="366.21"/><line style="stroke:#181818;stroke-width:0.5;" x1="871.19" x2="1291.4025" y1="374.21" y2="374.21"/><text fill="#000000" font-family="sans-serif" font-size="14" lengthAdjust="spacing" textLength="195.7052" x="876.19" y="393.1759">require_env() -&gt; PreflightSuite</text><text fill="#000000" font-family="sans-serif" font-size="14" lengthAdjust="spacing" textLength="216.6632" x="876.19" y="412.2439">require_import() -&gt; PreflightSuite</text><text fill="#000000" font-family="sans-serif" font-size="14" lengthAdjust="spacing" textLength="410.2125" x="876.19" y="431.3118">require_port(host: str, port: int, timeout: float) -&gt; PreflightSuite</text><text fill="#000000" font-family="sans-serif" font-size="14" lengthAdjust="spacing" textLength="197.6512" x="876.19" y="450.3797">require_tool() -&gt; PreflightSuite</text><text fill="#000000" font-family="sans-serif" font-size="14" lengthAdjust="spacing" textLength="329.4888" x="876.19" y="469.4476">require_url(url: str, timeout: float) -&gt; PreflightSuite</text><text fill="#000000" font-family="sans-serif" font-size="14" lengthAdjust="spacing" textLength="152.3054" x="876.19" y="488.5155">run() -&gt; PreflightReport</text></g><!--class dyno_lab.proc.ProcessRecorder--><g class="entity" data-qualified-name="dyno_lab.proc.ProcessRecorder" data-source-line="92" id="ent0018"><rect fill="#F1F1F1" height="124.2717" rx="2.5" ry="2.5" style="stroke:#181818;stroke-width:0.5;" width="281.541" x="2273.52" y="64.2"/><ellipse cx="2354.7337" cy="80.2" fill="#ADD1B2" rx="11" ry="11" style="stroke:#181818;stroke-width:1;"/><path d="M2354.8431,75.4812 Q2353.9212,75.4812 2353.1868,75.7937 Q2352.4681,76.1062 2351.9681,76.7 Q2351.4681,77.2781 2351.1868,78.1531 Q2350.9212,79.0281 2350.9212,80.1219 Q2350.9212,81.5594 2351.3587,82.6062 Q2351.8118,83.6531 2352.6556,84.2 Q2353.515,84.7469 2354.8275,84.7469 Q2355.6087,84.7469 2356.2962,84.6219 Q2356.9993,84.4812 2357.9993,84.1687 L2357.9993,86.0437 Q2357.14,86.3719 2356.3743,86.4969 Q2355.6243,86.6219 2354.6087,86.6219 Q2352.6868,86.6219 2351.3743,85.825 Q2350.0775,85.0125 2349.4212,83.5437 Q2348.765,82.0594 2348.765,80.0906 Q2348.765,78.6687 2349.1556,77.4969 Q2349.5618,76.3094 2350.3431,75.4344 Q2351.1243,74.5594 2352.265,74.0906 Q2353.4056,73.6062 2354.8743,73.6062 Q2355.8275,73.6062 2356.7181,73.8094 Q2357.6243,73.9969 2358.5618,74.4656 L2357.7337,76.2469 Q2356.9525,75.8719 2356.2962,75.6844 Q2355.64,75.4812 2354.8431,75.4812 Z " fill="#000000"/><text fill="#000000" font-family="sans-serif" font-size="14" lengthAdjust="spacing" textLength="110.6136" x="2375.2337" y="85.632">ProcessRecorder</text><line style="stroke:#181818;stroke-width:0.5;" x1="2274.52" x2="2554.061" y1="96.2" y2="96.2"/><text fill="#000000" font-family="sans-serif" font-size="14" lengthAdjust="spacing" textLength="93.9116" x="2279.52" y="115.1659">call_count : int</text><text fill="#000000" font-family="sans-serif" font-size="14" lengthAdjust="spacing" textLength="152.9634" x="2279.52" y="134.2339">calls : list[CapturedCall]</text><line style="stroke:#181818;stroke-width:0.5;" x1="2274.52" x2="2554.061" y1="142.3358" y2="142.3358"/><text fill="#000000" font-family="sans-serif" font-size="14" lengthAdjust="spacing" textLength="269.541" x="2279.52" y="161.3018">commands() -&gt; list[list[str] | tuple[str, ...]]</text><text fill="#000000" font-family="sans-serif" font-size="14" lengthAdjust="spacing" textLength="154.0694" x="2279.52" y="180.3697">stdin_inputs() -&gt; list[str]</text></g><!--class dyno_lab.http.RaisingSession--><g class="entity" data-qualified-name="dyno_lab.http.RaisingSession" data-source-line="98" id="ent0019"><rect fill="#F1F1F1" height="86.1358" rx="2.5" ry="2.5" style="stroke:#181818;stroke-width:0.5;" width="129.4816" x="14.55" y="632.82"/><ellipse cx="29.55" cy="648.82" fill="#ADD1B2" rx="11" ry="11" style="stroke:#181818;stroke-width:1;"/><path d="M29.6594,644.1012 Q28.7375,644.1012 28.0031,644.4137 Q27.2844,644.7262 26.7844,645.32 Q26.2844,645.8981 26.0031,646.7731 Q25.7375,647.6481 25.7375,648.7419 Q25.7375,650.1794 26.175,651.2262 Q26.6281,652.2731 27.4719,652.82 Q28.3313,653.3669 29.6438,653.3669 Q30.425,653.3669 31.1125,653.2419 Q31.8156,653.1012 32.8156,652.7887 L32.8156,654.6637 Q31.9563,654.9919 31.1906,655.1169 Q30.4406,655.2419 29.425,655.2419 Q27.5031,655.2419 26.1906,654.445 Q24.8938,653.6325 24.2375,652.1637 Q23.5813,650.6794 23.5813,648.7106 Q23.5813,647.2887 23.9719,646.1169 Q24.3781,644.9294 25.1594,644.0544 Q25.9406,643.1794 27.0813,642.7106 Q28.2219,642.2262 29.6906,642.2262 Q30.6438,642.2262 31.5344,642.4294 Q32.4406,642.6169 33.3781,643.0856 L32.55,644.8669 Q31.7688,644.4919 31.1125,644.3044 Q30.4563,644.1012 29.6594,644.1012 Z " fill="#000000"/><text fill="#000000" font-family="sans-serif" font-size="14" lengthAdjust="spacing" textLength="97.4816" x="43.55" y="654.252">RaisingSession</text><line style="stroke:#181818;stroke-width:0.5;" x1="15.55" x2="143.0316" y1="664.82" y2="664.82"/><line style="stroke:#181818;stroke-width:0.5;" x1="15.55" x2="143.0316" y1="672.82" y2="672.82"/><text fill="#000000" font-family="sans-serif" font-size="14" lengthAdjust="spacing" textLength="85.4137" x="20.55" y="691.7859">get() -&gt; None</text><text fill="#000000" font-family="sans-serif" font-size="14" lengthAdjust="spacing" textLength="92.6936" x="20.55" y="710.8539">post() -&gt; None</text></g><!--class dyno_lab.http.SequenceSession--><g class="entity" data-qualified-name="dyno_lab.http.SequenceSession" data-source-line="102" id="ent0020"><rect fill="#F1F1F1" height="143.3396" rx="2.5" ry="2.5" style="stroke:#181818;stroke-width:0.5;" width="410.5785" x="2744" y="54.67"/><ellipse cx="2888.1715" cy="70.67" fill="#ADD1B2" rx="11" ry="11" style="stroke:#181818;stroke-width:1;"/><path d="M2888.2809,65.9512 Q2887.359,65.9512 2886.6246,66.2637 Q2885.9059,66.5762 2885.4059,67.17 Q2884.9059,67.7481 2884.6246,68.6231 Q2884.359,69.4981 2884.359,70.5919 Q2884.359,72.0294 2884.7965,73.0762 Q2885.2496,74.1231 2886.0934,74.67 Q2886.9527,75.2169 2888.2652,75.2169 Q2889.0465,75.2169 2889.734,75.0919 Q2890.4371,74.9512 2891.4371,74.6387 L2891.4371,76.5137 Q2890.5777,76.8419 2889.8121,76.9669 Q2889.0621,77.0919 2888.0465,77.0919 Q2886.1246,77.0919 2884.8121,76.295 Q2883.5152,75.4825 2882.859,74.0137 Q2882.2027,72.5294 2882.2027,70.5606 Q2882.2027,69.1387 2882.5934,67.9669 Q2882.9996,66.7794 2883.7809,65.9044 Q2884.5621,65.0294 2885.7027,64.5606 Q2886.8434,64.0762 2888.3121,64.0762 Q2889.2652,64.0762 2890.1559,64.2794 Q2891.0621,64.4669 2891.9996,64.9356 L2891.1715,66.7169 Q2890.3902,66.3419 2889.734,66.1544 Q2889.0777,65.9512 2888.2809,65.9512 Z " fill="#000000"/><text fill="#000000" font-family="sans-serif" font-size="14" lengthAdjust="spacing" textLength="113.7355" x="2908.6715" y="76.102">SequenceSession</text><line style="stroke:#181818;stroke-width:0.5;" x1="2745" x2="3153.5785" y1="86.67" y2="86.67"/><text fill="#000000" font-family="sans-serif" font-size="14" lengthAdjust="spacing" textLength="93.9116" x="2750" y="105.6359">call_count : int</text><text fill="#000000" font-family="sans-serif" font-size="14" lengthAdjust="spacing" textLength="188.7753" x="2750" y="124.7039">calls : list[_CapturedRequest]</text><line style="stroke:#181818;stroke-width:0.5;" x1="2745" x2="3153.5785" y1="132.8058" y2="132.8058"/><text fill="#000000" font-family="sans-serif" font-size="14" lengthAdjust="spacing" textLength="391.2986" x="2750" y="151.7718">get(url: str, params: dict[str, Any] | None) -&gt; _FakeResponse</text><text fill="#000000" font-family="sans-serif" font-size="14" lengthAdjust="spacing" textLength="398.5785" x="2750" y="170.8397">post(url: str, params: dict[str, Any] | None) -&gt; _FakeResponse</text><text fill="#000000" font-family="sans-serif" font-size="14" lengthAdjust="spacing" textLength="143.2055" x="2750" y="189.9076">urls_called() -&gt; list[str]</text></g><!--class dyno_lab.smoke.SmokeResult--><g class="entity" data-qualified-name="dyno_lab.smoke.SmokeResult" data-source-line="109" id="ent0021"><rect fill="#F1F1F1" height="181.4754" rx="2.5" ry="2.5" style="stroke:#181818;stroke-width:0.5;" width="391.0206" x="178.78" y="585.15"/><ellipse cx="327.4175" cy="601.15" fill="#ADD1B2" rx="11" ry="11" style="stroke:#181818;stroke-width:1;"/><path d="M327.5268,596.4313 Q326.605,596.4313 325.8706,596.7438 Q325.1518,597.0563 324.6518,597.65 Q324.1518,598.2281 323.8706,599.1031 Q323.605,599.9781 323.605,601.0719 Q323.605,602.5094 324.0425,603.5563 Q324.4956,604.6031 325.3393,605.15 Q326.1987,605.6969 327.5112,605.6969 Q328.2925,605.6969 328.98,605.5719 Q329.6831,605.4313 330.6831,605.1188 L330.6831,606.9938 Q329.8237,607.3219 329.0581,607.4469 Q328.3081,607.5719 327.2925,607.5719 Q325.3706,607.5719 324.0581,606.775 Q322.7612,605.9625 322.105,604.4938 Q321.4487,603.0094 321.4487,601.0406 Q321.4487,599.6188 321.8393,598.4469 Q322.2456,597.2594 323.0268,596.3844 Q323.8081,595.5094 324.9487,595.0406 Q326.0893,594.5563 327.5581,594.5563 Q328.5112,594.5563 329.4018,594.7594 Q330.3081,594.9469 331.2456,595.4156 L330.4175,597.1969 Q329.6362,596.8219 328.98,596.6344 Q328.3237,596.4313 327.5268,596.4313 Z " fill="#000000"/><text fill="#000000" font-family="sans-serif" font-size="14" lengthAdjust="spacing" textLength="85.2457" x="347.9175" y="606.582">SmokeResult</text><line style="stroke:#181818;stroke-width:0.5;" x1="179.78" x2="568.8006" y1="617.15" y2="617.15"/><text fill="#000000" font-family="sans-serif" font-size="14" lengthAdjust="spacing" textLength="71.9177" x="184.78" y="636.1159">details : str</text><text fill="#000000" font-family="sans-serif" font-size="14" lengthAdjust="spacing" textLength="87.3317" x="184.78" y="655.1839">message : str</text><text fill="#000000" font-family="sans-serif" font-size="14" lengthAdjust="spacing" textLength="66.0658" x="184.78" y="674.2518">name : str</text><text fill="#000000" font-family="sans-serif" font-size="14" lengthAdjust="spacing" textLength="86.5757" x="184.78" y="693.3197">passed : bool</text><text fill="#000000" font-family="sans-serif" font-size="14" lengthAdjust="spacing" textLength="90.2997" x="184.78" y="712.3876">passed_result</text><line style="stroke:#181818;stroke-width:0.5;" x1="179.78" x2="568.8006" y1="720.4896" y2="720.4896"/><text fill="#000000" font-family="sans-serif" font-size="14" lengthAdjust="spacing" textLength="379.0206" x="184.78" y="739.4555">failed(name: str, message: str, details: str) -&gt; SmokeResult</text><text fill="#000000" font-family="sans-serif" font-size="14" lengthAdjust="spacing" textLength="358.5667" x="184.78" y="758.5234">ok(name: str, message: str, details: str) -&gt; SmokeResult</text></g><!--class dyno_lab.smoke.SmokeRunner--><g class="entity" data-qualified-name="dyno_lab.smoke.SmokeRunner" data-source-line="118" id="ent0022"><rect fill="#F1F1F1" height="67.0679" rx="2.5" ry="2.5" style="stroke:#181818;stroke-width:0.5;" width="192.4873" x="605.05" y="642.35"/><ellipse cx="650.5638" cy="658.35" fill="#ADD1B2" rx="11" ry="11" style="stroke:#181818;stroke-width:1;"/><path d="M650.6732,653.6313 Q649.7513,653.6313 649.017,653.9438 Q648.2982,654.2563 647.7982,654.85 Q647.2982,655.4281 647.017,656.3031 Q646.7513,657.1781 646.7513,658.2719 Q646.7513,659.7094 647.1888,660.7563 Q647.642,661.8031 648.4857,662.35 Q649.3451,662.8969 650.6576,662.8969 Q651.4388,662.8969 652.1263,662.7719 Q652.8295,662.6313 653.8295,662.3188 L653.8295,664.1938 Q652.9701,664.5219 652.2045,664.6469 Q651.4545,664.7719 650.4388,664.7719 Q648.517,664.7719 647.2045,663.975 Q645.9076,663.1625 645.2513,661.6938 Q644.5951,660.2094 644.5951,658.2406 Q644.5951,656.8188 644.9857,655.6469 Q645.392,654.4594 646.1732,653.5844 Q646.9545,652.7094 648.0951,652.2406 Q649.2357,651.7563 650.7045,651.7563 Q651.6576,651.7563 652.5482,651.9594 Q653.4545,652.1469 654.392,652.6156 L653.5638,654.3969 Q652.7826,654.0219 652.1263,653.8344 Q651.4701,653.6313 650.6732,653.6313 Z " fill="#000000"/><text fill="#000000" font-family="sans-serif" font-size="14" lengthAdjust="spacing" textLength="92.9596" x="671.0638" y="663.782">SmokeRunner</text><line style="stroke:#181818;stroke-width:0.5;" x1="606.05" x2="796.5373" y1="674.35" y2="674.35"/><line style="stroke:#181818;stroke-width:0.5;" x1="606.05" x2="796.5373" y1="682.35" y2="682.35"/><text fill="#000000" font-family="sans-serif" font-size="14" lengthAdjust="spacing" textLength="180.4873" x="611.05" y="701.3159">run_all() -&gt; SmokeSummary</text></g><!--class dyno_lab.smoke.SmokeSummary--><g class="entity" data-qualified-name="dyno_lab.smoke.SmokeSummary" data-source-line="121" id="ent0023"><rect fill="#F1F1F1" height="143.3396" rx="2.5" ry="2.5" style="stroke:#181818;stroke-width:0.5;" width="182.8554" x="832.87" y="604.22"/><ellipse cx="867.1947" cy="620.22" fill="#ADD1B2" rx="11" ry="11" style="stroke:#181818;stroke-width:1;"/><path d="M867.3041,615.5012 Q866.3822,615.5012 865.6478,615.8137 Q864.9291,616.1262 864.4291,616.72 Q863.9291,617.2981 863.6478,618.1731 Q863.3822,619.0481 863.3822,620.1419 Q863.3822,621.5794 863.8197,622.6262 Q864.2728,623.6731 865.1166,624.22 Q865.9759,624.7669 867.2884,624.7669 Q868.0697,624.7669 868.7572,624.6419 Q869.4603,624.5012 870.4603,624.1887 L870.4603,626.0637 Q869.6009,626.3919 868.8353,626.5169 Q868.0853,626.6419 867.0697,626.6419 Q865.1478,626.6419 863.8353,625.845 Q862.5384,625.0325 861.8822,623.5637 Q861.2259,622.0794 861.2259,620.1106 Q861.2259,618.6887 861.6166,617.5169 Q862.0228,616.3294 862.8041,615.4544 Q863.5853,614.5794 864.7259,614.1106 Q865.8666,613.6262 867.3353,613.6262 Q868.2884,613.6262 869.1791,613.8294 Q870.0853,614.0169 871.0228,614.4856 L870.1947,616.2669 Q869.4134,615.8919 868.7572,615.7044 Q868.1009,615.5012 867.3041,615.5012 Z " fill="#000000"/><text fill="#000000" font-family="sans-serif" font-size="14" lengthAdjust="spacing" textLength="107.9116" x="885.4891" y="625.652">SmokeSummary</text><line style="stroke:#181818;stroke-width:0.5;" x1="833.87" x2="1014.7254" y1="636.22" y2="636.22"/><text fill="#000000" font-family="sans-serif" font-size="14" lengthAdjust="spacing" textLength="107.8696" x="838.87" y="655.1859">all_passed : bool</text><text fill="#000000" font-family="sans-serif" font-size="14" lengthAdjust="spacing" textLength="160.8734" x="838.87" y="674.2539">failed : list[SmokeResult]</text><text fill="#000000" font-family="sans-serif" font-size="14" lengthAdjust="spacing" textLength="170.8554" x="838.87" y="693.3218">passed : list[SmokeResult]</text><text fill="#000000" font-family="sans-serif" font-size="14" lengthAdjust="spacing" textLength="168.8814" x="838.87" y="712.3897">results : list[SmokeResult]</text><line style="stroke:#181818;stroke-width:0.5;" x1="833.87" x2="1014.7254" y1="720.4917" y2="720.4917"/><text fill="#000000" font-family="sans-serif" font-size="14" lengthAdjust="spacing" textLength="152.9634" x="838.87" y="739.4576">raise_if_failed() -&gt; None</text></g><!--class dyno_lab.smoke.SmokeTest--><g class="entity" data-qualified-name="dyno_lab.smoke.SmokeTest" data-source-line="128" id="ent0024"><rect fill="#F1F1F1" height="105.2038" rx="2.5" ry="2.5" style="stroke:#181818;stroke-width:0.5;" width="182.0153" x="1050.29" y="623.29"/><ellipse cx="1101.0188" cy="639.29" fill="#ADD1B2" rx="11" ry="11" style="stroke:#181818;stroke-width:1;"/><path d="M1101.1282,634.5713 Q1100.2063,634.5713 1099.4719,634.8838 Q1098.7532,635.1963 1098.2532,635.79 Q1097.7532,636.3681 1097.4719,637.2431 Q1097.2063,638.1181 1097.2063,639.2119 Q1097.2063,640.6494 1097.6438,641.6963 Q1098.0969,642.7431 1098.9407,643.29 Q1099.8,643.8369 1101.1125,643.8369 Q1101.8938,643.8369 1102.5813,643.7119 Q1103.2844,643.5713 1104.2844,643.2588 L1104.2844,645.1338 Q1103.425,645.4619 1102.6594,645.5869 Q1101.9094,645.7119 1100.8938,645.7119 Q1098.9719,645.7119 1097.6594,644.915 Q1096.3625,644.1025 1095.7063,642.6338 Q1095.05,641.1494 1095.05,639.1806 Q1095.05,637.7588 1095.4407,636.5869 Q1095.8469,635.3994 1096.6282,634.5244 Q1097.4094,633.6494 1098.55,633.1806 Q1099.6907,632.6963 1101.1594,632.6963 Q1102.1125,632.6963 1103.0032,632.8994 Q1103.9094,633.0869 1104.8469,633.5556 L1104.0188,635.3369 Q1103.2375,634.9619 1102.5813,634.7744 Q1101.925,634.5713 1101.1282,634.5713 Z " fill="#000000"/><text fill="#000000" font-family="sans-serif" font-size="14" lengthAdjust="spacing" textLength="72.0577" x="1121.5188" y="644.722">SmokeTest</text><line style="stroke:#181818;stroke-width:0.5;" x1="1051.29" x2="1231.3053" y1="655.29" y2="655.29"/><text fill="#000000" font-family="sans-serif" font-size="14" lengthAdjust="spacing" textLength="66.0658" x="1056.29" y="674.2559">name : str</text><line style="stroke:#181818;stroke-width:0.5;" x1="1051.29" x2="1231.3053" y1="682.3579" y2="682.3579"/><text fill="#000000" font-family="sans-serif" font-size="14" font-style="italic" lengthAdjust="spacing" textLength="128.1135" x="1056.29" y="701.3239">run() -&gt; SmokeResult</text><text fill="#000000" font-family="sans-serif" font-size="14" lengthAdjust="spacing" textLength="170.0153" x="1056.29" y="720.3918">run_safe() -&gt; SmokeResult</text></g><!--class dyno_lab.http.StaticSession--><g class="entity" data-qualified-name="dyno_lab.http.StaticSession" data-source-line="133" id="ent0025"><rect fill="#F1F1F1" height="105.2038" rx="2.5" ry="2.5" style="stroke:#181818;stroke-width:0.5;" width="301.7849" x="3189.4" y="73.73"/><ellipse cx="3293.1886" cy="89.73" fill="#ADD1B2" rx="11" ry="11" style="stroke:#181818;stroke-width:1;"/><path d="M3293.298,85.0112 Q3292.3761,85.0112 3291.6418,85.3237 Q3290.923,85.6362 3290.423,86.23 Q3289.923,86.8081 3289.6418,87.6831 Q3289.3761,88.5581 3289.3761,89.6519 Q3289.3761,91.0894 3289.8136,92.1362 Q3290.2668,93.1831 3291.1105,93.73 Q3291.9699,94.2769 3293.2824,94.2769 Q3294.0636,94.2769 3294.7511,94.1519 Q3295.4543,94.0112 3296.4543,93.6987 L3296.4543,95.5737 Q3295.5949,95.9019 3294.8293,96.0269 Q3294.0793,96.1519 3293.0636,96.1519 Q3291.1418,96.1519 3289.8293,95.355 Q3288.5324,94.5425 3287.8761,93.0737 Q3287.2199,91.5894 3287.2199,89.6206 Q3287.2199,88.1987 3287.6105,87.0269 Q3288.0168,85.8394 3288.798,84.9644 Q3289.5793,84.0894 3290.7199,83.6206 Q3291.8605,83.1362 3293.3293,83.1362 Q3294.2824,83.1362 3295.173,83.3394 Q3296.0793,83.5269 3297.0168,83.9956 L3296.1886,85.7769 Q3295.4074,85.4019 3294.7511,85.2144 Q3294.0949,85.0112 3293.298,85.0112 Z " fill="#000000"/><text fill="#000000" font-family="sans-serif" font-size="14" lengthAdjust="spacing" textLength="85.7077" x="3313.6886" y="95.162">StaticSession</text><line style="stroke:#181818;stroke-width:0.5;" x1="3190.4" x2="3490.1849" y1="105.73" y2="105.73"/><text fill="#000000" font-family="sans-serif" font-size="14" lengthAdjust="spacing" textLength="188.7753" x="3195.4" y="124.6959">calls : list[_CapturedRequest]</text><line style="stroke:#181818;stroke-width:0.5;" x1="3190.4" x2="3490.1849" y1="132.7979" y2="132.7979"/><text fill="#000000" font-family="sans-serif" font-size="14" lengthAdjust="spacing" textLength="282.5049" x="3195.4" y="151.7639">get(url: str, params: Any) -&gt; _FakeResponse</text><text fill="#000000" font-family="sans-serif" font-size="14" lengthAdjust="spacing" textLength="289.7849" x="3195.4" y="170.8318">post(url: str, params: Any) -&gt; _FakeResponse</text></g><!--class dyno_lab.auto_pass.StubKeepassCommandError--><g class="entity" data-qualified-name="dyno_lab.auto_pass.StubKeepassCommandError" data-source-line="138" id="ent0026"><rect fill="#F1F1F1" height="48" rx="2.5" ry="2.5" style="stroke:#181818;stroke-width:0.5;" width="218.5493" x="2020.02" y="102.34"/><ellipse cx="2035.02" cy="118.34" fill="#ADD1B2" rx="11" ry="11" style="stroke:#181818;stroke-width:1;"/><path d="M2035.1294,113.6212 Q2034.2075,113.6212 2033.4731,113.9337 Q2032.7544,114.2462 2032.2544,114.84 Q2031.7544,115.4181 2031.4731,116.2931 Q2031.2075,117.1681 2031.2075,118.2619 Q2031.2075,119.6994 2031.645,120.7462 Q2032.0981,121.7931 2032.9419,122.34 Q2033.8013,122.8869 2035.1138,122.8869 Q2035.895,122.8869 2036.5825,122.7619 Q2037.2856,122.6212 2038.2856,122.3087 L2038.2856,124.1837 Q2037.4263,124.5119 2036.6606,124.6369 Q2035.9106,124.7619 2034.895,124.7619 Q2032.9731,124.7619 2031.6606,123.965 Q2030.3638,123.1525 2029.7075,121.6837 Q2029.0513,120.1994 2029.0513,118.2306 Q2029.0513,116.8087 2029.4419,115.6369 Q2029.8481,114.4494 2030.6294,113.5744 Q2031.4106,112.6994 2032.5513,112.2306 Q2033.6919,111.7462 2035.1606,111.7462 Q2036.1138,111.7462 2037.0044,111.9494 Q2037.9106,112.1369 2038.8481,112.6056 L2038.02,114.3869 Q2037.2388,114.0119 2036.5825,113.8244 Q2035.9263,113.6212 2035.1294,113.6212 Z " fill="#000000"/><text fill="#FF0000" font-family="sans-serif" font-size="14" lengthAdjust="spacing" textLength="186.5493" x="2049.02" y="123.772">StubKeepassCommandError</text><line style="stroke:#181818;stroke-width:0.5;" x1="2021.02" x2="2237.5693" y1="134.34" y2="134.34"/><line style="stroke:#181818;stroke-width:0.5;" x1="2021.02" x2="2237.5693" y1="142.34" y2="142.34"/></g><!--class dyno_lab.proc.SubprocessPatch--><g class="entity" data-qualified-name="dyno_lab.proc.SubprocessPatch" data-source-line="140" id="ent0027"><rect fill="#F1F1F1" height="86.1358" rx="2.5" ry="2.5" style="stroke:#181818;stroke-width:0.5;" width="144.5876" x="7" y="884.83"/><ellipse cx="22" cy="900.83" fill="#ADD1B2" rx="11" ry="11" style="stroke:#181818;stroke-width:1;"/><path d="M22.1094,896.1112 Q21.1875,896.1112 20.4531,896.4237 Q19.7344,896.7362 19.2344,897.33 Q18.7344,897.9081 18.4531,898.7831 Q18.1875,899.6581 18.1875,900.7519 Q18.1875,902.1894 18.625,903.2362 Q19.0781,904.2831 19.9219,904.83 Q20.7813,905.3769 22.0938,905.3769 Q22.875,905.3769 23.5625,905.2519 Q24.2656,905.1112 25.2656,904.7987 L25.2656,906.6737 Q24.4063,907.0019 23.6406,907.1269 Q22.8906,907.2519 21.875,907.2519 Q19.9531,907.2519 18.6406,906.455 Q17.3438,905.6425 16.6875,904.1737 Q16.0313,902.6894 16.0313,900.7206 Q16.0313,899.2987 16.4219,898.1269 Q16.8281,896.9394 17.6094,896.0644 Q18.3906,895.1894 19.5313,894.7206 Q20.6719,894.2362 22.1406,894.2362 Q23.0938,894.2362 23.9844,894.4394 Q24.8906,894.6269 25.8281,895.0956 L25,896.8769 Q24.2188,896.5019 23.5625,896.3144 Q22.9063,896.1112 22.1094,896.1112 Z " fill="#000000"/><text fill="#000000" font-family="sans-serif" font-size="14" lengthAdjust="spacing" textLength="112.5876" x="36" y="906.262">SubprocessPatch</text><line style="stroke:#181818;stroke-width:0.5;" x1="8" x2="150.5876" y1="916.83" y2="916.83"/><text fill="#000000" font-family="sans-serif" font-size="14" lengthAdjust="spacing" textLength="106.0076" x="13" y="935.7959">side_effect : Any</text><text fill="#000000" font-family="sans-serif" font-size="14" lengthAdjust="spacing" textLength="68.8238" x="13" y="954.8639">target : str</text><line style="stroke:#181818;stroke-width:0.5;" x1="8" x2="150.5876" y1="962.9658" y2="962.9658"/></g><!--class dyno_lab.fs.TempWorkdir--><g class="entity" data-qualified-name="dyno_lab.fs.TempWorkdir" data-source-line="144" id="ent0028"><rect fill="#F1F1F1" height="200.5433" rx="2.5" ry="2.5" style="stroke:#181818;stroke-width:0.5;" width="358.5547" x="187.02" y="827.63"/><ellipse cx="316.9815" cy="843.63" fill="#ADD1B2" rx="11" ry="11" style="stroke:#181818;stroke-width:1;"/><path d="M317.0909,838.9113 Q316.169,838.9113 315.4346,839.2238 Q314.7159,839.5363 314.2159,840.13 Q313.7159,840.7081 313.4346,841.5831 Q313.169,842.4581 313.169,843.5519 Q313.169,844.9894 313.6065,846.0363 Q314.0596,847.0831 314.9034,847.63 Q315.7628,848.1769 317.0753,848.1769 Q317.8565,848.1769 318.544,848.0519 Q319.2471,847.9113 320.2471,847.5988 L320.2471,849.4738 Q319.3878,849.8019 318.6221,849.9269 Q317.8721,850.0519 316.8565,850.0519 Q314.9346,850.0519 313.6221,849.255 Q312.3253,848.4425 311.669,846.9738 Q311.0128,845.4894 311.0128,843.5206 Q311.0128,842.0988 311.4034,840.9269 Q311.8096,839.7394 312.5909,838.8644 Q313.3721,837.9894 314.5128,837.5206 Q315.6534,837.0363 317.1221,837.0363 Q318.0753,837.0363 318.9659,837.2394 Q319.8721,837.4269 320.8096,837.8956 L319.9815,839.6769 Q319.2003,839.3019 318.544,839.1144 Q317.8878,838.9113 317.0909,838.9113 Z " fill="#000000"/><text fill="#000000" font-family="sans-serif" font-size="14" lengthAdjust="spacing" textLength="90.1317" x="337.4815" y="849.062">TempWorkdir</text><line style="stroke:#181818;stroke-width:0.5;" x1="188.02" x2="544.5747" y1="859.63" y2="859.63"/><text fill="#000000" font-family="sans-serif" font-size="14" lengthAdjust="spacing" textLength="71.2317" x="193.02" y="878.5959">path : Path</text><line style="stroke:#181818;stroke-width:0.5;" x1="188.02" x2="544.5747" y1="886.6979" y2="886.6979"/><text fill="#000000" font-family="sans-serif" font-size="14" lengthAdjust="spacing" textLength="302.1328" x="193.02" y="905.6639">assert_contains(rel_path: str, text: str) -&gt; None</text><text fill="#000000" font-family="sans-serif" font-size="14" lengthAdjust="spacing" textLength="226.0571" x="193.02" y="924.7318">assert_exists(rel_path: str) -&gt; None</text><text fill="#000000" font-family="sans-serif" font-size="14" lengthAdjust="spacing" textLength="254.449" x="193.02" y="943.7997">assert_not_exists(rel_path: str) -&gt; None</text><text fill="#000000" font-family="sans-serif" font-size="14" lengthAdjust="spacing" textLength="175.4053" x="193.02" y="962.8676">mkdir(rel_path: str) -&gt; Path</text><text fill="#000000" font-family="sans-serif" font-size="14" lengthAdjust="spacing" textLength="232.3291" x="193.02" y="981.9355">populate(files: dict[str, str]) -&gt; None</text><text fill="#000000" font-family="sans-serif" font-size="14" lengthAdjust="spacing" textLength="248.0371" x="193.02" y="1001.0034">read(rel_path: str, encoding: str) -&gt; str</text><text fill="#000000" font-family="sans-serif" font-size="14" lengthAdjust="spacing" textLength="346.5547" x="193.02" y="1020.0714">write(rel_path: str, content: str, encoding: str) -&gt; Path</text></g><!--class dyno_lab.http._CapturedRequest--><g class="entity" data-qualified-name="dyno_lab.http._CapturedRequest" data-source-line="154" id="ent0029"><rect fill="#F1F1F1" height="124.2717" rx="2.5" ry="2.5" style="stroke:#181818;stroke-width:0.5;" width="206.4593" x="3042.06" y="353.28"/><ellipse cx="3081.0971" cy="369.28" fill="#ADD1B2" rx="11" ry="11" style="stroke:#181818;stroke-width:1;"/><path d="M3081.2065,364.5613 Q3080.2846,364.5613 3079.5502,364.8738 Q3078.8315,365.1863 3078.3315,365.78 Q3077.8315,366.3581 3077.5502,367.2331 Q3077.2846,368.1081 3077.2846,369.2019 Q3077.2846,370.6394 3077.7221,371.6863 Q3078.1752,372.7331 3079.019,373.28 Q3079.8783,373.8269 3081.1908,373.8269 Q3081.9721,373.8269 3082.6596,373.7019 Q3083.3627,373.5613 3084.3627,373.2488 L3084.3627,375.1238 Q3083.5033,375.4519 3082.7377,375.5769 Q3081.9877,375.7019 3080.9721,375.7019 Q3079.0502,375.7019 3077.7377,374.905 Q3076.4408,374.0925 3075.7846,372.6238 Q3075.1283,371.1394 3075.1283,369.1706 Q3075.1283,367.7488 3075.519,366.5769 Q3075.9252,365.3894 3076.7065,364.5144 Q3077.4877,363.6394 3078.6283,363.1706 Q3079.769,362.6863 3081.2377,362.6863 Q3082.1908,362.6863 3083.0815,362.8894 Q3083.9877,363.0769 3084.9252,363.5456 L3084.0971,365.3269 Q3083.3158,364.9519 3082.6596,364.7644 Q3082.0033,364.5613 3081.2065,364.5613 Z " fill="#000000"/><text fill="#000000" font-family="sans-serif" font-size="14" lengthAdjust="spacing" textLength="121.0435" x="3100.4387" y="374.712">_CapturedRequest</text><line style="stroke:#181818;stroke-width:0.5;" x1="3043.06" x2="3247.5193" y1="385.28" y2="385.28"/><text fill="#000000" font-family="sans-serif" font-size="14" lengthAdjust="spacing" textLength="141.3435" x="3048.06" y="404.2459">kwargs : dict[str, Any]</text><text fill="#000000" font-family="sans-serif" font-size="14" lengthAdjust="spacing" textLength="80.3457" x="3048.06" y="423.3139">method : str</text><text fill="#000000" font-family="sans-serif" font-size="14" lengthAdjust="spacing" textLength="194.4593" x="3048.06" y="442.3818">params : dict[str, Any] | None</text><text fill="#000000" font-family="sans-serif" font-size="14" lengthAdjust="spacing" textLength="46.6198" x="3048.06" y="461.4497">url : str</text><line style="stroke:#181818;stroke-width:0.5;" x1="3043.06" x2="3247.5193" y1="469.5517" y2="469.5517"/></g><!--class dyno_lab.preflight._CheckResult--><g class="entity" data-qualified-name="dyno_lab.preflight._CheckResult" data-source-line="160" id="ent0030"><rect fill="#F1F1F1" height="105.2038" rx="2.5" ry="2.5" style="stroke:#181818;stroke-width:0.5;" width="118.4356" x="2590.08" y="73.73"/><ellipse cx="2605.08" cy="89.73" fill="#ADD1B2" rx="11" ry="11" style="stroke:#181818;stroke-width:1;"/><path d="M2605.1894,85.0112 Q2604.2675,85.0112 2603.5331,85.3237 Q2602.8144,85.6362 2602.3144,86.23 Q2601.8144,86.8081 2601.5331,87.6831 Q2601.2675,88.5581 2601.2675,89.6519 Q2601.2675,91.0894 2601.705,92.1362 Q2602.1581,93.1831 2603.0019,93.73 Q2603.8613,94.2769 2605.1738,94.2769 Q2605.955,94.2769 2606.6425,94.1519 Q2607.3456,94.0112 2608.3456,93.6987 L2608.3456,95.5737 Q2607.4863,95.9019 2606.7206,96.0269 Q2605.9706,96.1519 2604.955,96.1519 Q2603.0331,96.1519 2601.7206,95.355 Q2600.4238,94.5425 2599.7675,93.0737 Q2599.1113,91.5894 2599.1113,89.6206 Q2599.1113,88.1987 2599.5019,87.0269 Q2599.9081,85.8394 2600.6894,84.9644 Q2601.4706,84.0894 2602.6113,83.6206 Q2603.7519,83.1362 2605.2206,83.1362 Q2606.1738,83.1362 2607.0644,83.3394 Q2607.9706,83.5269 2608.9081,83.9956 L2608.08,85.7769 Q2607.2988,85.4019 2606.6425,85.2144 Q2605.9863,85.0112 2605.1894,85.0112 Z " fill="#000000"/><text fill="#000000" font-family="sans-serif" font-size="14" lengthAdjust="spacing" textLength="86.4356" x="2619.08" y="95.162">_CheckResult</text><line style="stroke:#181818;stroke-width:0.5;" x1="2591.08" x2="2707.5156" y1="105.73" y2="105.73"/><text fill="#000000" font-family="sans-serif" font-size="14" lengthAdjust="spacing" textLength="65.2118" x="2596.08" y="124.6959">detail : str</text><text fill="#000000" font-family="sans-serif" font-size="14" lengthAdjust="spacing" textLength="60.1578" x="2596.08" y="143.7639">label : str</text><text fill="#000000" font-family="sans-serif" font-size="14" lengthAdjust="spacing" textLength="86.5757" x="2596.08" y="162.8318">passed : bool</text><line style="stroke:#181818;stroke-width:0.5;" x1="2591.08" x2="2707.5156" y1="170.9338" y2="170.9338"/></g><!--class dyno_lab.http._FakeResponse--><g class="entity" data-qualified-name="dyno_lab.http._FakeResponse" data-source-line="165" id="ent0031"><rect fill="#F1F1F1" height="162.4075" rx="2.5" ry="2.5" style="stroke:#181818;stroke-width:0.5;" width="179.2294" x="580.68" y="846.69"/><ellipse cx="616.775" cy="862.69" fill="#ADD1B2" rx="11" ry="11" style="stroke:#181818;stroke-width:1;"/><path d="M616.8844,857.9712 Q615.9625,857.9712 615.2281,858.2837 Q614.5094,858.5962 614.0094,859.19 Q613.5094,859.7681 613.2281,860.6431 Q612.9625,861.5181 612.9625,862.6119 Q612.9625,864.0494 613.4,865.0962 Q613.8531,866.1431 614.6969,866.69 Q615.5562,867.2369 616.8687,867.2369 Q617.65,867.2369 618.3375,867.1119 Q619.0406,866.9712 620.0406,866.6587 L620.0406,868.5337 Q619.1812,868.8619 618.4156,868.9869 Q617.6656,869.1119 616.65,869.1119 Q614.7281,869.1119 613.4156,868.315 Q612.1187,867.5025 611.4625,866.0337 Q610.8062,864.5494 610.8062,862.5806 Q610.8062,861.1587 611.1969,859.9869 Q611.6031,858.7994 612.3844,857.9244 Q613.1656,857.0494 614.3062,856.5806 Q615.4469,856.0962 616.9156,856.0962 Q617.8687,856.0962 618.7594,856.2994 Q619.6656,856.4869 620.6031,856.9556 L619.775,858.7369 Q618.9937,858.3619 618.3375,858.1744 Q617.6812,857.9712 616.8844,857.9712 Z " fill="#000000"/><text fill="#000000" font-family="sans-serif" font-size="14" lengthAdjust="spacing" textLength="100.3516" x="635.4628" y="868.122">_FakeResponse</text><line style="stroke:#181818;stroke-width:0.5;" x1="581.68" x2="758.9094" y1="878.69" y2="878.69"/><text fill="#000000" font-family="sans-serif" font-size="14" lengthAdjust="spacing" textLength="61.4038" x="586.68" y="897.6559">body : str</text><text fill="#000000" font-family="sans-serif" font-size="14" lengthAdjust="spacing" textLength="140.1115" x="586.68" y="916.7239">headers : dict[str, str]</text><text fill="#000000" font-family="sans-serif" font-size="14" lengthAdjust="spacing" textLength="106.2876" x="586.68" y="935.7918">status_code : int</text><text fill="#000000" font-family="sans-serif" font-size="14" lengthAdjust="spacing" textLength="53.9838" x="586.68" y="954.8597">text : str</text><line style="stroke:#181818;stroke-width:0.5;" x1="581.68" x2="758.9094" y1="962.9617" y2="962.9617"/><text fill="#000000" font-family="sans-serif" font-size="14" lengthAdjust="spacing" textLength="80.3737" x="586.68" y="981.9276">json() -&gt; Any</text><text fill="#000000" font-family="sans-serif" font-size="14" lengthAdjust="spacing" textLength="167.2294" x="586.68" y="1000.9955">raise_for_status() -&gt; None</text></g><!--class dyno_lab.time._make_frozen_datetime_class._FrozenDatetime--><g class="entity" data-qualified-name="dyno_lab.time._make_frozen_datetime_class._FrozenDatetime" data-source-line="173" id="ent0032"><rect fill="#F1F1F1" height="86.1358" rx="2.5" ry="2.5" style="stroke:#181818;stroke-width:0.5;" width="359.8847" x="795.35" y="884.83"/><ellipse cx="915.2736" cy="900.83" fill="#ADD1B2" rx="11" ry="11" style="stroke:#181818;stroke-width:1;"/><path d="M915.383,896.1112 Q914.4611,896.1112 913.7267,896.4237 Q913.008,896.7362 912.508,897.33 Q912.008,897.9081 911.7267,898.7831 Q911.4611,899.6581 911.4611,900.7519 Q911.4611,902.1894 911.8986,903.2362 Q912.3517,904.2831 913.1955,904.83 Q914.0548,905.3769 915.3673,905.3769 Q916.1486,905.3769 916.8361,905.2519 Q917.5392,905.1112 918.5392,904.7987 L918.5392,906.6737 Q917.6798,907.0019 916.9142,907.1269 Q916.1642,907.2519 915.1486,907.2519 Q913.2267,907.2519 911.9142,906.455 Q910.6173,905.6425 909.9611,904.1737 Q909.3048,902.6894 909.3048,900.7206 Q909.3048,899.2987 909.6955,898.1269 Q910.1017,896.9394 910.883,896.0644 Q911.6642,895.1894 912.8048,894.7206 Q913.9455,894.2362 915.4142,894.2362 Q916.3673,894.2362 917.258,894.4394 Q918.1642,894.6269 919.1017,895.0956 L918.2736,896.8769 Q917.4923,896.5019 916.8361,896.3144 Q916.1798,896.1112 915.383,896.1112 Z " fill="#000000"/><text fill="#000000" font-family="sans-serif" font-size="14" lengthAdjust="spacing" textLength="111.5376" x="935.7736" y="906.262">_FrozenDatetime</text><line style="stroke:#181818;stroke-width:0.5;" x1="796.35" x2="1154.2347" y1="916.83" y2="916.83"/><line style="stroke:#181818;stroke-width:0.5;" x1="796.35" x2="1154.2347" y1="924.83" y2="924.83"/><text fill="#000000" font-family="sans-serif" font-size="14" lengthAdjust="spacing" textLength="347.8847" x="801.35" y="943.7959">now(tz: datetime.tzinfo | None) -&gt; datetime.datetime</text><text fill="#000000" font-family="sans-serif" font-size="14" lengthAdjust="spacing" textLength="198.6312" x="801.35" y="962.8639">utcnow() -&gt; datetime.datetime</text></g><!--class dyno_lab.log._ListHandler--><g class="entity" data-qualified-name="dyno_lab.log._ListHandler" data-source-line="177" id="ent0033"><rect fill="#F1F1F1" height="67.0679" rx="2.5" ry="2.5" style="stroke:#181818;stroke-width:0.5;" width="280.687" x="1189.95" y="894.36"/><ellipse cx="1285.1916" cy="910.36" fill="#ADD1B2" rx="11" ry="11" style="stroke:#181818;stroke-width:1;"/><path d="M1285.301,905.6413 Q1284.3791,905.6413 1283.6448,905.9538 Q1282.926,906.2663 1282.426,906.86 Q1281.926,907.4381 1281.6448,908.3131 Q1281.3791,909.1881 1281.3791,910.2819 Q1281.3791,911.7194 1281.8166,912.7663 Q1282.2698,913.8131 1283.1135,914.36 Q1283.9729,914.9069 1285.2854,914.9069 Q1286.0666,914.9069 1286.7541,914.7819 Q1287.4573,914.6413 1288.4573,914.3288 L1288.4573,916.2038 Q1287.5979,916.5319 1286.8323,916.6569 Q1286.0823,916.7819 1285.0666,916.7819 Q1283.1448,916.7819 1281.8323,915.985 Q1280.5354,915.1725 1279.8791,913.7038 Q1279.2229,912.2194 1279.2229,910.2506 Q1279.2229,908.8288 1279.6135,907.6569 Q1280.0198,906.4694 1280.801,905.5944 Q1281.5823,904.7194 1282.7229,904.2506 Q1283.8635,903.7663 1285.3323,903.7663 Q1286.2854,903.7663 1287.176,903.9694 Q1288.0823,904.1569 1289.0198,904.6256 L1288.1916,906.4069 Q1287.4104,906.0319 1286.7541,905.8444 Q1286.0979,905.6413 1285.301,905.6413 Z " fill="#000000"/><text fill="#000000" font-family="sans-serif" font-size="14" lengthAdjust="spacing" textLength="81.7037" x="1305.6916" y="915.792">_ListHandler</text><line style="stroke:#181818;stroke-width:0.5;" x1="1190.95" x2="1469.637" y1="926.36" y2="926.36"/><line style="stroke:#181818;stroke-width:0.5;" x1="1190.95" x2="1469.637" y1="934.36" y2="934.36"/><text fill="#000000" font-family="sans-serif" font-size="14" lengthAdjust="spacing" textLength="268.687" x="1195.95" y="953.3259">emit(record: logging.LogRecord) -&gt; None</text></g><!--link dyno_lab.auto_pass.AutoPassRecorder to dyno_lab.auto_pass.AutoPassLoadCall--><g class="link" data-entity-1="ent0005" data-entity-2="ent0003" data-link-type="dependency" data-source-line="180" id="lnk34"><path codeLine="180" d="M1944.5,506.45 C1931.22,541.86 1918.4079,575.9825 1906.4079,607.9625" fill="none" id="dyno_lab.auto_pass.AutoPassRecorder-to-dyno_lab.auto_pass.AutoPassLoadCall" style="stroke:#181818;stroke-width:1;"/><polygon fill="#181818" points="1904.3,613.58,1911.2069,606.559,1906.0566,608.8987,1903.7168,603.7484,1904.3,613.58" style="stroke:#181818;stroke-width:1;"/><text fill="#000000" font-family="sans-serif" font-size="13" lengthAdjust="spacing" textLength="58.747" x="1933.7" y="551.047">load_calls</text></g><!--link dyno_lab.auto_pass.AutoPassPatch to dyno_lab.auto_pass.AutoPassRecorder--><g class="link" data-entity-1="ent0004" data-entity-2="ent0005" data-link-type="dependency" data-source-line="181" id="lnk35"><path codeLine="181" d="M1926.95,160.27 C1934.98,200.03 1947.6318,262.6488 1958.9218,318.5288" fill="none" id="dyno_lab.auto_pass.AutoPassPatch-to-dyno_lab.auto_pass.AutoPassRecorder" style="stroke:#181818;stroke-width:1;"/><polygon fill="#181818" points="1960.11,324.41,1962.2484,314.7961,1959.1198,319.509,1954.4069,316.3804,1960.11,324.41" style="stroke:#181818;stroke-width:1;"/><text fill="#000000" font-family="sans-serif" font-size="13" lengthAdjust="spacing" textLength="52.871" x="1953.77" y="290.577">recorder</text></g><!--link dyno_lab.auto_pass.AutoPassRecorder to dyno_lab.auto_pass.AutoPassResolveCall--><g class="link" data-entity-1="ent0005" data-entity-2="ent0006" data-link-type="dependency" data-source-line="182" id="lnk36"><path codeLine="182" d="M2011.74,506.45 C2024.88,541.86 2037.5506,575.9755 2049.4306,607.9555" fill="none" id="dyno_lab.auto_pass.AutoPassRecorder-to-dyno_lab.auto_pass.AutoPassResolveCall" style="stroke:#181818;stroke-width:1;"/><polygon fill="#181818" points="2051.52,613.58,2052.1356,603.7504,2049.7788,608.893,2044.6363,606.5362,2051.52,613.58" style="stroke:#181818;stroke-width:1;"/><text fill="#000000" font-family="sans-serif" font-size="13" lengthAdjust="spacing" textLength="76.323" x="2030.17" y="551.047">resolve_calls</text></g><!--link dyno_lab.http.SequenceSession to dyno_lab.http._CapturedRequest--><g class="link" data-entity-1="ent0020" data-entity-2="ent0029" data-link-type="dependency" data-source-line="183" id="lnk37"><path codeLine="183" d="M2997.74,198.3 C3030.16,245.79 3069.0273,302.6945 3099.9973,348.0645" fill="none" id="dyno_lab.http.SequenceSession-to-dyno_lab.http._CapturedRequest" style="stroke:#181818;stroke-width:1;"/><polygon fill="#181818" points="3103.38,353.02,3101.6096,343.3316,3100.5611,348.8904,3095.0023,347.8418,3103.38,353.02" style="stroke:#181818;stroke-width:1;"/><text fill="#000000" font-family="sans-serif" font-size="13" lengthAdjust="spacing" textLength="26.468" x="3060.03" y="290.577">calls</text></g><!--link dyno_lab.http.StaticSession to dyno_lab.http._CapturedRequest--><g class="link" data-entity-1="ent0025" data-entity-2="ent0029" data-link-type="dependency" data-source-line="184" id="lnk38"><path codeLine="184" d="M3304.98,179.32 C3271.84,228.12 3225.6008,296.1764 3190.4908,347.8764" fill="none" id="dyno_lab.http.StaticSession-to-dyno_lab.http._CapturedRequest" style="stroke:#181818;stroke-width:1;"/><polygon fill="#181818" points="3187.12,352.84,3195.4853,347.6418,3189.929,348.7037,3188.8672,343.1474,3187.12,352.84" style="stroke:#181818;stroke-width:1;"/><text fill="#000000" font-family="sans-serif" font-size="13" lengthAdjust="spacing" textLength="26.468" x="3237.95" y="290.577">calls</text></g><!--link dyno_lab.proc.ProcessRecorder to dyno_lab.proc.CapturedCall--><g class="link" data-entity-1="ent0018" data-entity-2="ent0008" data-link-type="dependency" data-source-line="185" id="lnk39"><path codeLine="185" d="M2414.29,188.92 C2414.29,244.11 2414.29,317.62 2414.29,365.99" fill="none" id="dyno_lab.proc.ProcessRecorder-to-dyno_lab.proc.CapturedCall" style="stroke:#181818;stroke-width:1;"/><polygon fill="#181818" points="2414.29,371.99,2418.29,362.99,2414.29,366.99,2410.29,362.99,2414.29,371.99" style="stroke:#181818;stroke-width:1;"/><text fill="#000000" font-family="sans-serif" font-size="13" lengthAdjust="spacing" textLength="26.468" x="2415.29" y="290.577">calls</text></g><!--link dyno_lab.auto_pass.StubKeepassCommandError to dyno_lab.auto_pass.AutoPassRecorder--><g class="link" data-entity-1="ent0026" data-entity-2="ent0005" data-link-type="aggregation" data-source-line="186" id="lnk40"><path codeLine="186" d="M2116.94,150.83 C2097.21,188.32 2063.1857,253.0193 2031.3357,313.5793" fill="none" id="dyno_lab.auto_pass.StubKeepassCommandError-to-dyno_lab.auto_pass.AutoPassRecorder" style="stroke:#181818;stroke-width:1;"/><polygon fill="none" points="2025.75,324.2,2032.0831,320.7515,2031.3357,313.5793,2025.0026,317.0277,2025.75,324.2" style="stroke:#181818;stroke-width:1;"/><text fill="#000000" font-family="sans-serif" font-size="13" lengthAdjust="spacing" textLength="145.3661" x="2050.27" y="290.577">KeepassCommandError</text></g><!--link dyno_lab.preflight._CheckResult to dyno_lab.preflight.PreflightReport--><g class="link" data-entity-1="ent0030" data-entity-2="ent0016" data-link-type="aggregation" data-source-line="187" id="lnk41"><path codeLine="187" d="M2649.29,179.32 C2649.29,225.21 2649.29,280.52 2649.29,331.38" fill="none" id="dyno_lab.preflight._CheckResult-to-dyno_lab.preflight.PreflightReport" style="stroke:#181818;stroke-width:1;"/><polygon fill="none" points="2649.29,343.38,2653.29,337.38,2649.29,331.38,2645.29,337.38,2649.29,343.38" style="stroke:#181818;stroke-width:1;"/><text fill="#000000" font-family="sans-serif" font-size="13" lengthAdjust="spacing" textLength="41.236" x="2650.29" y="290.577">results</text></g><?plantuml-src hHZRRjisz3rVGVH90nBjtIWA16wA3ilQ8YwmXo8GQ8cosKYaIbAvjEk_x_2GeYYPYhsi3sqidWlF_KBD316qPRgZ9TkmZYfgf2922dPMDbHhykhI6FM9cdB_Yb1DgYSXYuPkyyuUvG58Vfpz31IzaP_WrxMarPespPIG0hJe09pFyO078KpSSoK5MH6v_SfA0qVodYd5AmPdMoaRE87Bzp56fsJD6pOU7SYIqE1Ga44JGXGhfQgOEcHquo77U0ruoEvFnYnmBTkMYkfAAQdWj06zYn8Kro1umxNvChV8BOgYPNFFqeWt3ZZWqgeg0B-JGhEC2QEULaGRTKvaRqhPiXMv54-_aOitv8FrC25tJh22MP4oY0DDTmnf46jZ-krpiajHyrtXNTR2XPdrpE05P67whc5VAbwQBoW9_7TxJgRViPfUeiUoGFadMb28Dbsqj5lD6E1DqwEKvuAjZZileAB_uAzyABWmJD7IyFie58DCP2uK09s1uaX5TGZgCqgullxZCzFcB_x8nLIqik5v37N1sOi205dTYn8z2fPHE-r3mrvD_a47MpagBl0sVuIMMZSSDEoRA4_Mj3EzOebyXTmgynZiB08NakcDpjEeVfxdLlsx1uys6WQaZLmJ14beFO1SLNZa1i8DQm2umHQ5tdIzyPOaLb68uVXJHb2uZ2dZejn6hQ5SwComHpF6kiy8ZrfJte326Nlim76imilnxjYGKnedqcdyTL-Ma6tP20f6UGjci0vVKyscTjd2IHw3dIkGusK7Zdgy-jRJ9gkvqd1p3Kbg80QW4eagV2hMXD-jtXq4nqJEjTVbicaohnTJFkQuOUqGTDQj9x1x2t6mwRUQcKpZdtbed9E7lMpOuV49hDNL8uYYVGbok53HzoSG0oMeMh4iUFcS39xtdqTvl8C6D9Wh8KC8XXDPlLmPI_r1cbyaY_tuMFyAvt_4z0XYkMpnOaGIGQ3R27rUkf0iL-8-qTgX8-K317EaijtOZZRGJ-uFkiV8xXtLPjD02vhoCxnbUO0XHzkE8TLxOK99cdHep31R18qqj2bqmpgBYSVHVKf-P-8pi4zT681ueptJXhRT8PjhkVCLUigcaRjyX4MJJH0JC7PS89QRM6x76cLXhCeQTcyTWbbGAxgpVNwfh0dvtyZGW15gx6XdL3-Jw0Maq816OxmkPIFL2hhLcq-ArGtVxGsEBQz_HyYRUN_pEFaKEvve0-I6TLAPemmSsZ0wu6p1gd5ciCq5lr7wOhrdvPrhThSut7hi95JXBxq8fbopWjU5koFLNuAKcnwo-AWkYEL3vrlF5RFpdkCxnOamU6lrFuA4A7kfXyIttpvURAZBVcXXpxCnODCZD_MgoU3VK6jEOTwB6K_dqjYAqZRmz3g0CzCCuwIg4SzPRe34gTlF2IvZbqUkMpVvS06ZAjJMc6gQ8ZSG9P3r6n2Fozd8kJUcowS8AFgEcInEtGuybmgl3HYT2RjDBZ6VOPnac6Amp8qbrXZhLgBHhNPtjIrfEZd4jQ9uH-_OZL-F1Wt-3mEWrRYN3OcMCFMcbKXpCEHg2yWZi6zKq1rHRJUv-l8Nlkso7ZxcTSLz5wv4X3gJMPgXeKORtlbmMRJlZTBO4VlkXQGpvNiXvWaIAu_WiDY0DREHuQQ7-5TFCux-T96bXvzOVoF93yll33YhldFeyUAB57PyNnJU0b7oYQj_q2tyWENpPoXDKsTPssbQi-mPRnXgUFbCNiRma9KlIC7XaU74X4kZf_hvmdj4kh6FQ_q2MTpXOIlfNBrElNNPSZx3GFjeNa4xh6jO50ZgOSSqs7cPcQ_udrdR_ItLNSLdcL3hF88XL_-wPMVrSR8AMoNiRqKOwQF9EJ6DCRT3J2WMXhPZgAsLBW7sGdQownjgM6QVuNJoUSOpKenMSnsW6KZeMhkHhGlw1mNTU8vi3J6CaYbIb2ZOVHwqYR2Vew0FbfukR4KsUrb5DTW6CLbe6wv9p8CX7jgMvgyO9-eCuLvSanOwmNXHd54frMCuthALrLFWkWTVCQLJBrkmY9XUJvzaR2W6sgzQ-ZhbqiBLnbggmf6cYcFXDfwt44WclH8LBGXSr8XML1wlGF9yHkrgg7p8p7UGtn_cvZiNjOoRUW0DFwpFJ6af5-2ZlDUGDE-Xd3Jp_cONhnZg7h5QRZAtVq59dIzUiJrEULU-iBATyAY-YjwPpuu-VX_X6cvVZK_alq3O-BrrDNtnFdj-TfmmJgVpYYGPJPhTIzWaX_m9eyEdqmCcnvlKnOKyqIEfb_fZbMN2VNcJNGsJpxy0?></g></svg>
