<?plantuml 1.2026.2?><svg xmlns="http://www.w3.org/2000/svg" xmlns:xlink="http://www.w3.org/1999/xlink" contentStyleType="text/css" data-diagram-type="DESCRIPTION" height="227px" preserveAspectRatio="none" style="width:2306px;height:227px;background:#FFFFFF;" version="1.1" viewBox="0 0 2306 227" width="2306px" zoomAndPan="magnify"><defs/><g><!--entity dyno_lab--><g class="entity" data-qualified-name="dyno_lab" data-source-line="4" id="ent0002"><rect fill="#F1F1F1" height="96.2717" rx="2.5" ry="2.5" style="stroke:#181818;stroke-width:0.5;" width="216.3773" x="1049.56" y="7"/><text fill="#000000" font-family="sans-serif" font-size="14" lengthAdjust="spacing" textLength="59.1638" x="1059.56" y="31.9659">dyno_lab</text><text fill="#000000" font-family="sans-serif" font-size="14" lengthAdjust="spacing" textLength="155.2734" x="1059.56" y="51.0339">0 child pkg, 16 modules</text><text fill="#000000" font-family="sans-serif" font-size="14" lengthAdjust="spacing" textLength="96.5156" x="1059.56" y="70.1018">17 python files</text><text fill="#000000" font-family="sans-serif" font-size="14" lengthAdjust="spacing" textLength="196.3773" x="1059.56" y="89.1697">examples: auto_pass, base, cli</text></g><!--entity dyno_lab.auto_pass--><g class="entity" data-qualified-name="dyno_lab.auto_pass" data-source-line="5" id="ent0003"><rect fill="#F1F1F1" height="58.1358" rx="2.5" ry="2.5" style="stroke:#181818;stroke-width:0.5;" width="149.0375" x="916.23" y="163.27"/><text fill="#000000" font-family="sans-serif" font-size="14" lengthAdjust="spacing" textLength="129.0375" x="926.23" y="188.2359">dyno_lab.auto_pass</text><text fill="#000000" font-family="sans-serif" font-size="14" lengthAdjust="spacing" textLength="81.8017" x="926.23" y="207.3039">1 python file</text></g><!--entity dyno_lab.base--><g class="entity" data-qualified-name="dyno_lab.base" data-source-line="6" id="ent0004"><rect fill="#F1F1F1" height="58.1358" rx="2.5" ry="2.5" style="stroke:#181818;stroke-width:0.5;" width="113.9816" x="1100.76" y="163.27"/><text fill="#000000" font-family="sans-serif" font-size="14" lengthAdjust="spacing" textLength="93.9816" x="1110.76" y="188.2359">dyno_lab.base</text><text fill="#000000" font-family="sans-serif" font-size="14" lengthAdjust="spacing" textLength="81.8017" x="1110.76" y="207.3039">1 python file</text></g><!--entity dyno_lab.cli--><g class="entity" data-qualified-name="dyno_lab.cli" data-source-line="7" id="ent0005"><rect fill="#F1F1F1" height="58.1358" rx="2.5" ry="2.5" style="stroke:#181818;stroke-width:0.5;" width="101.8017" x="501.85" y="163.27"/><text fill="#000000" font-family="sans-serif" font-size="14" lengthAdjust="spacing" textLength="76.8597" x="511.85" y="188.2359">dyno_lab.cli</text><text fill="#000000" font-family="sans-serif" font-size="14" lengthAdjust="spacing" textLength="81.8017" x="511.85" y="207.3039">1 python file</text></g><!--entity dyno_lab.env--><g class="entity" data-qualified-name="dyno_lab.env" data-source-line="8" id="ent0006"><rect fill="#F1F1F1" height="58.1358" rx="2.5" ry="2.5" style="stroke:#181818;stroke-width:0.5;" width="106.5757" x="638.46" y="163.27"/><text fill="#000000" font-family="sans-serif" font-size="14" lengthAdjust="spacing" textLength="86.5757" x="648.46" y="188.2359">dyno_lab.env</text><text fill="#000000" font-family="sans-serif" font-size="14" lengthAdjust="spacing" textLength="81.8017" x="648.46" y="207.3039">1 python file</text></g><!--entity dyno_lab.fixtures--><g class="entity" data-qualified-name="dyno_lab.fixtures" data-source-line="9" id="ent0007"><rect fill="#F1F1F1" height="58.1358" rx="2.5" ry="2.5" style="stroke:#181818;stroke-width:0.5;" width="132.8396" x="415.33" y="26.07"/><text fill="#000000" font-family="sans-serif" font-size="14" lengthAdjust="spacing" textLength="112.8396" x="425.33" y="51.0359">dyno_lab.fixtures</text><text fill="#000000" font-family="sans-serif" font-size="14" lengthAdjust="spacing" textLength="81.8017" x="425.33" y="70.1039">1 python file</text></g><!--entity dyno_lab.fs--><g class="entity" data-qualified-name="dyno_lab.fs" data-source-line="10" id="ent0008"><rect fill="#F1F1F1" height="58.1358" rx="2.5" ry="2.5" style="stroke:#181818;stroke-width:0.5;" width="101.8017" x="779.85" y="163.27"/><text fill="#000000" font-family="sans-serif" font-size="14" lengthAdjust="spacing" textLength="74.4377" x="789.85" y="188.2359">dyno_lab.fs</text><text fill="#000000" font-family="sans-serif" font-size="14" lengthAdjust="spacing" textLength="81.8017" x="789.85" y="207.3039">1 python file</text></g><!--entity dyno_lab.http--><g class="entity" data-qualified-name="dyno_lab.http" data-source-line="11" id="ent0009"><rect fill="#F1F1F1" height="58.1358" rx="2.5" ry="2.5" style="stroke:#181818;stroke-width:0.5;" width="110.2857" x="1249.61" y="163.27"/><text fill="#000000" font-family="sans-serif" font-size="14" lengthAdjust="spacing" textLength="90.2857" x="1259.61" y="188.2359">dyno_lab.http</text><text fill="#000000" font-family="sans-serif" font-size="14" lengthAdjust="spacing" textLength="81.8017" x="1259.61" y="207.3039">1 python file</text></g><!--entity dyno_lab.log--><g class="entity" data-qualified-name="dyno_lab.log" data-source-line="12" id="ent0010"><rect fill="#F1F1F1" height="58.1358" rx="2.5" ry="2.5" style="stroke:#181818;stroke-width:0.5;" width="103.6077" x="1394.95" y="163.27"/><text fill="#000000" font-family="sans-serif" font-size="14" lengthAdjust="spacing" textLength="83.6077" x="1404.95" y="188.2359">dyno_lab.log</text><text fill="#000000" font-family="sans-serif" font-size="14" lengthAdjust="spacing" textLength="81.8017" x="1404.95" y="207.3039">1 python file</text></g><!--entity dyno_lab.markers--><g class="entity" data-qualified-name="dyno_lab.markers" data-source-line="13" id="ent0011"><rect fill="#F1F1F1" height="58.1358" rx="2.5" ry="2.5" style="stroke:#181818;stroke-width:0.5;" width="137.5016" x="7" y="163.27"/><text fill="#000000" font-family="sans-serif" font-size="14" lengthAdjust="spacing" textLength="117.5016" x="17" y="188.2359">dyno_lab.markers</text><text fill="#000000" font-family="sans-serif" font-size="14" lengthAdjust="spacing" textLength="81.8017" x="17" y="207.3039">1 python file</text></g><!--entity dyno_lab.module--><g class="entity" data-qualified-name="dyno_lab.module" data-source-line="14" id="ent0012"><rect fill="#F1F1F1" height="58.1358" rx="2.5" ry="2.5" style="stroke:#181818;stroke-width:0.5;" width="133.2456" x="1533.13" y="163.27"/><text fill="#000000" font-family="sans-serif" font-size="14" lengthAdjust="spacing" textLength="113.2456" x="1543.13" y="188.2359">dyno_lab.module</text><text fill="#000000" font-family="sans-serif" font-size="14" lengthAdjust="spacing" textLength="81.8017" x="1543.13" y="207.3039">1 python file</text></g><!--entity dyno_lab.patch--><g class="entity" data-qualified-name="dyno_lab.patch" data-source-line="15" id="ent0013"><rect fill="#F1F1F1" height="58.1358" rx="2.5" ry="2.5" style="stroke:#181818;stroke-width:0.5;" width="119.8056" x="1701.85" y="163.27"/><text fill="#000000" font-family="sans-serif" font-size="14" lengthAdjust="spacing" textLength="99.8056" x="1711.85" y="188.2359">dyno_lab.patch</text><text fill="#000000" font-family="sans-serif" font-size="14" lengthAdjust="spacing" textLength="81.8017" x="1711.85" y="207.3039">1 python file</text></g><!--entity dyno_lab.preflight--><g class="entity" data-qualified-name="dyno_lab.preflight" data-source-line="16" id="ent0014"><rect fill="#F1F1F1" height="58.1358" rx="2.5" ry="2.5" style="stroke:#181818;stroke-width:0.5;" width="139.5595" x="179.97" y="163.27"/><text fill="#000000" font-family="sans-serif" font-size="14" lengthAdjust="spacing" textLength="119.5595" x="189.97" y="188.2359">dyno_lab.preflight</text><text fill="#000000" font-family="sans-serif" font-size="14" lengthAdjust="spacing" textLength="81.8017" x="189.97" y="207.3039">1 python file</text></g><!--entity dyno_lab.proc--><g class="entity" data-qualified-name="dyno_lab.proc" data-source-line="17" id="ent0015"><rect fill="#F1F1F1" height="58.1358" rx="2.5" ry="2.5" style="stroke:#181818;stroke-width:0.5;" width="112.4977" x="354.5" y="163.27"/><text fill="#000000" font-family="sans-serif" font-size="14" lengthAdjust="spacing" textLength="92.4977" x="364.5" y="188.2359">dyno_lab.proc</text><text fill="#000000" font-family="sans-serif" font-size="14" lengthAdjust="spacing" textLength="81.8017" x="364.5" y="207.3039">1 python file</text></g><!--entity dyno_lab.schema--><g class="entity" data-qualified-name="dyno_lab.schema" data-source-line="18" id="ent0016"><rect fill="#F1F1F1" height="58.1358" rx="2.5" ry="2.5" style="stroke:#181818;stroke-width:0.5;" width="133.8336" x="1856.83" y="163.27"/><text fill="#000000" font-family="sans-serif" font-size="14" lengthAdjust="spacing" textLength="113.8336" x="1866.83" y="188.2359">dyno_lab.schema</text><text fill="#000000" font-family="sans-serif" font-size="14" lengthAdjust="spacing" textLength="81.8017" x="1866.83" y="207.3039">1 python file</text></g><!--entity dyno_lab.smoke--><g class="entity" data-qualified-name="dyno_lab.smoke" data-source-line="19" id="ent0017"><rect fill="#F1F1F1" height="58.1358" rx="2.5" ry="2.5" style="stroke:#181818;stroke-width:0.5;" width="126.5536" x="2025.47" y="163.27"/><text fill="#000000" font-family="sans-serif" font-size="14" lengthAdjust="spacing" textLength="106.5536" x="2035.47" y="188.2359">dyno_lab.smoke</text><text fill="#000000" font-family="sans-serif" font-size="14" lengthAdjust="spacing" textLength="81.8017" x="2035.47" y="207.3039">1 python file</text></g><!--entity dyno_lab.time--><g class="entity" data-qualified-name="dyno_lab.time" data-source-line="20" id="ent0018"><rect fill="#F1F1F1" height="58.1358" rx="2.5" ry="2.5" style="stroke:#181818;stroke-width:0.5;" width="112.5676" x="2187.47" y="163.27"/><text fill="#000000" font-family="sans-serif" font-size="14" lengthAdjust="spacing" textLength="92.5676" x="2197.47" y="188.2359">dyno_lab.time</text><text fill="#000000" font-family="sans-serif" font-size="14" lengthAdjust="spacing" textLength="81.8017" x="2197.47" y="207.3039">1 python file</text></g><!--link dyno_lab to dyno_lab.auto_pass--><g class="link" data-entity-1="ent0002" data-entity-2="ent0003" data-link-type="dependency" data-source-line="21" id="lnk19"><path d="M1099.34,103.43 C1074.89,123.23 1051.9344,141.8159 1030.6644,159.0259" fill="none" id="dyno_lab-to-dyno_lab.auto_pass" style="stroke:#181818;stroke-width:1;"/><polygon fill="#181818" points="1026,162.8,1035.5126,160.2485,1029.887,159.655,1030.4805,154.0293,1026,162.8" style="stroke:#181818;stroke-width:1;"/></g><!--link dyno_lab to dyno_lab.base--><g class="link" data-entity-1="ent0002" data-entity-2="ent0004" data-link-type="dependency" data-source-line="22" id="lnk20"><path d="M1157.75,103.43 C1157.75,123.23 1157.75,139.59 1157.75,156.8" fill="none" id="dyno_lab-to-dyno_lab.base" style="stroke:#181818;stroke-width:1;"/><polygon fill="#181818" points="1157.75,162.8,1161.75,153.8,1157.75,157.8,1153.75,153.8,1157.75,162.8" style="stroke:#181818;stroke-width:1;"/></g><!--link dyno_lab to dyno_lab.cli--><g class="link" data-entity-1="ent0002" data-entity-2="ent0005" data-link-type="dependency" data-source-line="23" id="lnk21"><path d="M1049.25,71.43 C939.69,88.34 766.32,119.17 620.75,163.27 C615.25,164.94 615.2046,164.8009 609.6046,166.8809" fill="none" id="dyno_lab-to-dyno_lab.cli" style="stroke:#181818;stroke-width:1;"/><polygon fill="#181818" points="603.98,168.97,613.8096,169.586,608.6671,167.2291,611.0241,162.0866,603.98,168.97" style="stroke:#181818;stroke-width:1;"/></g><!--link dyno_lab to dyno_lab.env--><g class="link" data-entity-1="ent0002" data-entity-2="ent0006" data-link-type="dependency" data-source-line="24" id="lnk22"><path d="M1049.07,82.14 C969.17,102.09 858.34,131.53 762.75,163.27 C757.09,165.15 756.8563,165.1555 751.0263,167.3155" fill="none" id="dyno_lab-to-dyno_lab.env" style="stroke:#181818;stroke-width:1;"/><polygon fill="#181818" points="745.4,169.4,755.2291,170.0241,750.0885,167.6629,752.4497,162.5224,745.4,169.4" style="stroke:#181818;stroke-width:1;"/></g><!--link dyno_lab to dyno_lab.fs--><g class="link" data-entity-1="ent0002" data-entity-2="ent0008" data-link-type="dependency" data-source-line="25" id="lnk23"><path d="M1049.32,100.97 C992.99,124.26 932.325,149.348 887.665,167.808" fill="none" id="dyno_lab-to-dyno_lab.fs" style="stroke:#181818;stroke-width:1;"/><polygon fill="#181818" points="882.12,170.1,891.9655,170.3587,886.7408,168.19,888.9095,162.9654,882.12,170.1" style="stroke:#181818;stroke-width:1;"/></g><!--link dyno_lab to dyno_lab.http--><g class="link" data-entity-1="ent0002" data-entity-2="ent0009" data-link-type="dependency" data-source-line="26" id="lnk24"><path d="M1209.16,103.43 C1230.69,123.23 1250.583,141.5292 1269.303,158.7392" fill="none" id="dyno_lab-to-dyno_lab.http" style="stroke:#181818;stroke-width:1;"/><polygon fill="#181818" points="1273.72,162.8,1269.8016,153.7642,1270.0391,159.416,1264.3873,159.6536,1273.72,162.8" style="stroke:#181818;stroke-width:1;"/></g><!--link dyno_lab to dyno_lab.log--><g class="link" data-entity-1="ent0002" data-entity-2="ent0010" data-link-type="dependency" data-source-line="27" id="lnk25"><path d="M1259.23,103.62 C1304.94,125 1351.5256,146.7868 1389.1556,164.3968" fill="none" id="dyno_lab-to-dyno_lab.log" style="stroke:#181818;stroke-width:1;"/><polygon fill="#181818" points="1394.59,166.94,1388.1339,159.5023,1390.0614,164.8207,1384.743,166.7482,1394.59,166.94" style="stroke:#181818;stroke-width:1;"/></g><!--link dyno_lab to dyno_lab.markers--><g class="link" data-entity-1="ent0002" data-entity-2="ent0011" data-link-type="dependency" data-source-line="28" id="lnk26"><path d="M1049.39,64.98 C827.86,83.52 329.93,127.7 162.75,163.27 C156.85,164.53 156.5786,164.4513 150.5286,166.1013" fill="none" id="dyno_lab-to-dyno_lab.markers" style="stroke:#181818;stroke-width:1;"/><polygon fill="#181818" points="144.74,167.68,154.4753,169.171,149.5638,166.3644,152.3704,161.4529,144.74,167.68" style="stroke:#181818;stroke-width:1;"/></g><!--link dyno_lab to dyno_lab.module--><g class="link" data-entity-1="ent0002" data-entity-2="ent0012" data-link-type="dependency" data-source-line="29" id="lnk27"><path d="M1266.12,87.6 C1337.26,108.49 1432.25,136.84 1515.75,163.27 C1521.32,165.04 1521.3842,165.0441 1527.1642,166.9241" fill="none" id="dyno_lab-to-dyno_lab.module" style="stroke:#181818;stroke-width:1;"/><polygon fill="#181818" points="1532.87,168.78,1525.5486,162.1924,1528.1152,167.2335,1523.0741,169.8001,1532.87,168.78" style="stroke:#181818;stroke-width:1;"/></g><!--link dyno_lab to dyno_lab.patch--><g class="link" data-entity-1="ent0002" data-entity-2="ent0013" data-link-type="dependency" data-source-line="30" id="lnk28"><path d="M1266.38,73.54 C1373.51,91.8 1541.4,123.39 1683.75,163.27 C1689.57,164.9 1689.8756,164.8999 1695.8556,166.8499" fill="none" id="dyno_lab-to-dyno_lab.patch" style="stroke:#181818;stroke-width:1;"/><polygon fill="#181818" points="1701.56,168.71,1694.2435,162.1169,1696.8064,167.1599,1691.7633,169.7227,1701.56,168.71" style="stroke:#181818;stroke-width:1;"/></g><!--link dyno_lab to dyno_lab.preflight--><g class="link" data-entity-1="ent0002" data-entity-2="ent0014" data-link-type="dependency" data-source-line="31" id="lnk29"><path d="M1049.07,63.98 C890.85,76.81 588.5,106.74 336.75,163.27 C331.18,164.53 331.2341,164.3851 325.5041,165.9651" fill="none" id="dyno_lab-to-dyno_lab.preflight" style="stroke:#181818;stroke-width:1;"/><polygon fill="#181818" points="319.72,167.56,329.4595,169.0237,324.5401,166.2309,327.3329,161.3115,319.72,167.56" style="stroke:#181818;stroke-width:1;"/></g><!--link dyno_lab to dyno_lab.proc--><g class="link" data-entity-1="ent0002" data-entity-2="ent0015" data-link-type="dependency" data-source-line="32" id="lnk30"><path d="M1049.1,66.51 C914.86,80.91 680.25,111.22 484.75,163.27 C479.04,164.79 478.8531,164.7056 473.0231,166.6456" fill="none" id="dyno_lab-to-dyno_lab.proc" style="stroke:#181818;stroke-width:1;"/><polygon fill="#181818" points="467.33,168.54,477.1326,169.4937,472.0742,166.9613,474.6067,161.903,467.33,168.54" style="stroke:#181818;stroke-width:1;"/></g><!--link dyno_lab to dyno_lab.schema--><g class="link" data-entity-1="ent0002" data-entity-2="ent0016" data-link-type="dependency" data-source-line="33" id="lnk31"><path d="M1266.15,67.67 C1401.42,83.31 1639.26,114.98 1838.75,163.27 C1844.64,164.7 1844.9481,164.6666 1851.0081,166.4266" fill="none" id="dyno_lab-to-dyno_lab.schema" style="stroke:#181818;stroke-width:1;"/><polygon fill="#181818" points="1856.77,168.1,1849.2427,161.7486,1851.9684,166.7055,1847.0115,169.4311,1856.77,168.1" style="stroke:#181818;stroke-width:1;"/></g><!--link dyno_lab to dyno_lab.smoke--><g class="link" data-entity-1="ent0002" data-entity-2="ent0017" data-link-type="dependency" data-source-line="34" id="lnk32"><path d="M1266.37,62.57 C1429.23,73.84 1745.59,102.04 2007.75,163.27 C2013.4,164.59 2013.4584,164.4514 2019.2484,166.1714" fill="none" id="dyno_lab-to-dyno_lab.smoke" style="stroke:#181818;stroke-width:1;"/><polygon fill="#181818" points="2025,167.88,2017.5117,161.4827,2020.207,166.4562,2015.2336,169.1515,2025,167.88" style="stroke:#181818;stroke-width:1;"/></g><!--link dyno_lab to dyno_lab.time--><g class="link" data-entity-1="ent0002" data-entity-2="ent0018" data-link-type="dependency" data-source-line="35" id="lnk33"><path d="M1266.38,58.52 C1453.37,64.64 1847.08,86.36 2169.75,163.27 C2175.5,164.64 2175.6877,164.5143 2181.5377,166.3943" fill="none" id="dyno_lab-to-dyno_lab.time" style="stroke:#181818;stroke-width:1;"/><polygon fill="#181818" points="2187.25,168.23,2179.9054,161.6682,2182.4898,166.7002,2177.4578,169.2846,2187.25,168.23" style="stroke:#181818;stroke-width:1;"/></g><!--link dyno_lab.fixtures to dyno_lab.cli--><g class="link" data-entity-1="ent0007" data-entity-2="ent0005" data-link-type="dependency" data-source-line="36" id="lnk34"><path d="M496.63,84.48 C508.75,107.56 522.9795,134.6584 535.0995,157.7284" fill="none" id="dyno_lab.fixtures-to-dyno_lab.cli" style="stroke:#181818;stroke-width:1;"/><polygon fill="#181818" points="537.89,163.04,537.2453,153.2123,535.5646,158.6137,530.1632,156.9329,537.89,163.04" style="stroke:#181818;stroke-width:1;"/></g><!--link dyno_lab.fixtures to dyno_lab.env--><g class="link" data-entity-1="ent0007" data-entity-2="ent0006" data-link-type="dependency" data-source-line="37" id="lnk35"><path d="M526.03,84.65 C561.77,107.66 606.7653,136.6217 642.4853,159.6217" fill="none" id="dyno_lab.fixtures-to-dyno_lab.env" style="stroke:#181818;stroke-width:1;"/><polygon fill="#181818" points="647.53,162.87,642.1285,154.6345,643.3261,160.1631,637.7975,161.3607,647.53,162.87" style="stroke:#181818;stroke-width:1;"/></g><!--link dyno_lab.fixtures to dyno_lab.fs--><g class="link" data-entity-1="ent0007" data-entity-2="ent0008" data-link-type="dependency" data-source-line="38" id="lnk36"><path d="M548.66,81.06 C605.72,102.46 689.84,134.33 762.75,163.27 C768.21,165.44 768.3514,165.4812 774.0114,167.7812" fill="none" id="dyno_lab.fixtures-to-dyno_lab.fs" style="stroke:#181818;stroke-width:1;"/><polygon fill="#181818" points="779.57,170.04,772.738,162.9461,774.9378,168.1577,769.7263,170.3575,779.57,170.04" style="stroke:#181818;stroke-width:1;"/></g><!--link dyno_lab.fixtures to dyno_lab.markers--><g class="link" data-entity-1="ent0007" data-entity-2="ent0011" data-link-type="dependency" data-source-line="39" id="lnk37"><path d="M415.16,78.31 C340.59,103.15 225.9929,141.3149 150.4429,166.4649" fill="none" id="dyno_lab.fixtures-to-dyno_lab.markers" style="stroke:#181818;stroke-width:1;"/><polygon fill="#181818" points="144.75,168.36,154.5527,169.3126,149.494,166.7807,152.0259,161.7221,144.75,168.36" style="stroke:#181818;stroke-width:1;"/></g><!--link dyno_lab.fixtures to dyno_lab.preflight--><g class="link" data-entity-1="ent0007" data-entity-2="ent0014" data-link-type="dependency" data-source-line="40" id="lnk38"><path d="M432.83,84.65 C393.35,107.66 343.2541,136.8491 303.7841,159.8491" fill="none" id="dyno_lab.fixtures-to-dyno_lab.preflight" style="stroke:#181818;stroke-width:1;"/><polygon fill="#181818" points="298.6,162.87,308.39,161.7947,302.92,160.3526,304.3622,154.8827,298.6,162.87" style="stroke:#181818;stroke-width:1;"/></g><!--link dyno_lab.fixtures to dyno_lab.proc--><g class="link" data-entity-1="ent0007" data-entity-2="ent0015" data-link-type="dependency" data-source-line="41" id="lnk39"><path d="M466.87,84.48 C454.75,107.56 440.5187,134.6574 428.4087,157.7274" fill="none" id="dyno_lab.fixtures-to-dyno_lab.proc" style="stroke:#181818;stroke-width:1;"/><polygon fill="#181818" points="425.62,163.04,433.3447,156.9303,427.9439,158.6129,426.2613,153.212,425.62,163.04" style="stroke:#181818;stroke-width:1;"/></g><?plantuml-src XPJ1Ri8m38RlF8MrCqpZiaaxx2Mu8g6GkctK9euQCy7RBmcqWyq9jxR_zpcjupGWWrCMWrSQT-ZLf9WcSEHmnUI12Ox4J1OQCw5cGsuL1kCIQ46JzP5qlEFBY900vReHLyiLl3GNHuTH7VVk3NHlnWRyqArX-mwMcjE8OU-s7-0lt9E3rkG7U5RMnwjFK2UcWrSXhE6e0gv1Z-O5L82vhBJKwsB5slUb7ynVIgoHbglg2H3D-8fLCUQYX-wxwiLSz5fpvjE4zO-T8Rd24rUsUcPVzH8WcYDrLJ7cecVLDE1KVzaR8_jvukfwHaJRAzPzLSw4x4xOZgRhkUxFLA46wISwQT4CkaUhgkuLaMrBGxrfcH1TDhQk9c0rty5cyoMTJpdF1r2EqX6JatI8vAGjhPF7M8xIeCh9F8Q5z3fbSdYTeaAsJ4WfZoCWHxSTBeHv1-NiOOkM7qcvuGNallC5v6uB2iJVjXQm_sqgWgH_0000?></g></svg>
