<?xml version="1.0" encoding="UTF-8" standalone="no"?>
<!DOCTYPE svg PUBLIC "-//W3C//DTD SVG 1.1//EN"
 "http://www.w3.org/Graphics/SVG/1.1/DTD/svg11.dtd">
<!-- Generated by graphviz version 13.1.2 (20250808.2320)
 -->
<!-- Title: G Pages: 1 -->
<svg width="1449pt" height="126pt"
 viewBox="0.00 0.00 1449.00 126.00" xmlns="http://www.w3.org/2000/svg" xmlns:xlink="http://www.w3.org/1999/xlink">
<g id="graph0" class="graph" transform="scale(1 1) rotate(0) translate(4 122.02)">
<title>G</title><style>.edge>path:hover{stroke-width:8}</style>
<polygon fill="white" stroke="none" points="-4,4 -4,-122.02 1444.91,-122.02 1444.91,4 -4,4"/>
<!-- dyno_lab -->
<g id="node1" class="node">
<title>dyno_lab</title><style>.edge>path:hover{stroke-width:8}</style>
<ellipse fill="#7a1e1e" stroke="black" cx="695.49" cy="-20.51" rx="32.06" ry="18"/>
<text xml:space="preserve" text-anchor="middle" x="695.49" y="-16.26" font-family="Helvetica,sans-Serif" font-size="10.00" fill="#ffffff">dyno_lab</text>
</g>
<!-- dyno_lab_base -->
<g id="node2" class="node">
<title>dyno_lab_base</title><style>.edge>path:hover{stroke-width:8}</style>
<ellipse fill="#c24747" stroke="black" cx="1290.49" cy="-97.52" rx="46.04" ry="18"/>
<text xml:space="preserve" text-anchor="middle" x="1290.49" y="-93.27" font-family="Helvetica,sans-Serif" font-size="10.00" fill="#ffffff">dyno_lab.base</text>
</g>
<!-- dyno_lab_base&#45;&gt;dyno_lab -->
<g id="edge1" class="edge">
<title>dyno_lab_base&#45;&gt;dyno_lab</title><style>.edge>path:hover{stroke-width:8}</style>
<path fill="none" stroke="black" d="M1259.17,-83.96C1251.52,-81.3 1243.3,-78.77 1235.49,-77.01 1054.27,-36.18 831.98,-25.32 739.3,-22.48"/>
<polygon fill="#c24747" stroke="black" points="739.48,-18.99 729.39,-22.2 739.28,-25.99 739.48,-18.99"/>
</g>
<!-- dyno_lab_cli -->
<g id="node3" class="node">
<title>dyno_lab_cli</title><style>.edge>path:hover{stroke-width:8}</style>
<ellipse fill="#ce3b3b" stroke="black" cx="39.49" cy="-97.52" rx="39.49" ry="18"/>
<text xml:space="preserve" text-anchor="middle" x="39.49" y="-93.27" font-family="Helvetica,sans-Serif" font-size="10.00" fill="#ffffff">dyno_lab.cli</text>
</g>
<!-- dyno_lab_cli&#45;&gt;dyno_lab -->
<g id="edge2" class="edge">
<title>dyno_lab_cli&#45;&gt;dyno_lab</title><style>.edge>path:hover{stroke-width:8}</style>
<path fill="none" stroke="black" d="M66.44,-83.95C73.19,-81.25 80.5,-78.71 87.49,-77.01 195.01,-50.87 531.6,-30.45 652.06,-23.8"/>
<polygon fill="#ce3b3b" stroke="black" points="652.06,-27.31 661.85,-23.27 651.68,-20.32 652.06,-27.31"/>
</g>
<!-- dyno_lab_fixtures -->
<g id="node5" class="node">
<title>dyno_lab_fixtures</title><style>.edge>path:hover{stroke-width:8}</style>
<ellipse fill="#883a3a" stroke="black" cx="288.49" cy="-20.51" rx="41.01" ry="20.51"/>
<text xml:space="preserve" text-anchor="middle" x="288.49" y="-21.51" font-family="Helvetica,sans-Serif" font-size="10.00" fill="#ffffff">dyno_lab.</text>
<text xml:space="preserve" text-anchor="middle" x="288.49" y="-11.01" font-family="Helvetica,sans-Serif" font-size="10.00" fill="#ffffff">fixtures</text>
</g>
<!-- dyno_lab_cli&#45;&gt;dyno_lab_fixtures -->
<g id="edge3" class="edge">
<title>dyno_lab_cli&#45;&gt;dyno_lab_fixtures</title><style>.edge>path:hover{stroke-width:8}</style>
<path fill="none" stroke="black" d="M67.71,-84.41C74.16,-81.83 81.02,-79.21 87.49,-77.01 139.18,-59.44 199.73,-43.31 240.76,-33.02"/>
<polygon fill="#ce3b3b" stroke="black" points="241.46,-36.45 250.32,-30.64 239.77,-29.65 241.46,-36.45"/>
</g>
<!-- dyno_lab_env -->
<g id="node4" class="node">
<title>dyno_lab_env</title><style>.edge>path:hover{stroke-width:8}</style>
<ellipse fill="#ce3b3b" stroke="black" cx="139.49" cy="-97.52" rx="42.99" ry="18"/>
<text xml:space="preserve" text-anchor="middle" x="139.49" y="-93.27" font-family="Helvetica,sans-Serif" font-size="10.00" fill="#ffffff">dyno_lab.env</text>
</g>
<!-- dyno_lab_env&#45;&gt;dyno_lab -->
<g id="edge4" class="edge">
<title>dyno_lab_env&#45;&gt;dyno_lab</title><style>.edge>path:hover{stroke-width:8}</style>
<path fill="none" stroke="black" d="M169.06,-83.97C176.29,-81.31 184.08,-78.78 191.49,-77.01 358.49,-37.16 563.56,-25.81 651.76,-22.67"/>
<polygon fill="#ce3b3b" stroke="black" points="651.78,-26.17 661.66,-22.34 651.55,-19.17 651.78,-26.17"/>
</g>
<!-- dyno_lab_env&#45;&gt;dyno_lab_fixtures -->
<g id="edge5" class="edge">
<title>dyno_lab_env&#45;&gt;dyno_lab_fixtures</title><style>.edge>path:hover{stroke-width:8}</style>
<path fill="none" stroke="black" d="M166.13,-83.11C189.55,-71.31 223.93,-54.01 250.28,-40.74"/>
<polygon fill="#ce3b3b" stroke="black" points="251.6,-44 258.96,-36.37 248.45,-37.74 251.6,-44"/>
</g>
<!-- dyno_lab_fs -->
<g id="node6" class="node">
<title>dyno_lab_fs</title><style>.edge>path:hover{stroke-width:8}</style>
<ellipse fill="#ce3b3b" stroke="black" cx="239.49" cy="-97.52" rx="38.61" ry="18"/>
<text xml:space="preserve" text-anchor="middle" x="239.49" y="-93.27" font-family="Helvetica,sans-Serif" font-size="10.00" fill="#ffffff">dyno_lab.fs</text>
</g>
<!-- dyno_lab_fs&#45;&gt;dyno_lab -->
<g id="edge6" class="edge">
<title>dyno_lab_fs&#45;&gt;dyno_lab</title><style>.edge>path:hover{stroke-width:8}</style>
<path fill="none" stroke="black" d="M266.5,-84.17C273.24,-81.47 280.53,-78.87 287.49,-77.01 417.47,-42.35 576.82,-28.65 652.13,-23.83"/>
<polygon fill="#ce3b3b" stroke="black" points="652.2,-27.33 661.96,-23.22 651.77,-20.35 652.2,-27.33"/>
</g>
<!-- dyno_lab_fs&#45;&gt;dyno_lab_fixtures -->
<g id="edge7" class="edge">
<title>dyno_lab_fs&#45;&gt;dyno_lab_fixtures</title><style>.edge>path:hover{stroke-width:8}</style>
<path fill="none" stroke="black" d="M250.36,-79.87C256.07,-71.13 263.23,-60.17 269.8,-50.12"/>
<polygon fill="#ce3b3b" stroke="black" points="272.72,-52.04 275.26,-41.75 266.86,-48.21 272.72,-52.04"/>
</g>
<!-- dyno_lab_http -->
<g id="node7" class="node">
<title>dyno_lab_http</title><style>.edge>path:hover{stroke-width:8}</style>
<ellipse fill="#c24747" stroke="black" cx="1397.49" cy="-97.52" rx="43.42" ry="18"/>
<text xml:space="preserve" text-anchor="middle" x="1397.49" y="-93.27" font-family="Helvetica,sans-Serif" font-size="10.00" fill="#ffffff">dyno_lab.http</text>
</g>
<!-- dyno_lab_http&#45;&gt;dyno_lab -->
<g id="edge8" class="edge">
<title>dyno_lab_http&#45;&gt;dyno_lab</title><style>.edge>path:hover{stroke-width:8}</style>
<path fill="none" stroke="black" d="M1367.94,-83.84C1360.71,-81.19 1352.92,-78.69 1345.49,-77.01 1121.56,-26.46 844.76,-21.16 739.18,-21.15"/>
<polygon fill="#c24747" stroke="black" points="739.26,-17.65 729.26,-21.17 739.27,-24.65 739.26,-17.65"/>
</g>
<!-- dyno_lab_log -->
<g id="node8" class="node">
<title>dyno_lab_log</title><style>.edge>path:hover{stroke-width:8}</style>
<ellipse fill="#c24747" stroke="black" cx="645.49" cy="-97.52" rx="41.24" ry="18"/>
<text xml:space="preserve" text-anchor="middle" x="645.49" y="-93.27" font-family="Helvetica,sans-Serif" font-size="10.00" fill="#ffffff">dyno_lab.log</text>
</g>
<!-- dyno_lab_log&#45;&gt;dyno_lab -->
<g id="edge9" class="edge">
<title>dyno_lab_log&#45;&gt;dyno_lab</title><style>.edge>path:hover{stroke-width:8}</style>
<path fill="none" stroke="black" d="M656.58,-79.87C662.97,-70.29 671.14,-58.04 678.33,-47.24"/>
<polygon fill="#c24747" stroke="black" points="681.12,-49.37 683.75,-39.11 675.3,-45.49 681.12,-49.37"/>
</g>
<!-- dyno_lab_markers -->
<g id="node9" class="node">
<title>dyno_lab_markers</title><style>.edge>path:hover{stroke-width:8}</style>
<ellipse fill="#ce3b3b" stroke="black" cx="337.49" cy="-97.52" rx="41.01" ry="20.51"/>
<text xml:space="preserve" text-anchor="middle" x="337.49" y="-98.52" font-family="Helvetica,sans-Serif" font-size="10.00" fill="#ffffff">dyno_lab.</text>
<text xml:space="preserve" text-anchor="middle" x="337.49" y="-88.02" font-family="Helvetica,sans-Serif" font-size="10.00" fill="#ffffff">markers</text>
</g>
<!-- dyno_lab_markers&#45;&gt;dyno_lab -->
<g id="edge10" class="edge">
<title>dyno_lab_markers&#45;&gt;dyno_lab</title><style>.edge>path:hover{stroke-width:8}</style>
<path fill="none" stroke="black" d="M368.11,-83.5C374.44,-81.11 381.12,-78.81 387.49,-77.01 480.38,-50.79 592.68,-34.23 652.71,-26.55"/>
<polygon fill="#ce3b3b" stroke="black" points="653.01,-30.04 662.49,-25.32 652.13,-23.1 653.01,-30.04"/>
</g>
<!-- dyno_lab_markers&#45;&gt;dyno_lab_fixtures -->
<g id="edge11" class="edge">
<title>dyno_lab_markers&#45;&gt;dyno_lab_fixtures</title><style>.edge>path:hover{stroke-width:8}</style>
<path fill="none" stroke="black" d="M325.12,-77.59C319.67,-69.24 313.14,-59.24 307.11,-50.02"/>
<polygon fill="#ce3b3b" stroke="black" points="310.08,-48.15 301.68,-41.7 304.22,-51.98 310.08,-48.15"/>
</g>
<!-- dyno_lab_module -->
<g id="node10" class="node">
<title>dyno_lab_module</title><style>.edge>path:hover{stroke-width:8}</style>
<ellipse fill="#c24747" stroke="black" cx="745.49" cy="-97.52" rx="41.01" ry="20.51"/>
<text xml:space="preserve" text-anchor="middle" x="745.49" y="-98.52" font-family="Helvetica,sans-Serif" font-size="10.00" fill="#ffffff">dyno_lab.</text>
<text xml:space="preserve" text-anchor="middle" x="745.49" y="-88.02" font-family="Helvetica,sans-Serif" font-size="10.00" fill="#ffffff">module</text>
</g>
<!-- dyno_lab_module&#45;&gt;dyno_lab -->
<g id="edge12" class="edge">
<title>dyno_lab_module&#45;&gt;dyno_lab</title><style>.edge>path:hover{stroke-width:8}</style>
<path fill="none" stroke="black" d="M732.87,-77.59C726.71,-68.34 719.2,-57.09 712.54,-47.09"/>
<polygon fill="#c24747" stroke="black" points="715.54,-45.27 707.08,-38.89 709.71,-49.15 715.54,-45.27"/>
</g>
<!-- dyno_lab_patch -->
<g id="node11" class="node">
<title>dyno_lab_patch</title><style>.edge>path:hover{stroke-width:8}</style>
<ellipse fill="#c24747" stroke="black" cx="852.49" cy="-97.52" rx="47.79" ry="18"/>
<text xml:space="preserve" text-anchor="middle" x="852.49" y="-93.27" font-family="Helvetica,sans-Serif" font-size="10.00" fill="#ffffff">dyno_lab.patch</text>
</g>
<!-- dyno_lab_patch&#45;&gt;dyno_lab -->
<g id="edge13" class="edge">
<title>dyno_lab_patch&#45;&gt;dyno_lab</title><style>.edge>path:hover{stroke-width:8}</style>
<path fill="none" stroke="black" d="M823.69,-82.76C797.16,-70.08 757.76,-51.26 729.65,-37.83"/>
<polygon fill="#c24747" stroke="black" points="731.37,-34.77 720.84,-33.62 728.36,-41.09 731.37,-34.77"/>
</g>
<!-- dyno_lab_preflight -->
<g id="node12" class="node">
<title>dyno_lab_preflight</title><style>.edge>path:hover{stroke-width:8}</style>
<ellipse fill="#ce3b3b" stroke="black" cx="437.49" cy="-97.52" rx="41.01" ry="20.51"/>
<text xml:space="preserve" text-anchor="middle" x="437.49" y="-98.52" font-family="Helvetica,sans-Serif" font-size="10.00" fill="#ffffff">dyno_lab.</text>
<text xml:space="preserve" text-anchor="middle" x="437.49" y="-88.02" font-family="Helvetica,sans-Serif" font-size="10.00" fill="#ffffff">preflight</text>
</g>
<!-- dyno_lab_preflight&#45;&gt;dyno_lab -->
<g id="edge14" class="edge">
<title>dyno_lab_preflight&#45;&gt;dyno_lab</title><style>.edge>path:hover{stroke-width:8}</style>
<path fill="none" stroke="black" d="M468.5,-83.8C474.74,-81.42 481.29,-79.04 487.49,-77.01 544.96,-58.2 612.86,-41 655.06,-30.88"/>
<polygon fill="#ce3b3b" stroke="black" points="655.86,-34.29 664.78,-28.57 654.24,-27.48 655.86,-34.29"/>
</g>
<!-- dyno_lab_preflight&#45;&gt;dyno_lab_fixtures -->
<g id="edge15" class="edge">
<title>dyno_lab_preflight&#45;&gt;dyno_lab_fixtures</title><style>.edge>path:hover{stroke-width:8}</style>
<path fill="none" stroke="black" d="M409.11,-82.23C385.81,-70.5 352.58,-53.77 326.9,-40.84"/>
<polygon fill="#ce3b3b" stroke="black" points="328.62,-37.79 318.11,-36.42 325.47,-44.04 328.62,-37.79"/>
</g>
<!-- dyno_lab_proc -->
<g id="node13" class="node">
<title>dyno_lab_proc</title><style>.edge>path:hover{stroke-width:8}</style>
<ellipse fill="#ce3b3b" stroke="black" cx="541.49" cy="-97.52" rx="44.73" ry="18"/>
<text xml:space="preserve" text-anchor="middle" x="541.49" y="-93.27" font-family="Helvetica,sans-Serif" font-size="10.00" fill="#ffffff">dyno_lab.proc</text>
</g>
<!-- dyno_lab_proc&#45;&gt;dyno_lab -->
<g id="edge16" class="edge">
<title>dyno_lab_proc&#45;&gt;dyno_lab</title><style>.edge>path:hover{stroke-width:8}</style>
<path fill="none" stroke="black" d="M569.02,-83.11C594.95,-70.48 633.86,-51.53 661.67,-37.98"/>
<polygon fill="#ce3b3b" stroke="black" points="662.91,-41.27 670.37,-33.74 659.85,-34.97 662.91,-41.27"/>
</g>
<!-- dyno_lab_proc&#45;&gt;dyno_lab_fixtures -->
<g id="edge17" class="edge">
<title>dyno_lab_proc&#45;&gt;dyno_lab_fixtures</title><style>.edge>path:hover{stroke-width:8}</style>
<path fill="none" stroke="black" d="M509.64,-84.57C502.39,-81.97 494.7,-79.32 487.49,-77.01 435.96,-60.54 376.08,-44.22 335.57,-33.58"/>
<polygon fill="#ce3b3b" stroke="black" points="336.7,-30.26 326.14,-31.11 334.93,-37.03 336.7,-30.26"/>
</g>
<!-- dyno_lab_schema -->
<g id="node14" class="node">
<title>dyno_lab_schema</title><style>.edge>path:hover{stroke-width:8}</style>
<ellipse fill="#c24747" stroke="black" cx="959.49" cy="-97.52" rx="41.01" ry="20.51"/>
<text xml:space="preserve" text-anchor="middle" x="959.49" y="-98.52" font-family="Helvetica,sans-Serif" font-size="10.00" fill="#ffffff">dyno_lab.</text>
<text xml:space="preserve" text-anchor="middle" x="959.49" y="-88.02" font-family="Helvetica,sans-Serif" font-size="10.00" fill="#ffffff">schema</text>
</g>
<!-- dyno_lab_schema&#45;&gt;dyno_lab -->
<g id="edge18" class="edge">
<title>dyno_lab_schema&#45;&gt;dyno_lab</title><style>.edge>path:hover{stroke-width:8}</style>
<path fill="none" stroke="black" d="M928.49,-83.77C922.24,-81.39 915.69,-79.02 909.49,-77.01 849.94,-57.75 779.44,-40.51 736.09,-30.53"/>
<polygon fill="#c24747" stroke="black" points="736.88,-27.12 726.35,-28.3 735.32,-33.94 736.88,-27.12"/>
</g>
<!-- dyno_lab_smoke -->
<g id="node15" class="node">
<title>dyno_lab_smoke</title><style>.edge>path:hover{stroke-width:8}</style>
<ellipse fill="#c24747" stroke="black" cx="1068.49" cy="-97.52" rx="50.42" ry="18"/>
<text xml:space="preserve" text-anchor="middle" x="1068.49" y="-93.27" font-family="Helvetica,sans-Serif" font-size="10.00" fill="#ffffff">dyno_lab.smoke</text>
</g>
<!-- dyno_lab_smoke&#45;&gt;dyno_lab -->
<g id="edge19" class="edge">
<title>dyno_lab_smoke&#45;&gt;dyno_lab</title><style>.edge>path:hover{stroke-width:8}</style>
<path fill="none" stroke="black" d="M1033.79,-84.12C1025.87,-81.55 1017.44,-79.02 1009.49,-77.01 913.62,-52.83 798.69,-35.37 737.96,-27.03"/>
<polygon fill="#c24747" stroke="black" points="738.43,-23.56 728.05,-25.68 737.49,-30.5 738.43,-23.56"/>
</g>
<!-- dyno_lab_time -->
<g id="node16" class="node">
<title>dyno_lab_time</title><style>.edge>path:hover{stroke-width:8}</style>
<ellipse fill="#c24747" stroke="black" cx="1181.49" cy="-97.52" rx="44.73" ry="18"/>
<text xml:space="preserve" text-anchor="middle" x="1181.49" y="-93.27" font-family="Helvetica,sans-Serif" font-size="10.00" fill="#ffffff">dyno_lab.time</text>
</g>
<!-- dyno_lab_time&#45;&gt;dyno_lab -->
<g id="edge20" class="edge">
<title>dyno_lab_time&#45;&gt;dyno_lab</title><style>.edge>path:hover{stroke-width:8}</style>
<path fill="none" stroke="black" d="M1150.72,-84.09C1143.21,-81.43 1135.14,-78.86 1127.49,-77.01 987.84,-43.25 817.52,-29.03 738.98,-23.94"/>
<polygon fill="#c24747" stroke="black" points="739.34,-20.46 729.14,-23.32 738.9,-27.44 739.34,-20.46"/>
</g>
</g>
</svg>
