<?plantuml 1.2026.2?><svg xmlns="http://www.w3.org/2000/svg" xmlns:xlink="http://www.w3.org/1999/xlink" contentStyleType="text/css" data-diagram-type="CLASS" height="1035px" preserveAspectRatio="none" style="width:3498px;height:1035px;background:#FFFFFF;" version="1.1" viewBox="0 0 3498 1035" width="3498px" zoomAndPan="magnify"><defs/><g><!--class dyno_lab.patch.AttrPatch--><g class="entity" data-qualified-name="dyno_lab.patch.AttrPatch" data-source-line="2" id="ent0002"><rect fill="#F1F1F1" height="48" rx="2.5" ry="2.5" style="stroke:#181818;stroke-width:0.5;" width="93.5858" x="32.5" y="102.34"/><ellipse cx="47.5" cy="118.34" fill="#ADD1B2" rx="11" ry="11" style="stroke:#181818;stroke-width:1;"/><path d="M47.6094,113.8712 Q46.6875,113.8712 45.9531,114.1837 Q45.2344,114.4962 44.7344,115.09 Q44.2344,115.6681 43.9531,116.5431 Q43.6875,117.4181 43.6875,118.5119 Q43.6875,119.9494 44.125,120.9962 Q44.5781,122.0431 45.4219,122.59 Q46.2813,123.1369 47.5938,123.1369 Q48.375,123.1369 49.0625,123.0119 Q49.7656,122.8712 50.7656,122.5587 L50.7656,124.4337 Q49.9063,124.7619 49.1406,124.8869 Q48.3906,125.0119 47.375,125.0119 Q45.4531,125.0119 44.1406,124.215 Q42.8438,123.4025 42.1875,121.9337 Q41.5313,120.4494 41.5313,118.4806 Q41.5313,117.0587 41.9219,115.8869 Q42.3281,114.6994 43.1094,113.8244 Q43.8906,112.9494 45.0313,112.4806 Q46.1719,111.9962 47.6406,111.9962 Q48.5938,111.9962 49.4844,112.1994 Q50.3906,112.3869 51.3281,112.8556 L50.5,114.6369 Q49.7188,114.2619 49.0625,114.0744 Q48.4063,113.8712 47.6094,113.8712 Z " fill="#000000"/><text fill="#000000" font-family="sans-serif" font-size="14" lengthAdjust="spacing" textLength="61.5858" x="61.5" y="123.772">AttrPatch</text><line style="stroke:#181818;stroke-width:0.5;" x1="33.5" x2="125.0858" y1="134.34" y2="134.34"/><line style="stroke:#181818;stroke-width:0.5;" x1="33.5" x2="125.0858" y1="142.34" y2="142.34"/></g><!--class dyno_lab.auto_pass.AutoPassLoadCall--><g class="entity" data-qualified-name="dyno_lab.auto_pass.AutoPassLoadCall" data-source-line="4" id="ent0003"><rect fill="#F1F1F1" height="124.2717" rx="2.5" ry="2.5" style="stroke:#181818;stroke-width:0.5;" width="149.0536" x="1806.77" y="613.75"/><ellipse cx="1821.77" cy="629.75" fill="#ADD1B2" rx="11" ry="11" style="stroke:#181818;stroke-width:1;"/><path d="M1821.8794,625.2812 Q1820.9575,625.2812 1820.2231,625.5937 Q1819.5044,625.9062 1819.0044,626.5 Q1818.5044,627.0781 1818.2231,627.9531 Q1817.9575,628.8281 1817.9575,629.9219 Q1817.9575,631.3594 1818.395,632.4062 Q1818.8481,633.4531 1819.6919,634 Q1820.5513,634.5469 1821.8638,634.5469 Q1822.645,634.5469 1823.3325,634.4219 Q1824.0356,634.2812 1825.0356,633.9687 L1825.0356,635.8437 Q1824.1763,636.1719 1823.4106,636.2969 Q1822.6606,636.4219 1821.645,636.4219 Q1819.7231,636.4219 1818.4106,635.625 Q1817.1138,634.8125 1816.4575,633.3437 Q1815.8013,631.8594 1815.8013,629.8906 Q1815.8013,628.4687 1816.1919,627.2969 Q1816.5981,626.1094 1817.3794,625.2344 Q1818.1606,624.3594 1819.3013,623.8906 Q1820.4419,623.4062 1821.9106,623.4062 Q1822.8638,623.4062 1823.7544,623.6094 Q1824.6606,623.7969 1825.5981,624.2656 L1824.77,626.0469 Q1823.9888,625.6719 1823.3325,625.4844 Q1822.6763,625.2812 1821.8794,625.2812 Z " fill="#000000"/><text fill="#000000" font-family="sans-serif" font-size="14" lengthAdjust="spacing" textLength="117.0536" x="1835.77" y="635.182">AutoPassLoadCall</text><line style="stroke:#181818;stroke-width:0.5;" x1="1807.77" x2="1954.8236" y1="645.75" y2="645.75"/><text fill="#000000" font-family="sans-serif" font-size="14" lengthAdjust="spacing" textLength="101.5696" x="1812.77" y="664.7159">environ : object</text><text fill="#000000" font-family="sans-serif" font-size="14" lengthAdjust="spacing" textLength="95.3536" x="1812.77" y="683.7839">override : bool</text><text fill="#000000" font-family="sans-serif" font-size="14" lengthAdjust="spacing" textLength="81.5637" x="1812.77" y="702.8518">path : object</text><text fill="#000000" font-family="sans-serif" font-size="14" lengthAdjust="spacing" textLength="94.1916" x="1812.77" y="721.9197">profile : object</text><line style="stroke:#181818;stroke-width:0.5;" x1="1807.77" x2="1954.8236" y1="730.0217" y2="730.0217"/></g><!--class dyno_lab.auto_pass.AutoPassPatch--><g class="entity" data-qualified-name="dyno_lab.auto_pass.AutoPassPatch" data-source-line="10" id="ent0004"><rect fill="#F1F1F1" height="67.0679" rx="2.5" ry="2.5" style="stroke:#181818;stroke-width:0.5;" width="129.6077" x="1855.49" y="92.8"/><ellipse cx="1870.49" cy="108.8" fill="#ADD1B2" rx="11" ry="11" style="stroke:#181818;stroke-width:1;"/><path d="M1870.5994,104.3312 Q1869.6775,104.3312 1868.9431,104.6437 Q1868.2244,104.9562 1867.7244,105.55 Q1867.2244,106.1281 1866.9431,107.0031 Q1866.6775,107.8781 1866.6775,108.9719 Q1866.6775,110.4094 1867.115,111.4562 Q1867.5681,112.5031 1868.4119,113.05 Q1869.2713,113.5969 1870.5838,113.5969 Q1871.365,113.5969 1872.0525,113.4719 Q1872.7556,113.3312 1873.7556,113.0187 L1873.7556,114.8937 Q1872.8963,115.2219 1872.1306,115.3469 Q1871.3806,115.4719 1870.365,115.4719 Q1868.4431,115.4719 1867.1306,114.675 Q1865.8338,113.8625 1865.1775,112.3937 Q1864.5213,110.9094 1864.5213,108.9406 Q1864.5213,107.5187 1864.9119,106.3469 Q1865.3181,105.1594 1866.0994,104.2844 Q1866.8806,103.4094 1868.0213,102.9406 Q1869.1619,102.4562 1870.6306,102.4562 Q1871.5838,102.4562 1872.4744,102.6594 Q1873.3806,102.8469 1874.3181,103.3156 L1873.49,105.0969 Q1872.7088,104.7219 1872.0525,104.5344 Q1871.3963,104.3312 1870.5994,104.3312 Z " fill="#000000"/><text fill="#000000" font-family="sans-serif" font-size="14" lengthAdjust="spacing" textLength="97.6077" x="1884.49" y="114.232">AutoPassPatch</text><line style="stroke:#181818;stroke-width:0.5;" x1="1856.49" x2="1984.0977" y1="124.8" y2="124.8"/><text fill="#000000" font-family="sans-serif" font-size="14" lengthAdjust="spacing" textLength="56.9378" x="1861.49" y="143.7659">recorder</text><line style="stroke:#181818;stroke-width:0.5;" x1="1856.49" x2="1984.0977" y1="151.8679" y2="151.8679"/></g><!--class dyno_lab.auto_pass.AutoPassRecorder--><g class="entity" data-qualified-name="dyno_lab.auto_pass.AutoPassRecorder" data-source-line="13" id="ent0005"><rect fill="#F1F1F1" height="181.4754" rx="2.5" ry="2.5" style="stroke:#181818;stroke-width:0.5;" width="493.7243" x="1731.43" y="324.68"/><ellipse cx="1913.6814" cy="340.68" fill="#ADD1B2" rx="11" ry="11" style="stroke:#181818;stroke-width:1;"/><path d="M1913.7907,336.2112 Q1912.8689,336.2112 1912.1345,336.5237 Q1911.4157,336.8362 1910.9157,337.43 Q1910.4157,338.0081 1910.1345,338.8831 Q1909.8689,339.7581 1909.8689,340.8519 Q1909.8689,342.2894 1910.3064,343.3362 Q1910.7595,344.3831 1911.6032,344.93 Q1912.4626,345.4769 1913.7751,345.4769 Q1914.5564,345.4769 1915.2439,345.3519 Q1915.947,345.2112 1916.947,344.8987 L1916.947,346.7737 Q1916.0876,347.1019 1915.322,347.2269 Q1914.572,347.3519 1913.5564,347.3519 Q1911.6345,347.3519 1910.322,346.555 Q1909.0251,345.7425 1908.3689,344.2737 Q1907.7126,342.7894 1907.7126,340.8206 Q1907.7126,339.3987 1908.1032,338.2269 Q1908.5095,337.0394 1909.2907,336.1644 Q1910.072,335.2894 1911.2126,334.8206 Q1912.3532,334.3362 1913.822,334.3362 Q1914.7751,334.3362 1915.6657,334.5394 Q1916.572,334.7269 1917.5095,335.1956 L1916.6814,336.9769 Q1915.9001,336.6019 1915.2439,336.4144 Q1914.5876,336.2112 1913.7907,336.2112 Z " fill="#000000"/><text fill="#000000" font-family="sans-serif" font-size="14" lengthAdjust="spacing" textLength="120.7216" x="1934.1814" y="346.112">AutoPassRecorder</text><line style="stroke:#181818;stroke-width:0.5;" x1="1732.43" x2="2224.1543" y1="356.68" y2="356.68"/><text fill="#000000" font-family="sans-serif" font-size="14" lengthAdjust="spacing" textLength="156.5474" x="1737.43" y="375.6459">KeepassCommandError</text><text fill="#000000" font-family="sans-serif" font-size="14" lengthAdjust="spacing" textLength="219.5472" x="1737.43" y="394.7139">load_calls : list[AutoPassLoadCall]</text><text fill="#000000" font-family="sans-serif" font-size="14" lengthAdjust="spacing" textLength="256.605" x="1737.43" y="413.7818">resolve_calls : list[AutoPassResolveCall]</text><line style="stroke:#181818;stroke-width:0.5;" x1="1732.43" x2="2224.1543" y1="421.8838" y2="421.8838"/><text fill="#000000" font-family="sans-serif" font-size="14" lengthAdjust="spacing" textLength="313.1928" x="1737.43" y="440.8497">add_response(entry: str, outcome: Any) -&gt; None</text><text fill="#000000" font-family="sans-serif" font-size="14" lengthAdjust="spacing" textLength="391.5086" x="1737.43" y="459.9176">keepass_error(message: str) -&gt; StubKeepassCommandError</text><text fill="#000000" font-family="sans-serif" font-size="14" lengthAdjust="spacing" textLength="474.6403" x="1737.43" y="478.9855">load_config_environment(path: object) -&gt; tuple[dict[str, str], dict[str, str]]</text><text fill="#000000" font-family="sans-serif" font-size="14" lengthAdjust="spacing" textLength="481.7243" x="1737.43" y="498.0534">resolve_keepassxc_entry(entry: str, attrs_map: dict[str, str]) -&gt; dict[str, str]</text></g><!--class dyno_lab.auto_pass.AutoPassResolveCall--><g class="entity" data-qualified-name="dyno_lab.auto_pass.AutoPassResolveCall" data-source-line="22" id="ent0006"><rect fill="#F1F1F1" height="124.2717" rx="2.5" ry="2.5" style="stroke:#181818;stroke-width:0.5;" width="167.1835" x="1990.7" y="613.75"/><ellipse cx="2005.7" cy="629.75" fill="#ADD1B2" rx="11" ry="11" style="stroke:#181818;stroke-width:1;"/><path d="M2005.8094,625.2812 Q2004.8875,625.2812 2004.1531,625.5937 Q2003.4344,625.9062 2002.9344,626.5 Q2002.4344,627.0781 2002.1531,627.9531 Q2001.8875,628.8281 2001.8875,629.9219 Q2001.8875,631.3594 2002.325,632.4062 Q2002.7781,633.4531 2003.6219,634 Q2004.4813,634.5469 2005.7938,634.5469 Q2006.575,634.5469 2007.2625,634.4219 Q2007.9656,634.2812 2008.9656,633.9687 L2008.9656,635.8437 Q2008.1063,636.1719 2007.3406,636.2969 Q2006.5906,636.4219 2005.575,636.4219 Q2003.6531,636.4219 2002.3406,635.625 Q2001.0438,634.8125 2000.3875,633.3437 Q1999.7313,631.8594 1999.7313,629.8906 Q1999.7313,628.4687 2000.1219,627.2969 Q2000.5281,626.1094 2001.3094,625.2344 Q2002.0906,624.3594 2003.2313,623.8906 Q2004.3719,623.4062 2005.8406,623.4062 Q2006.7938,623.4062 2007.6844,623.6094 Q2008.5906,623.7969 2009.5281,624.2656 L2008.7,626.0469 Q2007.9188,625.6719 2007.2625,625.4844 Q2006.6063,625.2812 2005.8094,625.2812 Z " fill="#000000"/><text fill="#000000" font-family="sans-serif" font-size="14" lengthAdjust="spacing" textLength="135.1835" x="2019.7" y="635.182">AutoPassResolveCall</text><line style="stroke:#181818;stroke-width:0.5;" x1="1991.7" x2="2156.8835" y1="645.75" y2="645.75"/><text fill="#000000" font-family="sans-serif" font-size="14" lengthAdjust="spacing" textLength="150.2054" x="1996.7" y="664.7159">allow_interactive : bool</text><text fill="#000000" font-family="sans-serif" font-size="14" lengthAdjust="spacing" textLength="152.9355" x="1996.7" y="683.7839">attrs_map : dict[str, str]</text><text fill="#000000" font-family="sans-serif" font-size="14" lengthAdjust="spacing" textLength="92.2736" x="1996.7" y="702.8518">config : object</text><text fill="#000000" font-family="sans-serif" font-size="14" lengthAdjust="spacing" textLength="63.0978" x="1996.7" y="721.9197">entry : str</text><line style="stroke:#181818;stroke-width:0.5;" x1="1991.7" x2="2156.8835" y1="730.0217" y2="730.0217"/></g><!--class dyno_lab.cli.CLITestMixin--><g class="entity" data-qualified-name="dyno_lab.cli.CLITestMixin" data-source-line="28" id="ent0007"><rect fill="#F1F1F1" height="67.0679" rx="2.5" ry="2.5" style="stroke:#181818;stroke-width:0.5;" width="456.8483" x="160.87" y="92.8"/><ellipse cx="342.8693" cy="108.8" fill="#ADD1B2" rx="11" ry="11" style="stroke:#181818;stroke-width:1;"/><path d="M342.9787,104.3312 Q342.0568,104.3312 341.3224,104.6437 Q340.6037,104.9562 340.1037,105.55 Q339.6037,106.1281 339.3224,107.0031 Q339.0568,107.8781 339.0568,108.9719 Q339.0568,110.4094 339.4943,111.4562 Q339.9474,112.5031 340.7912,113.05 Q341.6506,113.5969 342.9631,113.5969 Q343.7443,113.5969 344.4318,113.4719 Q345.1349,113.3312 346.1349,113.0187 L346.1349,114.8937 Q345.2756,115.2219 344.5099,115.3469 Q343.7599,115.4719 342.7443,115.4719 Q340.8224,115.4719 339.5099,114.675 Q338.2131,113.8625 337.5568,112.3937 Q336.9006,110.9094 336.9006,108.9406 Q336.9006,107.5187 337.2912,106.3469 Q337.6974,105.1594 338.4787,104.2844 Q339.2599,103.4094 340.4006,102.9406 Q341.5412,102.4562 343.0099,102.4562 Q343.9631,102.4562 344.8537,102.6594 Q345.7599,102.8469 346.6974,103.3156 L345.8693,105.0969 Q345.0881,104.7219 344.4318,104.5344 Q343.7756,104.3312 342.9787,104.3312 Z " fill="#000000"/><text fill="#000000" font-family="sans-serif" font-size="14" lengthAdjust="spacing" textLength="84.3497" x="363.3693" y="114.232">CLITestMixin</text><line style="stroke:#181818;stroke-width:0.5;" x1="161.87" x2="616.7183" y1="124.8" y2="124.8"/><line style="stroke:#181818;stroke-width:0.5;" x1="161.87" x2="616.7183" y1="132.8" y2="132.8"/><text fill="#000000" font-family="sans-serif" font-size="14" lengthAdjust="spacing" textLength="444.8483" x="166.87" y="151.7659">run_cli(func: Any, args: list[str] | None, stdin: str | None) -&gt; CliResult</text></g><!--class dyno_lab.proc.CapturedCall--><g class="entity" data-qualified-name="dyno_lab.proc.CapturedCall" data-source-line="31" id="ent0008"><rect fill="#F1F1F1" height="86.1358" rx="2.5" ry="2.5" style="stroke:#181818;stroke-width:0.5;" width="191.9414" x="2318.32" y="372.35"/><ellipse cx="2367.4248" cy="388.35" fill="#ADD1B2" rx="11" ry="11" style="stroke:#181818;stroke-width:1;"/><path d="M2367.5342,383.8812 Q2366.6123,383.8812 2365.878,384.1937 Q2365.1592,384.5062 2364.6592,385.1 Q2364.1592,385.6781 2363.878,386.5531 Q2363.6123,387.4281 2363.6123,388.5219 Q2363.6123,389.9594 2364.0498,391.0062 Q2364.503,392.0531 2365.3467,392.6 Q2366.2061,393.1469 2367.5186,393.1469 Q2368.2998,393.1469 2368.9873,393.0219 Q2369.6905,392.8812 2370.6905,392.5687 L2370.6905,394.4437 Q2369.8311,394.7719 2369.0655,394.8969 Q2368.3155,395.0219 2367.2998,395.0219 Q2365.378,395.0219 2364.0655,394.225 Q2362.7686,393.4125 2362.1123,391.9437 Q2361.4561,390.4594 2361.4561,388.4906 Q2361.4561,387.0687 2361.8467,385.8969 Q2362.253,384.7094 2363.0342,383.8344 Q2363.8155,382.9594 2364.9561,382.4906 Q2366.0967,382.0062 2367.5655,382.0062 Q2368.5186,382.0062 2369.4092,382.2094 Q2370.3155,382.3969 2371.253,382.8656 L2370.4248,384.6469 Q2369.6436,384.2719 2368.9873,384.0844 Q2368.3311,383.8812 2367.5342,383.8812 Z " fill="#000000"/><text fill="#000000" font-family="sans-serif" font-size="14" lengthAdjust="spacing" textLength="85.2317" x="2387.9248" y="393.782">CapturedCall</text><line style="stroke:#181818;stroke-width:0.5;" x1="2319.32" x2="2509.2614" y1="404.35" y2="404.35"/><text fill="#000000" font-family="sans-serif" font-size="14" lengthAdjust="spacing" textLength="179.9414" x="2324.32" y="423.3159">args : list[str] | tuple[str, ...]</text><text fill="#000000" font-family="sans-serif" font-size="14" lengthAdjust="spacing" textLength="141.3435" x="2324.32" y="442.3839">kwargs : dict[str, Any]</text><line style="stroke:#181818;stroke-width:0.5;" x1="2319.32" x2="2509.2614" y1="450.4858" y2="450.4858"/></g><!--class dyno_lab.cli.CliResult--><g class="entity" data-qualified-name="dyno_lab.cli.CliResult" data-source-line="35" id="ent0009"><rect fill="#F1F1F1" height="200.5433" rx="2.5" ry="2.5" style="stroke:#181818;stroke-width:0.5;" width="337.6527" x="652.47" y="26.06"/><ellipse cx="788.6965" cy="42.06" fill="#ADD1B2" rx="11" ry="11" style="stroke:#181818;stroke-width:1;"/><path d="M788.8059,37.5912 Q787.884,37.5912 787.1496,37.9037 Q786.4309,38.2162 785.9309,38.81 Q785.4309,39.3881 785.1496,40.2631 Q784.884,41.1381 784.884,42.2319 Q784.884,43.6694 785.3215,44.7162 Q785.7746,45.7631 786.6184,46.31 Q787.4777,46.8569 788.7902,46.8569 Q789.5715,46.8569 790.259,46.7319 Q790.9621,46.5912 791.9621,46.2787 L791.9621,48.1537 Q791.1027,48.4819 790.3371,48.6069 Q789.5871,48.7319 788.5715,48.7319 Q786.6496,48.7319 785.3371,47.935 Q784.0402,47.1225 783.384,45.6537 Q782.7277,44.1694 782.7277,42.2006 Q782.7277,40.7787 783.1184,39.6069 Q783.5246,38.4194 784.3059,37.5444 Q785.0871,36.6694 786.2277,36.2006 Q787.3684,35.7162 788.8371,35.7162 Q789.7902,35.7162 790.6809,35.9194 Q791.5871,36.1069 792.5246,36.5756 L791.6965,38.3569 Q790.9152,37.9819 790.259,37.7944 Q789.6027,37.5912 788.8059,37.5912 Z " fill="#000000"/><text fill="#000000" font-family="sans-serif" font-size="14" lengthAdjust="spacing" textLength="56.6998" x="809.1965" y="47.492">CliResult</text><line style="stroke:#181818;stroke-width:0.5;" x1="653.47" x2="989.1227" y1="58.06" y2="58.06"/><text fill="#000000" font-family="sans-serif" font-size="14" lengthAdjust="spacing" textLength="90.2296" x="658.47" y="77.0259">exit_code : int</text><text fill="#000000" font-family="sans-serif" font-size="14" lengthAdjust="spacing" textLength="73.0657" x="658.47" y="96.0939">output : str</text><text fill="#000000" font-family="sans-serif" font-size="14" lengthAdjust="spacing" textLength="68.4038" x="658.47" y="115.1618">stderr : str</text><text fill="#000000" font-family="sans-serif" font-size="14" lengthAdjust="spacing" textLength="71.1198" x="658.47" y="134.2297">stdout : str</text><line style="stroke:#181818;stroke-width:0.5;" x1="653.47" x2="989.1227" y1="142.3317" y2="142.3317"/><text fill="#000000" font-family="sans-serif" font-size="14" lengthAdjust="spacing" textLength="256.059" x="658.47" y="161.2976">assert_error_contains(text: str) -&gt; None</text><text fill="#000000" font-family="sans-serif" font-size="14" lengthAdjust="spacing" textLength="325.6527" x="658.47" y="180.3655">assert_failure(expected_code: int | None) -&gt; None</text><text fill="#000000" font-family="sans-serif" font-size="14" lengthAdjust="spacing" textLength="266.839" x="658.47" y="199.4334">assert_output_contains(text: str) -&gt; None</text><text fill="#000000" font-family="sans-serif" font-size="14" lengthAdjust="spacing" textLength="160.1734" x="658.47" y="218.5014">assert_success() -&gt; None</text></g><!--class dyno_lab.base.DynoTestCase--><g class="entity" data-qualified-name="dyno_lab.base.DynoTestCase" data-source-line="45" id="ent0010"><rect fill="#F1F1F1" height="238.6792" rx="2.5" ry="2.5" style="stroke:#181818;stroke-width:0.5;" width="568.6379" x="1024.97" y="7"/><ellipse cx="1258.4262" cy="23" fill="#ADD1B2" rx="11" ry="11" style="stroke:#181818;stroke-width:1;"/><path d="M1258.5355,18.5313 Q1257.6137,18.5313 1256.8793,18.8438 Q1256.1605,19.1563 1255.6605,19.75 Q1255.1605,20.3281 1254.8793,21.2031 Q1254.6137,22.0781 1254.6137,23.1719 Q1254.6137,24.6094 1255.0512,25.6563 Q1255.5043,26.7031 1256.348,27.25 Q1257.2074,27.7969 1258.5199,27.7969 Q1259.3012,27.7969 1259.9887,27.6719 Q1260.6918,27.5313 1261.6918,27.2188 L1261.6918,29.0938 Q1260.8324,29.4219 1260.0668,29.5469 Q1259.3168,29.6719 1258.3012,29.6719 Q1256.3793,29.6719 1255.0668,28.875 Q1253.7699,28.0625 1253.1137,26.5938 Q1252.4574,25.1094 1252.4574,23.1406 Q1252.4574,21.7188 1252.848,20.5469 Q1253.2543,19.3594 1254.0355,18.4844 Q1254.8168,17.6094 1255.9574,17.1406 Q1257.098,16.6563 1258.5668,16.6563 Q1259.5199,16.6563 1260.4105,16.8594 Q1261.3168,17.0469 1262.2543,17.5156 L1261.4262,19.2969 Q1260.6449,18.9219 1259.9887,18.7344 Q1259.3324,18.5313 1258.5355,18.5313 Z " fill="#000000"/><text fill="#000000" font-family="sans-serif" font-size="14" lengthAdjust="spacing" textLength="93.2256" x="1278.9262" y="28.432">DynoTestCase</text><line style="stroke:#181818;stroke-width:0.5;" x1="1025.97" x2="1592.6079" y1="39" y2="39"/><line style="stroke:#181818;stroke-width:0.5;" x1="1025.97" x2="1592.6079" y1="47" y2="47"/><text fill="#000000" font-family="sans-serif" font-size="14" lengthAdjust="spacing" textLength="516.2621" x="1030.97" y="65.9659">assertApproxEqual(first: float, second: float, rel: float, msg: str | None) -&gt; None</text><text fill="#000000" font-family="sans-serif" font-size="14" lengthAdjust="spacing" textLength="488.1502" x="1030.97" y="85.0339">assertContainsAll(container: Any, items: list[Any], msg: str | None) -&gt; None</text><text fill="#000000" font-family="sans-serif" font-size="14" lengthAdjust="spacing" textLength="556.6379" x="1030.97" y="104.1018">assertDictSubset(subset: dict[str, Any], whole: dict[str, Any], msg: str | None) -&gt; None</text><text fill="#000000" font-family="sans-serif" font-size="14" lengthAdjust="spacing" textLength="372.2446" x="1030.97" y="123.1697">assertDirExists(path: str | Path, msg: str | None) -&gt; None</text><text fill="#000000" font-family="sans-serif" font-size="14" lengthAdjust="spacing" textLength="421.5104" x="1030.97" y="142.2376">assertExitCode(code: int, expected: int, msg: str | None) -&gt; None</text><text fill="#000000" font-family="sans-serif" font-size="14" lengthAdjust="spacing" textLength="453.3323" x="1030.97" y="161.3055">assertFileContains(path: str | Path, text: str, msg: str | None) -&gt; None</text><text fill="#000000" font-family="sans-serif" font-size="14" lengthAdjust="spacing" textLength="375.0166" x="1030.97" y="180.3734">assertFileExists(path: str | Path, msg: str | None) -&gt; None</text><text fill="#000000" font-family="sans-serif" font-size="14" lengthAdjust="spacing" textLength="477.4962" x="1030.97" y="199.4414">assertFileNotContains(path: str | Path, text: str, msg: str | None) -&gt; None</text><text fill="#000000" font-family="sans-serif" font-size="14" lengthAdjust="spacing" textLength="465.5402" x="1030.97" y="218.5093">assertNoneOf(container: Any, items: list[Any], msg: str | None) -&gt; None</text><text fill="#000000" font-family="sans-serif" font-size="14" lengthAdjust="spacing" textLength="511.1101" x="1030.97" y="237.5772">assertOutputContains(output: str, text: str, label: str, msg: str | None) -&gt; None</text></g><!--class dyno_lab.env.EnvPatch--><g class="entity" data-qualified-name="dyno_lab.env.EnvPatch" data-source-line="57" id="ent0011"><rect fill="#F1F1F1" height="67.0679" rx="2.5" ry="2.5" style="stroke:#181818;stroke-width:0.5;" width="191.7733" x="1628.41" y="92.8"/><ellipse cx="1689.8978" cy="108.8" fill="#ADD1B2" rx="11" ry="11" style="stroke:#181818;stroke-width:1;"/><path d="M1690.0072,104.3312 Q1689.0853,104.3312 1688.3509,104.6437 Q1687.6322,104.9562 1687.1322,105.55 Q1686.6322,106.1281 1686.3509,107.0031 Q1686.0853,107.8781 1686.0853,108.9719 Q1686.0853,110.4094 1686.5228,111.4562 Q1686.9759,112.5031 1687.8197,113.05 Q1688.679,113.5969 1689.9915,113.5969 Q1690.7728,113.5969 1691.4603,113.4719 Q1692.1634,113.3312 1693.1634,113.0187 L1693.1634,114.8937 Q1692.304,115.2219 1691.5384,115.3469 Q1690.7884,115.4719 1689.7728,115.4719 Q1687.8509,115.4719 1686.5384,114.675 Q1685.2415,113.8625 1684.5853,112.3937 Q1683.929,110.9094 1683.929,108.9406 Q1683.929,107.5187 1684.3197,106.3469 Q1684.7259,105.1594 1685.5072,104.2844 Q1686.2884,103.4094 1687.429,102.9406 Q1688.5697,102.4562 1690.0384,102.4562 Q1690.9915,102.4562 1691.8822,102.6594 Q1692.7884,102.8469 1693.7259,103.3156 L1692.8978,105.0969 Q1692.1165,104.7219 1691.4603,104.5344 Q1690.804,104.3312 1690.0072,104.3312 Z " fill="#000000"/><text fill="#000000" font-family="sans-serif" font-size="14" lengthAdjust="spacing" textLength="60.2978" x="1710.3978" y="114.232">EnvPatch</text><line style="stroke:#181818;stroke-width:0.5;" x1="1629.41" x2="1819.1833" y1="124.8" y2="124.8"/><line style="stroke:#181818;stroke-width:0.5;" x1="1629.41" x2="1819.1833" y1="132.8" y2="132.8"/><text fill="#000000" font-family="sans-serif" font-size="14" lengthAdjust="spacing" textLength="179.7733" x="1634.41" y="151.7659">decorator(env: dict[str, str])</text></g><!--class dyno_lab.time.FastSleep--><g class="entity" data-qualified-name="dyno_lab.time.FastSleep" data-source-line="60" id="ent0012"><rect fill="#F1F1F1" height="105.2038" rx="2.5" ry="2.5" style="stroke:#181818;stroke-width:0.5;" width="120.9756" x="18.81" y="362.81"/><ellipse cx="45.6881" cy="378.81" fill="#ADD1B2" rx="11" ry="11" style="stroke:#181818;stroke-width:1;"/><path d="M45.7975,374.3412 Q44.8756,374.3412 44.1412,374.6537 Q43.4225,374.9662 42.9225,375.56 Q42.4225,376.1381 42.1412,377.0131 Q41.8756,377.8881 41.8756,378.9819 Q41.8756,380.4194 42.3131,381.4662 Q42.7662,382.5131 43.61,383.06 Q44.4694,383.6069 45.7819,383.6069 Q46.5631,383.6069 47.2506,383.4819 Q47.9537,383.3412 48.9537,383.0287 L48.9537,384.9037 Q48.0944,385.2319 47.3287,385.3569 Q46.5787,385.4819 45.5631,385.4819 Q43.6412,385.4819 42.3287,384.685 Q41.0319,383.8725 40.3756,382.4037 Q39.7194,380.9194 39.7194,378.9506 Q39.7194,377.5287 40.11,376.3569 Q40.5162,375.1694 41.2975,374.2944 Q42.0787,373.4194 43.2194,372.9506 Q44.36,372.4662 45.8287,372.4662 Q46.7819,372.4662 47.6725,372.6694 Q48.5787,372.8569 49.5162,373.3256 L48.6881,375.1069 Q47.9069,374.7319 47.2506,374.5444 Q46.5944,374.3412 45.7975,374.3412 Z " fill="#000000"/><text fill="#000000" font-family="sans-serif" font-size="14" lengthAdjust="spacing" textLength="62.5798" x="62.3277" y="384.242">FastSleep</text><line style="stroke:#181818;stroke-width:0.5;" x1="19.81" x2="138.7856" y1="394.81" y2="394.81"/><text fill="#000000" font-family="sans-serif" font-size="14" lengthAdjust="spacing" textLength="93.9116" x="24.81" y="413.7759">call_count : int</text><text fill="#000000" font-family="sans-serif" font-size="14" lengthAdjust="spacing" textLength="97.5376" x="24.81" y="432.8439">calls : list[float]</text><text fill="#000000" font-family="sans-serif" font-size="14" lengthAdjust="spacing" textLength="108.9756" x="24.81" y="451.9118">total_slept : float</text><line style="stroke:#181818;stroke-width:0.5;" x1="19.81" x2="138.7856" y1="460.0138" y2="460.0138"/></g><!--class dyno_lab.time.FrozenTime--><g class="entity" data-qualified-name="dyno_lab.time.FrozenTime" data-source-line="65" id="ent0013"><rect fill="#F1F1F1" height="67.0679" rx="2.5" ry="2.5" style="stroke:#181818;stroke-width:0.5;" width="123.8036" x="174.39" y="381.88"/><ellipse cx="196.0392" cy="397.88" fill="#ADD1B2" rx="11" ry="11" style="stroke:#181818;stroke-width:1;"/><path d="M196.1485,393.4113 Q195.2267,393.4113 194.4923,393.7238 Q193.7735,394.0363 193.2735,394.63 Q192.7735,395.2081 192.4923,396.0831 Q192.2267,396.9581 192.2267,398.0519 Q192.2267,399.4894 192.6642,400.5363 Q193.1173,401.5831 193.961,402.13 Q194.8204,402.6769 196.1329,402.6769 Q196.9142,402.6769 197.6017,402.5519 Q198.3048,402.4113 199.3048,402.0988 L199.3048,403.9738 Q198.4454,404.3019 197.6798,404.4269 Q196.9298,404.5519 195.9142,404.5519 Q193.9923,404.5519 192.6798,403.755 Q191.3829,402.9425 190.7267,401.4738 Q190.0704,399.9894 190.0704,398.0206 Q190.0704,396.5988 190.461,395.4269 Q190.8673,394.2394 191.6485,393.3644 Q192.4298,392.4894 193.5704,392.0206 Q194.711,391.5363 196.1798,391.5363 Q197.1329,391.5363 198.0235,391.7394 Q198.9298,391.9269 199.8673,392.3956 L199.0392,394.1769 Q198.2579,393.8019 197.6017,393.6144 Q196.9454,393.4113 196.1485,393.4113 Z " fill="#000000"/><text fill="#000000" font-family="sans-serif" font-size="14" lengthAdjust="spacing" textLength="77.0277" x="211.5167" y="403.312">FrozenTime</text><line style="stroke:#181818;stroke-width:0.5;" x1="175.39" x2="297.1936" y1="413.88" y2="413.88"/><text fill="#000000" font-family="sans-serif" font-size="14" lengthAdjust="spacing" textLength="111.8036" x="180.39" y="432.8459">timestamp : float</text><line style="stroke:#181818;stroke-width:0.5;" x1="175.39" x2="297.1936" y1="440.9479" y2="440.9479"/></g><!--class dyno_lab.log.LogCapture--><g class="entity" data-qualified-name="dyno_lab.log.LogCapture" data-source-line="68" id="ent0014"><rect fill="#F1F1F1" height="143.3396" rx="2.5" ry="2.5" style="stroke:#181818;stroke-width:0.5;" width="345.1847" x="332.7" y="343.74"/><ellipse cx="462.4865" cy="359.74" fill="#ADD1B2" rx="11" ry="11" style="stroke:#181818;stroke-width:1;"/><path d="M462.5959,355.2713 Q461.674,355.2713 460.9396,355.5838 Q460.2209,355.8963 459.7209,356.49 Q459.2209,357.0681 458.9396,357.9431 Q458.674,358.8181 458.674,359.9119 Q458.674,361.3494 459.1115,362.3963 Q459.5646,363.4431 460.4084,363.99 Q461.2678,364.5369 462.5803,364.5369 Q463.3615,364.5369 464.049,364.4119 Q464.7521,364.2713 465.7521,363.9588 L465.7521,365.8338 Q464.8928,366.1619 464.1271,366.2869 Q463.3771,366.4119 462.3615,366.4119 Q460.4396,366.4119 459.1271,365.615 Q457.8303,364.8025 457.174,363.3338 Q456.5178,361.8494 456.5178,359.8806 Q456.5178,358.4588 456.9084,357.2869 Q457.3146,356.0994 458.0959,355.2244 Q458.8771,354.3494 460.0178,353.8806 Q461.1584,353.3963 462.6271,353.3963 Q463.5803,353.3963 464.4709,353.5994 Q465.3771,353.7869 466.3146,354.2556 L465.4865,356.0369 Q464.7053,355.6619 464.049,355.4744 Q463.3928,355.2713 462.5959,355.2713 Z " fill="#000000"/><text fill="#000000" font-family="sans-serif" font-size="14" lengthAdjust="spacing" textLength="77.1117" x="482.9865" y="365.172">LogCapture</text><line style="stroke:#181818;stroke-width:0.5;" x1="333.7" x2="676.8847" y1="375.74" y2="375.74"/><text fill="#000000" font-family="sans-serif" font-size="14" lengthAdjust="spacing" textLength="213.7232" x="338.7" y="394.7059">records : list[logging.LogRecord]</text><line style="stroke:#181818;stroke-width:0.5;" x1="333.7" x2="676.8847" y1="402.8079" y2="402.8079"/><text fill="#000000" font-family="sans-serif" font-size="14" lengthAdjust="spacing" textLength="304.7928" x="338.7" y="421.7739">assert_logged(level: int, fragment: str) -&gt; None</text><text fill="#000000" font-family="sans-serif" font-size="14" lengthAdjust="spacing" textLength="333.1847" x="338.7" y="440.8418">assert_not_logged(level: int, fragment: str) -&gt; None</text><text fill="#000000" font-family="sans-serif" font-size="14" lengthAdjust="spacing" textLength="188.5512" x="338.7" y="459.9097">count(level: int | None) -&gt; int</text><text fill="#000000" font-family="sans-serif" font-size="14" lengthAdjust="spacing" textLength="244.8871" x="338.7" y="478.9776">messages(level: int | None) -&gt; list[str]</text></g><!--class dyno_lab.preflight.PreflightError--><g class="entity" data-qualified-name="dyno_lab.preflight.PreflightError" data-source-line="75" id="ent0015"><rect fill="#F1F1F1" height="48" rx="2.5" ry="2.5" style="stroke:#181818;stroke-width:0.5;" width="122.1037" x="713.24" y="391.41"/><ellipse cx="728.24" cy="407.41" fill="#ADD1B2" rx="11" ry="11" style="stroke:#181818;stroke-width:1;"/><path d="M728.3494,402.9412 Q727.4275,402.9412 726.6931,403.2537 Q725.9744,403.5662 725.4744,404.16 Q724.9744,404.7381 724.6931,405.6131 Q724.4275,406.4881 724.4275,407.5819 Q724.4275,409.0194 724.865,410.0662 Q725.3181,411.1131 726.1619,411.66 Q727.0213,412.2069 728.3338,412.2069 Q729.115,412.2069 729.8025,412.0819 Q730.5056,411.9412 731.5056,411.6287 L731.5056,413.5037 Q730.6463,413.8319 729.8806,413.9569 Q729.1306,414.0819 728.115,414.0819 Q726.1931,414.0819 724.8806,413.285 Q723.5838,412.4725 722.9275,411.0037 Q722.2713,409.5194 722.2713,407.5506 Q722.2713,406.1287 722.6619,404.9569 Q723.0681,403.7694 723.8494,402.8944 Q724.6306,402.0194 725.7713,401.5506 Q726.9119,401.0662 728.3806,401.0662 Q729.3338,401.0662 730.2244,401.2694 Q731.1306,401.4569 732.0681,401.9256 L731.24,403.7069 Q730.4588,403.3319 729.8025,403.1444 Q729.1463,402.9412 728.3494,402.9412 Z " fill="#000000"/><text fill="#FF0000" font-family="sans-serif" font-size="14" lengthAdjust="spacing" textLength="90.1037" x="742.24" y="412.842">PreflightError</text><line style="stroke:#181818;stroke-width:0.5;" x1="714.24" x2="834.3437" y1="423.41" y2="423.41"/><line style="stroke:#181818;stroke-width:0.5;" x1="714.24" x2="834.3437" y1="431.41" y2="431.41"/></g><!--class dyno_lab.preflight.PreflightReport--><g class="entity" data-qualified-name="dyno_lab.preflight.PreflightReport" data-source-line="77" id="ent0016"><rect fill="#F1F1F1" height="143.3396" rx="2.5" ry="2.5" style="stroke:#181818;stroke-width:0.5;" width="184.0453" x="2557.27" y="343.74"/><ellipse cx="2595.2298" cy="359.74" fill="#ADD1B2" rx="11" ry="11" style="stroke:#181818;stroke-width:1;"/><path d="M2595.3391,355.2713 Q2594.4173,355.2713 2593.6829,355.5838 Q2592.9641,355.8963 2592.4641,356.49 Q2591.9641,357.0681 2591.6829,357.9431 Q2591.4173,358.8181 2591.4173,359.9119 Q2591.4173,361.3494 2591.8548,362.3963 Q2592.3079,363.4431 2593.1516,363.99 Q2594.011,364.5369 2595.3235,364.5369 Q2596.1048,364.5369 2596.7923,364.4119 Q2597.4954,364.2713 2598.4954,363.9588 L2598.4954,365.8338 Q2597.636,366.1619 2596.8704,366.2869 Q2596.1204,366.4119 2595.1048,366.4119 Q2593.1829,366.4119 2591.8704,365.615 Q2590.5735,364.8025 2589.9173,363.3338 Q2589.261,361.8494 2589.261,359.8806 Q2589.261,358.4588 2589.6516,357.2869 Q2590.0579,356.0994 2590.8391,355.2244 Q2591.6204,354.3494 2592.761,353.8806 Q2593.9016,353.3963 2595.3704,353.3963 Q2596.3235,353.3963 2597.2141,353.5994 Q2598.1204,353.7869 2599.0579,354.2556 L2598.2298,356.0369 Q2597.4485,355.6619 2596.7923,355.4744 Q2596.136,355.2713 2595.3391,355.2713 Z " fill="#000000"/><text fill="#000000" font-family="sans-serif" font-size="14" lengthAdjust="spacing" textLength="101.0236" x="2614.3319" y="365.172">PreflightReport</text><line style="stroke:#181818;stroke-width:0.5;" x1="2558.27" x2="2740.3153" y1="375.74" y2="375.74"/><text fill="#000000" font-family="sans-serif" font-size="14" lengthAdjust="spacing" textLength="107.8696" x="2563.27" y="394.7059">all_passed : bool</text><text fill="#000000" font-family="sans-serif" font-size="14" lengthAdjust="spacing" textLength="162.0634" x="2563.27" y="413.7739">failed : list[_CheckResult]</text><text fill="#000000" font-family="sans-serif" font-size="14" lengthAdjust="spacing" textLength="172.0453" x="2563.27" y="432.8418">passed : list[_CheckResult]</text><text fill="#000000" font-family="sans-serif" font-size="14" lengthAdjust="spacing" textLength="170.0713" x="2563.27" y="451.9097">results : list[_CheckResult]</text><line style="stroke:#181818;stroke-width:0.5;" x1="2558.27" x2="2740.3153" y1="460.0117" y2="460.0117"/><text fill="#000000" font-family="sans-serif" font-size="14" lengthAdjust="spacing" textLength="152.9634" x="2563.27" y="478.9776">raise_if_failed() -&gt; None</text></g><!--class dyno_lab.preflight.PreflightSuite--><g class="entity" data-qualified-name="dyno_lab.preflight.PreflightSuite" data-source-line="84" id="ent0017"><rect fill="#F1F1F1" height="162.4075" rx="2.5" ry="2.5" style="stroke:#181818;stroke-width:0.5;" width="422.2125" x="870.19" y="334.21"/><ellipse cx="1032.3444" cy="350.21" fill="#ADD1B2" rx="11" ry="11" style="stroke:#181818;stroke-width:1;"/><path d="M1032.4538,345.7412 Q1031.5319,345.7412 1030.7976,346.0537 Q1030.0788,346.3662 1029.5788,346.96 Q1029.0788,347.5381 1028.7976,348.4131 Q1028.5319,349.2881 1028.5319,350.3819 Q1028.5319,351.8194 1028.9694,352.8662 Q1029.4226,353.9131 1030.2663,354.46 Q1031.1257,355.0069 1032.4382,355.0069 Q1033.2194,355.0069 1033.9069,354.8819 Q1034.6101,354.7412 1035.6101,354.4287 L1035.6101,356.3037 Q1034.7507,356.6319 1033.9851,356.7569 Q1033.2351,356.8819 1032.2194,356.8819 Q1030.2976,356.8819 1028.9851,356.085 Q1027.6882,355.2725 1027.0319,353.8037 Q1026.3757,352.3194 1026.3757,350.3506 Q1026.3757,348.9287 1026.7663,347.7569 Q1027.1726,346.5694 1027.9538,345.6944 Q1028.7351,344.8194 1029.8757,344.3506 Q1031.0163,343.8662 1032.4851,343.8662 Q1033.4382,343.8662 1034.3288,344.0694 Q1035.2351,344.2569 1036.1726,344.7256 L1035.3444,346.5069 Q1034.5632,346.1319 1033.9069,345.9444 Q1033.2507,345.7412 1032.4538,345.7412 Z " fill="#000000"/><text fill="#000000" font-family="sans-serif" font-size="14" lengthAdjust="spacing" textLength="89.4037" x="1052.8444" y="355.642">PreflightSuite</text><line style="stroke:#181818;stroke-width:0.5;" x1="871.19" x2="1291.4025" y1="366.21" y2="366.21"/><line style="stroke:#181818;stroke-width:0.5;" x1="871.19" x2="1291.4025" y1="374.21" y2="374.21"/><text fill="#000000" font-family="sans-serif" font-size="14" lengthAdjust="spacing" textLength="195.7052" x="876.19" y="393.1759">require_env() -&gt; PreflightSuite</text><text fill="#000000" font-family="sans-serif" font-size="14" lengthAdjust="spacing" textLength="216.6632" x="876.19" y="412.2439">require_import() -&gt; PreflightSuite</text><text fill="#000000" font-family="sans-serif" font-size="14" lengthAdjust="spacing" textLength="410.2125" x="876.19" y="431.3118">require_port(host: str, port: int, timeout: float) -&gt; PreflightSuite</text><text fill="#000000" font-family="sans-serif" font-size="14" lengthAdjust="spacing" textLength="197.6512" x="876.19" y="450.3797">require_tool() -&gt; PreflightSuite</text><text fill="#000000" font-family="sans-serif" font-size="14" lengthAdjust="spacing" textLength="329.4888" x="876.19" y="469.4476">require_url(url: str, timeout: float) -&gt; PreflightSuite</text><text fill="#000000" font-family="sans-serif" font-size="14" lengthAdjust="spacing" textLength="152.3054" x="876.19" y="488.5155">run() -&gt; PreflightReport</text></g><!--class dyno_lab.proc.ProcessRecorder--><g class="entity" data-qualified-name="dyno_lab.proc.ProcessRecorder" data-source-line="92" id="ent0018"><rect fill="#F1F1F1" height="124.2717" rx="2.5" ry="2.5" style="stroke:#181818;stroke-width:0.5;" width="281.541" x="2273.52" y="64.2"/><ellipse cx="2354.7337" cy="80.2" fill="#ADD1B2" rx="11" ry="11" style="stroke:#181818;stroke-width:1;"/><path d="M2354.8431,75.7312 Q2353.9212,75.7312 2353.1868,76.0437 Q2352.4681,76.3562 2351.9681,76.95 Q2351.4681,77.5281 2351.1868,78.4031 Q2350.9212,79.2781 2350.9212,80.3719 Q2350.9212,81.8094 2351.3587,82.8562 Q2351.8118,83.9031 2352.6556,84.45 Q2353.515,84.9969 2354.8275,84.9969 Q2355.6087,84.9969 2356.2962,84.8719 Q2356.9993,84.7312 2357.9993,84.4187 L2357.9993,86.2937 Q2357.14,86.6219 2356.3743,86.7469 Q2355.6243,86.8719 2354.6087,86.8719 Q2352.6868,86.8719 2351.3743,86.075 Q2350.0775,85.2625 2349.4212,83.7937 Q2348.765,82.3094 2348.765,80.3406 Q2348.765,78.9187 2349.1556,77.7469 Q2349.5618,76.5594 2350.3431,75.6844 Q2351.1243,74.8094 2352.265,74.3406 Q2353.4056,73.8562 2354.8743,73.8562 Q2355.8275,73.8562 2356.7181,74.0594 Q2357.6243,74.2469 2358.5618,74.7156 L2357.7337,76.4969 Q2356.9525,76.1219 2356.2962,75.9344 Q2355.64,75.7312 2354.8431,75.7312 Z " fill="#000000"/><text fill="#000000" font-family="sans-serif" font-size="14" lengthAdjust="spacing" textLength="110.6136" x="2375.2337" y="85.632">ProcessRecorder</text><line style="stroke:#181818;stroke-width:0.5;" x1="2274.52" x2="2554.061" y1="96.2" y2="96.2"/><text fill="#000000" font-family="sans-serif" font-size="14" lengthAdjust="spacing" textLength="93.9116" x="2279.52" y="115.1659">call_count : int</text><text fill="#000000" font-family="sans-serif" font-size="14" lengthAdjust="spacing" textLength="152.9634" x="2279.52" y="134.2339">calls : list[CapturedCall]</text><line style="stroke:#181818;stroke-width:0.5;" x1="2274.52" x2="2554.061" y1="142.3358" y2="142.3358"/><text fill="#000000" font-family="sans-serif" font-size="14" lengthAdjust="spacing" textLength="269.541" x="2279.52" y="161.3018">commands() -&gt; list[list[str] | tuple[str, ...]]</text><text fill="#000000" font-family="sans-serif" font-size="14" lengthAdjust="spacing" textLength="154.0694" x="2279.52" y="180.3697">stdin_inputs() -&gt; list[str]</text></g><!--class dyno_lab.http.RaisingSession--><g class="entity" data-qualified-name="dyno_lab.http.RaisingSession" data-source-line="98" id="ent0019"><rect fill="#F1F1F1" height="86.1358" rx="2.5" ry="2.5" style="stroke:#181818;stroke-width:0.5;" width="129.4816" x="14.55" y="632.82"/><ellipse cx="29.55" cy="648.82" fill="#ADD1B2" rx="11" ry="11" style="stroke:#181818;stroke-width:1;"/><path d="M29.6594,644.3512 Q28.7375,644.3512 28.0031,644.6637 Q27.2844,644.9762 26.7844,645.57 Q26.2844,646.1481 26.0031,647.0231 Q25.7375,647.8981 25.7375,648.9919 Q25.7375,650.4294 26.175,651.4762 Q26.6281,652.5231 27.4719,653.07 Q28.3313,653.6169 29.6438,653.6169 Q30.425,653.6169 31.1125,653.4919 Q31.8156,653.3512 32.8156,653.0387 L32.8156,654.9137 Q31.9563,655.2419 31.1906,655.3669 Q30.4406,655.4919 29.425,655.4919 Q27.5031,655.4919 26.1906,654.695 Q24.8938,653.8825 24.2375,652.4137 Q23.5813,650.9294 23.5813,648.9606 Q23.5813,647.5387 23.9719,646.3669 Q24.3781,645.1794 25.1594,644.3044 Q25.9406,643.4294 27.0813,642.9606 Q28.2219,642.4762 29.6906,642.4762 Q30.6438,642.4762 31.5344,642.6794 Q32.4406,642.8669 33.3781,643.3356 L32.55,645.1169 Q31.7688,644.7419 31.1125,644.5544 Q30.4563,644.3512 29.6594,644.3512 Z " fill="#000000"/><text fill="#000000" font-family="sans-serif" font-size="14" lengthAdjust="spacing" textLength="97.4816" x="43.55" y="654.252">RaisingSession</text><line style="stroke:#181818;stroke-width:0.5;" x1="15.55" x2="143.0316" y1="664.82" y2="664.82"/><line style="stroke:#181818;stroke-width:0.5;" x1="15.55" x2="143.0316" y1="672.82" y2="672.82"/><text fill="#000000" font-family="sans-serif" font-size="14" lengthAdjust="spacing" textLength="85.4137" x="20.55" y="691.7859">get() -&gt; None</text><text fill="#000000" font-family="sans-serif" font-size="14" lengthAdjust="spacing" textLength="92.6936" x="20.55" y="710.8539">post() -&gt; None</text></g><!--class dyno_lab.http.SequenceSession--><g class="entity" data-qualified-name="dyno_lab.http.SequenceSession" data-source-line="102" id="ent0020"><rect fill="#F1F1F1" height="143.3396" rx="2.5" ry="2.5" style="stroke:#181818;stroke-width:0.5;" width="410.5785" x="2744" y="54.67"/><ellipse cx="2888.1715" cy="70.67" fill="#ADD1B2" rx="11" ry="11" style="stroke:#181818;stroke-width:1;"/><path d="M2888.2809,66.2012 Q2887.359,66.2012 2886.6246,66.5137 Q2885.9059,66.8262 2885.4059,67.42 Q2884.9059,67.9981 2884.6246,68.8731 Q2884.359,69.7481 2884.359,70.8419 Q2884.359,72.2794 2884.7965,73.3262 Q2885.2496,74.3731 2886.0934,74.92 Q2886.9527,75.4669 2888.2652,75.4669 Q2889.0465,75.4669 2889.734,75.3419 Q2890.4371,75.2012 2891.4371,74.8887 L2891.4371,76.7637 Q2890.5777,77.0919 2889.8121,77.2169 Q2889.0621,77.3419 2888.0465,77.3419 Q2886.1246,77.3419 2884.8121,76.545 Q2883.5152,75.7325 2882.859,74.2637 Q2882.2027,72.7794 2882.2027,70.8106 Q2882.2027,69.3887 2882.5934,68.2169 Q2882.9996,67.0294 2883.7809,66.1544 Q2884.5621,65.2794 2885.7027,64.8106 Q2886.8434,64.3262 2888.3121,64.3262 Q2889.2652,64.3262 2890.1559,64.5294 Q2891.0621,64.7169 2891.9996,65.1856 L2891.1715,66.9669 Q2890.3902,66.5919 2889.734,66.4044 Q2889.0777,66.2012 2888.2809,66.2012 Z " fill="#000000"/><text fill="#000000" font-family="sans-serif" font-size="14" lengthAdjust="spacing" textLength="113.7355" x="2908.6715" y="76.102">SequenceSession</text><line style="stroke:#181818;stroke-width:0.5;" x1="2745" x2="3153.5785" y1="86.67" y2="86.67"/><text fill="#000000" font-family="sans-serif" font-size="14" lengthAdjust="spacing" textLength="93.9116" x="2750" y="105.6359">call_count : int</text><text fill="#000000" font-family="sans-serif" font-size="14" lengthAdjust="spacing" textLength="188.7753" x="2750" y="124.7039">calls : list[_CapturedRequest]</text><line style="stroke:#181818;stroke-width:0.5;" x1="2745" x2="3153.5785" y1="132.8058" y2="132.8058"/><text fill="#000000" font-family="sans-serif" font-size="14" lengthAdjust="spacing" textLength="391.2986" x="2750" y="151.7718">get(url: str, params: dict[str, Any] | None) -&gt; _FakeResponse</text><text fill="#000000" font-family="sans-serif" font-size="14" lengthAdjust="spacing" textLength="398.5785" x="2750" y="170.8397">post(url: str, params: dict[str, Any] | None) -&gt; _FakeResponse</text><text fill="#000000" font-family="sans-serif" font-size="14" lengthAdjust="spacing" textLength="143.2055" x="2750" y="189.9076">urls_called() -&gt; list[str]</text></g><!--class dyno_lab.smoke.SmokeResult--><g class="entity" data-qualified-name="dyno_lab.smoke.SmokeResult" data-source-line="109" id="ent0021"><rect fill="#F1F1F1" height="181.4754" rx="2.5" ry="2.5" style="stroke:#181818;stroke-width:0.5;" width="391.0206" x="178.78" y="585.15"/><ellipse cx="327.4175" cy="601.15" fill="#ADD1B2" rx="11" ry="11" style="stroke:#181818;stroke-width:1;"/><path d="M327.5268,596.6813 Q326.605,596.6813 325.8706,596.9938 Q325.1518,597.3063 324.6518,597.9 Q324.1518,598.4781 323.8706,599.3531 Q323.605,600.2281 323.605,601.3219 Q323.605,602.7594 324.0425,603.8063 Q324.4956,604.8531 325.3393,605.4 Q326.1987,605.9469 327.5112,605.9469 Q328.2925,605.9469 328.98,605.8219 Q329.6831,605.6813 330.6831,605.3688 L330.6831,607.2438 Q329.8237,607.5719 329.0581,607.6969 Q328.3081,607.8219 327.2925,607.8219 Q325.3706,607.8219 324.0581,607.025 Q322.7612,606.2125 322.105,604.7438 Q321.4487,603.2594 321.4487,601.2906 Q321.4487,599.8688 321.8393,598.6969 Q322.2456,597.5094 323.0268,596.6344 Q323.8081,595.7594 324.9487,595.2906 Q326.0893,594.8063 327.5581,594.8063 Q328.5112,594.8063 329.4018,595.0094 Q330.3081,595.1969 331.2456,595.6656 L330.4175,597.4469 Q329.6362,597.0719 328.98,596.8844 Q328.3237,596.6813 327.5268,596.6813 Z " fill="#000000"/><text fill="#000000" font-family="sans-serif" font-size="14" lengthAdjust="spacing" textLength="85.2457" x="347.9175" y="606.582">SmokeResult</text><line style="stroke:#181818;stroke-width:0.5;" x1="179.78" x2="568.8006" y1="617.15" y2="617.15"/><text fill="#000000" font-family="sans-serif" font-size="14" lengthAdjust="spacing" textLength="71.9177" x="184.78" y="636.1159">details : str</text><text fill="#000000" font-family="sans-serif" font-size="14" lengthAdjust="spacing" textLength="87.3317" x="184.78" y="655.1839">message : str</text><text fill="#000000" font-family="sans-serif" font-size="14" lengthAdjust="spacing" textLength="66.0658" x="184.78" y="674.2518">name : str</text><text fill="#000000" font-family="sans-serif" font-size="14" lengthAdjust="spacing" textLength="86.5757" x="184.78" y="693.3197">passed : bool</text><text fill="#000000" font-family="sans-serif" font-size="14" lengthAdjust="spacing" textLength="90.2997" x="184.78" y="712.3876">passed_result</text><line style="stroke:#181818;stroke-width:0.5;" x1="179.78" x2="568.8006" y1="720.4896" y2="720.4896"/><text fill="#000000" font-family="sans-serif" font-size="14" lengthAdjust="spacing" textLength="379.0206" x="184.78" y="739.4555">failed(name: str, message: str, details: str) -&gt; SmokeResult</text><text fill="#000000" font-family="sans-serif" font-size="14" lengthAdjust="spacing" textLength="358.5667" x="184.78" y="758.5234">ok(name: str, message: str, details: str) -&gt; SmokeResult</text></g><!--class dyno_lab.smoke.SmokeRunner--><g class="entity" data-qualified-name="dyno_lab.smoke.SmokeRunner" data-source-line="118" id="ent0022"><rect fill="#F1F1F1" height="67.0679" rx="2.5" ry="2.5" style="stroke:#181818;stroke-width:0.5;" width="192.4873" x="605.05" y="642.35"/><ellipse cx="650.5638" cy="658.35" fill="#ADD1B2" rx="11" ry="11" style="stroke:#181818;stroke-width:1;"/><path d="M650.6732,653.8813 Q649.7513,653.8813 649.017,654.1938 Q648.2982,654.5063 647.7982,655.1 Q647.2982,655.6781 647.017,656.5531 Q646.7513,657.4281 646.7513,658.5219 Q646.7513,659.9594 647.1888,661.0063 Q647.642,662.0531 648.4857,662.6 Q649.3451,663.1469 650.6576,663.1469 Q651.4388,663.1469 652.1263,663.0219 Q652.8295,662.8813 653.8295,662.5688 L653.8295,664.4438 Q652.9701,664.7719 652.2045,664.8969 Q651.4545,665.0219 650.4388,665.0219 Q648.517,665.0219 647.2045,664.225 Q645.9076,663.4125 645.2513,661.9438 Q644.5951,660.4594 644.5951,658.4906 Q644.5951,657.0688 644.9857,655.8969 Q645.392,654.7094 646.1732,653.8344 Q646.9545,652.9594 648.0951,652.4906 Q649.2357,652.0063 650.7045,652.0063 Q651.6576,652.0063 652.5482,652.2094 Q653.4545,652.3969 654.392,652.8656 L653.5638,654.6469 Q652.7826,654.2719 652.1263,654.0844 Q651.4701,653.8813 650.6732,653.8813 Z " fill="#000000"/><text fill="#000000" font-family="sans-serif" font-size="14" lengthAdjust="spacing" textLength="92.9596" x="671.0638" y="663.782">SmokeRunner</text><line style="stroke:#181818;stroke-width:0.5;" x1="606.05" x2="796.5373" y1="674.35" y2="674.35"/><line style="stroke:#181818;stroke-width:0.5;" x1="606.05" x2="796.5373" y1="682.35" y2="682.35"/><text fill="#000000" font-family="sans-serif" font-size="14" lengthAdjust="spacing" textLength="180.4873" x="611.05" y="701.3159">run_all() -&gt; SmokeSummary</text></g><!--class dyno_lab.smoke.SmokeSummary--><g class="entity" data-qualified-name="dyno_lab.smoke.SmokeSummary" data-source-line="121" id="ent0023"><rect fill="#F1F1F1" height="143.3396" rx="2.5" ry="2.5" style="stroke:#181818;stroke-width:0.5;" width="182.8554" x="832.87" y="604.22"/><ellipse cx="867.1947" cy="620.22" fill="#ADD1B2" rx="11" ry="11" style="stroke:#181818;stroke-width:1;"/><path d="M867.3041,615.7512 Q866.3822,615.7512 865.6478,616.0637 Q864.9291,616.3762 864.4291,616.97 Q863.9291,617.5481 863.6478,618.4231 Q863.3822,619.2981 863.3822,620.3919 Q863.3822,621.8294 863.8197,622.8762 Q864.2728,623.9231 865.1166,624.47 Q865.9759,625.0169 867.2884,625.0169 Q868.0697,625.0169 868.7572,624.8919 Q869.4603,624.7512 870.4603,624.4387 L870.4603,626.3137 Q869.6009,626.6419 868.8353,626.7669 Q868.0853,626.8919 867.0697,626.8919 Q865.1478,626.8919 863.8353,626.095 Q862.5384,625.2825 861.8822,623.8137 Q861.2259,622.3294 861.2259,620.3606 Q861.2259,618.9387 861.6166,617.7669 Q862.0228,616.5794 862.8041,615.7044 Q863.5853,614.8294 864.7259,614.3606 Q865.8666,613.8762 867.3353,613.8762 Q868.2884,613.8762 869.1791,614.0794 Q870.0853,614.2669 871.0228,614.7356 L870.1947,616.5169 Q869.4134,616.1419 868.7572,615.9544 Q868.1009,615.7512 867.3041,615.7512 Z " fill="#000000"/><text fill="#000000" font-family="sans-serif" font-size="14" lengthAdjust="spacing" textLength="107.9116" x="885.4891" y="625.652">SmokeSummary</text><line style="stroke:#181818;stroke-width:0.5;" x1="833.87" x2="1014.7254" y1="636.22" y2="636.22"/><text fill="#000000" font-family="sans-serif" font-size="14" lengthAdjust="spacing" textLength="107.8696" x="838.87" y="655.1859">all_passed : bool</text><text fill="#000000" font-family="sans-serif" font-size="14" lengthAdjust="spacing" textLength="160.8734" x="838.87" y="674.2539">failed : list[SmokeResult]</text><text fill="#000000" font-family="sans-serif" font-size="14" lengthAdjust="spacing" textLength="170.8554" x="838.87" y="693.3218">passed : list[SmokeResult]</text><text fill="#000000" font-family="sans-serif" font-size="14" lengthAdjust="spacing" textLength="168.8814" x="838.87" y="712.3897">results : list[SmokeResult]</text><line style="stroke:#181818;stroke-width:0.5;" x1="833.87" x2="1014.7254" y1="720.4917" y2="720.4917"/><text fill="#000000" font-family="sans-serif" font-size="14" lengthAdjust="spacing" textLength="152.9634" x="838.87" y="739.4576">raise_if_failed() -&gt; None</text></g><!--class dyno_lab.smoke.SmokeTest--><g class="entity" data-qualified-name="dyno_lab.smoke.SmokeTest" data-source-line="128" id="ent0024"><rect fill="#F1F1F1" height="105.2038" rx="2.5" ry="2.5" style="stroke:#181818;stroke-width:0.5;" width="182.0153" x="1050.29" y="623.29"/><ellipse cx="1101.0188" cy="639.29" fill="#ADD1B2" rx="11" ry="11" style="stroke:#181818;stroke-width:1;"/><path d="M1101.1282,634.8213 Q1100.2063,634.8213 1099.4719,635.1338 Q1098.7532,635.4463 1098.2532,636.04 Q1097.7532,636.6181 1097.4719,637.4931 Q1097.2063,638.3681 1097.2063,639.4619 Q1097.2063,640.8994 1097.6438,641.9463 Q1098.0969,642.9931 1098.9407,643.54 Q1099.8,644.0869 1101.1125,644.0869 Q1101.8938,644.0869 1102.5813,643.9619 Q1103.2844,643.8213 1104.2844,643.5088 L1104.2844,645.3838 Q1103.425,645.7119 1102.6594,645.8369 Q1101.9094,645.9619 1100.8938,645.9619 Q1098.9719,645.9619 1097.6594,645.165 Q1096.3625,644.3525 1095.7063,642.8838 Q1095.05,641.3994 1095.05,639.4306 Q1095.05,638.0088 1095.4407,636.8369 Q1095.8469,635.6494 1096.6282,634.7744 Q1097.4094,633.8994 1098.55,633.4306 Q1099.6907,632.9463 1101.1594,632.9463 Q1102.1125,632.9463 1103.0032,633.1494 Q1103.9094,633.3369 1104.8469,633.8056 L1104.0188,635.5869 Q1103.2375,635.2119 1102.5813,635.0244 Q1101.925,634.8213 1101.1282,634.8213 Z " fill="#000000"/><text fill="#000000" font-family="sans-serif" font-size="14" lengthAdjust="spacing" textLength="72.0577" x="1121.5188" y="644.722">SmokeTest</text><line style="stroke:#181818;stroke-width:0.5;" x1="1051.29" x2="1231.3053" y1="655.29" y2="655.29"/><text fill="#000000" font-family="sans-serif" font-size="14" lengthAdjust="spacing" textLength="66.0658" x="1056.29" y="674.2559">name : str</text><line style="stroke:#181818;stroke-width:0.5;" x1="1051.29" x2="1231.3053" y1="682.3579" y2="682.3579"/><text fill="#000000" font-family="sans-serif" font-size="14" font-style="italic" lengthAdjust="spacing" textLength="128.1135" x="1056.29" y="701.3239">run() -&gt; SmokeResult</text><text fill="#000000" font-family="sans-serif" font-size="14" lengthAdjust="spacing" textLength="170.0153" x="1056.29" y="720.3918">run_safe() -&gt; SmokeResult</text></g><!--class dyno_lab.http.StaticSession--><g class="entity" data-qualified-name="dyno_lab.http.StaticSession" data-source-line="133" id="ent0025"><rect fill="#F1F1F1" height="105.2038" rx="2.5" ry="2.5" style="stroke:#181818;stroke-width:0.5;" width="301.7849" x="3189.4" y="73.73"/><ellipse cx="3293.1886" cy="89.73" fill="#ADD1B2" rx="11" ry="11" style="stroke:#181818;stroke-width:1;"/><path d="M3293.298,85.2612 Q3292.3761,85.2612 3291.6418,85.5737 Q3290.923,85.8862 3290.423,86.48 Q3289.923,87.0581 3289.6418,87.9331 Q3289.3761,88.8081 3289.3761,89.9019 Q3289.3761,91.3394 3289.8136,92.3862 Q3290.2668,93.4331 3291.1105,93.98 Q3291.9699,94.5269 3293.2824,94.5269 Q3294.0636,94.5269 3294.7511,94.4019 Q3295.4543,94.2612 3296.4543,93.9487 L3296.4543,95.8237 Q3295.5949,96.1519 3294.8293,96.2769 Q3294.0793,96.4019 3293.0636,96.4019 Q3291.1418,96.4019 3289.8293,95.605 Q3288.5324,94.7925 3287.8761,93.3237 Q3287.2199,91.8394 3287.2199,89.8706 Q3287.2199,88.4487 3287.6105,87.2769 Q3288.0168,86.0894 3288.798,85.2144 Q3289.5793,84.3394 3290.7199,83.8706 Q3291.8605,83.3862 3293.3293,83.3862 Q3294.2824,83.3862 3295.173,83.5894 Q3296.0793,83.7769 3297.0168,84.2456 L3296.1886,86.0269 Q3295.4074,85.6519 3294.7511,85.4644 Q3294.0949,85.2612 3293.298,85.2612 Z " fill="#000000"/><text fill="#000000" font-family="sans-serif" font-size="14" lengthAdjust="spacing" textLength="85.7077" x="3313.6886" y="95.162">StaticSession</text><line style="stroke:#181818;stroke-width:0.5;" x1="3190.4" x2="3490.1849" y1="105.73" y2="105.73"/><text fill="#000000" font-family="sans-serif" font-size="14" lengthAdjust="spacing" textLength="188.7753" x="3195.4" y="124.6959">calls : list[_CapturedRequest]</text><line style="stroke:#181818;stroke-width:0.5;" x1="3190.4" x2="3490.1849" y1="132.7979" y2="132.7979"/><text fill="#000000" font-family="sans-serif" font-size="14" lengthAdjust="spacing" textLength="282.5049" x="3195.4" y="151.7639">get(url: str, params: Any) -&gt; _FakeResponse</text><text fill="#000000" font-family="sans-serif" font-size="14" lengthAdjust="spacing" textLength="289.7849" x="3195.4" y="170.8318">post(url: str, params: Any) -&gt; _FakeResponse</text></g><!--class dyno_lab.auto_pass.StubKeepassCommandError--><g class="entity" data-qualified-name="dyno_lab.auto_pass.StubKeepassCommandError" data-source-line="138" id="ent0026"><rect fill="#F1F1F1" height="48" rx="2.5" ry="2.5" style="stroke:#181818;stroke-width:0.5;" width="218.5493" x="2020.02" y="102.34"/><ellipse cx="2035.02" cy="118.34" fill="#ADD1B2" rx="11" ry="11" style="stroke:#181818;stroke-width:1;"/><path d="M2035.1294,113.8712 Q2034.2075,113.8712 2033.4731,114.1837 Q2032.7544,114.4962 2032.2544,115.09 Q2031.7544,115.6681 2031.4731,116.5431 Q2031.2075,117.4181 2031.2075,118.5119 Q2031.2075,119.9494 2031.645,120.9962 Q2032.0981,122.0431 2032.9419,122.59 Q2033.8013,123.1369 2035.1138,123.1369 Q2035.895,123.1369 2036.5825,123.0119 Q2037.2856,122.8712 2038.2856,122.5587 L2038.2856,124.4337 Q2037.4263,124.7619 2036.6606,124.8869 Q2035.9106,125.0119 2034.895,125.0119 Q2032.9731,125.0119 2031.6606,124.215 Q2030.3638,123.4025 2029.7075,121.9337 Q2029.0513,120.4494 2029.0513,118.4806 Q2029.0513,117.0587 2029.4419,115.8869 Q2029.8481,114.6994 2030.6294,113.8244 Q2031.4106,112.9494 2032.5513,112.4806 Q2033.6919,111.9962 2035.1606,111.9962 Q2036.1138,111.9962 2037.0044,112.1994 Q2037.9106,112.3869 2038.8481,112.8556 L2038.02,114.6369 Q2037.2388,114.2619 2036.5825,114.0744 Q2035.9263,113.8712 2035.1294,113.8712 Z " fill="#000000"/><text fill="#FF0000" font-family="sans-serif" font-size="14" lengthAdjust="spacing" textLength="186.5493" x="2049.02" y="123.772">StubKeepassCommandError</text><line style="stroke:#181818;stroke-width:0.5;" x1="2021.02" x2="2237.5693" y1="134.34" y2="134.34"/><line style="stroke:#181818;stroke-width:0.5;" x1="2021.02" x2="2237.5693" y1="142.34" y2="142.34"/></g><!--class dyno_lab.proc.SubprocessPatch--><g class="entity" data-qualified-name="dyno_lab.proc.SubprocessPatch" data-source-line="140" id="ent0027"><rect fill="#F1F1F1" height="86.1358" rx="2.5" ry="2.5" style="stroke:#181818;stroke-width:0.5;" width="144.5876" x="7" y="884.83"/><ellipse cx="22" cy="900.83" fill="#ADD1B2" rx="11" ry="11" style="stroke:#181818;stroke-width:1;"/><path d="M22.1094,896.3612 Q21.1875,896.3612 20.4531,896.6737 Q19.7344,896.9862 19.2344,897.58 Q18.7344,898.1581 18.4531,899.0331 Q18.1875,899.9081 18.1875,901.0019 Q18.1875,902.4394 18.625,903.4862 Q19.0781,904.5331 19.9219,905.08 Q20.7813,905.6269 22.0938,905.6269 Q22.875,905.6269 23.5625,905.5019 Q24.2656,905.3612 25.2656,905.0487 L25.2656,906.9237 Q24.4063,907.2519 23.6406,907.3769 Q22.8906,907.5019 21.875,907.5019 Q19.9531,907.5019 18.6406,906.705 Q17.3438,905.8925 16.6875,904.4237 Q16.0313,902.9394 16.0313,900.9706 Q16.0313,899.5487 16.4219,898.3769 Q16.8281,897.1894 17.6094,896.3144 Q18.3906,895.4394 19.5313,894.9706 Q20.6719,894.4862 22.1406,894.4862 Q23.0938,894.4862 23.9844,894.6894 Q24.8906,894.8769 25.8281,895.3456 L25,897.1269 Q24.2188,896.7519 23.5625,896.5644 Q22.9063,896.3612 22.1094,896.3612 Z " fill="#000000"/><text fill="#000000" font-family="sans-serif" font-size="14" lengthAdjust="spacing" textLength="112.5876" x="36" y="906.262">SubprocessPatch</text><line style="stroke:#181818;stroke-width:0.5;" x1="8" x2="150.5876" y1="916.83" y2="916.83"/><text fill="#000000" font-family="sans-serif" font-size="14" lengthAdjust="spacing" textLength="106.0076" x="13" y="935.7959">side_effect : Any</text><text fill="#000000" font-family="sans-serif" font-size="14" lengthAdjust="spacing" textLength="68.8238" x="13" y="954.8639">target : str</text><line style="stroke:#181818;stroke-width:0.5;" x1="8" x2="150.5876" y1="962.9658" y2="962.9658"/></g><!--class dyno_lab.fs.TempWorkdir--><g class="entity" data-qualified-name="dyno_lab.fs.TempWorkdir" data-source-line="144" id="ent0028"><rect fill="#F1F1F1" height="200.5433" rx="2.5" ry="2.5" style="stroke:#181818;stroke-width:0.5;" width="358.5547" x="187.02" y="827.63"/><ellipse cx="316.9815" cy="843.63" fill="#ADD1B2" rx="11" ry="11" style="stroke:#181818;stroke-width:1;"/><path d="M317.0909,839.1613 Q316.169,839.1613 315.4346,839.4738 Q314.7159,839.7863 314.2159,840.38 Q313.7159,840.9581 313.4346,841.8331 Q313.169,842.7081 313.169,843.8019 Q313.169,845.2394 313.6065,846.2863 Q314.0596,847.3331 314.9034,847.88 Q315.7628,848.4269 317.0753,848.4269 Q317.8565,848.4269 318.544,848.3019 Q319.2471,848.1613 320.2471,847.8488 L320.2471,849.7238 Q319.3878,850.0519 318.6221,850.1769 Q317.8721,850.3019 316.8565,850.3019 Q314.9346,850.3019 313.6221,849.505 Q312.3253,848.6925 311.669,847.2238 Q311.0128,845.7394 311.0128,843.7706 Q311.0128,842.3488 311.4034,841.1769 Q311.8096,839.9894 312.5909,839.1144 Q313.3721,838.2394 314.5128,837.7706 Q315.6534,837.2863 317.1221,837.2863 Q318.0753,837.2863 318.9659,837.4894 Q319.8721,837.6769 320.8096,838.1456 L319.9815,839.9269 Q319.2003,839.5519 318.544,839.3644 Q317.8878,839.1613 317.0909,839.1613 Z " fill="#000000"/><text fill="#000000" font-family="sans-serif" font-size="14" lengthAdjust="spacing" textLength="90.1317" x="337.4815" y="849.062">TempWorkdir</text><line style="stroke:#181818;stroke-width:0.5;" x1="188.02" x2="544.5747" y1="859.63" y2="859.63"/><text fill="#000000" font-family="sans-serif" font-size="14" lengthAdjust="spacing" textLength="71.2317" x="193.02" y="878.5959">path : Path</text><line style="stroke:#181818;stroke-width:0.5;" x1="188.02" x2="544.5747" y1="886.6979" y2="886.6979"/><text fill="#000000" font-family="sans-serif" font-size="14" lengthAdjust="spacing" textLength="302.1328" x="193.02" y="905.6639">assert_contains(rel_path: str, text: str) -&gt; None</text><text fill="#000000" font-family="sans-serif" font-size="14" lengthAdjust="spacing" textLength="226.0571" x="193.02" y="924.7318">assert_exists(rel_path: str) -&gt; None</text><text fill="#000000" font-family="sans-serif" font-size="14" lengthAdjust="spacing" textLength="254.449" x="193.02" y="943.7997">assert_not_exists(rel_path: str) -&gt; None</text><text fill="#000000" font-family="sans-serif" font-size="14" lengthAdjust="spacing" textLength="175.4053" x="193.02" y="962.8676">mkdir(rel_path: str) -&gt; Path</text><text fill="#000000" font-family="sans-serif" font-size="14" lengthAdjust="spacing" textLength="232.3291" x="193.02" y="981.9355">populate(files: dict[str, str]) -&gt; None</text><text fill="#000000" font-family="sans-serif" font-size="14" lengthAdjust="spacing" textLength="248.0371" x="193.02" y="1001.0034">read(rel_path: str, encoding: str) -&gt; str</text><text fill="#000000" font-family="sans-serif" font-size="14" lengthAdjust="spacing" textLength="346.5547" x="193.02" y="1020.0714">write(rel_path: str, content: str, encoding: str) -&gt; Path</text></g><!--class dyno_lab.http._CapturedRequest--><g class="entity" data-qualified-name="dyno_lab.http._CapturedRequest" data-source-line="154" id="ent0029"><rect fill="#F1F1F1" height="124.2717" rx="2.5" ry="2.5" style="stroke:#181818;stroke-width:0.5;" width="206.4593" x="3042.06" y="353.28"/><ellipse cx="3081.0971" cy="369.28" fill="#ADD1B2" rx="11" ry="11" style="stroke:#181818;stroke-width:1;"/><path d="M3081.2065,364.8113 Q3080.2846,364.8113 3079.5502,365.1238 Q3078.8315,365.4363 3078.3315,366.03 Q3077.8315,366.6081 3077.5502,367.4831 Q3077.2846,368.3581 3077.2846,369.4519 Q3077.2846,370.8894 3077.7221,371.9363 Q3078.1752,372.9831 3079.019,373.53 Q3079.8783,374.0769 3081.1908,374.0769 Q3081.9721,374.0769 3082.6596,373.9519 Q3083.3627,373.8113 3084.3627,373.4988 L3084.3627,375.3738 Q3083.5033,375.7019 3082.7377,375.8269 Q3081.9877,375.9519 3080.9721,375.9519 Q3079.0502,375.9519 3077.7377,375.155 Q3076.4408,374.3425 3075.7846,372.8738 Q3075.1283,371.3894 3075.1283,369.4206 Q3075.1283,367.9988 3075.519,366.8269 Q3075.9252,365.6394 3076.7065,364.7644 Q3077.4877,363.8894 3078.6283,363.4206 Q3079.769,362.9363 3081.2377,362.9363 Q3082.1908,362.9363 3083.0815,363.1394 Q3083.9877,363.3269 3084.9252,363.7956 L3084.0971,365.5769 Q3083.3158,365.2019 3082.6596,365.0144 Q3082.0033,364.8113 3081.2065,364.8113 Z " fill="#000000"/><text fill="#000000" font-family="sans-serif" font-size="14" lengthAdjust="spacing" textLength="121.0435" x="3100.4387" y="374.712">_CapturedRequest</text><line style="stroke:#181818;stroke-width:0.5;" x1="3043.06" x2="3247.5193" y1="385.28" y2="385.28"/><text fill="#000000" font-family="sans-serif" font-size="14" lengthAdjust="spacing" textLength="141.3435" x="3048.06" y="404.2459">kwargs : dict[str, Any]</text><text fill="#000000" font-family="sans-serif" font-size="14" lengthAdjust="spacing" textLength="80.3457" x="3048.06" y="423.3139">method : str</text><text fill="#000000" font-family="sans-serif" font-size="14" lengthAdjust="spacing" textLength="194.4593" x="3048.06" y="442.3818">params : dict[str, Any] | None</text><text fill="#000000" font-family="sans-serif" font-size="14" lengthAdjust="spacing" textLength="46.6198" x="3048.06" y="461.4497">url : str</text><line style="stroke:#181818;stroke-width:0.5;" x1="3043.06" x2="3247.5193" y1="469.5517" y2="469.5517"/></g><!--class dyno_lab.preflight._CheckResult--><g class="entity" data-qualified-name="dyno_lab.preflight._CheckResult" data-source-line="160" id="ent0030"><rect fill="#F1F1F1" height="105.2038" rx="2.5" ry="2.5" style="stroke:#181818;stroke-width:0.5;" width="118.4356" x="2590.08" y="73.73"/><ellipse cx="2605.08" cy="89.73" fill="#ADD1B2" rx="11" ry="11" style="stroke:#181818;stroke-width:1;"/><path d="M2605.1894,85.2612 Q2604.2675,85.2612 2603.5331,85.5737 Q2602.8144,85.8862 2602.3144,86.48 Q2601.8144,87.0581 2601.5331,87.9331 Q2601.2675,88.8081 2601.2675,89.9019 Q2601.2675,91.3394 2601.705,92.3862 Q2602.1581,93.4331 2603.0019,93.98 Q2603.8613,94.5269 2605.1738,94.5269 Q2605.955,94.5269 2606.6425,94.4019 Q2607.3456,94.2612 2608.3456,93.9487 L2608.3456,95.8237 Q2607.4863,96.1519 2606.7206,96.2769 Q2605.9706,96.4019 2604.955,96.4019 Q2603.0331,96.4019 2601.7206,95.605 Q2600.4238,94.7925 2599.7675,93.3237 Q2599.1113,91.8394 2599.1113,89.8706 Q2599.1113,88.4487 2599.5019,87.2769 Q2599.9081,86.0894 2600.6894,85.2144 Q2601.4706,84.3394 2602.6113,83.8706 Q2603.7519,83.3862 2605.2206,83.3862 Q2606.1738,83.3862 2607.0644,83.5894 Q2607.9706,83.7769 2608.9081,84.2456 L2608.08,86.0269 Q2607.2988,85.6519 2606.6425,85.4644 Q2605.9863,85.2612 2605.1894,85.2612 Z " fill="#000000"/><text fill="#000000" font-family="sans-serif" font-size="14" lengthAdjust="spacing" textLength="86.4356" x="2619.08" y="95.162">_CheckResult</text><line style="stroke:#181818;stroke-width:0.5;" x1="2591.08" x2="2707.5156" y1="105.73" y2="105.73"/><text fill="#000000" font-family="sans-serif" font-size="14" lengthAdjust="spacing" textLength="65.2118" x="2596.08" y="124.6959">detail : str</text><text fill="#000000" font-family="sans-serif" font-size="14" lengthAdjust="spacing" textLength="60.1578" x="2596.08" y="143.7639">label : str</text><text fill="#000000" font-family="sans-serif" font-size="14" lengthAdjust="spacing" textLength="86.5757" x="2596.08" y="162.8318">passed : bool</text><line style="stroke:#181818;stroke-width:0.5;" x1="2591.08" x2="2707.5156" y1="170.9338" y2="170.9338"/></g><!--class dyno_lab.http._FakeResponse--><g class="entity" data-qualified-name="dyno_lab.http._FakeResponse" data-source-line="165" id="ent0031"><rect fill="#F1F1F1" height="162.4075" rx="2.5" ry="2.5" style="stroke:#181818;stroke-width:0.5;" width="179.2294" x="580.68" y="846.69"/><ellipse cx="616.775" cy="862.69" fill="#ADD1B2" rx="11" ry="11" style="stroke:#181818;stroke-width:1;"/><path d="M616.8844,858.2212 Q615.9625,858.2212 615.2281,858.5337 Q614.5094,858.8462 614.0094,859.44 Q613.5094,860.0181 613.2281,860.8931 Q612.9625,861.7681 612.9625,862.8619 Q612.9625,864.2994 613.4,865.3462 Q613.8531,866.3931 614.6969,866.94 Q615.5562,867.4869 616.8687,867.4869 Q617.65,867.4869 618.3375,867.3619 Q619.0406,867.2212 620.0406,866.9087 L620.0406,868.7837 Q619.1812,869.1119 618.4156,869.2369 Q617.6656,869.3619 616.65,869.3619 Q614.7281,869.3619 613.4156,868.565 Q612.1187,867.7525 611.4625,866.2837 Q610.8062,864.7994 610.8062,862.8306 Q610.8062,861.4087 611.1969,860.2369 Q611.6031,859.0494 612.3844,858.1744 Q613.1656,857.2994 614.3062,856.8306 Q615.4469,856.3462 616.9156,856.3462 Q617.8687,856.3462 618.7594,856.5494 Q619.6656,856.7369 620.6031,857.2056 L619.775,858.9869 Q618.9937,858.6119 618.3375,858.4244 Q617.6812,858.2212 616.8844,858.2212 Z " fill="#000000"/><text fill="#000000" font-family="sans-serif" font-size="14" lengthAdjust="spacing" textLength="100.3516" x="635.4628" y="868.122">_FakeResponse</text><line style="stroke:#181818;stroke-width:0.5;" x1="581.68" x2="758.9094" y1="878.69" y2="878.69"/><text fill="#000000" font-family="sans-serif" font-size="14" lengthAdjust="spacing" textLength="61.4038" x="586.68" y="897.6559">body : str</text><text fill="#000000" font-family="sans-serif" font-size="14" lengthAdjust="spacing" textLength="140.1115" x="586.68" y="916.7239">headers : dict[str, str]</text><text fill="#000000" font-family="sans-serif" font-size="14" lengthAdjust="spacing" textLength="106.2876" x="586.68" y="935.7918">status_code : int</text><text fill="#000000" font-family="sans-serif" font-size="14" lengthAdjust="spacing" textLength="53.9838" x="586.68" y="954.8597">text : str</text><line style="stroke:#181818;stroke-width:0.5;" x1="581.68" x2="758.9094" y1="962.9617" y2="962.9617"/><text fill="#000000" font-family="sans-serif" font-size="14" lengthAdjust="spacing" textLength="80.3737" x="586.68" y="981.9276">json() -&gt; Any</text><text fill="#000000" font-family="sans-serif" font-size="14" lengthAdjust="spacing" textLength="167.2294" x="586.68" y="1000.9955">raise_for_status() -&gt; None</text></g><!--class dyno_lab.time._make_frozen_datetime_class._FrozenDatetime--><g class="entity" data-qualified-name="dyno_lab.time._make_frozen_datetime_class._FrozenDatetime" data-source-line="173" id="ent0032"><rect fill="#F1F1F1" height="86.1358" rx="2.5" ry="2.5" style="stroke:#181818;stroke-width:0.5;" width="359.8847" x="795.35" y="884.83"/><ellipse cx="915.2736" cy="900.83" fill="#ADD1B2" rx="11" ry="11" style="stroke:#181818;stroke-width:1;"/><path d="M915.383,896.3612 Q914.4611,896.3612 913.7267,896.6737 Q913.008,896.9862 912.508,897.58 Q912.008,898.1581 911.7267,899.0331 Q911.4611,899.9081 911.4611,901.0019 Q911.4611,902.4394 911.8986,903.4862 Q912.3517,904.5331 913.1955,905.08 Q914.0548,905.6269 915.3673,905.6269 Q916.1486,905.6269 916.8361,905.5019 Q917.5392,905.3612 918.5392,905.0487 L918.5392,906.9237 Q917.6798,907.2519 916.9142,907.3769 Q916.1642,907.5019 915.1486,907.5019 Q913.2267,907.5019 911.9142,906.705 Q910.6173,905.8925 909.9611,904.4237 Q909.3048,902.9394 909.3048,900.9706 Q909.3048,899.5487 909.6955,898.3769 Q910.1017,897.1894 910.883,896.3144 Q911.6642,895.4394 912.8048,894.9706 Q913.9455,894.4862 915.4142,894.4862 Q916.3673,894.4862 917.258,894.6894 Q918.1642,894.8769 919.1017,895.3456 L918.2736,897.1269 Q917.4923,896.7519 916.8361,896.5644 Q916.1798,896.3612 915.383,896.3612 Z " fill="#000000"/><text fill="#000000" font-family="sans-serif" font-size="14" lengthAdjust="spacing" textLength="111.5376" x="935.7736" y="906.262">_FrozenDatetime</text><line style="stroke:#181818;stroke-width:0.5;" x1="796.35" x2="1154.2347" y1="916.83" y2="916.83"/><line style="stroke:#181818;stroke-width:0.5;" x1="796.35" x2="1154.2347" y1="924.83" y2="924.83"/><text fill="#000000" font-family="sans-serif" font-size="14" lengthAdjust="spacing" textLength="347.8847" x="801.35" y="943.7959">now(tz: datetime.tzinfo | None) -&gt; datetime.datetime</text><text fill="#000000" font-family="sans-serif" font-size="14" lengthAdjust="spacing" textLength="198.6312" x="801.35" y="962.8639">utcnow() -&gt; datetime.datetime</text></g><!--class dyno_lab.log._ListHandler--><g class="entity" data-qualified-name="dyno_lab.log._ListHandler" data-source-line="177" id="ent0033"><rect fill="#F1F1F1" height="67.0679" rx="2.5" ry="2.5" style="stroke:#181818;stroke-width:0.5;" width="280.687" x="1189.95" y="894.36"/><ellipse cx="1285.1916" cy="910.36" fill="#ADD1B2" rx="11" ry="11" style="stroke:#181818;stroke-width:1;"/><path d="M1285.301,905.8913 Q1284.3791,905.8913 1283.6448,906.2038 Q1282.926,906.5163 1282.426,907.11 Q1281.926,907.6881 1281.6448,908.5631 Q1281.3791,909.4381 1281.3791,910.5319 Q1281.3791,911.9694 1281.8166,913.0163 Q1282.2698,914.0631 1283.1135,914.61 Q1283.9729,915.1569 1285.2854,915.1569 Q1286.0666,915.1569 1286.7541,915.0319 Q1287.4573,914.8913 1288.4573,914.5788 L1288.4573,916.4538 Q1287.5979,916.7819 1286.8323,916.9069 Q1286.0823,917.0319 1285.0666,917.0319 Q1283.1448,917.0319 1281.8323,916.235 Q1280.5354,915.4225 1279.8791,913.9538 Q1279.2229,912.4694 1279.2229,910.5006 Q1279.2229,909.0788 1279.6135,907.9069 Q1280.0198,906.7194 1280.801,905.8444 Q1281.5823,904.9694 1282.7229,904.5006 Q1283.8635,904.0163 1285.3323,904.0163 Q1286.2854,904.0163 1287.176,904.2194 Q1288.0823,904.4069 1289.0198,904.8756 L1288.1916,906.6569 Q1287.4104,906.2819 1286.7541,906.0944 Q1286.0979,905.8913 1285.301,905.8913 Z " fill="#000000"/><text fill="#000000" font-family="sans-serif" font-size="14" lengthAdjust="spacing" textLength="81.7037" x="1305.6916" y="915.792">_ListHandler</text><line style="stroke:#181818;stroke-width:0.5;" x1="1190.95" x2="1469.637" y1="926.36" y2="926.36"/><line style="stroke:#181818;stroke-width:0.5;" x1="1190.95" x2="1469.637" y1="934.36" y2="934.36"/><text fill="#000000" font-family="sans-serif" font-size="14" lengthAdjust="spacing" textLength="268.687" x="1195.95" y="953.3259">emit(record: logging.LogRecord) -&gt; None</text></g><!--link dyno_lab.auto_pass.AutoPassRecorder to dyno_lab.auto_pass.AutoPassLoadCall--><g class="link" data-entity-1="ent0005" data-entity-2="ent0003" data-link-type="dependency" data-source-line="180" id="lnk34"><path codeLine="180" d="M1944.5,506.45 C1931.22,541.86 1918.4079,575.9825 1906.4079,607.9625" fill="none" id="dyno_lab.auto_pass.AutoPassRecorder-to-dyno_lab.auto_pass.AutoPassLoadCall" style="stroke:#181818;stroke-width:1;"/><polygon fill="#181818" points="1904.3,613.58,1911.2069,606.559,1906.0566,608.8987,1903.7168,603.7484,1904.3,613.58" style="stroke:#181818;stroke-width:1;"/><text fill="#000000" font-family="sans-serif" font-size="13" lengthAdjust="spacing" textLength="58.747" x="1933.7" y="551.047">load_calls</text></g><!--link dyno_lab.auto_pass.AutoPassPatch to dyno_lab.auto_pass.AutoPassRecorder--><g class="link" data-entity-1="ent0004" data-entity-2="ent0005" data-link-type="dependency" data-source-line="181" id="lnk35"><path codeLine="181" d="M1926.95,160.27 C1934.98,200.03 1947.6318,262.6488 1958.9218,318.5288" fill="none" id="dyno_lab.auto_pass.AutoPassPatch-to-dyno_lab.auto_pass.AutoPassRecorder" style="stroke:#181818;stroke-width:1;"/><polygon fill="#181818" points="1960.11,324.41,1962.2484,314.7961,1959.1198,319.509,1954.4069,316.3804,1960.11,324.41" style="stroke:#181818;stroke-width:1;"/><text fill="#000000" font-family="sans-serif" font-size="13" lengthAdjust="spacing" textLength="52.871" x="1953.77" y="290.577">recorder</text></g><!--link dyno_lab.auto_pass.AutoPassRecorder to dyno_lab.auto_pass.AutoPassResolveCall--><g class="link" data-entity-1="ent0005" data-entity-2="ent0006" data-link-type="dependency" data-source-line="182" id="lnk36"><path codeLine="182" d="M2011.74,506.45 C2024.88,541.86 2037.5506,575.9755 2049.4306,607.9555" fill="none" id="dyno_lab.auto_pass.AutoPassRecorder-to-dyno_lab.auto_pass.AutoPassResolveCall" style="stroke:#181818;stroke-width:1;"/><polygon fill="#181818" points="2051.52,613.58,2052.1356,603.7504,2049.7788,608.893,2044.6363,606.5362,2051.52,613.58" style="stroke:#181818;stroke-width:1;"/><text fill="#000000" font-family="sans-serif" font-size="13" lengthAdjust="spacing" textLength="76.323" x="2030.17" y="551.047">resolve_calls</text></g><!--link dyno_lab.http.SequenceSession to dyno_lab.http._CapturedRequest--><g class="link" data-entity-1="ent0020" data-entity-2="ent0029" data-link-type="dependency" data-source-line="183" id="lnk37"><path codeLine="183" d="M2997.74,198.3 C3030.16,245.79 3069.0273,302.6945 3099.9973,348.0645" fill="none" id="dyno_lab.http.SequenceSession-to-dyno_lab.http._CapturedRequest" style="stroke:#181818;stroke-width:1;"/><polygon fill="#181818" points="3103.38,353.02,3101.6096,343.3316,3100.5611,348.8904,3095.0023,347.8418,3103.38,353.02" style="stroke:#181818;stroke-width:1;"/><text fill="#000000" font-family="sans-serif" font-size="13" lengthAdjust="spacing" textLength="26.468" x="3060.03" y="290.577">calls</text></g><!--link dyno_lab.http.StaticSession to dyno_lab.http._CapturedRequest--><g class="link" data-entity-1="ent0025" data-entity-2="ent0029" data-link-type="dependency" data-source-line="184" id="lnk38"><path codeLine="184" d="M3304.98,179.32 C3271.84,228.12 3225.6008,296.1764 3190.4908,347.8764" fill="none" id="dyno_lab.http.StaticSession-to-dyno_lab.http._CapturedRequest" style="stroke:#181818;stroke-width:1;"/><polygon fill="#181818" points="3187.12,352.84,3195.4853,347.6418,3189.929,348.7037,3188.8672,343.1474,3187.12,352.84" style="stroke:#181818;stroke-width:1;"/><text fill="#000000" font-family="sans-serif" font-size="13" lengthAdjust="spacing" textLength="26.468" x="3237.95" y="290.577">calls</text></g><!--link dyno_lab.proc.ProcessRecorder to dyno_lab.proc.CapturedCall--><g class="link" data-entity-1="ent0018" data-entity-2="ent0008" data-link-type="dependency" data-source-line="185" id="lnk39"><path codeLine="185" d="M2414.29,188.92 C2414.29,244.11 2414.29,317.62 2414.29,365.99" fill="none" id="dyno_lab.proc.ProcessRecorder-to-dyno_lab.proc.CapturedCall" style="stroke:#181818;stroke-width:1;"/><polygon fill="#181818" points="2414.29,371.99,2418.29,362.99,2414.29,366.99,2410.29,362.99,2414.29,371.99" style="stroke:#181818;stroke-width:1;"/><text fill="#000000" font-family="sans-serif" font-size="13" lengthAdjust="spacing" textLength="26.468" x="2415.29" y="290.577">calls</text></g><!--link dyno_lab.auto_pass.StubKeepassCommandError to dyno_lab.auto_pass.AutoPassRecorder--><g class="link" data-entity-1="ent0026" data-entity-2="ent0005" data-link-type="aggregation" data-source-line="186" id="lnk40"><path codeLine="186" d="M2116.94,150.83 C2097.21,188.32 2063.1857,253.0193 2031.3357,313.5793" fill="none" id="dyno_lab.auto_pass.StubKeepassCommandError-to-dyno_lab.auto_pass.AutoPassRecorder" style="stroke:#181818;stroke-width:1;"/><polygon fill="none" points="2025.75,324.2,2032.0831,320.7515,2031.3357,313.5793,2025.0026,317.0277,2025.75,324.2" style="stroke:#181818;stroke-width:1;"/><text fill="#000000" font-family="sans-serif" font-size="13" lengthAdjust="spacing" textLength="145.3661" x="2050.27" y="290.577">KeepassCommandError</text></g><!--link dyno_lab.preflight._CheckResult to dyno_lab.preflight.PreflightReport--><g class="link" data-entity-1="ent0030" data-entity-2="ent0016" data-link-type="aggregation" data-source-line="187" id="lnk41"><path codeLine="187" d="M2649.29,179.32 C2649.29,225.21 2649.29,280.52 2649.29,331.38" fill="none" id="dyno_lab.preflight._CheckResult-to-dyno_lab.preflight.PreflightReport" style="stroke:#181818;stroke-width:1;"/><polygon fill="none" points="2649.29,343.38,2653.29,337.38,2649.29,331.38,2645.29,337.38,2649.29,343.38" style="stroke:#181818;stroke-width:1;"/><text fill="#000000" font-family="sans-serif" font-size="13" lengthAdjust="spacing" textLength="41.236" x="2650.29" y="290.577">results</text></g><?plantuml-src hHZRRjisz3rVGVH90nBjtIWA16wA3ilQ8YwmXo8GQ8cosKYaIbAvjEk_x_2GeYYPYhsi3sqidWlF_KBD316qPRgZ9TkmZYfgf2922dPMDbHhykhI6FM9cdB_Yb1DgYSXYuPkyyuUvG58Vfpz31IzaP_WrxMarPespPIG0hJe09pFyO078KpSSoK5MH6v_SfA0qVodYd5AmPdMoaRE87Bzp56fsJD6pOU7SYIqE1Ga44JGXGhfQgOEcHquo77U0ruoEvFnYnmBTkMYkfAAQdWj06zYn8Kro1umxNvChV8BOgYPNFFqeWt3ZZWqgeg0B-JGhEC2QEULaGRTKvaRqhPiXMv54-_aOitv8FrC25tJh22MP4oY0DDTmnf46jZ-krpiajHyrtXNTR2XPdrpE05P67whc5VAbwQBoW9_7TxJgRViPfUeiUoGFadMb28Dbsqj5lD6E1DqwEKvuAjZZileAB_uAzyABWmJD7IyFie58DCP2uK09s1uaX5TGZgCqgullxZCzFcB_x8nLIqik5v37N1sOi205dTYn8z2fPHE-r3mrvD_a47MpagBl0sVuIMMZSSDEoRA4_Mj3EzOebyXTmgynZiB08NakcDpjEeVfxdLlsx1uys6WQaZLmJ14beFO1SLNZa1i8DQm2umHQ5tdIzyPOaLb68uVXJHb2uZ2dZejn6hQ5SwComHpF6kiy8ZrfJte326Nlim76imilnxjYGKnedqcdyTL-Ma6tP20f6UGjci0vVKyscTjd2IHw3dIkGusK7Zdgy-jRJ9gkvqd1p3Kbg80QW4eagV2hMXD-jtXq4nqJEjTVbicaohnTJFkQuOUqGTDQj9x1x2t6mwRUQcKpZdtbed9E7lMpOuV49hDNL8uYYVGbok53HzoSG0oMeMh4iUFcS39xtdqTvl8C6D9Wh8KC8XXDPlLmPI_r1cbyaY_tuMFyAvt_4z0XYkMpnOaGIGQ3R27rUkf0iL-8-qTgX8-K317EaijtOZZRGJ-uFkiV8xXtLPjD02vhoCxnbUO0XHzkE8TLxOK99cdHep31R18qqj2bqmpgBYSVHVKf-P-8pi4zT681ueptJXhRT8PjhkVCLUigcaRjyX4MJJH0JC7PS89QRM6x76cLXhCeQTcyTWbbGAxgpVNwfh0dvtyZGW15gx6XdL3-Jw0Maq816OxmkPIFL2hhLcq-ArGtVxGsEBQz_HyYRUN_pEFaKEvve0-I6TLAPemmSsZ0wu6p1gd5ciCq5lr7wOhrdvPrhThSut7hi95JXBxq8fbopWjU5koFLNuAKcnwo-AWkYEL3vrlF5RFpdkCxnOamU6lrFuA4A7kfXyIttpvURAZBVcXXpxCnODCZD_MgoU3VK6jEOTwB6K_dqjYAqZRmz3g0CzCCuwIg4SzPRe34gTlF2IvZbqUkMpVvS06ZAjJMc6gQ8ZSG9P3r6n2Fozd8kJUcowS8AFgEcInEtGuybmgl3HYT2RjDBZ6VOPnac6Amp8qbrXZhLgBHhNPtjIrfEZd4jQ9uH-_OZL-F1Wt-3mEWrRYN3OcMCFMcbKXpCEHg2yWZi6zKq1rHRJUv-l8Nlkso7ZxcTSLz5wv4X3gJMPgXeKORtlbmMRJlZTBO4VlkXQGpvNiXvWaIAu_WiDY0DREHuQQ7-5TFCux-T96bXvzOVoF93yll33YhldFeyUAB57PyNnJU0b7oYQj_q2tyWENpPoXDKsTPssbQi-mPRnXgUFbCNiRma9KlIC7XaU74X4kZf_hvmdj4kh6FQ_q2MTpXOIlfNBrElNNPSZx3GFjeNa4xh6jO50ZgOSSqs7cPcQ_udrdR_ItLNSLdcL3hF88XL_-wPMVrSR8AMoNiRqKOwQF9EJ6DCRT3J2WMXhPZgAsLBW7sGdQownjgM6QVuNJoUSOpKenMSnsW6KZeMhkHhGlw1mNTU8vi3J6CaYbIb2ZOVHwqYR2Vew0FbfukR4KsUrb5DTW6CLbe6wv9p8CX7jgMvgyO9-eCuLvSanOwmNXHd54frMCuthALrLFWkWTVCQLJBrkmY9XUJvzaR2W6sgzQ-ZhbqiBLnbggmf6cYcFXDfwt44WclH8LBGXSr8XML1wlGF9yHkrgg7p8p7UGtn_cvZiNjOoRUW0DFwpFJ6af5-2ZlDUGDE-Xd3Jp_cONhnZg7h5QRZAtVq59dIzUiJrEULU-iBATyAY-YjwPpuu-VX_X6cvVZK_alq3O-BrrDNtnFdj-TfmmJgVpYYGPJPhTIzWaX_m9eyEdqmCcnvlKnOKyqIEfb_fZbMN2VNcJNGsJpxy0?></g></svg>
