<?xml version="1.0" encoding="UTF-8" standalone="no"?>
<!DOCTYPE svg PUBLIC "-//W3C//DTD SVG 1.1//EN"
 "http://www.w3.org/Graphics/SVG/1.1/DTD/svg11.dtd">
<!-- Generated by graphviz version 13.1.2 (20250808.2320)
 -->
<!-- Title: G Pages: 1 -->
<svg width="1553pt" height="126pt"
 viewBox="0.00 0.00 1553.00 126.00" xmlns="http://www.w3.org/2000/svg" xmlns:xlink="http://www.w3.org/1999/xlink">
<g id="graph0" class="graph" transform="scale(1 1) rotate(0) translate(4 122.02)">
<title>G</title><style>.edge>path:hover{stroke-width:8}</style>
<polygon fill="white" stroke="none" points="-4,4 -4,-122.02 1548.75,-122.02 1548.75,4 -4,4"/>
<!-- dyno_lab -->
<g id="node1" class="node">
<title>dyno_lab</title><style>.edge>path:hover{stroke-width:8}</style>
<ellipse fill="#7a1e1e" stroke="black" cx="783.13" cy="-20.51" rx="32.06" ry="18"/>
<text xml:space="preserve" text-anchor="middle" x="783.13" y="-16.26" font-family="Helvetica,sans-Serif" font-size="10.00" fill="#ffffff">dyno_lab</text>
</g>
<!-- dyno_lab_auto_pass -->
<g id="node2" class="node">
<title>dyno_lab_auto_pass</title><style>.edge>path:hover{stroke-width:8}</style>
<ellipse fill="#c24747" stroke="black" cx="43.13" cy="-97.52" rx="43.13" ry="20.51"/>
<text xml:space="preserve" text-anchor="middle" x="43.13" y="-98.52" font-family="Helvetica,sans-Serif" font-size="10.00" fill="#ffffff">dyno_lab.</text>
<text xml:space="preserve" text-anchor="middle" x="43.13" y="-88.02" font-family="Helvetica,sans-Serif" font-size="10.00" fill="#ffffff">auto_pass</text>
</g>
<!-- dyno_lab_auto_pass&#45;&gt;dyno_lab -->
<g id="edge1" class="edge">
<title>dyno_lab_auto_pass&#45;&gt;dyno_lab</title><style>.edge>path:hover{stroke-width:8}</style>
<path fill="none" stroke="black" d="M74.61,-83.12C81.28,-80.73 88.36,-78.53 95.13,-77.01 334.07,-23.66 629.83,-20.11 739.53,-20.86"/>
<polygon fill="#c24747" stroke="black" points="739.23,-24.35 749.26,-20.94 739.29,-17.35 739.23,-24.35"/>
</g>
<!-- dyno_lab_base -->
<g id="node3" class="node">
<title>dyno_lab_base</title><style>.edge>path:hover{stroke-width:8}</style>
<ellipse fill="#c24747" stroke="black" cx="150.13" cy="-97.52" rx="46.04" ry="18"/>
<text xml:space="preserve" text-anchor="middle" x="150.13" y="-93.27" font-family="Helvetica,sans-Serif" font-size="10.00" fill="#ffffff">dyno_lab.base</text>
</g>
<!-- dyno_lab_base&#45;&gt;dyno_lab -->
<g id="edge2" class="edge">
<title>dyno_lab_base&#45;&gt;dyno_lab</title><style>.edge>path:hover{stroke-width:8}</style>
<path fill="none" stroke="black" d="M181.45,-83.92C189.09,-81.27 197.32,-78.75 205.13,-77.01 401.17,-33.53 642.08,-24.11 739.34,-22.07"/>
<polygon fill="#c24747" stroke="black" points="739.3,-25.57 749.23,-21.88 739.17,-18.57 739.3,-25.57"/>
</g>
<!-- dyno_lab_cli -->
<g id="node4" class="node">
<title>dyno_lab_cli</title><style>.edge>path:hover{stroke-width:8}</style>
<ellipse fill="#ce3b3b" stroke="black" cx="1306.13" cy="-97.52" rx="39.49" ry="18"/>
<text xml:space="preserve" text-anchor="middle" x="1306.13" y="-93.27" font-family="Helvetica,sans-Serif" font-size="10.00" fill="#ffffff">dyno_lab.cli</text>
</g>
<!-- dyno_lab_cli&#45;&gt;dyno_lab -->
<g id="edge3" class="edge">
<title>dyno_lab_cli&#45;&gt;dyno_lab</title><style>.edge>path:hover{stroke-width:8}</style>
<path fill="none" stroke="black" d="M1279.15,-84.07C1272.41,-81.38 1265.1,-78.8 1258.13,-77.01 1102.75,-37.15 911.35,-25.84 826.81,-22.69"/>
<polygon fill="#ce3b3b" stroke="black" points="826.99,-19.2 816.87,-22.34 826.75,-26.19 826.99,-19.2"/>
</g>
<!-- dyno_lab_fixtures -->
<g id="node6" class="node">
<title>dyno_lab_fixtures</title><style>.edge>path:hover{stroke-width:8}</style>
<ellipse fill="#883a3a" stroke="black" cx="1255.13" cy="-20.51" rx="41.01" ry="20.51"/>
<text xml:space="preserve" text-anchor="middle" x="1255.13" y="-21.51" font-family="Helvetica,sans-Serif" font-size="10.00" fill="#ffffff">dyno_lab.</text>
<text xml:space="preserve" text-anchor="middle" x="1255.13" y="-11.01" font-family="Helvetica,sans-Serif" font-size="10.00" fill="#ffffff">fixtures</text>
</g>
<!-- dyno_lab_cli&#45;&gt;dyno_lab_fixtures -->
<g id="edge4" class="edge">
<title>dyno_lab_cli&#45;&gt;dyno_lab_fixtures</title><style>.edge>path:hover{stroke-width:8}</style>
<path fill="none" stroke="black" d="M1294.81,-79.87C1288.77,-70.97 1281.16,-59.78 1274.22,-49.58"/>
<polygon fill="#ce3b3b" stroke="black" points="1277.22,-47.77 1268.71,-41.47 1271.43,-51.71 1277.22,-47.77"/>
</g>
<!-- dyno_lab_env -->
<g id="node5" class="node">
<title>dyno_lab_env</title><style>.edge>path:hover{stroke-width:8}</style>
<ellipse fill="#ce3b3b" stroke="black" cx="1406.13" cy="-97.52" rx="42.99" ry="18"/>
<text xml:space="preserve" text-anchor="middle" x="1406.13" y="-93.27" font-family="Helvetica,sans-Serif" font-size="10.00" fill="#ffffff">dyno_lab.env</text>
</g>
<!-- dyno_lab_env&#45;&gt;dyno_lab -->
<g id="edge5" class="edge">
<title>dyno_lab_env&#45;&gt;dyno_lab</title><style>.edge>path:hover{stroke-width:8}</style>
<path fill="none" stroke="black" d="M1376.85,-84.01C1369.54,-81.31 1361.65,-78.75 1354.13,-77.01 1161.1,-32.24 923.23,-23.54 826.8,-21.88"/>
<polygon fill="#ce3b3b" stroke="black" points="827.06,-18.38 817,-21.73 826.95,-25.38 827.06,-18.38"/>
</g>
<!-- dyno_lab_env&#45;&gt;dyno_lab_fixtures -->
<g id="edge6" class="edge">
<title>dyno_lab_env&#45;&gt;dyno_lab_fixtures</title><style>.edge>path:hover{stroke-width:8}</style>
<path fill="none" stroke="black" d="M1379.14,-83.11C1355.4,-71.31 1320.56,-54.01 1293.85,-40.74"/>
<polygon fill="#ce3b3b" stroke="black" points="1295.56,-37.68 1285.05,-36.37 1292.45,-43.95 1295.56,-37.68"/>
</g>
<!-- dyno_lab_fs -->
<g id="node7" class="node">
<title>dyno_lab_fs</title><style>.edge>path:hover{stroke-width:8}</style>
<ellipse fill="#ce3b3b" stroke="black" cx="1506.13" cy="-97.52" rx="38.61" ry="18"/>
<text xml:space="preserve" text-anchor="middle" x="1506.13" y="-93.27" font-family="Helvetica,sans-Serif" font-size="10.00" fill="#ffffff">dyno_lab.fs</text>
</g>
<!-- dyno_lab_fs&#45;&gt;dyno_lab -->
<g id="edge7" class="edge">
<title>dyno_lab_fs&#45;&gt;dyno_lab</title><style>.edge>path:hover{stroke-width:8}</style>
<path fill="none" stroke="black" d="M1479.44,-84C1472.63,-81.27 1465.22,-78.7 1458.13,-77.01 1337.24,-48.19 955.71,-29.12 826.45,-23.35"/>
<polygon fill="#ce3b3b" stroke="black" points="826.75,-19.86 816.61,-22.91 826.44,-26.85 826.75,-19.86"/>
</g>
<!-- dyno_lab_fs&#45;&gt;dyno_lab_fixtures -->
<g id="edge8" class="edge">
<title>dyno_lab_fs&#45;&gt;dyno_lab_fixtures</title><style>.edge>path:hover{stroke-width:8}</style>
<path fill="none" stroke="black" d="M1478.43,-84.6C1471.83,-81.95 1464.78,-79.26 1458.13,-77.01 1405.78,-59.29 1344.41,-43.13 1302.97,-32.87"/>
<polygon fill="#ce3b3b" stroke="black" points="1303.85,-29.49 1293.3,-30.5 1302.18,-36.28 1303.85,-29.49"/>
</g>
<!-- dyno_lab_http -->
<g id="node8" class="node">
<title>dyno_lab_http</title><style>.edge>path:hover{stroke-width:8}</style>
<ellipse fill="#c24747" stroke="black" cx="257.13" cy="-97.52" rx="43.42" ry="18"/>
<text xml:space="preserve" text-anchor="middle" x="257.13" y="-93.27" font-family="Helvetica,sans-Serif" font-size="10.00" fill="#ffffff">dyno_lab.http</text>
</g>
<!-- dyno_lab_http&#45;&gt;dyno_lab -->
<g id="edge9" class="edge">
<title>dyno_lab_http&#45;&gt;dyno_lab</title><style>.edge>path:hover{stroke-width:8}</style>
<path fill="none" stroke="black" d="M287.02,-84.12C294.47,-81.43 302.5,-78.84 310.13,-77.01 465.31,-39.9 655.3,-27.2 739.45,-23.2"/>
<polygon fill="#c24747" stroke="black" points="739.5,-26.7 749.33,-22.74 739.18,-19.7 739.5,-26.7"/>
</g>
<!-- dyno_lab_log -->
<g id="node9" class="node">
<title>dyno_lab_log</title><style>.edge>path:hover{stroke-width:8}</style>
<ellipse fill="#c24747" stroke="black" cx="360.13" cy="-97.52" rx="41.24" ry="18"/>
<text xml:space="preserve" text-anchor="middle" x="360.13" y="-93.27" font-family="Helvetica,sans-Serif" font-size="10.00" fill="#ffffff">dyno_lab.log</text>
</g>
<!-- dyno_lab_log&#45;&gt;dyno_lab -->
<g id="edge10" class="edge">
<title>dyno_lab_log&#45;&gt;dyno_lab</title><style>.edge>path:hover{stroke-width:8}</style>
<path fill="none" stroke="black" d="M388.59,-84.15C395.53,-81.49 403.02,-78.9 410.13,-77.01 527.07,-45.93 669.56,-30.8 739.77,-24.78"/>
<polygon fill="#c24747" stroke="black" points="740.03,-28.27 749.7,-23.96 739.44,-21.3 740.03,-28.27"/>
</g>
<!-- dyno_lab_markers -->
<g id="node10" class="node">
<title>dyno_lab_markers</title><style>.edge>path:hover{stroke-width:8}</style>
<ellipse fill="#ce3b3b" stroke="black" cx="1000.13" cy="-97.52" rx="41.01" ry="20.51"/>
<text xml:space="preserve" text-anchor="middle" x="1000.13" y="-98.52" font-family="Helvetica,sans-Serif" font-size="10.00" fill="#ffffff">dyno_lab.</text>
<text xml:space="preserve" text-anchor="middle" x="1000.13" y="-88.02" font-family="Helvetica,sans-Serif" font-size="10.00" fill="#ffffff">markers</text>
</g>
<!-- dyno_lab_markers&#45;&gt;dyno_lab -->
<g id="edge11" class="edge">
<title>dyno_lab_markers&#45;&gt;dyno_lab</title><style>.edge>path:hover{stroke-width:8}</style>
<path fill="none" stroke="black" d="M968.75,-83.99C962.6,-81.62 956.18,-79.2 950.13,-77.01 906.37,-61.21 855.58,-44.57 821.61,-33.68"/>
<polygon fill="#ce3b3b" stroke="black" points="822.8,-30.38 812.21,-30.67 820.67,-37.05 822.8,-30.38"/>
</g>
<!-- dyno_lab_markers&#45;&gt;dyno_lab_fixtures -->
<g id="edge12" class="edge">
<title>dyno_lab_markers&#45;&gt;dyno_lab_fixtures</title><style>.edge>path:hover{stroke-width:8}</style>
<path fill="none" stroke="black" d="M1031.42,-83.72C1037.58,-81.37 1044.03,-79.02 1050.13,-77.01 1103.39,-59.47 1165.7,-43.19 1207.53,-32.85"/>
<polygon fill="#ce3b3b" stroke="black" points="1208.14,-36.3 1217.02,-30.52 1206.48,-29.51 1208.14,-36.3"/>
</g>
<!-- dyno_lab_module -->
<g id="node11" class="node">
<title>dyno_lab_module</title><style>.edge>path:hover{stroke-width:8}</style>
<ellipse fill="#c24747" stroke="black" cx="460.13" cy="-97.52" rx="41.01" ry="20.51"/>
<text xml:space="preserve" text-anchor="middle" x="460.13" y="-98.52" font-family="Helvetica,sans-Serif" font-size="10.00" fill="#ffffff">dyno_lab.</text>
<text xml:space="preserve" text-anchor="middle" x="460.13" y="-88.02" font-family="Helvetica,sans-Serif" font-size="10.00" fill="#ffffff">module</text>
</g>
<!-- dyno_lab_module&#45;&gt;dyno_lab -->
<g id="edge13" class="edge">
<title>dyno_lab_module&#45;&gt;dyno_lab</title><style>.edge>path:hover{stroke-width:8}</style>
<path fill="none" stroke="black" d="M491.05,-83.51C497.3,-81.15 503.88,-78.85 510.13,-77.01 590.53,-53.35 687.17,-36.29 741.23,-27.73"/>
<polygon fill="#c24747" stroke="black" points="741.58,-31.22 750.92,-26.22 740.5,-24.3 741.58,-31.22"/>
</g>
<!-- dyno_lab_patch -->
<g id="node12" class="node">
<title>dyno_lab_patch</title><style>.edge>path:hover{stroke-width:8}</style>
<ellipse fill="#c24747" stroke="black" cx="567.13" cy="-97.52" rx="47.79" ry="18"/>
<text xml:space="preserve" text-anchor="middle" x="567.13" y="-93.27" font-family="Helvetica,sans-Serif" font-size="10.00" fill="#ffffff">dyno_lab.patch</text>
</g>
<!-- dyno_lab_patch&#45;&gt;dyno_lab -->
<g id="edge14" class="edge">
<title>dyno_lab_patch&#45;&gt;dyno_lab</title><style>.edge>path:hover{stroke-width:8}</style>
<path fill="none" stroke="black" d="M601.36,-84.63C640.61,-71 704.77,-48.72 745.43,-34.6"/>
<polygon fill="#c24747" stroke="black" points="746.51,-37.93 754.8,-31.34 744.21,-31.32 746.51,-37.93"/>
</g>
<!-- dyno_lab_preflight -->
<g id="node13" class="node">
<title>dyno_lab_preflight</title><style>.edge>path:hover{stroke-width:8}</style>
<ellipse fill="#ce3b3b" stroke="black" cx="1100.13" cy="-97.52" rx="41.01" ry="20.51"/>
<text xml:space="preserve" text-anchor="middle" x="1100.13" y="-98.52" font-family="Helvetica,sans-Serif" font-size="10.00" fill="#ffffff">dyno_lab.</text>
<text xml:space="preserve" text-anchor="middle" x="1100.13" y="-88.02" font-family="Helvetica,sans-Serif" font-size="10.00" fill="#ffffff">preflight</text>
</g>
<!-- dyno_lab_preflight&#45;&gt;dyno_lab -->
<g id="edge15" class="edge">
<title>dyno_lab_preflight&#45;&gt;dyno_lab</title><style>.edge>path:hover{stroke-width:8}</style>
<path fill="none" stroke="black" d="M1069.21,-83.53C1062.96,-81.17 1056.39,-78.87 1050.13,-77.01 972.07,-53.85 878.38,-36.75 825.3,-28.03"/>
<polygon fill="#ce3b3b" stroke="black" points="825.9,-24.58 815.47,-26.44 824.78,-31.49 825.9,-24.58"/>
</g>
<!-- dyno_lab_preflight&#45;&gt;dyno_lab_fixtures -->
<g id="edge16" class="edge">
<title>dyno_lab_preflight&#45;&gt;dyno_lab_fixtures</title><style>.edge>path:hover{stroke-width:8}</style>
<path fill="none" stroke="black" d="M1128.92,-82.58C1153.43,-70.73 1188.85,-53.58 1215.93,-40.48"/>
<polygon fill="#ce3b3b" stroke="black" points="1217.4,-43.66 1224.87,-36.15 1214.35,-37.36 1217.4,-43.66"/>
</g>
<!-- dyno_lab_proc -->
<g id="node14" class="node">
<title>dyno_lab_proc</title><style>.edge>path:hover{stroke-width:8}</style>
<ellipse fill="#ce3b3b" stroke="black" cx="1204.13" cy="-97.52" rx="44.73" ry="18"/>
<text xml:space="preserve" text-anchor="middle" x="1204.13" y="-93.27" font-family="Helvetica,sans-Serif" font-size="10.00" fill="#ffffff">dyno_lab.proc</text>
</g>
<!-- dyno_lab_proc&#45;&gt;dyno_lab -->
<g id="edge17" class="edge">
<title>dyno_lab_proc&#45;&gt;dyno_lab</title><style>.edge>path:hover{stroke-width:8}</style>
<path fill="none" stroke="black" d="M1173.05,-84.11C1165.63,-81.48 1157.67,-78.92 1150.13,-77.01 1034.99,-47.81 895.38,-31.88 826.24,-25.26"/>
<polygon fill="#ce3b3b" stroke="black" points="826.76,-21.79 816.48,-24.34 826.1,-28.76 826.76,-21.79"/>
</g>
<!-- dyno_lab_proc&#45;&gt;dyno_lab_fixtures -->
<g id="edge18" class="edge">
<title>dyno_lab_proc&#45;&gt;dyno_lab_fixtures</title><style>.edge>path:hover{stroke-width:8}</style>
<path fill="none" stroke="black" d="M1215.45,-79.87C1221.5,-70.97 1229.11,-59.78 1236.04,-49.58"/>
<polygon fill="#ce3b3b" stroke="black" points="1238.83,-51.71 1241.56,-41.47 1233.04,-47.77 1238.83,-51.71"/>
</g>
<!-- dyno_lab_schema -->
<g id="node15" class="node">
<title>dyno_lab_schema</title><style>.edge>path:hover{stroke-width:8}</style>
<ellipse fill="#c24747" stroke="black" cx="674.13" cy="-97.52" rx="41.01" ry="20.51"/>
<text xml:space="preserve" text-anchor="middle" x="674.13" y="-98.52" font-family="Helvetica,sans-Serif" font-size="10.00" fill="#ffffff">dyno_lab.</text>
<text xml:space="preserve" text-anchor="middle" x="674.13" y="-88.02" font-family="Helvetica,sans-Serif" font-size="10.00" fill="#ffffff">schema</text>
</g>
<!-- dyno_lab_schema&#45;&gt;dyno_lab -->
<g id="edge19" class="edge">
<title>dyno_lab_schema&#45;&gt;dyno_lab</title><style>.edge>path:hover{stroke-width:8}</style>
<path fill="none" stroke="black" d="M697.52,-80.43C714.09,-69.02 736.44,-53.64 754.14,-41.46"/>
<polygon fill="#c24747" stroke="black" points="755.94,-44.47 762.19,-35.92 751.97,-38.71 755.94,-44.47"/>
</g>
<!-- dyno_lab_smoke -->
<g id="node16" class="node">
<title>dyno_lab_smoke</title><style>.edge>path:hover{stroke-width:8}</style>
<ellipse fill="#c24747" stroke="black" cx="783.13" cy="-97.52" rx="50.42" ry="18"/>
<text xml:space="preserve" text-anchor="middle" x="783.13" y="-93.27" font-family="Helvetica,sans-Serif" font-size="10.00" fill="#ffffff">dyno_lab.smoke</text>
</g>
<!-- dyno_lab_smoke&#45;&gt;dyno_lab -->
<g id="edge20" class="edge">
<title>dyno_lab_smoke&#45;&gt;dyno_lab</title><style>.edge>path:hover{stroke-width:8}</style>
<path fill="none" stroke="black" d="M783.13,-79.12C783.13,-70.51 783.13,-59.88 783.13,-50.11"/>
<polygon fill="#c24747" stroke="black" points="786.63,-50.32 783.13,-40.32 779.63,-50.32 786.63,-50.32"/>
</g>
<!-- dyno_lab_time -->
<g id="node17" class="node">
<title>dyno_lab_time</title><style>.edge>path:hover{stroke-width:8}</style>
<ellipse fill="#c24747" stroke="black" cx="896.13" cy="-97.52" rx="44.73" ry="18"/>
<text xml:space="preserve" text-anchor="middle" x="896.13" y="-93.27" font-family="Helvetica,sans-Serif" font-size="10.00" fill="#ffffff">dyno_lab.time</text>
</g>
<!-- dyno_lab_time&#45;&gt;dyno_lab -->
<g id="edge21" class="edge">
<title>dyno_lab_time&#45;&gt;dyno_lab</title><style>.edge>path:hover{stroke-width:8}</style>
<path fill="none" stroke="black" d="M873.54,-81.52C856.1,-69.94 831.82,-53.82 812.81,-41.21"/>
<polygon fill="#c24747" stroke="black" points="814.94,-38.42 804.68,-35.81 811.07,-44.25 814.94,-38.42"/>
</g>
</g>
</svg>
