<?plantuml 1.2026.2?><svg xmlns="http://www.w3.org/2000/svg" xmlns:xlink="http://www.w3.org/1999/xlink" contentStyleType="text/css" data-diagram-type="CLASS" height="998px" preserveAspectRatio="none" style="width:3080px;height:998px;background:#FFFFFF;" version="1.1" viewBox="0 0 3080 998" width="3080px" zoomAndPan="magnify"><defs/><g><!--class dyno_lab.patch.AttrPatch--><g class="entity" data-qualified-name="dyno_lab.patch.AttrPatch" data-source-line="2" id="ent0002"><rect fill="#F1F1F1" height="48" rx="2.5" ry="2.5" style="stroke:#181818;stroke-width:0.5;" width="93.5858" x="32.5" y="102.34"/><ellipse cx="47.5" cy="118.34" fill="#ADD1B2" rx="11" ry="11" style="stroke:#181818;stroke-width:1;"/><path d="M47.6094,113.8713 Q46.6875,113.8713 45.9531,114.1838 Q45.2344,114.4963 44.7344,115.09 Q44.2344,115.6681 43.9531,116.5431 Q43.6875,117.4181 43.6875,118.5119 Q43.6875,119.9494 44.125,120.9963 Q44.5781,122.0431 45.4219,122.59 Q46.2813,123.1369 47.5938,123.1369 Q48.375,123.1369 49.0625,123.0119 Q49.7656,122.8713 50.7656,122.5588 L50.7656,124.4338 Q49.9063,124.7619 49.1406,124.8869 Q48.3906,125.0119 47.375,125.0119 Q45.4531,125.0119 44.1406,124.215 Q42.8438,123.4025 42.1875,121.9338 Q41.5313,120.4494 41.5313,118.4806 Q41.5313,117.0588 41.9219,115.8869 Q42.3281,114.6994 43.1094,113.8244 Q43.8906,112.9494 45.0313,112.4806 Q46.1719,111.9963 47.6406,111.9963 Q48.5938,111.9963 49.4844,112.1994 Q50.3906,112.3869 51.3281,112.8556 L50.5,114.6369 Q49.7188,114.2619 49.0625,114.0744 Q48.4063,113.8713 47.6094,113.8713 Z " fill="#000000"/><text fill="#000000" font-family="sans-serif" font-size="14" lengthAdjust="spacing" textLength="61.5858" x="61.5" y="123.772">AttrPatch</text><line style="stroke:#181818;stroke-width:0.5;" x1="33.5" x2="125.0858" y1="134.34" y2="134.34"/><line style="stroke:#181818;stroke-width:0.5;" x1="33.5" x2="125.0858" y1="142.34" y2="142.34"/></g><!--class dyno_lab.cli.CLITestMixin--><g class="entity" data-qualified-name="dyno_lab.cli.CLITestMixin" data-source-line="4" id="ent0003"><rect fill="#F1F1F1" height="67.0679" rx="2.5" ry="2.5" style="stroke:#181818;stroke-width:0.5;" width="456.8483" x="160.87" y="92.81"/><ellipse cx="342.8693" cy="108.81" fill="#ADD1B2" rx="11" ry="11" style="stroke:#181818;stroke-width:1;"/><path d="M342.9787,104.3413 Q342.0568,104.3413 341.3224,104.6538 Q340.6037,104.9663 340.1037,105.56 Q339.6037,106.1381 339.3224,107.0131 Q339.0568,107.8881 339.0568,108.9819 Q339.0568,110.4194 339.4943,111.4663 Q339.9474,112.5131 340.7912,113.06 Q341.6506,113.6069 342.9631,113.6069 Q343.7443,113.6069 344.4318,113.4819 Q345.1349,113.3413 346.1349,113.0288 L346.1349,114.9038 Q345.2756,115.2319 344.5099,115.3569 Q343.7599,115.4819 342.7443,115.4819 Q340.8224,115.4819 339.5099,114.685 Q338.2131,113.8725 337.5568,112.4038 Q336.9006,110.9194 336.9006,108.9506 Q336.9006,107.5288 337.2912,106.3569 Q337.6974,105.1694 338.4787,104.2944 Q339.2599,103.4194 340.4006,102.9506 Q341.5412,102.4663 343.0099,102.4663 Q343.9631,102.4663 344.8537,102.6694 Q345.7599,102.8569 346.6974,103.3256 L345.8693,105.1069 Q345.0881,104.7319 344.4318,104.5444 Q343.7756,104.3413 342.9787,104.3413 Z " fill="#000000"/><text fill="#000000" font-family="sans-serif" font-size="14" lengthAdjust="spacing" textLength="84.3497" x="363.3693" y="114.242">CLITestMixin</text><line style="stroke:#181818;stroke-width:0.5;" x1="161.87" x2="616.7183" y1="124.81" y2="124.81"/><line style="stroke:#181818;stroke-width:0.5;" x1="161.87" x2="616.7183" y1="132.81" y2="132.81"/><text fill="#000000" font-family="sans-serif" font-size="14" lengthAdjust="spacing" textLength="444.8483" x="166.87" y="151.7759">run_cli(func: Any, args: list[str] | None, stdin: str | None) -&gt; CliResult</text></g><!--class dyno_lab.proc.CapturedCall--><g class="entity" data-qualified-name="dyno_lab.proc.CapturedCall" data-source-line="7" id="ent0004"><rect fill="#F1F1F1" height="86.1358" rx="2.5" ry="2.5" style="stroke:#181818;stroke-width:0.5;" width="191.9414" x="1900.32" y="362.82"/><ellipse cx="1949.4248" cy="378.82" fill="#ADD1B2" rx="11" ry="11" style="stroke:#181818;stroke-width:1;"/><path d="M1949.5342,374.3513 Q1948.6123,374.3513 1947.878,374.6638 Q1947.1592,374.9763 1946.6592,375.57 Q1946.1592,376.1481 1945.878,377.0231 Q1945.6123,377.8981 1945.6123,378.9919 Q1945.6123,380.4294 1946.0498,381.4763 Q1946.503,382.5231 1947.3467,383.07 Q1948.2061,383.6169 1949.5186,383.6169 Q1950.2998,383.6169 1950.9873,383.4919 Q1951.6905,383.3513 1952.6905,383.0388 L1952.6905,384.9138 Q1951.8311,385.2419 1951.0655,385.3669 Q1950.3155,385.4919 1949.2998,385.4919 Q1947.378,385.4919 1946.0655,384.695 Q1944.7686,383.8825 1944.1123,382.4138 Q1943.4561,380.9294 1943.4561,378.9606 Q1943.4561,377.5388 1943.8467,376.3669 Q1944.253,375.1794 1945.0342,374.3044 Q1945.8155,373.4294 1946.9561,372.9606 Q1948.0967,372.4763 1949.5655,372.4763 Q1950.5186,372.4763 1951.4092,372.6794 Q1952.3155,372.8669 1953.253,373.3356 L1952.4248,375.1169 Q1951.6436,374.7419 1950.9873,374.5544 Q1950.3311,374.3513 1949.5342,374.3513 Z " fill="#000000"/><text fill="#000000" font-family="sans-serif" font-size="14" lengthAdjust="spacing" textLength="85.2317" x="1969.9248" y="384.252">CapturedCall</text><line style="stroke:#181818;stroke-width:0.5;" x1="1901.32" x2="2091.2614" y1="394.82" y2="394.82"/><text fill="#000000" font-family="sans-serif" font-size="14" lengthAdjust="spacing" textLength="179.9414" x="1906.32" y="413.7859">args : list[str] | tuple[str, ...]</text><text fill="#000000" font-family="sans-serif" font-size="14" lengthAdjust="spacing" textLength="141.3435" x="1906.32" y="432.8539">kwargs : dict[str, Any]</text><line style="stroke:#181818;stroke-width:0.5;" x1="1901.32" x2="2091.2614" y1="440.9558" y2="440.9558"/></g><!--class dyno_lab.cli.CliResult--><g class="entity" data-qualified-name="dyno_lab.cli.CliResult" data-source-line="11" id="ent0005"><rect fill="#F1F1F1" height="200.5433" rx="2.5" ry="2.5" style="stroke:#181818;stroke-width:0.5;" width="337.6527" x="652.47" y="26.07"/><ellipse cx="788.6965" cy="42.07" fill="#ADD1B2" rx="11" ry="11" style="stroke:#181818;stroke-width:1;"/><path d="M788.8059,37.6013 Q787.884,37.6013 787.1496,37.9138 Q786.4309,38.2263 785.9309,38.82 Q785.4309,39.3981 785.1496,40.2731 Q784.884,41.1481 784.884,42.2419 Q784.884,43.6794 785.3215,44.7263 Q785.7746,45.7731 786.6184,46.32 Q787.4777,46.8669 788.7902,46.8669 Q789.5715,46.8669 790.259,46.7419 Q790.9621,46.6013 791.9621,46.2888 L791.9621,48.1638 Q791.1027,48.4919 790.3371,48.6169 Q789.5871,48.7419 788.5715,48.7419 Q786.6496,48.7419 785.3371,47.945 Q784.0402,47.1325 783.384,45.6638 Q782.7277,44.1794 782.7277,42.2106 Q782.7277,40.7888 783.1184,39.6169 Q783.5246,38.4294 784.3059,37.5544 Q785.0871,36.6794 786.2277,36.2106 Q787.3684,35.7263 788.8371,35.7263 Q789.7902,35.7263 790.6809,35.9294 Q791.5871,36.1169 792.5246,36.5856 L791.6965,38.3669 Q790.9152,37.9919 790.259,37.8044 Q789.6027,37.6013 788.8059,37.6013 Z " fill="#000000"/><text fill="#000000" font-family="sans-serif" font-size="14" lengthAdjust="spacing" textLength="56.6998" x="809.1965" y="47.502">CliResult</text><line style="stroke:#181818;stroke-width:0.5;" x1="653.47" x2="989.1227" y1="58.07" y2="58.07"/><text fill="#000000" font-family="sans-serif" font-size="14" lengthAdjust="spacing" textLength="90.2296" x="658.47" y="77.0359">exit_code : int</text><text fill="#000000" font-family="sans-serif" font-size="14" lengthAdjust="spacing" textLength="73.0657" x="658.47" y="96.1039">output : str</text><text fill="#000000" font-family="sans-serif" font-size="14" lengthAdjust="spacing" textLength="68.4038" x="658.47" y="115.1718">stderr : str</text><text fill="#000000" font-family="sans-serif" font-size="14" lengthAdjust="spacing" textLength="71.1198" x="658.47" y="134.2397">stdout : str</text><line style="stroke:#181818;stroke-width:0.5;" x1="653.47" x2="989.1227" y1="142.3417" y2="142.3417"/><text fill="#000000" font-family="sans-serif" font-size="14" lengthAdjust="spacing" textLength="256.059" x="658.47" y="161.3076">assert_error_contains(text: str) -&gt; None</text><text fill="#000000" font-family="sans-serif" font-size="14" lengthAdjust="spacing" textLength="325.6527" x="658.47" y="180.3755">assert_failure(expected_code: int | None) -&gt; None</text><text fill="#000000" font-family="sans-serif" font-size="14" lengthAdjust="spacing" textLength="266.839" x="658.47" y="199.4434">assert_output_contains(text: str) -&gt; None</text><text fill="#000000" font-family="sans-serif" font-size="14" lengthAdjust="spacing" textLength="160.1734" x="658.47" y="218.5114">assert_success() -&gt; None</text></g><!--class dyno_lab.base.DynoTestCase--><g class="entity" data-qualified-name="dyno_lab.base.DynoTestCase" data-source-line="21" id="ent0006"><rect fill="#F1F1F1" height="238.6792" rx="2.5" ry="2.5" style="stroke:#181818;stroke-width:0.5;" width="568.6379" x="1024.97" y="7"/><ellipse cx="1258.4262" cy="23" fill="#ADD1B2" rx="11" ry="11" style="stroke:#181818;stroke-width:1;"/><path d="M1258.5355,18.5313 Q1257.6137,18.5313 1256.8793,18.8438 Q1256.1605,19.1563 1255.6605,19.75 Q1255.1605,20.3281 1254.8793,21.2031 Q1254.6137,22.0781 1254.6137,23.1719 Q1254.6137,24.6094 1255.0512,25.6563 Q1255.5043,26.7031 1256.348,27.25 Q1257.2074,27.7969 1258.5199,27.7969 Q1259.3012,27.7969 1259.9887,27.6719 Q1260.6918,27.5313 1261.6918,27.2188 L1261.6918,29.0938 Q1260.8324,29.4219 1260.0668,29.5469 Q1259.3168,29.6719 1258.3012,29.6719 Q1256.3793,29.6719 1255.0668,28.875 Q1253.7699,28.0625 1253.1137,26.5938 Q1252.4574,25.1094 1252.4574,23.1406 Q1252.4574,21.7188 1252.848,20.5469 Q1253.2543,19.3594 1254.0355,18.4844 Q1254.8168,17.6094 1255.9574,17.1406 Q1257.098,16.6563 1258.5668,16.6563 Q1259.5199,16.6563 1260.4105,16.8594 Q1261.3168,17.0469 1262.2543,17.5156 L1261.4262,19.2969 Q1260.6449,18.9219 1259.9887,18.7344 Q1259.3324,18.5313 1258.5355,18.5313 Z " fill="#000000"/><text fill="#000000" font-family="sans-serif" font-size="14" lengthAdjust="spacing" textLength="93.2256" x="1278.9262" y="28.432">DynoTestCase</text><line style="stroke:#181818;stroke-width:0.5;" x1="1025.97" x2="1592.6079" y1="39" y2="39"/><line style="stroke:#181818;stroke-width:0.5;" x1="1025.97" x2="1592.6079" y1="47" y2="47"/><text fill="#000000" font-family="sans-serif" font-size="14" lengthAdjust="spacing" textLength="516.2621" x="1030.97" y="65.9659">assertApproxEqual(first: float, second: float, rel: float, msg: str | None) -&gt; None</text><text fill="#000000" font-family="sans-serif" font-size="14" lengthAdjust="spacing" textLength="488.1502" x="1030.97" y="85.0339">assertContainsAll(container: Any, items: list[Any], msg: str | None) -&gt; None</text><text fill="#000000" font-family="sans-serif" font-size="14" lengthAdjust="spacing" textLength="556.6379" x="1030.97" y="104.1018">assertDictSubset(subset: dict[str, Any], whole: dict[str, Any], msg: str | None) -&gt; None</text><text fill="#000000" font-family="sans-serif" font-size="14" lengthAdjust="spacing" textLength="372.2446" x="1030.97" y="123.1697">assertDirExists(path: str | Path, msg: str | None) -&gt; None</text><text fill="#000000" font-family="sans-serif" font-size="14" lengthAdjust="spacing" textLength="421.5104" x="1030.97" y="142.2376">assertExitCode(code: int, expected: int, msg: str | None) -&gt; None</text><text fill="#000000" font-family="sans-serif" font-size="14" lengthAdjust="spacing" textLength="453.3323" x="1030.97" y="161.3055">assertFileContains(path: str | Path, text: str, msg: str | None) -&gt; None</text><text fill="#000000" font-family="sans-serif" font-size="14" lengthAdjust="spacing" textLength="375.0166" x="1030.97" y="180.3734">assertFileExists(path: str | Path, msg: str | None) -&gt; None</text><text fill="#000000" font-family="sans-serif" font-size="14" lengthAdjust="spacing" textLength="477.4962" x="1030.97" y="199.4414">assertFileNotContains(path: str | Path, text: str, msg: str | None) -&gt; None</text><text fill="#000000" font-family="sans-serif" font-size="14" lengthAdjust="spacing" textLength="465.5402" x="1030.97" y="218.5093">assertNoneOf(container: Any, items: list[Any], msg: str | None) -&gt; None</text><text fill="#000000" font-family="sans-serif" font-size="14" lengthAdjust="spacing" textLength="511.1101" x="1030.97" y="237.5772">assertOutputContains(output: str, text: str, label: str, msg: str | None) -&gt; None</text></g><!--class dyno_lab.env.EnvPatch--><g class="entity" data-qualified-name="dyno_lab.env.EnvPatch" data-source-line="33" id="ent0007"><rect fill="#F1F1F1" height="67.0679" rx="2.5" ry="2.5" style="stroke:#181818;stroke-width:0.5;" width="191.7733" x="1628.41" y="92.81"/><ellipse cx="1689.8978" cy="108.81" fill="#ADD1B2" rx="11" ry="11" style="stroke:#181818;stroke-width:1;"/><path d="M1690.0072,104.3413 Q1689.0853,104.3413 1688.3509,104.6538 Q1687.6322,104.9663 1687.1322,105.56 Q1686.6322,106.1381 1686.3509,107.0131 Q1686.0853,107.8881 1686.0853,108.9819 Q1686.0853,110.4194 1686.5228,111.4663 Q1686.9759,112.5131 1687.8197,113.06 Q1688.679,113.6069 1689.9915,113.6069 Q1690.7728,113.6069 1691.4603,113.4819 Q1692.1634,113.3413 1693.1634,113.0288 L1693.1634,114.9038 Q1692.304,115.2319 1691.5384,115.3569 Q1690.7884,115.4819 1689.7728,115.4819 Q1687.8509,115.4819 1686.5384,114.685 Q1685.2415,113.8725 1684.5853,112.4038 Q1683.929,110.9194 1683.929,108.9506 Q1683.929,107.5288 1684.3197,106.3569 Q1684.7259,105.1694 1685.5072,104.2944 Q1686.2884,103.4194 1687.429,102.9506 Q1688.5697,102.4663 1690.0384,102.4663 Q1690.9915,102.4663 1691.8822,102.6694 Q1692.7884,102.8569 1693.7259,103.3256 L1692.8978,105.1069 Q1692.1165,104.7319 1691.4603,104.5444 Q1690.804,104.3413 1690.0072,104.3413 Z " fill="#000000"/><text fill="#000000" font-family="sans-serif" font-size="14" lengthAdjust="spacing" textLength="60.2978" x="1710.3978" y="114.242">EnvPatch</text><line style="stroke:#181818;stroke-width:0.5;" x1="1629.41" x2="1819.1833" y1="124.81" y2="124.81"/><line style="stroke:#181818;stroke-width:0.5;" x1="1629.41" x2="1819.1833" y1="132.81" y2="132.81"/><text fill="#000000" font-family="sans-serif" font-size="14" lengthAdjust="spacing" textLength="179.7733" x="1634.41" y="151.7759">decorator(env: dict[str, str])</text></g><!--class dyno_lab.time.FastSleep--><g class="entity" data-qualified-name="dyno_lab.time.FastSleep" data-source-line="36" id="ent0008"><rect fill="#F1F1F1" height="105.2038" rx="2.5" ry="2.5" style="stroke:#181818;stroke-width:0.5;" width="120.9756" x="18.81" y="353.29"/><ellipse cx="45.6881" cy="369.29" fill="#ADD1B2" rx="11" ry="11" style="stroke:#181818;stroke-width:1;"/><path d="M45.7975,364.8212 Q44.8756,364.8212 44.1412,365.1337 Q43.4225,365.4462 42.9225,366.04 Q42.4225,366.6181 42.1412,367.4931 Q41.8756,368.3681 41.8756,369.4619 Q41.8756,370.8994 42.3131,371.9462 Q42.7662,372.9931 43.61,373.54 Q44.4694,374.0869 45.7819,374.0869 Q46.5631,374.0869 47.2506,373.9619 Q47.9537,373.8212 48.9537,373.5087 L48.9537,375.3837 Q48.0944,375.7119 47.3287,375.8369 Q46.5787,375.9619 45.5631,375.9619 Q43.6412,375.9619 42.3287,375.165 Q41.0319,374.3525 40.3756,372.8837 Q39.7194,371.3994 39.7194,369.4306 Q39.7194,368.0087 40.11,366.8369 Q40.5162,365.6494 41.2975,364.7744 Q42.0787,363.8994 43.2194,363.4306 Q44.36,362.9462 45.8287,362.9462 Q46.7819,362.9462 47.6725,363.1494 Q48.5787,363.3369 49.5162,363.8056 L48.6881,365.5869 Q47.9069,365.2119 47.2506,365.0244 Q46.5944,364.8212 45.7975,364.8212 Z " fill="#000000"/><text fill="#000000" font-family="sans-serif" font-size="14" lengthAdjust="spacing" textLength="62.5798" x="62.3277" y="374.722">FastSleep</text><line style="stroke:#181818;stroke-width:0.5;" x1="19.81" x2="138.7856" y1="385.29" y2="385.29"/><text fill="#000000" font-family="sans-serif" font-size="14" lengthAdjust="spacing" textLength="93.9116" x="24.81" y="404.2559">call_count : int</text><text fill="#000000" font-family="sans-serif" font-size="14" lengthAdjust="spacing" textLength="97.5376" x="24.81" y="423.3239">calls : list[float]</text><text fill="#000000" font-family="sans-serif" font-size="14" lengthAdjust="spacing" textLength="108.9756" x="24.81" y="442.3918">total_slept : float</text><line style="stroke:#181818;stroke-width:0.5;" x1="19.81" x2="138.7856" y1="450.4938" y2="450.4938"/></g><!--class dyno_lab.time.FrozenTime--><g class="entity" data-qualified-name="dyno_lab.time.FrozenTime" data-source-line="41" id="ent0009"><rect fill="#F1F1F1" height="67.0679" rx="2.5" ry="2.5" style="stroke:#181818;stroke-width:0.5;" width="123.8036" x="174.39" y="372.35"/><ellipse cx="196.0392" cy="388.35" fill="#ADD1B2" rx="11" ry="11" style="stroke:#181818;stroke-width:1;"/><path d="M196.1485,383.8813 Q195.2267,383.8813 194.4923,384.1938 Q193.7735,384.5063 193.2735,385.1 Q192.7735,385.6781 192.4923,386.5531 Q192.2267,387.4281 192.2267,388.5219 Q192.2267,389.9594 192.6642,391.0063 Q193.1173,392.0531 193.961,392.6 Q194.8204,393.1469 196.1329,393.1469 Q196.9142,393.1469 197.6017,393.0219 Q198.3048,392.8813 199.3048,392.5688 L199.3048,394.4438 Q198.4454,394.7719 197.6798,394.8969 Q196.9298,395.0219 195.9142,395.0219 Q193.9923,395.0219 192.6798,394.225 Q191.3829,393.4125 190.7267,391.9438 Q190.0704,390.4594 190.0704,388.4906 Q190.0704,387.0688 190.461,385.8969 Q190.8673,384.7094 191.6485,383.8344 Q192.4298,382.9594 193.5704,382.4906 Q194.711,382.0063 196.1798,382.0063 Q197.1329,382.0063 198.0235,382.2094 Q198.9298,382.3969 199.8673,382.8656 L199.0392,384.6469 Q198.2579,384.2719 197.6017,384.0844 Q196.9454,383.8813 196.1485,383.8813 Z " fill="#000000"/><text fill="#000000" font-family="sans-serif" font-size="14" lengthAdjust="spacing" textLength="77.0277" x="211.5167" y="393.782">FrozenTime</text><line style="stroke:#181818;stroke-width:0.5;" x1="175.39" x2="297.1936" y1="404.35" y2="404.35"/><text fill="#000000" font-family="sans-serif" font-size="14" lengthAdjust="spacing" textLength="111.8036" x="180.39" y="423.3159">timestamp : float</text><line style="stroke:#181818;stroke-width:0.5;" x1="175.39" x2="297.1936" y1="431.4179" y2="431.4179"/></g><!--class dyno_lab.log.LogCapture--><g class="entity" data-qualified-name="dyno_lab.log.LogCapture" data-source-line="44" id="ent0010"><rect fill="#F1F1F1" height="143.3396" rx="2.5" ry="2.5" style="stroke:#181818;stroke-width:0.5;" width="345.1847" x="332.7" y="334.22"/><ellipse cx="462.4865" cy="350.22" fill="#ADD1B2" rx="11" ry="11" style="stroke:#181818;stroke-width:1;"/><path d="M462.5959,345.7513 Q461.674,345.7513 460.9396,346.0638 Q460.2209,346.3763 459.7209,346.97 Q459.2209,347.5481 458.9396,348.4231 Q458.674,349.2981 458.674,350.3919 Q458.674,351.8294 459.1115,352.8763 Q459.5646,353.9231 460.4084,354.47 Q461.2678,355.0169 462.5803,355.0169 Q463.3615,355.0169 464.049,354.8919 Q464.7521,354.7513 465.7521,354.4388 L465.7521,356.3138 Q464.8928,356.6419 464.1271,356.7669 Q463.3771,356.8919 462.3615,356.8919 Q460.4396,356.8919 459.1271,356.095 Q457.8303,355.2825 457.174,353.8138 Q456.5178,352.3294 456.5178,350.3606 Q456.5178,348.9388 456.9084,347.7669 Q457.3146,346.5794 458.0959,345.7044 Q458.8771,344.8294 460.0178,344.3606 Q461.1584,343.8763 462.6271,343.8763 Q463.5803,343.8763 464.4709,344.0794 Q465.3771,344.2669 466.3146,344.7356 L465.4865,346.5169 Q464.7053,346.1419 464.049,345.9544 Q463.3928,345.7513 462.5959,345.7513 Z " fill="#000000"/><text fill="#000000" font-family="sans-serif" font-size="14" lengthAdjust="spacing" textLength="77.1117" x="482.9865" y="355.652">LogCapture</text><line style="stroke:#181818;stroke-width:0.5;" x1="333.7" x2="676.8847" y1="366.22" y2="366.22"/><text fill="#000000" font-family="sans-serif" font-size="14" lengthAdjust="spacing" textLength="213.7232" x="338.7" y="385.1859">records : list[logging.LogRecord]</text><line style="stroke:#181818;stroke-width:0.5;" x1="333.7" x2="676.8847" y1="393.2879" y2="393.2879"/><text fill="#000000" font-family="sans-serif" font-size="14" lengthAdjust="spacing" textLength="304.7928" x="338.7" y="412.2539">assert_logged(level: int, fragment: str) -&gt; None</text><text fill="#000000" font-family="sans-serif" font-size="14" lengthAdjust="spacing" textLength="333.1847" x="338.7" y="431.3218">assert_not_logged(level: int, fragment: str) -&gt; None</text><text fill="#000000" font-family="sans-serif" font-size="14" lengthAdjust="spacing" textLength="188.5512" x="338.7" y="450.3897">count(level: int | None) -&gt; int</text><text fill="#000000" font-family="sans-serif" font-size="14" lengthAdjust="spacing" textLength="244.8871" x="338.7" y="469.4576">messages(level: int | None) -&gt; list[str]</text></g><!--class dyno_lab.preflight.PreflightError--><g class="entity" data-qualified-name="dyno_lab.preflight.PreflightError" data-source-line="51" id="ent0011"><rect fill="#F1F1F1" height="48" rx="2.5" ry="2.5" style="stroke:#181818;stroke-width:0.5;" width="122.1037" x="713.24" y="381.89"/><ellipse cx="728.24" cy="397.89" fill="#ADD1B2" rx="11" ry="11" style="stroke:#181818;stroke-width:1;"/><path d="M728.3494,393.4213 Q727.4275,393.4213 726.6931,393.7338 Q725.9744,394.0463 725.4744,394.64 Q724.9744,395.2181 724.6931,396.0931 Q724.4275,396.9681 724.4275,398.0619 Q724.4275,399.4994 724.865,400.5463 Q725.3181,401.5931 726.1619,402.14 Q727.0213,402.6869 728.3338,402.6869 Q729.115,402.6869 729.8025,402.5619 Q730.5056,402.4213 731.5056,402.1088 L731.5056,403.9838 Q730.6463,404.3119 729.8806,404.4369 Q729.1306,404.5619 728.115,404.5619 Q726.1931,404.5619 724.8806,403.765 Q723.5838,402.9525 722.9275,401.4838 Q722.2713,399.9994 722.2713,398.0306 Q722.2713,396.6088 722.6619,395.4369 Q723.0681,394.2494 723.8494,393.3744 Q724.6306,392.4994 725.7713,392.0306 Q726.9119,391.5463 728.3806,391.5463 Q729.3338,391.5463 730.2244,391.7494 Q731.1306,391.9369 732.0681,392.4056 L731.24,394.1869 Q730.4588,393.8119 729.8025,393.6244 Q729.1463,393.4213 728.3494,393.4213 Z " fill="#000000"/><text fill="#FF0000" font-family="sans-serif" font-size="14" lengthAdjust="spacing" textLength="90.1037" x="742.24" y="403.322">PreflightError</text><line style="stroke:#181818;stroke-width:0.5;" x1="714.24" x2="834.3437" y1="413.89" y2="413.89"/><line style="stroke:#181818;stroke-width:0.5;" x1="714.24" x2="834.3437" y1="421.89" y2="421.89"/></g><!--class dyno_lab.preflight.PreflightReport--><g class="entity" data-qualified-name="dyno_lab.preflight.PreflightReport" data-source-line="53" id="ent0012"><rect fill="#F1F1F1" height="143.3396" rx="2.5" ry="2.5" style="stroke:#181818;stroke-width:0.5;" width="184.0453" x="2139.27" y="334.22"/><ellipse cx="2177.2298" cy="350.22" fill="#ADD1B2" rx="11" ry="11" style="stroke:#181818;stroke-width:1;"/><path d="M2177.3391,345.7513 Q2176.4173,345.7513 2175.6829,346.0638 Q2174.9641,346.3763 2174.4641,346.97 Q2173.9641,347.5481 2173.6829,348.4231 Q2173.4173,349.2981 2173.4173,350.3919 Q2173.4173,351.8294 2173.8548,352.8763 Q2174.3079,353.9231 2175.1516,354.47 Q2176.011,355.0169 2177.3235,355.0169 Q2178.1048,355.0169 2178.7923,354.8919 Q2179.4954,354.7513 2180.4954,354.4388 L2180.4954,356.3138 Q2179.636,356.6419 2178.8704,356.7669 Q2178.1204,356.8919 2177.1048,356.8919 Q2175.1829,356.8919 2173.8704,356.095 Q2172.5735,355.2825 2171.9173,353.8138 Q2171.261,352.3294 2171.261,350.3606 Q2171.261,348.9388 2171.6516,347.7669 Q2172.0579,346.5794 2172.8391,345.7044 Q2173.6204,344.8294 2174.761,344.3606 Q2175.9016,343.8763 2177.3704,343.8763 Q2178.3235,343.8763 2179.2141,344.0794 Q2180.1204,344.2669 2181.0579,344.7356 L2180.2298,346.5169 Q2179.4485,346.1419 2178.7923,345.9544 Q2178.136,345.7513 2177.3391,345.7513 Z " fill="#000000"/><text fill="#000000" font-family="sans-serif" font-size="14" lengthAdjust="spacing" textLength="101.0236" x="2196.3319" y="355.652">PreflightReport</text><line style="stroke:#181818;stroke-width:0.5;" x1="2140.27" x2="2322.3153" y1="366.22" y2="366.22"/><text fill="#000000" font-family="sans-serif" font-size="14" lengthAdjust="spacing" textLength="107.8696" x="2145.27" y="385.1859">all_passed : bool</text><text fill="#000000" font-family="sans-serif" font-size="14" lengthAdjust="spacing" textLength="162.0634" x="2145.27" y="404.2539">failed : list[_CheckResult]</text><text fill="#000000" font-family="sans-serif" font-size="14" lengthAdjust="spacing" textLength="172.0453" x="2145.27" y="423.3218">passed : list[_CheckResult]</text><text fill="#000000" font-family="sans-serif" font-size="14" lengthAdjust="spacing" textLength="170.0713" x="2145.27" y="442.3897">results : list[_CheckResult]</text><line style="stroke:#181818;stroke-width:0.5;" x1="2140.27" x2="2322.3153" y1="450.4917" y2="450.4917"/><text fill="#000000" font-family="sans-serif" font-size="14" lengthAdjust="spacing" textLength="152.9634" x="2145.27" y="469.4576">raise_if_failed() -&gt; None</text></g><!--class dyno_lab.preflight.PreflightSuite--><g class="entity" data-qualified-name="dyno_lab.preflight.PreflightSuite" data-source-line="60" id="ent0013"><rect fill="#F1F1F1" height="162.4075" rx="2.5" ry="2.5" style="stroke:#181818;stroke-width:0.5;" width="422.2125" x="870.19" y="324.68"/><ellipse cx="1032.3444" cy="340.68" fill="#ADD1B2" rx="11" ry="11" style="stroke:#181818;stroke-width:1;"/><path d="M1032.4538,336.2113 Q1031.5319,336.2113 1030.7976,336.5238 Q1030.0788,336.8363 1029.5788,337.43 Q1029.0788,338.0081 1028.7976,338.8831 Q1028.5319,339.7581 1028.5319,340.8519 Q1028.5319,342.2894 1028.9694,343.3363 Q1029.4226,344.3831 1030.2663,344.93 Q1031.1257,345.4769 1032.4382,345.4769 Q1033.2194,345.4769 1033.9069,345.3519 Q1034.6101,345.2113 1035.6101,344.8988 L1035.6101,346.7738 Q1034.7507,347.1019 1033.9851,347.2269 Q1033.2351,347.3519 1032.2194,347.3519 Q1030.2976,347.3519 1028.9851,346.555 Q1027.6882,345.7425 1027.0319,344.2738 Q1026.3757,342.7894 1026.3757,340.8206 Q1026.3757,339.3988 1026.7663,338.2269 Q1027.1726,337.0394 1027.9538,336.1644 Q1028.7351,335.2894 1029.8757,334.8206 Q1031.0163,334.3363 1032.4851,334.3363 Q1033.4382,334.3363 1034.3288,334.5394 Q1035.2351,334.7269 1036.1726,335.1956 L1035.3444,336.9769 Q1034.5632,336.6019 1033.9069,336.4144 Q1033.2507,336.2113 1032.4538,336.2113 Z " fill="#000000"/><text fill="#000000" font-family="sans-serif" font-size="14" lengthAdjust="spacing" textLength="89.4037" x="1052.8444" y="346.112">PreflightSuite</text><line style="stroke:#181818;stroke-width:0.5;" x1="871.19" x2="1291.4025" y1="356.68" y2="356.68"/><line style="stroke:#181818;stroke-width:0.5;" x1="871.19" x2="1291.4025" y1="364.68" y2="364.68"/><text fill="#000000" font-family="sans-serif" font-size="14" lengthAdjust="spacing" textLength="195.7052" x="876.19" y="383.6459">require_env() -&gt; PreflightSuite</text><text fill="#000000" font-family="sans-serif" font-size="14" lengthAdjust="spacing" textLength="216.6632" x="876.19" y="402.7139">require_import() -&gt; PreflightSuite</text><text fill="#000000" font-family="sans-serif" font-size="14" lengthAdjust="spacing" textLength="410.2125" x="876.19" y="421.7818">require_port(host: str, port: int, timeout: float) -&gt; PreflightSuite</text><text fill="#000000" font-family="sans-serif" font-size="14" lengthAdjust="spacing" textLength="197.6512" x="876.19" y="440.8497">require_tool() -&gt; PreflightSuite</text><text fill="#000000" font-family="sans-serif" font-size="14" lengthAdjust="spacing" textLength="329.4888" x="876.19" y="459.9176">require_url(url: str, timeout: float) -&gt; PreflightSuite</text><text fill="#000000" font-family="sans-serif" font-size="14" lengthAdjust="spacing" textLength="152.3054" x="876.19" y="478.9855">run() -&gt; PreflightReport</text></g><!--class dyno_lab.proc.ProcessRecorder--><g class="entity" data-qualified-name="dyno_lab.proc.ProcessRecorder" data-source-line="68" id="ent0014"><rect fill="#F1F1F1" height="124.2717" rx="2.5" ry="2.5" style="stroke:#181818;stroke-width:0.5;" width="281.541" x="1855.52" y="64.21"/><ellipse cx="1936.7337" cy="80.21" fill="#ADD1B2" rx="11" ry="11" style="stroke:#181818;stroke-width:1;"/><path d="M1936.8431,75.7413 Q1935.9212,75.7413 1935.1868,76.0538 Q1934.4681,76.3663 1933.9681,76.96 Q1933.4681,77.5381 1933.1868,78.4131 Q1932.9212,79.2881 1932.9212,80.3819 Q1932.9212,81.8194 1933.3587,82.8663 Q1933.8118,83.9131 1934.6556,84.46 Q1935.515,85.0069 1936.8275,85.0069 Q1937.6087,85.0069 1938.2962,84.8819 Q1938.9993,84.7413 1939.9993,84.4288 L1939.9993,86.3038 Q1939.14,86.6319 1938.3743,86.7569 Q1937.6243,86.8819 1936.6087,86.8819 Q1934.6868,86.8819 1933.3743,86.085 Q1932.0775,85.2725 1931.4212,83.8038 Q1930.765,82.3194 1930.765,80.3506 Q1930.765,78.9288 1931.1556,77.7569 Q1931.5618,76.5694 1932.3431,75.6944 Q1933.1243,74.8194 1934.265,74.3506 Q1935.4056,73.8663 1936.8743,73.8663 Q1937.8275,73.8663 1938.7181,74.0694 Q1939.6243,74.2569 1940.5618,74.7256 L1939.7337,76.5069 Q1938.9525,76.1319 1938.2962,75.9444 Q1937.64,75.7413 1936.8431,75.7413 Z " fill="#000000"/><text fill="#000000" font-family="sans-serif" font-size="14" lengthAdjust="spacing" textLength="110.6136" x="1957.2337" y="85.642">ProcessRecorder</text><line style="stroke:#181818;stroke-width:0.5;" x1="1856.52" x2="2136.061" y1="96.21" y2="96.21"/><text fill="#000000" font-family="sans-serif" font-size="14" lengthAdjust="spacing" textLength="93.9116" x="1861.52" y="115.1759">call_count : int</text><text fill="#000000" font-family="sans-serif" font-size="14" lengthAdjust="spacing" textLength="152.9634" x="1861.52" y="134.2439">calls : list[CapturedCall]</text><line style="stroke:#181818;stroke-width:0.5;" x1="1856.52" x2="2136.061" y1="142.3458" y2="142.3458"/><text fill="#000000" font-family="sans-serif" font-size="14" lengthAdjust="spacing" textLength="269.541" x="1861.52" y="161.3118">commands() -&gt; list[list[str] | tuple[str, ...]]</text><text fill="#000000" font-family="sans-serif" font-size="14" lengthAdjust="spacing" textLength="154.0694" x="1861.52" y="180.3797">stdin_inputs() -&gt; list[str]</text></g><!--class dyno_lab.http.RaisingSession--><g class="entity" data-qualified-name="dyno_lab.http.RaisingSession" data-source-line="74" id="ent0015"><rect fill="#F1F1F1" height="86.1358" rx="2.5" ry="2.5" style="stroke:#181818;stroke-width:0.5;" width="129.4816" x="14.55" y="595.76"/><ellipse cx="29.55" cy="611.76" fill="#ADD1B2" rx="11" ry="11" style="stroke:#181818;stroke-width:1;"/><path d="M29.6594,607.2913 Q28.7375,607.2913 28.0031,607.6038 Q27.2844,607.9163 26.7844,608.51 Q26.2844,609.0881 26.0031,609.9631 Q25.7375,610.8381 25.7375,611.9319 Q25.7375,613.3694 26.175,614.4163 Q26.6281,615.4631 27.4719,616.01 Q28.3313,616.5569 29.6438,616.5569 Q30.425,616.5569 31.1125,616.4319 Q31.8156,616.2913 32.8156,615.9788 L32.8156,617.8538 Q31.9563,618.1819 31.1906,618.3069 Q30.4406,618.4319 29.425,618.4319 Q27.5031,618.4319 26.1906,617.635 Q24.8938,616.8225 24.2375,615.3538 Q23.5813,613.8694 23.5813,611.9006 Q23.5813,610.4788 23.9719,609.3069 Q24.3781,608.1194 25.1594,607.2444 Q25.9406,606.3694 27.0813,605.9006 Q28.2219,605.4163 29.6906,605.4163 Q30.6438,605.4163 31.5344,605.6194 Q32.4406,605.8069 33.3781,606.2756 L32.55,608.0569 Q31.7688,607.6819 31.1125,607.4944 Q30.4563,607.2913 29.6594,607.2913 Z " fill="#000000"/><text fill="#000000" font-family="sans-serif" font-size="14" lengthAdjust="spacing" textLength="97.4816" x="43.55" y="617.192">RaisingSession</text><line style="stroke:#181818;stroke-width:0.5;" x1="15.55" x2="143.0316" y1="627.76" y2="627.76"/><line style="stroke:#181818;stroke-width:0.5;" x1="15.55" x2="143.0316" y1="635.76" y2="635.76"/><text fill="#000000" font-family="sans-serif" font-size="14" lengthAdjust="spacing" textLength="85.4137" x="20.55" y="654.7259">get() -&gt; None</text><text fill="#000000" font-family="sans-serif" font-size="14" lengthAdjust="spacing" textLength="92.6936" x="20.55" y="673.7939">post() -&gt; None</text></g><!--class dyno_lab.http.SequenceSession--><g class="entity" data-qualified-name="dyno_lab.http.SequenceSession" data-source-line="78" id="ent0016"><rect fill="#F1F1F1" height="143.3396" rx="2.5" ry="2.5" style="stroke:#181818;stroke-width:0.5;" width="410.5785" x="2326" y="54.67"/><ellipse cx="2470.1715" cy="70.67" fill="#ADD1B2" rx="11" ry="11" style="stroke:#181818;stroke-width:1;"/><path d="M2470.2809,66.2012 Q2469.359,66.2012 2468.6246,66.5137 Q2467.9059,66.8262 2467.4059,67.42 Q2466.9059,67.9981 2466.6246,68.8731 Q2466.359,69.7481 2466.359,70.8419 Q2466.359,72.2794 2466.7965,73.3262 Q2467.2496,74.3731 2468.0934,74.92 Q2468.9527,75.4669 2470.2652,75.4669 Q2471.0465,75.4669 2471.734,75.3419 Q2472.4371,75.2012 2473.4371,74.8887 L2473.4371,76.7637 Q2472.5777,77.0919 2471.8121,77.2169 Q2471.0621,77.3419 2470.0465,77.3419 Q2468.1246,77.3419 2466.8121,76.545 Q2465.5152,75.7325 2464.859,74.2637 Q2464.2027,72.7794 2464.2027,70.8106 Q2464.2027,69.3887 2464.5934,68.2169 Q2464.9996,67.0294 2465.7809,66.1544 Q2466.5621,65.2794 2467.7027,64.8106 Q2468.8434,64.3262 2470.3121,64.3262 Q2471.2652,64.3262 2472.1559,64.5294 Q2473.0621,64.7169 2473.9996,65.1856 L2473.1715,66.9669 Q2472.3902,66.5919 2471.734,66.4044 Q2471.0777,66.2012 2470.2809,66.2012 Z " fill="#000000"/><text fill="#000000" font-family="sans-serif" font-size="14" lengthAdjust="spacing" textLength="113.7355" x="2490.6715" y="76.102">SequenceSession</text><line style="stroke:#181818;stroke-width:0.5;" x1="2327" x2="2735.5785" y1="86.67" y2="86.67"/><text fill="#000000" font-family="sans-serif" font-size="14" lengthAdjust="spacing" textLength="93.9116" x="2332" y="105.6359">call_count : int</text><text fill="#000000" font-family="sans-serif" font-size="14" lengthAdjust="spacing" textLength="188.7753" x="2332" y="124.7039">calls : list[_CapturedRequest]</text><line style="stroke:#181818;stroke-width:0.5;" x1="2327" x2="2735.5785" y1="132.8058" y2="132.8058"/><text fill="#000000" font-family="sans-serif" font-size="14" lengthAdjust="spacing" textLength="391.2986" x="2332" y="151.7718">get(url: str, params: dict[str, Any] | None) -&gt; _FakeResponse</text><text fill="#000000" font-family="sans-serif" font-size="14" lengthAdjust="spacing" textLength="398.5785" x="2332" y="170.8397">post(url: str, params: dict[str, Any] | None) -&gt; _FakeResponse</text><text fill="#000000" font-family="sans-serif" font-size="14" lengthAdjust="spacing" textLength="143.2055" x="2332" y="189.9076">urls_called() -&gt; list[str]</text></g><!--class dyno_lab.smoke.SmokeResult--><g class="entity" data-qualified-name="dyno_lab.smoke.SmokeResult" data-source-line="85" id="ent0017"><rect fill="#F1F1F1" height="181.4754" rx="2.5" ry="2.5" style="stroke:#181818;stroke-width:0.5;" width="391.0206" x="178.78" y="548.09"/><ellipse cx="327.4175" cy="564.09" fill="#ADD1B2" rx="11" ry="11" style="stroke:#181818;stroke-width:1;"/><path d="M327.5268,559.6213 Q326.605,559.6213 325.8706,559.9338 Q325.1518,560.2463 324.6518,560.84 Q324.1518,561.4181 323.8706,562.2931 Q323.605,563.1681 323.605,564.2619 Q323.605,565.6994 324.0425,566.7463 Q324.4956,567.7931 325.3393,568.34 Q326.1987,568.8869 327.5112,568.8869 Q328.2925,568.8869 328.98,568.7619 Q329.6831,568.6213 330.6831,568.3088 L330.6831,570.1838 Q329.8237,570.5119 329.0581,570.6369 Q328.3081,570.7619 327.2925,570.7619 Q325.3706,570.7619 324.0581,569.965 Q322.7612,569.1525 322.105,567.6838 Q321.4487,566.1994 321.4487,564.2306 Q321.4487,562.8088 321.8393,561.6369 Q322.2456,560.4494 323.0268,559.5744 Q323.8081,558.6994 324.9487,558.2306 Q326.0893,557.7463 327.5581,557.7463 Q328.5112,557.7463 329.4018,557.9494 Q330.3081,558.1369 331.2456,558.6056 L330.4175,560.3869 Q329.6362,560.0119 328.98,559.8244 Q328.3237,559.6213 327.5268,559.6213 Z " fill="#000000"/><text fill="#000000" font-family="sans-serif" font-size="14" lengthAdjust="spacing" textLength="85.2457" x="347.9175" y="569.522">SmokeResult</text><line style="stroke:#181818;stroke-width:0.5;" x1="179.78" x2="568.8006" y1="580.09" y2="580.09"/><text fill="#000000" font-family="sans-serif" font-size="14" lengthAdjust="spacing" textLength="71.9177" x="184.78" y="599.0559">details : str</text><text fill="#000000" font-family="sans-serif" font-size="14" lengthAdjust="spacing" textLength="87.3317" x="184.78" y="618.1239">message : str</text><text fill="#000000" font-family="sans-serif" font-size="14" lengthAdjust="spacing" textLength="66.0658" x="184.78" y="637.1918">name : str</text><text fill="#000000" font-family="sans-serif" font-size="14" lengthAdjust="spacing" textLength="86.5757" x="184.78" y="656.2597">passed : bool</text><text fill="#000000" font-family="sans-serif" font-size="14" lengthAdjust="spacing" textLength="90.2997" x="184.78" y="675.3276">passed_result</text><line style="stroke:#181818;stroke-width:0.5;" x1="179.78" x2="568.8006" y1="683.4296" y2="683.4296"/><text fill="#000000" font-family="sans-serif" font-size="14" lengthAdjust="spacing" textLength="379.0206" x="184.78" y="702.3955">failed(name: str, message: str, details: str) -&gt; SmokeResult</text><text fill="#000000" font-family="sans-serif" font-size="14" lengthAdjust="spacing" textLength="358.5667" x="184.78" y="721.4634">ok(name: str, message: str, details: str) -&gt; SmokeResult</text></g><!--class dyno_lab.smoke.SmokeRunner--><g class="entity" data-qualified-name="dyno_lab.smoke.SmokeRunner" data-source-line="94" id="ent0018"><rect fill="#F1F1F1" height="67.0679" rx="2.5" ry="2.5" style="stroke:#181818;stroke-width:0.5;" width="192.4873" x="605.05" y="605.29"/><ellipse cx="650.5638" cy="621.29" fill="#ADD1B2" rx="11" ry="11" style="stroke:#181818;stroke-width:1;"/><path d="M650.6732,616.8213 Q649.7513,616.8213 649.017,617.1338 Q648.2982,617.4463 647.7982,618.04 Q647.2982,618.6181 647.017,619.4931 Q646.7513,620.3681 646.7513,621.4619 Q646.7513,622.8994 647.1888,623.9463 Q647.642,624.9931 648.4857,625.54 Q649.3451,626.0869 650.6576,626.0869 Q651.4388,626.0869 652.1263,625.9619 Q652.8295,625.8213 653.8295,625.5088 L653.8295,627.3838 Q652.9701,627.7119 652.2045,627.8369 Q651.4545,627.9619 650.4388,627.9619 Q648.517,627.9619 647.2045,627.165 Q645.9076,626.3525 645.2513,624.8838 Q644.5951,623.3994 644.5951,621.4306 Q644.5951,620.0088 644.9857,618.8369 Q645.392,617.6494 646.1732,616.7744 Q646.9545,615.8994 648.0951,615.4306 Q649.2357,614.9463 650.7045,614.9463 Q651.6576,614.9463 652.5482,615.1494 Q653.4545,615.3369 654.392,615.8056 L653.5638,617.5869 Q652.7826,617.2119 652.1263,617.0244 Q651.4701,616.8213 650.6732,616.8213 Z " fill="#000000"/><text fill="#000000" font-family="sans-serif" font-size="14" lengthAdjust="spacing" textLength="92.9596" x="671.0638" y="626.722">SmokeRunner</text><line style="stroke:#181818;stroke-width:0.5;" x1="606.05" x2="796.5373" y1="637.29" y2="637.29"/><line style="stroke:#181818;stroke-width:0.5;" x1="606.05" x2="796.5373" y1="645.29" y2="645.29"/><text fill="#000000" font-family="sans-serif" font-size="14" lengthAdjust="spacing" textLength="180.4873" x="611.05" y="664.2559">run_all() -&gt; SmokeSummary</text></g><!--class dyno_lab.smoke.SmokeSummary--><g class="entity" data-qualified-name="dyno_lab.smoke.SmokeSummary" data-source-line="97" id="ent0019"><rect fill="#F1F1F1" height="143.3396" rx="2.5" ry="2.5" style="stroke:#181818;stroke-width:0.5;" width="182.8554" x="832.87" y="567.16"/><ellipse cx="867.1947" cy="583.16" fill="#ADD1B2" rx="11" ry="11" style="stroke:#181818;stroke-width:1;"/><path d="M867.3041,578.6913 Q866.3822,578.6913 865.6478,579.0038 Q864.9291,579.3163 864.4291,579.91 Q863.9291,580.4881 863.6478,581.3631 Q863.3822,582.2381 863.3822,583.3319 Q863.3822,584.7694 863.8197,585.8163 Q864.2728,586.8631 865.1166,587.41 Q865.9759,587.9569 867.2884,587.9569 Q868.0697,587.9569 868.7572,587.8319 Q869.4603,587.6913 870.4603,587.3788 L870.4603,589.2538 Q869.6009,589.5819 868.8353,589.7069 Q868.0853,589.8319 867.0697,589.8319 Q865.1478,589.8319 863.8353,589.035 Q862.5384,588.2225 861.8822,586.7538 Q861.2259,585.2694 861.2259,583.3006 Q861.2259,581.8788 861.6166,580.7069 Q862.0228,579.5194 862.8041,578.6444 Q863.5853,577.7694 864.7259,577.3006 Q865.8666,576.8163 867.3353,576.8163 Q868.2884,576.8163 869.1791,577.0194 Q870.0853,577.2069 871.0228,577.6756 L870.1947,579.4569 Q869.4134,579.0819 868.7572,578.8944 Q868.1009,578.6913 867.3041,578.6913 Z " fill="#000000"/><text fill="#000000" font-family="sans-serif" font-size="14" lengthAdjust="spacing" textLength="107.9116" x="885.4891" y="588.592">SmokeSummary</text><line style="stroke:#181818;stroke-width:0.5;" x1="833.87" x2="1014.7254" y1="599.16" y2="599.16"/><text fill="#000000" font-family="sans-serif" font-size="14" lengthAdjust="spacing" textLength="107.8696" x="838.87" y="618.1259">all_passed : bool</text><text fill="#000000" font-family="sans-serif" font-size="14" lengthAdjust="spacing" textLength="160.8734" x="838.87" y="637.1939">failed : list[SmokeResult]</text><text fill="#000000" font-family="sans-serif" font-size="14" lengthAdjust="spacing" textLength="170.8554" x="838.87" y="656.2618">passed : list[SmokeResult]</text><text fill="#000000" font-family="sans-serif" font-size="14" lengthAdjust="spacing" textLength="168.8814" x="838.87" y="675.3297">results : list[SmokeResult]</text><line style="stroke:#181818;stroke-width:0.5;" x1="833.87" x2="1014.7254" y1="683.4317" y2="683.4317"/><text fill="#000000" font-family="sans-serif" font-size="14" lengthAdjust="spacing" textLength="152.9634" x="838.87" y="702.3976">raise_if_failed() -&gt; None</text></g><!--class dyno_lab.smoke.SmokeTest--><g class="entity" data-qualified-name="dyno_lab.smoke.SmokeTest" data-source-line="104" id="ent0020"><rect fill="#F1F1F1" height="105.2038" rx="2.5" ry="2.5" style="stroke:#181818;stroke-width:0.5;" width="182.0153" x="1050.29" y="586.23"/><ellipse cx="1101.0188" cy="602.23" fill="#ADD1B2" rx="11" ry="11" style="stroke:#181818;stroke-width:1;"/><path d="M1101.1282,597.7613 Q1100.2063,597.7613 1099.4719,598.0738 Q1098.7532,598.3863 1098.2532,598.98 Q1097.7532,599.5581 1097.4719,600.4331 Q1097.2063,601.3081 1097.2063,602.4019 Q1097.2063,603.8394 1097.6438,604.8863 Q1098.0969,605.9331 1098.9407,606.48 Q1099.8,607.0269 1101.1125,607.0269 Q1101.8938,607.0269 1102.5813,606.9019 Q1103.2844,606.7613 1104.2844,606.4488 L1104.2844,608.3238 Q1103.425,608.6519 1102.6594,608.7769 Q1101.9094,608.9019 1100.8938,608.9019 Q1098.9719,608.9019 1097.6594,608.105 Q1096.3625,607.2925 1095.7063,605.8238 Q1095.05,604.3394 1095.05,602.3706 Q1095.05,600.9488 1095.4407,599.7769 Q1095.8469,598.5894 1096.6282,597.7144 Q1097.4094,596.8394 1098.55,596.3706 Q1099.6907,595.8863 1101.1594,595.8863 Q1102.1125,595.8863 1103.0032,596.0894 Q1103.9094,596.2769 1104.8469,596.7456 L1104.0188,598.5269 Q1103.2375,598.1519 1102.5813,597.9644 Q1101.925,597.7613 1101.1282,597.7613 Z " fill="#000000"/><text fill="#000000" font-family="sans-serif" font-size="14" lengthAdjust="spacing" textLength="72.0577" x="1121.5188" y="607.662">SmokeTest</text><line style="stroke:#181818;stroke-width:0.5;" x1="1051.29" x2="1231.3053" y1="618.23" y2="618.23"/><text fill="#000000" font-family="sans-serif" font-size="14" lengthAdjust="spacing" textLength="66.0658" x="1056.29" y="637.1959">name : str</text><line style="stroke:#181818;stroke-width:0.5;" x1="1051.29" x2="1231.3053" y1="645.2979" y2="645.2979"/><text fill="#000000" font-family="sans-serif" font-size="14" font-style="italic" lengthAdjust="spacing" textLength="128.1135" x="1056.29" y="664.2639">run() -&gt; SmokeResult</text><text fill="#000000" font-family="sans-serif" font-size="14" lengthAdjust="spacing" textLength="170.0153" x="1056.29" y="683.3318">run_safe() -&gt; SmokeResult</text></g><!--class dyno_lab.http.StaticSession--><g class="entity" data-qualified-name="dyno_lab.http.StaticSession" data-source-line="109" id="ent0021"><rect fill="#F1F1F1" height="105.2038" rx="2.5" ry="2.5" style="stroke:#181818;stroke-width:0.5;" width="301.7849" x="2771.4" y="73.74"/><ellipse cx="2875.1886" cy="89.74" fill="#ADD1B2" rx="11" ry="11" style="stroke:#181818;stroke-width:1;"/><path d="M2875.298,85.2713 Q2874.3761,85.2713 2873.6418,85.5838 Q2872.923,85.8963 2872.423,86.49 Q2871.923,87.0681 2871.6418,87.9431 Q2871.3761,88.8181 2871.3761,89.9119 Q2871.3761,91.3494 2871.8136,92.3963 Q2872.2668,93.4431 2873.1105,93.99 Q2873.9699,94.5369 2875.2824,94.5369 Q2876.0636,94.5369 2876.7511,94.4119 Q2877.4543,94.2713 2878.4543,93.9588 L2878.4543,95.8338 Q2877.5949,96.1619 2876.8293,96.2869 Q2876.0793,96.4119 2875.0636,96.4119 Q2873.1418,96.4119 2871.8293,95.615 Q2870.5324,94.8025 2869.8761,93.3338 Q2869.2199,91.8494 2869.2199,89.8806 Q2869.2199,88.4588 2869.6105,87.2869 Q2870.0168,86.0994 2870.798,85.2244 Q2871.5793,84.3494 2872.7199,83.8806 Q2873.8605,83.3963 2875.3293,83.3963 Q2876.2824,83.3963 2877.173,83.5994 Q2878.0793,83.7869 2879.0168,84.2556 L2878.1886,86.0369 Q2877.4074,85.6619 2876.7511,85.4744 Q2876.0949,85.2713 2875.298,85.2713 Z " fill="#000000"/><text fill="#000000" font-family="sans-serif" font-size="14" lengthAdjust="spacing" textLength="85.7077" x="2895.6886" y="95.172">StaticSession</text><line style="stroke:#181818;stroke-width:0.5;" x1="2772.4" x2="3072.1849" y1="105.74" y2="105.74"/><text fill="#000000" font-family="sans-serif" font-size="14" lengthAdjust="spacing" textLength="188.7753" x="2777.4" y="124.7059">calls : list[_CapturedRequest]</text><line style="stroke:#181818;stroke-width:0.5;" x1="2772.4" x2="3072.1849" y1="132.8079" y2="132.8079"/><text fill="#000000" font-family="sans-serif" font-size="14" lengthAdjust="spacing" textLength="282.5049" x="2777.4" y="151.7739">get(url: str, params: Any) -&gt; _FakeResponse</text><text fill="#000000" font-family="sans-serif" font-size="14" lengthAdjust="spacing" textLength="289.7849" x="2777.4" y="170.8418">post(url: str, params: Any) -&gt; _FakeResponse</text></g><!--class dyno_lab.proc.SubprocessPatch--><g class="entity" data-qualified-name="dyno_lab.proc.SubprocessPatch" data-source-line="114" id="ent0022"><rect fill="#F1F1F1" height="86.1358" rx="2.5" ry="2.5" style="stroke:#181818;stroke-width:0.5;" width="144.5876" x="7" y="847.77"/><ellipse cx="22" cy="863.77" fill="#ADD1B2" rx="11" ry="11" style="stroke:#181818;stroke-width:1;"/><path d="M22.1094,859.3013 Q21.1875,859.3013 20.4531,859.6138 Q19.7344,859.9263 19.2344,860.52 Q18.7344,861.0981 18.4531,861.9731 Q18.1875,862.8481 18.1875,863.9419 Q18.1875,865.3794 18.625,866.4263 Q19.0781,867.4731 19.9219,868.02 Q20.7813,868.5669 22.0938,868.5669 Q22.875,868.5669 23.5625,868.4419 Q24.2656,868.3013 25.2656,867.9888 L25.2656,869.8638 Q24.4063,870.1919 23.6406,870.3169 Q22.8906,870.4419 21.875,870.4419 Q19.9531,870.4419 18.6406,869.645 Q17.3438,868.8325 16.6875,867.3638 Q16.0313,865.8794 16.0313,863.9106 Q16.0313,862.4888 16.4219,861.3169 Q16.8281,860.1294 17.6094,859.2544 Q18.3906,858.3794 19.5313,857.9106 Q20.6719,857.4263 22.1406,857.4263 Q23.0938,857.4263 23.9844,857.6294 Q24.8906,857.8169 25.8281,858.2856 L25,860.0669 Q24.2188,859.6919 23.5625,859.5044 Q22.9063,859.3013 22.1094,859.3013 Z " fill="#000000"/><text fill="#000000" font-family="sans-serif" font-size="14" lengthAdjust="spacing" textLength="112.5876" x="36" y="869.202">SubprocessPatch</text><line style="stroke:#181818;stroke-width:0.5;" x1="8" x2="150.5876" y1="879.77" y2="879.77"/><text fill="#000000" font-family="sans-serif" font-size="14" lengthAdjust="spacing" textLength="106.0076" x="13" y="898.7359">side_effect : Any</text><text fill="#000000" font-family="sans-serif" font-size="14" lengthAdjust="spacing" textLength="68.8238" x="13" y="917.8039">target : str</text><line style="stroke:#181818;stroke-width:0.5;" x1="8" x2="150.5876" y1="925.9058" y2="925.9058"/></g><!--class dyno_lab.fs.TempWorkdir--><g class="entity" data-qualified-name="dyno_lab.fs.TempWorkdir" data-source-line="118" id="ent0023"><rect fill="#F1F1F1" height="200.5433" rx="2.5" ry="2.5" style="stroke:#181818;stroke-width:0.5;" width="358.5547" x="187.02" y="790.57"/><ellipse cx="316.9815" cy="806.57" fill="#ADD1B2" rx="11" ry="11" style="stroke:#181818;stroke-width:1;"/><path d="M317.0909,802.1013 Q316.169,802.1013 315.4346,802.4138 Q314.7159,802.7263 314.2159,803.32 Q313.7159,803.8981 313.4346,804.7731 Q313.169,805.6481 313.169,806.7419 Q313.169,808.1794 313.6065,809.2263 Q314.0596,810.2731 314.9034,810.82 Q315.7628,811.3669 317.0753,811.3669 Q317.8565,811.3669 318.544,811.2419 Q319.2471,811.1013 320.2471,810.7888 L320.2471,812.6638 Q319.3878,812.9919 318.6221,813.1169 Q317.8721,813.2419 316.8565,813.2419 Q314.9346,813.2419 313.6221,812.445 Q312.3253,811.6325 311.669,810.1638 Q311.0128,808.6794 311.0128,806.7106 Q311.0128,805.2888 311.4034,804.1169 Q311.8096,802.9294 312.5909,802.0544 Q313.3721,801.1794 314.5128,800.7106 Q315.6534,800.2263 317.1221,800.2263 Q318.0753,800.2263 318.9659,800.4294 Q319.8721,800.6169 320.8096,801.0856 L319.9815,802.8669 Q319.2003,802.4919 318.544,802.3044 Q317.8878,802.1013 317.0909,802.1013 Z " fill="#000000"/><text fill="#000000" font-family="sans-serif" font-size="14" lengthAdjust="spacing" textLength="90.1317" x="337.4815" y="812.002">TempWorkdir</text><line style="stroke:#181818;stroke-width:0.5;" x1="188.02" x2="544.5747" y1="822.57" y2="822.57"/><text fill="#000000" font-family="sans-serif" font-size="14" lengthAdjust="spacing" textLength="71.2317" x="193.02" y="841.5359">path : Path</text><line style="stroke:#181818;stroke-width:0.5;" x1="188.02" x2="544.5747" y1="849.6379" y2="849.6379"/><text fill="#000000" font-family="sans-serif" font-size="14" lengthAdjust="spacing" textLength="302.1328" x="193.02" y="868.6039">assert_contains(rel_path: str, text: str) -&gt; None</text><text fill="#000000" font-family="sans-serif" font-size="14" lengthAdjust="spacing" textLength="226.0571" x="193.02" y="887.6718">assert_exists(rel_path: str) -&gt; None</text><text fill="#000000" font-family="sans-serif" font-size="14" lengthAdjust="spacing" textLength="254.449" x="193.02" y="906.7397">assert_not_exists(rel_path: str) -&gt; None</text><text fill="#000000" font-family="sans-serif" font-size="14" lengthAdjust="spacing" textLength="175.4053" x="193.02" y="925.8076">mkdir(rel_path: str) -&gt; Path</text><text fill="#000000" font-family="sans-serif" font-size="14" lengthAdjust="spacing" textLength="232.3291" x="193.02" y="944.8755">populate(files: dict[str, str]) -&gt; None</text><text fill="#000000" font-family="sans-serif" font-size="14" lengthAdjust="spacing" textLength="248.0371" x="193.02" y="963.9434">read(rel_path: str, encoding: str) -&gt; str</text><text fill="#000000" font-family="sans-serif" font-size="14" lengthAdjust="spacing" textLength="346.5547" x="193.02" y="983.0114">write(rel_path: str, content: str, encoding: str) -&gt; Path</text></g><!--class dyno_lab.http._CapturedRequest--><g class="entity" data-qualified-name="dyno_lab.http._CapturedRequest" data-source-line="128" id="ent0024"><rect fill="#F1F1F1" height="124.2717" rx="2.5" ry="2.5" style="stroke:#181818;stroke-width:0.5;" width="206.4593" x="2624.06" y="343.75"/><ellipse cx="2663.0971" cy="359.75" fill="#ADD1B2" rx="11" ry="11" style="stroke:#181818;stroke-width:1;"/><path d="M2663.2065,355.2813 Q2662.2846,355.2813 2661.5502,355.5938 Q2660.8315,355.9063 2660.3315,356.5 Q2659.8315,357.0781 2659.5502,357.9531 Q2659.2846,358.8281 2659.2846,359.9219 Q2659.2846,361.3594 2659.7221,362.4063 Q2660.1752,363.4531 2661.019,364 Q2661.8783,364.5469 2663.1908,364.5469 Q2663.9721,364.5469 2664.6596,364.4219 Q2665.3627,364.2813 2666.3627,363.9688 L2666.3627,365.8438 Q2665.5033,366.1719 2664.7377,366.2969 Q2663.9877,366.4219 2662.9721,366.4219 Q2661.0502,366.4219 2659.7377,365.625 Q2658.4408,364.8125 2657.7846,363.3438 Q2657.1283,361.8594 2657.1283,359.8906 Q2657.1283,358.4688 2657.519,357.2969 Q2657.9252,356.1094 2658.7065,355.2344 Q2659.4877,354.3594 2660.6283,353.8906 Q2661.769,353.4063 2663.2377,353.4063 Q2664.1908,353.4063 2665.0815,353.6094 Q2665.9877,353.7969 2666.9252,354.2656 L2666.0971,356.0469 Q2665.3158,355.6719 2664.6596,355.4844 Q2664.0033,355.2813 2663.2065,355.2813 Z " fill="#000000"/><text fill="#000000" font-family="sans-serif" font-size="14" lengthAdjust="spacing" textLength="121.0435" x="2682.4387" y="365.182">_CapturedRequest</text><line style="stroke:#181818;stroke-width:0.5;" x1="2625.06" x2="2829.5193" y1="375.75" y2="375.75"/><text fill="#000000" font-family="sans-serif" font-size="14" lengthAdjust="spacing" textLength="141.3435" x="2630.06" y="394.7159">kwargs : dict[str, Any]</text><text fill="#000000" font-family="sans-serif" font-size="14" lengthAdjust="spacing" textLength="80.3457" x="2630.06" y="413.7839">method : str</text><text fill="#000000" font-family="sans-serif" font-size="14" lengthAdjust="spacing" textLength="194.4593" x="2630.06" y="432.8518">params : dict[str, Any] | None</text><text fill="#000000" font-family="sans-serif" font-size="14" lengthAdjust="spacing" textLength="46.6198" x="2630.06" y="451.9197">url : str</text><line style="stroke:#181818;stroke-width:0.5;" x1="2625.06" x2="2829.5193" y1="460.0217" y2="460.0217"/></g><!--class dyno_lab.preflight._CheckResult--><g class="entity" data-qualified-name="dyno_lab.preflight._CheckResult" data-source-line="134" id="ent0025"><rect fill="#F1F1F1" height="105.2038" rx="2.5" ry="2.5" style="stroke:#181818;stroke-width:0.5;" width="118.4356" x="2172.08" y="73.74"/><ellipse cx="2187.08" cy="89.74" fill="#ADD1B2" rx="11" ry="11" style="stroke:#181818;stroke-width:1;"/><path d="M2187.1894,85.2713 Q2186.2675,85.2713 2185.5331,85.5838 Q2184.8144,85.8963 2184.3144,86.49 Q2183.8144,87.0681 2183.5331,87.9431 Q2183.2675,88.8181 2183.2675,89.9119 Q2183.2675,91.3494 2183.705,92.3963 Q2184.1581,93.4431 2185.0019,93.99 Q2185.8613,94.5369 2187.1738,94.5369 Q2187.955,94.5369 2188.6425,94.4119 Q2189.3456,94.2713 2190.3456,93.9588 L2190.3456,95.8338 Q2189.4863,96.1619 2188.7206,96.2869 Q2187.9706,96.4119 2186.955,96.4119 Q2185.0331,96.4119 2183.7206,95.615 Q2182.4238,94.8025 2181.7675,93.3338 Q2181.1113,91.8494 2181.1113,89.8806 Q2181.1113,88.4588 2181.5019,87.2869 Q2181.9081,86.0994 2182.6894,85.2244 Q2183.4706,84.3494 2184.6113,83.8806 Q2185.7519,83.3963 2187.2206,83.3963 Q2188.1738,83.3963 2189.0644,83.5994 Q2189.9706,83.7869 2190.9081,84.2556 L2190.08,86.0369 Q2189.2988,85.6619 2188.6425,85.4744 Q2187.9863,85.2713 2187.1894,85.2713 Z " fill="#000000"/><text fill="#000000" font-family="sans-serif" font-size="14" lengthAdjust="spacing" textLength="86.4356" x="2201.08" y="95.172">_CheckResult</text><line style="stroke:#181818;stroke-width:0.5;" x1="2173.08" x2="2289.5156" y1="105.74" y2="105.74"/><text fill="#000000" font-family="sans-serif" font-size="14" lengthAdjust="spacing" textLength="65.2118" x="2178.08" y="124.7059">detail : str</text><text fill="#000000" font-family="sans-serif" font-size="14" lengthAdjust="spacing" textLength="60.1578" x="2178.08" y="143.7739">label : str</text><text fill="#000000" font-family="sans-serif" font-size="14" lengthAdjust="spacing" textLength="86.5757" x="2178.08" y="162.8418">passed : bool</text><line style="stroke:#181818;stroke-width:0.5;" x1="2173.08" x2="2289.5156" y1="170.9438" y2="170.9438"/></g><!--class dyno_lab.http._FakeResponse--><g class="entity" data-qualified-name="dyno_lab.http._FakeResponse" data-source-line="139" id="ent0026"><rect fill="#F1F1F1" height="162.4075" rx="2.5" ry="2.5" style="stroke:#181818;stroke-width:0.5;" width="179.2294" x="580.68" y="809.63"/><ellipse cx="616.775" cy="825.63" fill="#ADD1B2" rx="11" ry="11" style="stroke:#181818;stroke-width:1;"/><path d="M616.8844,821.1613 Q615.9625,821.1613 615.2281,821.4738 Q614.5094,821.7863 614.0094,822.38 Q613.5094,822.9581 613.2281,823.8331 Q612.9625,824.7081 612.9625,825.8019 Q612.9625,827.2394 613.4,828.2863 Q613.8531,829.3331 614.6969,829.88 Q615.5562,830.4269 616.8687,830.4269 Q617.65,830.4269 618.3375,830.3019 Q619.0406,830.1613 620.0406,829.8488 L620.0406,831.7238 Q619.1812,832.0519 618.4156,832.1769 Q617.6656,832.3019 616.65,832.3019 Q614.7281,832.3019 613.4156,831.505 Q612.1187,830.6925 611.4625,829.2238 Q610.8062,827.7394 610.8062,825.7706 Q610.8062,824.3488 611.1969,823.1769 Q611.6031,821.9894 612.3844,821.1144 Q613.1656,820.2394 614.3062,819.7706 Q615.4469,819.2863 616.9156,819.2863 Q617.8687,819.2863 618.7594,819.4894 Q619.6656,819.6769 620.6031,820.1456 L619.775,821.9269 Q618.9937,821.5519 618.3375,821.3644 Q617.6812,821.1613 616.8844,821.1613 Z " fill="#000000"/><text fill="#000000" font-family="sans-serif" font-size="14" lengthAdjust="spacing" textLength="100.3516" x="635.4628" y="831.062">_FakeResponse</text><line style="stroke:#181818;stroke-width:0.5;" x1="581.68" x2="758.9094" y1="841.63" y2="841.63"/><text fill="#000000" font-family="sans-serif" font-size="14" lengthAdjust="spacing" textLength="61.4038" x="586.68" y="860.5959">body : str</text><text fill="#000000" font-family="sans-serif" font-size="14" lengthAdjust="spacing" textLength="140.1115" x="586.68" y="879.6639">headers : dict[str, str]</text><text fill="#000000" font-family="sans-serif" font-size="14" lengthAdjust="spacing" textLength="106.2876" x="586.68" y="898.7318">status_code : int</text><text fill="#000000" font-family="sans-serif" font-size="14" lengthAdjust="spacing" textLength="53.9838" x="586.68" y="917.7997">text : str</text><line style="stroke:#181818;stroke-width:0.5;" x1="581.68" x2="758.9094" y1="925.9017" y2="925.9017"/><text fill="#000000" font-family="sans-serif" font-size="14" lengthAdjust="spacing" textLength="80.3737" x="586.68" y="944.8676">json() -&gt; Any</text><text fill="#000000" font-family="sans-serif" font-size="14" lengthAdjust="spacing" textLength="167.2294" x="586.68" y="963.9355">raise_for_status() -&gt; None</text></g><!--class dyno_lab.time._make_frozen_datetime_class._FrozenDatetime--><g class="entity" data-qualified-name="dyno_lab.time._make_frozen_datetime_class._FrozenDatetime" data-source-line="147" id="ent0027"><rect fill="#F1F1F1" height="86.1358" rx="2.5" ry="2.5" style="stroke:#181818;stroke-width:0.5;" width="359.8847" x="795.35" y="847.77"/><ellipse cx="915.2736" cy="863.77" fill="#ADD1B2" rx="11" ry="11" style="stroke:#181818;stroke-width:1;"/><path d="M915.383,859.3013 Q914.4611,859.3013 913.7267,859.6138 Q913.008,859.9263 912.508,860.52 Q912.008,861.0981 911.7267,861.9731 Q911.4611,862.8481 911.4611,863.9419 Q911.4611,865.3794 911.8986,866.4263 Q912.3517,867.4731 913.1955,868.02 Q914.0548,868.5669 915.3673,868.5669 Q916.1486,868.5669 916.8361,868.4419 Q917.5392,868.3013 918.5392,867.9888 L918.5392,869.8638 Q917.6798,870.1919 916.9142,870.3169 Q916.1642,870.4419 915.1486,870.4419 Q913.2267,870.4419 911.9142,869.645 Q910.6173,868.8325 909.9611,867.3638 Q909.3048,865.8794 909.3048,863.9106 Q909.3048,862.4888 909.6955,861.3169 Q910.1017,860.1294 910.883,859.2544 Q911.6642,858.3794 912.8048,857.9106 Q913.9455,857.4263 915.4142,857.4263 Q916.3673,857.4263 917.258,857.6294 Q918.1642,857.8169 919.1017,858.2856 L918.2736,860.0669 Q917.4923,859.6919 916.8361,859.5044 Q916.1798,859.3013 915.383,859.3013 Z " fill="#000000"/><text fill="#000000" font-family="sans-serif" font-size="14" lengthAdjust="spacing" textLength="111.5376" x="935.7736" y="869.202">_FrozenDatetime</text><line style="stroke:#181818;stroke-width:0.5;" x1="796.35" x2="1154.2347" y1="879.77" y2="879.77"/><line style="stroke:#181818;stroke-width:0.5;" x1="796.35" x2="1154.2347" y1="887.77" y2="887.77"/><text fill="#000000" font-family="sans-serif" font-size="14" lengthAdjust="spacing" textLength="347.8847" x="801.35" y="906.7359">now(tz: datetime.tzinfo | None) -&gt; datetime.datetime</text><text fill="#000000" font-family="sans-serif" font-size="14" lengthAdjust="spacing" textLength="198.6312" x="801.35" y="925.8039">utcnow() -&gt; datetime.datetime</text></g><!--class dyno_lab.log._ListHandler--><g class="entity" data-qualified-name="dyno_lab.log._ListHandler" data-source-line="151" id="ent0028"><rect fill="#F1F1F1" height="67.0679" rx="2.5" ry="2.5" style="stroke:#181818;stroke-width:0.5;" width="280.687" x="1189.95" y="857.3"/><ellipse cx="1285.1916" cy="873.3" fill="#ADD1B2" rx="11" ry="11" style="stroke:#181818;stroke-width:1;"/><path d="M1285.301,868.8313 Q1284.3791,868.8313 1283.6448,869.1438 Q1282.926,869.4563 1282.426,870.05 Q1281.926,870.6281 1281.6448,871.5031 Q1281.3791,872.3781 1281.3791,873.4719 Q1281.3791,874.9094 1281.8166,875.9563 Q1282.2698,877.0031 1283.1135,877.55 Q1283.9729,878.0969 1285.2854,878.0969 Q1286.0666,878.0969 1286.7541,877.9719 Q1287.4573,877.8313 1288.4573,877.5188 L1288.4573,879.3938 Q1287.5979,879.7219 1286.8323,879.8469 Q1286.0823,879.9719 1285.0666,879.9719 Q1283.1448,879.9719 1281.8323,879.175 Q1280.5354,878.3625 1279.8791,876.8938 Q1279.2229,875.4094 1279.2229,873.4406 Q1279.2229,872.0188 1279.6135,870.8469 Q1280.0198,869.6594 1280.801,868.7844 Q1281.5823,867.9094 1282.7229,867.4406 Q1283.8635,866.9563 1285.3323,866.9563 Q1286.2854,866.9563 1287.176,867.1594 Q1288.0823,867.3469 1289.0198,867.8156 L1288.1916,869.5969 Q1287.4104,869.2219 1286.7541,869.0344 Q1286.0979,868.8313 1285.301,868.8313 Z " fill="#000000"/><text fill="#000000" font-family="sans-serif" font-size="14" lengthAdjust="spacing" textLength="81.7037" x="1305.6916" y="878.732">_ListHandler</text><line style="stroke:#181818;stroke-width:0.5;" x1="1190.95" x2="1469.637" y1="889.3" y2="889.3"/><line style="stroke:#181818;stroke-width:0.5;" x1="1190.95" x2="1469.637" y1="897.3" y2="897.3"/><text fill="#000000" font-family="sans-serif" font-size="14" lengthAdjust="spacing" textLength="268.687" x="1195.95" y="916.2659">emit(record: logging.LogRecord) -&gt; None</text></g><!--link dyno_lab.http.SequenceSession to dyno_lab.http._CapturedRequest--><g class="link" data-entity-1="ent0016" data-entity-2="ent0024" data-link-type="dependency" data-source-line="154" id="lnk29"><path codeLine="154" d="M2581.51,198.46 C2613.16,243.27 2650.1389,295.6389 2680.3989,338.4889" fill="none" id="dyno_lab.http.SequenceSession-to-dyno_lab.http._CapturedRequest" style="stroke:#181818;stroke-width:1;"/><polygon fill="#181818" points="2683.86,343.39,2681.9358,333.7309,2680.9758,339.3057,2675.401,338.3457,2683.86,343.39" style="stroke:#181818;stroke-width:1;"/><text fill="#000000" font-family="sans-serif" font-size="13" lengthAdjust="spacing" textLength="26.468" x="2647.85" y="290.577">calls</text></g><!--link dyno_lab.http.StaticSession to dyno_lab.http._CapturedRequest--><g class="link" data-entity-1="ent0021" data-entity-2="ent0024" data-link-type="dependency" data-source-line="155" id="lnk30"><path codeLine="155" d="M2885.84,179.22 C2853.1,225.82 2808.4493,289.3806 2773.8193,338.6706" fill="none" id="dyno_lab.http.StaticSession-to-dyno_lab.http._CapturedRequest" style="stroke:#181818;stroke-width:1;"/><polygon fill="#181818" points="2770.37,343.58,2778.8168,338.5153,2773.2444,339.4888,2772.2709,333.9163,2770.37,343.58" style="stroke:#181818;stroke-width:1;"/><text fill="#000000" font-family="sans-serif" font-size="13" lengthAdjust="spacing" textLength="26.468" x="2814.12" y="290.577">calls</text></g><!--link dyno_lab.proc.ProcessRecorder to dyno_lab.proc.CapturedCall--><g class="link" data-entity-1="ent0014" data-entity-2="ent0004" data-link-type="dependency" data-source-line="156" id="lnk31"><path codeLine="156" d="M1996.29,188.94 C1996.29,241.64 1996.29,310.12 1996.29,356.4" fill="none" id="dyno_lab.proc.ProcessRecorder-to-dyno_lab.proc.CapturedCall" style="stroke:#181818;stroke-width:1;"/><polygon fill="#181818" points="1996.29,362.4,2000.29,353.4,1996.29,357.4,1992.29,353.4,1996.29,362.4" style="stroke:#181818;stroke-width:1;"/><text fill="#000000" font-family="sans-serif" font-size="13" lengthAdjust="spacing" textLength="26.468" x="1997.29" y="290.577">calls</text></g><!--link dyno_lab.preflight._CheckResult to dyno_lab.preflight.PreflightReport--><g class="link" data-entity-1="ent0025" data-entity-2="ent0012" data-link-type="aggregation" data-source-line="157" id="lnk32"><path codeLine="157" d="M2231.29,179.22 C2231.29,222.84 2231.29,273.62 2231.29,321.9" fill="none" id="dyno_lab.preflight._CheckResult-to-dyno_lab.preflight.PreflightReport" style="stroke:#181818;stroke-width:1;"/><polygon fill="none" points="2231.29,333.9,2235.29,327.9,2231.29,321.9,2227.29,327.9,2231.29,333.9" style="stroke:#181818;stroke-width:1;"/><text fill="#000000" font-family="sans-serif" font-size="13" lengthAdjust="spacing" textLength="41.236" x="2232.29" y="290.577">results</text></g><?plantuml-src hLXBRzmu3BxdLnWzkK3YlGT5W219iGjqso8JO0-BmD3Oz8msikHASbxT_lSb9LkMFVRCDDj3a97u44cH7oaRi8baDPY65R22XcbcbKwaad1I26PCykxIMlsLsMBxBc4cAL-aoWLRPmrjPO6OV3_vqKjSVVhZ3epzapzpEHOg1CzYAaebYMvbZeIqQcLndbpAbzE4wOqvJmGtzczZzNtoR_8PBJfDZ2svFCT_kjjwdvnT95U2tu9fXOrCO8rjDPHNJ8Y9tLeLMKnsDj21oVX4spO2Q76QP5bsZqmFJnrRoGlhAMZjVNHgRyYCrpt97GVFtEQ5AW6LSMbnHxMsQMtYVCCbEWfQnqiLKV4mq3P73gLHZRICIvDQUBQEmmM5eZEmLemBT3Y5vmOA2wKxt9qT1t8iuqqwJhzfYmACIGTI2CerXe4k_8eP6CTbZJjPJFPNuJHUDdXHppVVMYRIYck39rT2COiv06XH6POQHFXTcyrESepilEfykHGYxVm2tUKSjr3tIKVNUeIwQyo3LRisO5FZ_arJupHvsYe1kzj7gDOtpsYAIR7GjZqlbjhs266KH5TBICCjdoRzpNVBWpe-SW5zk6Pi2CbmfAgtEqFIdvNzHRRGualrAox_YokFO9QlbiwCo29CTChG_TQ5OhcHZpDO2_8nwockHagi0OVKAPBYx2BiUZ-e-yYCNGc0PgpFyXgoG7CQ2qH2BFLMsW19j1L0qLKOWQ1LbedS26Y8qsr7vsdr2l8ErSyT68ZkHDepbjNDhffFQjCXz5YDK9jieFdcGP4eWvd8iU7ISTqwols0KKI3CXNmI1VYgg3IR5E3N8GrgNvEp0KmOeqlsWSLVJPi0sQ1AJIW8HWV2YMKFiTkTV5LGoNuPcjl2Fa__EOe5zF-rl5aO-wuGGVABJHAsuCAF9j7PqoJXg9JOiZNIWdSe-RYrixw_6eBnODlTXJzm3rBrUwNMIGpRY3dLUxFcEilmSfLYrLyq1V7rQNEjvPhoB64lDunJyJ1Q_B_09DZsIhJ5pwjktoXL5TjtyBsgx4OqmCdjLga-DTZpJ7AMpdHwQyqZgAY1kwB1lJCp3JXE0eruZdhtjL7NJDPTdE2hzZbaUlUJpvSvbmYjiPIunAvnIp1gb-XULnDHiwjjKqsPd2cRy2cSUasU7DpwRN2e8EauNX9-OJZgC3aVMHkITYuN2UBXckbKPnQqdXoYB4Y_yWU04kbKT843_wF0fGrEPdP5zfCg5UrSZ8xGwuXGXQHkqQ5tT6vxIVN3lx2cjuUOJ755R_EFKG4d4b9fc-eNbstwWuRK3coXaRiXpUAJfnlfPmMIEoy8uU73KOp7HIkMin__JBHsEqkgkpeH-9lPFak_4w84_ITKW-3hvEWyNtHU28woqTN_PsjyGShx8y0JUFBejWPLa6wvpOiixpOKvSnFLJb6qeGw-Pd2cwUVJ2xNJSUIkTUrOIq4mvdkk4bTgggmXa-SKVG18NFKUXVXK7_7TJDNqe_b7oIf9N98fhJIhCqojCOFGmzuS67JwiyJDlHK3ipA84VxqSI2_FK8TQQh9iXTqOsgca5iu2lGW5cP_QD56bWvTG7n6c53MKpgFNv-AInKKwPAH3zb3SdwYmASP_cqqn6JbdS7InzLI2mj5jLHl18-PKi8Bh7xsaonFFKqcWKyqIW7SvrBvW5a1uEYfDzplMOxavPg_8bQDtYNO4UE-SQ3qq0pBPc_BM4KZ78_cDK1o6-B3niLKhdNdGEjtB_6Bd6HBBphvMyHeFpoh7bPSUNE_5i8ktXJJsbzXNjxpOp-yfbfU9-6qZz3xepMv3a0dsmznCMpUyuEebfww4tKKprtvTgRbF_D4Aqcxw9udZi7sNEoAhzANpkKVLa7_Q-HStip3bIjFibRqR9R9AVdQbZtZldVN_y3m00?></g></svg>
