<?xml version="1.0" encoding="UTF-8" standalone="no"?>
<!DOCTYPE svg PUBLIC "-//W3C//DTD SVG 1.1//EN"
 "http://www.w3.org/Graphics/SVG/1.1/DTD/svg11.dtd">
<!-- Generated by graphviz version 13.1.2 (20250808.2320)
 -->
<!-- Title: G Pages: 1 -->
<svg width="1027pt" height="126pt"
 viewBox="0.00 0.00 1027.00 126.00" xmlns="http://www.w3.org/2000/svg" xmlns:xlink="http://www.w3.org/1999/xlink">
<g id="graph0" class="graph" transform="scale(1 1) rotate(0) translate(4 122.02)">
<title>G</title><style>.edge>path:hover{stroke-width:8}</style>
<polygon fill="white" stroke="none" points="-4,4 -4,-122.02 1023.4,-122.02 1023.4,4 -4,4"/>
<!-- dyno_lab -->
<g id="node1" class="node">
<title>dyno_lab</title><style>.edge>path:hover{stroke-width:8}</style>
<ellipse fill="#7a1e1e" stroke="black" cx="498.99" cy="-20.51" rx="32.06" ry="18"/>
<text xml:space="preserve" text-anchor="middle" x="498.99" y="-16.26" font-family="Helvetica,sans-Serif" font-size="10.00" fill="#ffffff">dyno_lab</text>
</g>
<!-- dyno_lab_base -->
<g id="node2" class="node">
<title>dyno_lab_base</title><style>.edge>path:hover{stroke-width:8}</style>
<ellipse fill="#c24747" stroke="black" cx="550.99" cy="-97.52" rx="46.04" ry="18"/>
<text xml:space="preserve" text-anchor="middle" x="550.99" y="-93.27" font-family="Helvetica,sans-Serif" font-size="10.00" fill="#ffffff">dyno_lab.base</text>
</g>
<!-- dyno_lab_base&#45;&gt;dyno_lab -->
<g id="edge1" class="edge">
<title>dyno_lab_base&#45;&gt;dyno_lab</title><style>.edge>path:hover{stroke-width:8}</style>
<path fill="none" stroke="black" d="M539.44,-79.87C532.8,-70.29 524.31,-58.04 516.83,-47.24"/>
<polygon fill="#c24747" stroke="black" points="519.75,-45.32 511.18,-39.09 514,-49.31 519.75,-45.32"/>
</g>
<!-- dyno_lab_cli -->
<g id="node3" class="node">
<title>dyno_lab_cli</title><style>.edge>path:hover{stroke-width:8}</style>
<ellipse fill="#ce3b3b" stroke="black" cx="446.99" cy="-97.52" rx="39.49" ry="18"/>
<text xml:space="preserve" text-anchor="middle" x="446.99" y="-93.27" font-family="Helvetica,sans-Serif" font-size="10.00" fill="#ffffff">dyno_lab.cli</text>
</g>
<!-- dyno_lab_cli&#45;&gt;dyno_lab -->
<g id="edge2" class="edge">
<title>dyno_lab_cli&#45;&gt;dyno_lab</title><style>.edge>path:hover{stroke-width:8}</style>
<path fill="none" stroke="black" d="M458.53,-79.87C465.17,-70.29 473.66,-58.04 481.15,-47.24"/>
<polygon fill="#ce3b3b" stroke="black" points="483.97,-49.31 486.79,-39.09 478.22,-45.32 483.97,-49.31"/>
</g>
<!-- dyno_lab_fixtures -->
<g id="node5" class="node">
<title>dyno_lab_fixtures</title><style>.edge>path:hover{stroke-width:8}</style>
<ellipse fill="#8f3d3d" stroke="black" cx="240.99" cy="-20.51" rx="41.01" ry="20.51"/>
<text xml:space="preserve" text-anchor="middle" x="240.99" y="-21.51" font-family="Helvetica,sans-Serif" font-size="10.00" fill="#ffffff">dyno_lab.</text>
<text xml:space="preserve" text-anchor="middle" x="240.99" y="-11.01" font-family="Helvetica,sans-Serif" font-size="10.00" fill="#ffffff">fixtures</text>
</g>
<!-- dyno_lab_cli&#45;&gt;dyno_lab_fixtures -->
<g id="edge3" class="edge">
<title>dyno_lab_cli&#45;&gt;dyno_lab_fixtures</title><style>.edge>path:hover{stroke-width:8}</style>
<path fill="none" stroke="black" d="M418.39,-84.64C412.03,-82.06 405.29,-79.4 398.99,-77.01 360.8,-62.56 316.96,-47.26 285.16,-36.39"/>
<polygon fill="#ce3b3b" stroke="black" points="286.47,-33.14 275.88,-33.23 284.21,-39.76 286.47,-33.14"/>
</g>
<!-- dyno_lab_env -->
<g id="node4" class="node">
<title>dyno_lab_env</title><style>.edge>path:hover{stroke-width:8}</style>
<ellipse fill="#ce3b3b" stroke="black" cx="42.99" cy="-97.52" rx="42.99" ry="18"/>
<text xml:space="preserve" text-anchor="middle" x="42.99" y="-93.27" font-family="Helvetica,sans-Serif" font-size="10.00" fill="#ffffff">dyno_lab.env</text>
</g>
<!-- dyno_lab_env&#45;&gt;dyno_lab -->
<g id="edge4" class="edge">
<title>dyno_lab_env&#45;&gt;dyno_lab</title><style>.edge>path:hover{stroke-width:8}</style>
<path fill="none" stroke="black" d="M72.59,-84.12C79.82,-81.45 87.6,-78.88 94.99,-77.01 223.98,-44.39 381.32,-29.75 455.86,-24.27"/>
<polygon fill="#ce3b3b" stroke="black" points="455.86,-27.78 465.59,-23.58 455.36,-20.8 455.86,-27.78"/>
</g>
<!-- dyno_lab_env&#45;&gt;dyno_lab_fixtures -->
<g id="edge5" class="edge">
<title>dyno_lab_env&#45;&gt;dyno_lab_fixtures</title><style>.edge>path:hover{stroke-width:8}</style>
<path fill="none" stroke="black" d="M73.92,-84.8C107.38,-72.12 160.95,-51.83 198.38,-37.65"/>
<polygon fill="#ce3b3b" stroke="black" points="199.43,-40.99 207.54,-34.18 196.95,-34.45 199.43,-40.99"/>
</g>
<!-- dyno_lab_fs -->
<g id="node6" class="node">
<title>dyno_lab_fs</title><style>.edge>path:hover{stroke-width:8}</style>
<ellipse fill="#ce3b3b" stroke="black" cx="142.99" cy="-97.52" rx="38.61" ry="18"/>
<text xml:space="preserve" text-anchor="middle" x="142.99" y="-93.27" font-family="Helvetica,sans-Serif" font-size="10.00" fill="#ffffff">dyno_lab.fs</text>
</g>
<!-- dyno_lab_fs&#45;&gt;dyno_lab -->
<g id="edge6" class="edge">
<title>dyno_lab_fs&#45;&gt;dyno_lab</title><style>.edge>path:hover{stroke-width:8}</style>
<path fill="none" stroke="black" d="M170.05,-84.38C176.79,-81.67 184.07,-79.02 190.99,-77.01 283.7,-50.14 396.06,-33.83 456.15,-26.37"/>
<polygon fill="#ce3b3b" stroke="black" points="456.45,-29.86 465.95,-25.18 455.6,-22.91 456.45,-29.86"/>
</g>
<!-- dyno_lab_fs&#45;&gt;dyno_lab_fixtures -->
<g id="edge7" class="edge">
<title>dyno_lab_fs&#45;&gt;dyno_lab_fixtures</title><style>.edge>path:hover{stroke-width:8}</style>
<path fill="none" stroke="black" d="M162.35,-81.7C176.06,-71.2 194.72,-56.92 210.43,-44.89"/>
<polygon fill="#ce3b3b" stroke="black" points="212.26,-47.9 218.07,-39.04 208.01,-42.34 212.26,-47.9"/>
</g>
<!-- dyno_lab_http -->
<g id="node7" class="node">
<title>dyno_lab_http</title><style>.edge>path:hover{stroke-width:8}</style>
<ellipse fill="#c24747" stroke="black" cx="657.99" cy="-97.52" rx="43.42" ry="18"/>
<text xml:space="preserve" text-anchor="middle" x="657.99" y="-93.27" font-family="Helvetica,sans-Serif" font-size="10.00" fill="#ffffff">dyno_lab.http</text>
</g>
<!-- dyno_lab_http&#45;&gt;dyno_lab -->
<g id="edge8" class="edge">
<title>dyno_lab_http&#45;&gt;dyno_lab</title><style>.edge>path:hover{stroke-width:8}</style>
<path fill="none" stroke="black" d="M630.29,-83.45C603.27,-70.7 562.1,-51.28 533.08,-37.59"/>
<polygon fill="#c24747" stroke="black" points="534.89,-34.58 524.36,-33.48 531.91,-40.91 534.89,-34.58"/>
</g>
<!-- dyno_lab_markers -->
<g id="node8" class="node">
<title>dyno_lab_markers</title><style>.edge>path:hover{stroke-width:8}</style>
<ellipse fill="#ce3b3b" stroke="black" cx="240.99" cy="-97.52" rx="41.01" ry="20.51"/>
<text xml:space="preserve" text-anchor="middle" x="240.99" y="-98.52" font-family="Helvetica,sans-Serif" font-size="10.00" fill="#ffffff">dyno_lab.</text>
<text xml:space="preserve" text-anchor="middle" x="240.99" y="-88.02" font-family="Helvetica,sans-Serif" font-size="10.00" fill="#ffffff">markers</text>
</g>
<!-- dyno_lab_markers&#45;&gt;dyno_lab -->
<g id="edge9" class="edge">
<title>dyno_lab_markers&#45;&gt;dyno_lab</title><style>.edge>path:hover{stroke-width:8}</style>
<path fill="none" stroke="black" d="M272,-83.8C278.24,-81.42 284.79,-79.04 290.99,-77.01 348.45,-58.2 416.36,-41 458.56,-30.88"/>
<polygon fill="#ce3b3b" stroke="black" points="459.36,-34.29 468.28,-28.57 457.74,-27.48 459.36,-34.29"/>
</g>
<!-- dyno_lab_markers&#45;&gt;dyno_lab_fixtures -->
<g id="edge10" class="edge">
<title>dyno_lab_markers&#45;&gt;dyno_lab_fixtures</title><style>.edge>path:hover{stroke-width:8}</style>
<path fill="none" stroke="black" d="M240.99,-76.81C240.99,-69.46 240.99,-60.92 240.99,-52.79"/>
<polygon fill="#ce3b3b" stroke="black" points="244.49,-52.86 240.99,-42.86 237.49,-52.86 244.49,-52.86"/>
</g>
<!-- dyno_lab_module -->
<g id="node9" class="node">
<title>dyno_lab_module</title><style>.edge>path:hover{stroke-width:8}</style>
<ellipse fill="#c24747" stroke="black" cx="759.99" cy="-97.52" rx="41.01" ry="20.51"/>
<text xml:space="preserve" text-anchor="middle" x="759.99" y="-98.52" font-family="Helvetica,sans-Serif" font-size="10.00" fill="#ffffff">dyno_lab.</text>
<text xml:space="preserve" text-anchor="middle" x="759.99" y="-88.02" font-family="Helvetica,sans-Serif" font-size="10.00" fill="#ffffff">module</text>
</g>
<!-- dyno_lab_module&#45;&gt;dyno_lab -->
<g id="edge11" class="edge">
<title>dyno_lab_module&#45;&gt;dyno_lab</title><style>.edge>path:hover{stroke-width:8}</style>
<path fill="none" stroke="black" d="M728.98,-83.79C722.74,-81.4 716.19,-79.03 709.99,-77.01 651.42,-57.95 582.13,-40.71 539.37,-30.67"/>
<polygon fill="#c24747" stroke="black" points="540.31,-27.3 529.78,-28.44 538.72,-34.11 540.31,-27.3"/>
</g>
<!-- dyno_lab_proc -->
<g id="node10" class="node">
<title>dyno_lab_proc</title><style>.edge>path:hover{stroke-width:8}</style>
<ellipse fill="#ce3b3b" stroke="black" cx="344.99" cy="-97.52" rx="44.73" ry="18"/>
<text xml:space="preserve" text-anchor="middle" x="344.99" y="-93.27" font-family="Helvetica,sans-Serif" font-size="10.00" fill="#ffffff">dyno_lab.proc</text>
</g>
<!-- dyno_lab_proc&#45;&gt;dyno_lab -->
<g id="edge12" class="edge">
<title>dyno_lab_proc&#45;&gt;dyno_lab</title><style>.edge>path:hover{stroke-width:8}</style>
<path fill="none" stroke="black" d="M372.52,-83.11C398.45,-70.48 437.36,-51.53 465.16,-37.98"/>
<polygon fill="#ce3b3b" stroke="black" points="466.41,-41.27 473.87,-33.74 463.34,-34.97 466.41,-41.27"/>
</g>
<!-- dyno_lab_proc&#45;&gt;dyno_lab_fixtures -->
<g id="edge13" class="edge">
<title>dyno_lab_proc&#45;&gt;dyno_lab_fixtures</title><style>.edge>path:hover{stroke-width:8}</style>
<path fill="none" stroke="black" d="M323.94,-81.34C309.35,-70.82 289.66,-56.61 273.12,-44.68"/>
<polygon fill="#ce3b3b" stroke="black" points="275.19,-41.86 265.03,-38.85 271.09,-47.54 275.19,-41.86"/>
</g>
<!-- dyno_lab_schema -->
<g id="node11" class="node">
<title>dyno_lab_schema</title><style>.edge>path:hover{stroke-width:8}</style>
<ellipse fill="#c24747" stroke="black" cx="859.99" cy="-97.52" rx="41.01" ry="20.51"/>
<text xml:space="preserve" text-anchor="middle" x="859.99" y="-98.52" font-family="Helvetica,sans-Serif" font-size="10.00" fill="#ffffff">dyno_lab.</text>
<text xml:space="preserve" text-anchor="middle" x="859.99" y="-88.02" font-family="Helvetica,sans-Serif" font-size="10.00" fill="#ffffff">schema</text>
</g>
<!-- dyno_lab_schema&#45;&gt;dyno_lab -->
<g id="edge14" class="edge">
<title>dyno_lab_schema&#45;&gt;dyno_lab</title><style>.edge>path:hover{stroke-width:8}</style>
<path fill="none" stroke="black" d="M829.37,-83.49C823.04,-81.1 816.35,-78.8 809.99,-77.01 715.94,-50.55 602.2,-34.04 541.71,-26.44"/>
<polygon fill="#c24747" stroke="black" points="542.19,-22.98 531.84,-25.23 541.34,-29.93 542.19,-22.98"/>
</g>
<!-- dyno_lab_smoke -->
<g id="node12" class="node">
<title>dyno_lab_smoke</title><style>.edge>path:hover{stroke-width:8}</style>
<ellipse fill="#c24747" stroke="black" cx="968.99" cy="-97.52" rx="50.42" ry="18"/>
<text xml:space="preserve" text-anchor="middle" x="968.99" y="-93.27" font-family="Helvetica,sans-Serif" font-size="10.00" fill="#ffffff">dyno_lab.smoke</text>
</g>
<!-- dyno_lab_smoke&#45;&gt;dyno_lab -->
<g id="edge15" class="edge">
<title>dyno_lab_smoke&#45;&gt;dyno_lab</title><style>.edge>path:hover{stroke-width:8}</style>
<path fill="none" stroke="black" d="M934.66,-83.98C926.64,-81.39 918.08,-78.88 909.99,-77.01 777.79,-46.51 617.55,-30.84 542.15,-24.69"/>
<polygon fill="#c24747" stroke="black" points="542.55,-21.21 532.31,-23.91 542,-28.19 542.55,-21.21"/>
</g>
</g>
</svg>
