<?xml version="1.0" encoding="UTF-8"?>
<!DOCTYPE svg PUBLIC "-//W3C//DTD SVG 1.1//EN" "http://www.w3.org/Graphics/SVG/1.1/DTD/svg11.dtd">
<svg xmlns="http://www.w3.org/2000/svg" xmlns:xlink="http://www.w3.org/1999/xlink" version="1.1" width="904px" height="715px" viewBox="-0.5 -0.5 904 715"><defs/><g><g data-cell-id="0"><g data-cell-id="1"><g data-cell-id="title"><g><rect x="0" y="30" width="860" height="34" fill="none" stroke="none" pointer-events="all"/></g><g><g transform="translate(-0.5 -0.5)"><switch><foreignObject pointer-events="none" width="100%" height="100%" requiredFeatures="http://www.w3.org/TR/SVG11/feature#Extensibility" style="overflow: visible; text-align: left;"><div xmlns="http://www.w3.org/1999/xhtml" style="display: flex; align-items: unsafe center; justify-content: unsafe center; width: 858px; height: 1px; padding-top: 47px; margin-left: 1px;"><div data-drawio-colors="color: rgb(0, 0, 0); " style="box-sizing: border-box; font-size: 0px; text-align: center; max-height: 30px; overflow: hidden;"><div style="display: inline-block; font-size: 20px; font-family: Helvetica; color: rgb(0, 0, 0); line-height: 1.2; pointer-events: all; font-weight: bold; white-space: normal; overflow-wrap: normal;">dyno-lab Architecture</div></div></div></foreignObject><text x="430" y="53" fill="rgb(0, 0, 0)" font-family="&quot;Helvetica&quot;" font-size="20px" text-anchor="middle" font-weight="bold">dyno-lab Architecture</text></switch></g></g></g><g data-cell-id="publicapi"><g><rect x="295" y="78" width="270" height="52" rx="7.8" ry="7.8" fill="#fff2cc" stroke="#d6b656" pointer-events="all"/></g><g><g transform="translate(-0.5 -0.5)"><switch><foreignObject pointer-events="none" width="100%" height="100%" requiredFeatures="http://www.w3.org/TR/SVG11/feature#Extensibility" style="overflow: visible; text-align: left;"><div xmlns="http://www.w3.org/1999/xhtml" style="display: flex; align-items: unsafe center; justify-content: unsafe center; width: 268px; height: 1px; padding-top: 104px; margin-left: 296px;"><div data-drawio-colors="color: rgb(0, 0, 0); " style="box-sizing: border-box; font-size: 0px; text-align: center; max-height: 48px; overflow: hidden;"><div style="display: inline-block; font-size: 13px; font-family: Helvetica; color: rgb(0, 0, 0); line-height: 1.2; pointer-events: all; font-weight: bold; white-space: normal; overflow-wrap: normal;">dyno_lab.__init__<br />public API — re-exports all modules</div></div></div></foreignObject><text x="430" y="108" fill="rgb(0, 0, 0)" font-family="&quot;Helvetica&quot;" font-size="13px" text-anchor="middle" font-weight="bold">dyno_lab.__init__...</text></switch></g></g></g><g data-cell-id="core_swim"><g><path d="M 0 252 L 0 226 L 860 226 L 860 252" fill="#f5f5f5" stroke="#666666" stroke-miterlimit="10" pointer-events="all"/><path d="M 0 252 L 0 436 L 860 436 L 860 252" fill="none" stroke="#666666" stroke-miterlimit="10" pointer-events="none"/><path d="M 0 252 L 860 252" fill="none" stroke="#666666" stroke-miterlimit="10" pointer-events="none"/></g><g><g transform="translate(-0.5 -0.5)"><switch><foreignObject pointer-events="none" width="100%" height="100%" requiredFeatures="http://www.w3.org/TR/SVG11/feature#Extensibility" style="overflow: visible; text-align: left;"><div xmlns="http://www.w3.org/1999/xhtml" style="display: flex; align-items: unsafe center; justify-content: unsafe center; width: 858px; height: 1px; padding-top: 239px; margin-left: 1px;"><div data-drawio-colors="color: #333333; " style="box-sizing: border-box; font-size: 0px; text-align: center; max-height: 22px; overflow: hidden;"><div style="display: inline-block; font-size: 14px; font-family: Helvetica; color: rgb(51, 51, 51); line-height: 1.2; pointer-events: all; font-weight: bold; white-space: normal; overflow-wrap: normal;">Core Utilities</div></div></div></foreignObject><text x="430" y="243" fill="#333333" font-family="&quot;Helvetica&quot;" font-size="14px" text-anchor="middle" font-weight="bold">Core Utilities</text></switch></g></g><g data-cell-id="base"><g><rect x="20" y="262" width="156" height="70" rx="10.5" ry="10.5" fill="#d5e8d4" stroke="#82b366" pointer-events="all"/></g><g><g transform="translate(-0.5 -0.5)"><switch><foreignObject pointer-events="none" width="100%" height="100%" requiredFeatures="http://www.w3.org/TR/SVG11/feature#Extensibility" style="overflow: visible; text-align: left;"><div xmlns="http://www.w3.org/1999/xhtml" style="display: flex; align-items: unsafe center; justify-content: unsafe center; width: 154px; height: 1px; padding-top: 297px; margin-left: 21px;"><div data-drawio-colors="color: rgb(0, 0, 0); " style="box-sizing: border-box; font-size: 0px; text-align: center; max-height: 66px; overflow: hidden;"><div style="display: inline-block; font-size: 12px; font-family: Helvetica; color: rgb(0, 0, 0); line-height: 1.2; pointer-events: all; white-space: normal; overflow-wrap: normal;">base<br />DynoTestCase</div></div></div></foreignObject><text x="98" y="301" fill="rgb(0, 0, 0)" font-family="&quot;Helvetica&quot;" font-size="12px" text-anchor="middle">base...</text></switch></g></g></g><g data-cell-id="proc"><g><rect x="186" y="262" width="156" height="70" rx="10.5" ry="10.5" fill="#d5e8d4" stroke="#82b366" pointer-events="all"/></g><g><g transform="translate(-0.5 -0.5)"><switch><foreignObject pointer-events="none" width="100%" height="100%" requiredFeatures="http://www.w3.org/TR/SVG11/feature#Extensibility" style="overflow: visible; text-align: left;"><div xmlns="http://www.w3.org/1999/xhtml" style="display: flex; align-items: unsafe center; justify-content: unsafe center; width: 154px; height: 1px; padding-top: 297px; margin-left: 187px;"><div data-drawio-colors="color: rgb(0, 0, 0); " style="box-sizing: border-box; font-size: 0px; text-align: center; max-height: 66px; overflow: hidden;"><div style="display: inline-block; font-size: 12px; font-family: Helvetica; color: rgb(0, 0, 0); line-height: 1.2; pointer-events: all; white-space: normal; overflow-wrap: normal;">proc<br />ProcessRecorder<br />SubprocessPatch</div></div></div></foreignObject><text x="264" y="301" fill="rgb(0, 0, 0)" font-family="&quot;Helvetica&quot;" font-size="12px" text-anchor="middle">proc...</text></switch></g></g></g><g data-cell-id="env"><g><rect x="352" y="262" width="156" height="70" rx="10.5" ry="10.5" fill="#d5e8d4" stroke="#82b366" pointer-events="all"/></g><g><g transform="translate(-0.5 -0.5)"><switch><foreignObject pointer-events="none" width="100%" height="100%" requiredFeatures="http://www.w3.org/TR/SVG11/feature#Extensibility" style="overflow: visible; text-align: left;"><div xmlns="http://www.w3.org/1999/xhtml" style="display: flex; align-items: unsafe center; justify-content: unsafe center; width: 154px; height: 1px; padding-top: 297px; margin-left: 353px;"><div data-drawio-colors="color: rgb(0, 0, 0); " style="box-sizing: border-box; font-size: 0px; text-align: center; max-height: 66px; overflow: hidden;"><div style="display: inline-block; font-size: 12px; font-family: Helvetica; color: rgb(0, 0, 0); line-height: 1.2; pointer-events: all; white-space: normal; overflow-wrap: normal;">env<br />EnvPatch · patched_env<br />env_defaults</div></div></div></foreignObject><text x="430" y="301" fill="rgb(0, 0, 0)" font-family="&quot;Helvetica&quot;" font-size="12px" text-anchor="middle">env...</text></switch></g></g></g><g data-cell-id="fs"><g><rect x="518" y="262" width="156" height="70" rx="10.5" ry="10.5" fill="#d5e8d4" stroke="#82b366" pointer-events="all"/></g><g><g transform="translate(-0.5 -0.5)"><switch><foreignObject pointer-events="none" width="100%" height="100%" requiredFeatures="http://www.w3.org/TR/SVG11/feature#Extensibility" style="overflow: visible; text-align: left;"><div xmlns="http://www.w3.org/1999/xhtml" style="display: flex; align-items: unsafe center; justify-content: unsafe center; width: 154px; height: 1px; padding-top: 297px; margin-left: 519px;"><div data-drawio-colors="color: rgb(0, 0, 0); " style="box-sizing: border-box; font-size: 0px; text-align: center; max-height: 66px; overflow: hidden;"><div style="display: inline-block; font-size: 12px; font-family: Helvetica; color: rgb(0, 0, 0); line-height: 1.2; pointer-events: all; white-space: normal; overflow-wrap: normal;">fs<br />TempWorkdir<br />make_tree</div></div></div></foreignObject><text x="596" y="301" fill="rgb(0, 0, 0)" font-family="&quot;Helvetica&quot;" font-size="12px" text-anchor="middle">fs...</text></switch></g></g></g><g data-cell-id="cli"><g><rect x="684" y="262" width="156" height="70" rx="10.5" ry="10.5" fill="#d5e8d4" stroke="#82b366" pointer-events="all"/></g><g><g transform="translate(-0.5 -0.5)"><switch><foreignObject pointer-events="none" width="100%" height="100%" requiredFeatures="http://www.w3.org/TR/SVG11/feature#Extensibility" style="overflow: visible; text-align: left;"><div xmlns="http://www.w3.org/1999/xhtml" style="display: flex; align-items: unsafe center; justify-content: unsafe center; width: 154px; height: 1px; padding-top: 297px; margin-left: 685px;"><div data-drawio-colors="color: rgb(0, 0, 0); " style="box-sizing: border-box; font-size: 0px; text-align: center; max-height: 66px; overflow: hidden;"><div style="display: inline-block; font-size: 12px; font-family: Helvetica; color: rgb(0, 0, 0); line-height: 1.2; pointer-events: all; white-space: normal; overflow-wrap: normal;">cli<br />capture_cli · CliResult<br />CLITestMixin</div></div></div></foreignObject><text x="762" y="301" fill="rgb(0, 0, 0)" font-family="&quot;Helvetica&quot;" font-size="12px" text-anchor="middle">cli...</text></switch></g></g></g><g data-cell-id="http"><g><rect x="15" y="482" width="195" height="74" rx="11.1" ry="11.1" fill="#d5e8d4" stroke="#82b366" pointer-events="all"/></g><g><g transform="translate(-0.5 -0.5)"><switch><foreignObject pointer-events="none" width="100%" height="100%" requiredFeatures="http://www.w3.org/TR/SVG11/feature#Extensibility" style="overflow: visible; text-align: left;"><div xmlns="http://www.w3.org/1999/xhtml" style="display: flex; align-items: unsafe center; justify-content: unsafe center; width: 193px; height: 1px; padding-top: 519px; margin-left: 16px;"><div data-drawio-colors="color: rgb(0, 0, 0); " style="box-sizing: border-box; font-size: 0px; text-align: center; max-height: 70px; overflow: hidden;"><div style="display: inline-block; font-size: 12px; font-family: Helvetica; color: rgb(0, 0, 0); line-height: 1.2; pointer-events: all; white-space: normal; overflow-wrap: normal;">http<br />SequenceSession<br />StaticSession · RaisingSession</div></div></div></foreignObject><text x="113" y="523" fill="rgb(0, 0, 0)" font-family="&quot;Helvetica&quot;" font-size="12px" text-anchor="middle">http...</text></switch></g></g></g><g data-cell-id="schema"><g><rect x="220" y="482" width="195" height="74" rx="11.1" ry="11.1" fill="#d5e8d4" stroke="#82b366" pointer-events="all"/></g><g><g transform="translate(-0.5 -0.5)"><switch><foreignObject pointer-events="none" width="100%" height="100%" requiredFeatures="http://www.w3.org/TR/SVG11/feature#Extensibility" style="overflow: visible; text-align: left;"><div xmlns="http://www.w3.org/1999/xhtml" style="display: flex; align-items: unsafe center; justify-content: unsafe center; width: 193px; height: 1px; padding-top: 519px; margin-left: 221px;"><div data-drawio-colors="color: rgb(0, 0, 0); " style="box-sizing: border-box; font-size: 0px; text-align: center; max-height: 70px; overflow: hidden;"><div style="display: inline-block; font-size: 12px; font-family: Helvetica; color: rgb(0, 0, 0); line-height: 1.2; pointer-events: all; white-space: normal; overflow-wrap: normal;">schema<br />assert_parity<br />assert_row_width · assert_schema_keys</div></div></div></foreignObject><text x="318" y="523" fill="rgb(0, 0, 0)" font-family="&quot;Helvetica&quot;" font-size="12px" text-anchor="middle">schema...</text></switch></g></g></g><g data-cell-id="modloader"><g><rect x="425" y="400" width="195" height="74" rx="11.1" ry="11.1" fill="#d5e8d4" stroke="#82b366" pointer-events="all"/></g><g><g transform="translate(-0.5 -0.5)"><switch><foreignObject pointer-events="none" width="100%" height="100%" requiredFeatures="http://www.w3.org/TR/SVG11/feature#Extensibility" style="overflow: visible; text-align: left;"><div xmlns="http://www.w3.org/1999/xhtml" style="display: flex; align-items: unsafe center; justify-content: unsafe center; width: 193px; height: 1px; padding-top: 437px; margin-left: 426px;"><div data-drawio-colors="color: rgb(0, 0, 0); " style="box-sizing: border-box; font-size: 0px; text-align: center; max-height: 70px; overflow: hidden;"><div style="display: inline-block; font-size: 12px; font-family: Helvetica; color: rgb(0, 0, 0); line-height: 1.2; pointer-events: all; white-space: normal; overflow-wrap: normal;">module<br />load_module_by_path</div></div></div></foreignObject><text x="523" y="441" fill="rgb(0, 0, 0)" font-family="&quot;Helvetica&quot;" font-size="12px" text-anchor="middle">module...</text></switch></g></g></g><g data-cell-id="smoke"><g><rect x="630" y="400" width="215" height="74" rx="11.1" ry="11.1" fill="#d5e8d4" stroke="#82b366" pointer-events="all"/></g><g><g transform="translate(-0.5 -0.5)"><switch><foreignObject pointer-events="none" width="100%" height="100%" requiredFeatures="http://www.w3.org/TR/SVG11/feature#Extensibility" style="overflow: visible; text-align: left;"><div xmlns="http://www.w3.org/1999/xhtml" style="display: flex; align-items: unsafe center; justify-content: unsafe center; width: 213px; height: 1px; padding-top: 437px; margin-left: 631px;"><div data-drawio-colors="color: rgb(0, 0, 0); " style="box-sizing: border-box; font-size: 0px; text-align: center; max-height: 70px; overflow: hidden;"><div style="display: inline-block; font-size: 12px; font-family: Helvetica; color: rgb(0, 0, 0); line-height: 1.2; pointer-events: all; white-space: normal; overflow-wrap: normal;">smoke<br />SmokeTest · SmokeRunner<br />SmokeResult · SmokeSummary</div></div></div></foreignObject><text x="738" y="441" fill="rgb(0, 0, 0)" font-family="&quot;Helvetica&quot;" font-size="12px" text-anchor="middle">smoke...</text></switch></g></g></g></g><g data-cell-id="pytest_swim"><g><path d="M 0 476 L 0 450 L 860 450 L 860 476" fill="#fff3e0" stroke="#e6821e" stroke-miterlimit="10" pointer-events="all"/><path d="M 0 476 L 0 558 L 860 558 L 860 476" fill="none" stroke="#e6821e" stroke-miterlimit="10" pointer-events="none"/><path d="M 0 476 L 860 476" fill="none" stroke="#e6821e" stroke-miterlimit="10" pointer-events="none"/></g><g><g transform="translate(-0.5 -0.5)"><switch><foreignObject pointer-events="none" width="100%" height="100%" requiredFeatures="http://www.w3.org/TR/SVG11/feature#Extensibility" style="overflow: visible; text-align: left;"><div xmlns="http://www.w3.org/1999/xhtml" style="display: flex; align-items: unsafe center; justify-content: unsafe center; width: 858px; height: 1px; padding-top: 463px; margin-left: 1px;"><div data-drawio-colors="color: #333333; " style="box-sizing: border-box; font-size: 0px; text-align: center; max-height: 22px; overflow: hidden;"><div style="display: inline-block; font-size: 14px; font-family: Helvetica; color: rgb(51, 51, 51); line-height: 1.2; pointer-events: all; font-weight: bold; white-space: normal; overflow-wrap: normal;">Pytest Integration</div></div></div></foreignObject><text x="430" y="467" fill="#333333" font-family="&quot;Helvetica&quot;" font-size="14px" text-anchor="middle" font-weight="bold">Pytest Integration</text></switch></g></g><g data-cell-id="markers"><g><rect x="15" y="482" width="405" height="146" rx="21.9" ry="21.9" fill="#ffe6cc" stroke="#d79b00" pointer-events="all"/></g><g><g transform="translate(-0.5 -0.5)"><switch><foreignObject pointer-events="none" width="100%" height="100%" requiredFeatures="http://www.w3.org/TR/SVG11/feature#Extensibility" style="overflow: visible; text-align: left;"><div xmlns="http://www.w3.org/1999/xhtml" style="display: flex; align-items: unsafe center; justify-content: unsafe center; width: 403px; height: 1px; padding-top: 555px; margin-left: 16px;"><div data-drawio-colors="color: rgb(0, 0, 0); " style="box-sizing: border-box; font-size: 0px; text-align: center; max-height: 142px; overflow: hidden;"><div style="display: inline-block; font-size: 12px; font-family: Helvetica; color: rgb(0, 0, 0); line-height: 1.2; pointer-events: all; white-space: normal; overflow-wrap: normal;">markers<br />MARKERS · register_markers<br />unit · integration · smoke · parity · slow · external</div></div></div></foreignObject><text x="218" y="559" fill="rgb(0, 0, 0)" font-family="&quot;Helvetica&quot;" font-size="12px" text-anchor="middle">markers...</text></switch></g></g></g><g data-cell-id="fixtures"><g><rect x="430" y="482" width="415" height="64" rx="9.6" ry="9.6" fill="#ffe6cc" stroke="#d79b00" pointer-events="all"/></g><g><g transform="translate(-0.5 -0.5)"><switch><foreignObject pointer-events="none" width="100%" height="100%" requiredFeatures="http://www.w3.org/TR/SVG11/feature#Extensibility" style="overflow: visible; text-align: left;"><div xmlns="http://www.w3.org/1999/xhtml" style="display: flex; align-items: unsafe center; justify-content: unsafe center; width: 413px; height: 1px; padding-top: 514px; margin-left: 431px;"><div data-drawio-colors="color: rgb(0, 0, 0); " style="box-sizing: border-box; font-size: 0px; text-align: center; max-height: 60px; overflow: hidden;"><div style="display: inline-block; font-size: 12px; font-family: Helvetica; color: rgb(0, 0, 0); line-height: 1.2; pointer-events: all; white-space: normal; overflow-wrap: normal;">fixtures<br />dyno_tmp · dyno_env · dyno_proc · dyno_cli<br />pytest_plugins = ["dyno_lab.fixtures"]</div></div></div></foreignObject><text x="638" y="518" fill="rgb(0, 0, 0)" font-family="&quot;Helvetica&quot;" font-size="12px" text-anchor="middle">fixtures...</text></switch></g></g></g></g><g data-cell-id="tests_swim"><g><path d="M 0 598 L 0 572 L 420 572 L 420 598" fill="#f8cecc" stroke="#b85450" stroke-miterlimit="10" pointer-events="all"/><path d="M 0 598 L 0 668 L 420 668 L 420 598" fill="none" stroke="#b85450" stroke-miterlimit="10" pointer-events="none"/><path d="M 0 598 L 420 598" fill="none" stroke="#b85450" stroke-miterlimit="10" pointer-events="none"/></g><g><g transform="translate(-0.5 -0.5)"><switch><foreignObject pointer-events="none" width="100%" height="100%" requiredFeatures="http://www.w3.org/TR/SVG11/feature#Extensibility" style="overflow: visible; text-align: left;"><div xmlns="http://www.w3.org/1999/xhtml" style="display: flex; align-items: unsafe center; justify-content: unsafe center; width: 418px; height: 1px; padding-top: 585px; margin-left: 1px;"><div data-drawio-colors="color: #333333; " style="box-sizing: border-box; font-size: 0px; text-align: center; max-height: 22px; overflow: hidden;"><div style="display: inline-block; font-size: 14px; font-family: Helvetica; color: rgb(51, 51, 51); line-height: 1.2; pointer-events: all; font-weight: bold; white-space: normal; overflow-wrap: normal;">tests/</div></div></div></foreignObject><text x="210" y="589" fill="#333333" font-family="&quot;Helvetica&quot;" font-size="14px" text-anchor="middle" font-weight="bold">tests/</text></switch></g></g><g data-cell-id="tests"><g><rect x="10" y="654" width="395" height="56" fill="none" stroke="none" pointer-events="all"/></g><g><g transform="translate(-0.5 -0.5)"><switch><foreignObject pointer-events="none" width="100%" height="100%" requiredFeatures="http://www.w3.org/TR/SVG11/feature#Extensibility" style="overflow: visible; text-align: left;"><div xmlns="http://www.w3.org/1999/xhtml" style="display: flex; align-items: unsafe flex-start; justify-content: unsafe flex-start; width: 393px; height: 1px; padding-top: 661px; margin-left: 12px;"><div data-drawio-colors="color: rgb(0, 0, 0); " style="box-sizing: border-box; font-size: 0px; text-align: left; max-height: 52px; overflow: hidden;"><div style="display: inline-block; font-size: 11px; font-family: Helvetica; color: rgb(0, 0, 0); line-height: 1.2; pointer-events: all; white-space: normal; overflow-wrap: normal;">test_base · test_proc · test_env · test_fs · test_cli<br />test_http · test_schema · test_module · test_smoke<br />109 tests — unittest + pytest</div></div></div></foreignObject><text x="12" y="672" fill="rgb(0, 0, 0)" font-family="&quot;Helvetica&quot;" font-size="11px">test_base · test_proc · test_env · test_fs · test_cli...</text></switch></g></g></g></g><g data-cell-id="consumers"><g><rect x="430" y="490" width="430" height="96" rx="14.4" ry="14.4" fill="#e1d5e7" stroke="#9673a6" pointer-events="all"/></g><g><g transform="translate(-0.5 -0.5)"><switch><foreignObject pointer-events="none" width="100%" height="100%" requiredFeatures="http://www.w3.org/TR/SVG11/feature#Extensibility" style="overflow: visible; text-align: left;"><div xmlns="http://www.w3.org/1999/xhtml" style="display: flex; align-items: unsafe center; justify-content: unsafe center; width: 428px; height: 1px; padding-top: 538px; margin-left: 431px;"><div data-drawio-colors="color: rgb(0, 0, 0); " style="box-sizing: border-box; font-size: 0px; text-align: center; max-height: 92px; overflow: hidden;"><div style="display: inline-block; font-size: 12px; font-family: Helvetica; color: rgb(0, 0, 0); line-height: 1.2; pointer-events: all; white-space: normal; overflow-wrap: normal;">Consumer Repos<br />pip install -e ./util-repos/dyno-lab<br />pytest_plugins = ["dyno_lab.fixtures"]</div></div></div></foreignObject><text x="645" y="542" fill="rgb(0, 0, 0)" font-family="&quot;Helvetica&quot;" font-size="12px" text-anchor="middle">Consumer Repos...</text></switch></g></g></g><g data-cell-id="e1"><g><path d="M 295 118 L 281 118 Q 271 118 271 128 L 271 180 Q 271 190 261 190 L 200 190 Q 190 190 190 180 L 190 101 Q 190 91 180 91 L 108 91 Q 98 91 98 101 L 98 255.63" fill="none" stroke="rgb(0, 0, 0)" stroke-miterlimit="10" pointer-events="stroke"/><path d="M 98 260.88 L 94.5 253.88 L 98 255.63 L 101.5 253.88 Z" fill="rgb(0, 0, 0)" stroke="rgb(0, 0, 0)" stroke-miterlimit="10" pointer-events="all"/></g></g><g data-cell-id="e2"><g><path d="M 430 130 L 430 186 Q 430 196 420 196 L 274 196 Q 264 196 264 206 L 264 255.63" fill="none" stroke="rgb(0, 0, 0)" stroke-miterlimit="10" pointer-events="stroke"/><path d="M 264 260.88 L 260.5 253.88 L 264 255.63 L 267.5 253.88 Z" fill="rgb(0, 0, 0)" stroke="rgb(0, 0, 0)" stroke-miterlimit="10" pointer-events="all"/></g></g><g data-cell-id="e3"><g><path d="M 430 130 L 430 255.63" fill="none" stroke="rgb(0, 0, 0)" stroke-miterlimit="10" pointer-events="stroke"/><path d="M 430 260.88 L 426.5 253.88 L 430 255.63 L 433.5 253.88 Z" fill="rgb(0, 0, 0)" stroke="rgb(0, 0, 0)" stroke-miterlimit="10" pointer-events="all"/></g></g><g data-cell-id="e4"><g><path d="M 430 130 L 430 186 Q 430 196 440 196 L 586 196 Q 596 196 596 206 L 596 255.63" fill="none" stroke="rgb(0, 0, 0)" stroke-miterlimit="10" pointer-events="stroke"/><path d="M 596 260.88 L 592.5 253.88 L 596 255.63 L 599.5 253.88 Z" fill="rgb(0, 0, 0)" stroke="rgb(0, 0, 0)" stroke-miterlimit="10" pointer-events="all"/></g></g><g data-cell-id="e5"><g><path d="M 565 104 L 579 104 Q 589 104 589 114 L 589 191 C 595.5 191 595.5 201 589 201 L 589 201 L 589 281 Q 589 291 599 291 L 640 291 Q 650 291 650 281 L 650 106 Q 650 96 660 96 L 752 96 Q 762 96 762 106 L 762 255.63" fill="none" stroke="rgb(0, 0, 0)" stroke-miterlimit="10" pointer-events="stroke"/><path d="M 762 260.88 L 758.5 253.88 L 762 255.63 L 765.5 253.88 Z" fill="rgb(0, 0, 0)" stroke="rgb(0, 0, 0)" stroke-miterlimit="10" pointer-events="all"/></g></g><g data-cell-id="e6"><g><path d="M 335 130 L 335 144 Q 335 154 345 154 L 425 154 C 425 147.5 435 147.5 435 154 L 435 154 L 584 154 C 584 147.5 594 147.5 594 154 L 594 154 L 645 154 C 645 147.5 655 147.5 655 154 L 655 154 L 757 154 C 757 147.5 767 147.5 767 154 L 767 154 L 857 154 Q 867 154 867 164 L 867 242 Q 867 252 857 252 L 767 252 C 767 245.5 757 245.5 757 252 L 757 252 L 655 252 C 655 245.5 645 245.5 645 252 L 645 252 L 601 252 C 601 245.5 591 245.5 591 252 L 591 252 L 594 252 C 594 245.5 584 245.5 584 252 L 584 252 L 435 252 C 435 245.5 425 245.5 425 252 L 425 252 L 269 252 C 269 245.5 259 245.5 259 252 L 259 252 L 112.5 252 Q 102.5 252 102.5 262 L 102.5 475.63" fill="none" stroke="rgb(0, 0, 0)" stroke-miterlimit="10" pointer-events="stroke"/><path d="M 102.5 480.88 L 99 473.88 L 102.5 475.63 L 106 473.88 Z" fill="rgb(0, 0, 0)" stroke="rgb(0, 0, 0)" stroke-miterlimit="10" pointer-events="all"/></g></g><g data-cell-id="e7"><g><path d="M 398.3 130 L 398.3 144 Q 398.3 154 408.3 154 L 425 154 C 425 147.5 435 147.5 435 154 L 435 154 L 584 154 C 584 147.5 594 147.5 594 154 L 594 154 L 645 154 C 645 147.5 655 147.5 655 154 L 655 154 L 757 154 C 757 147.5 767 147.5 767 154 L 767 154 L 884 154 Q 894 154 894 164 L 894 242 Q 894 252 884 252 L 767 252 C 767 245.5 757 245.5 757 252 L 757 252 L 655 252 C 655 245.5 645 245.5 645 252 L 645 252 L 601 252 C 601 245.5 591 245.5 591 252 L 591 252 L 594 252 C 594 245.5 584 245.5 584 252 L 584 252 L 435 252 C 435 245.5 425 245.5 425 252 L 425 252 L 317.5 252 Q 307.5 252 307.5 262 L 307.5 475.63" fill="none" stroke="rgb(0, 0, 0)" stroke-miterlimit="10" pointer-events="stroke"/><path d="M 307.5 480.88 L 304 473.88 L 307.5 475.63 L 311 473.88 Z" fill="rgb(0, 0, 0)" stroke="rgb(0, 0, 0)" stroke-miterlimit="10" pointer-events="all"/></g></g><g data-cell-id="e8"><g><path d="M 461.7 130 L 461.7 144 Q 461.7 154 471.7 154 L 502.5 154 Q 512.5 154 512.5 162 L 512.5 166 Q 512.5 170 517.5 170 L 520 170 Q 522.5 170 522.5 180 L 522.5 191 C 529 191 529 201 522.5 201 L 522.5 201 L 522.5 247 C 529 247 529 257 522.5 257 L 522.5 257 L 522.5 393.63" fill="none" stroke="rgb(0, 0, 0)" stroke-miterlimit="10" pointer-events="stroke"/><path d="M 522.5 398.88 L 519 391.88 L 522.5 393.63 L 526 391.88 Z" fill="rgb(0, 0, 0)" stroke="rgb(0, 0, 0)" stroke-miterlimit="10" pointer-events="all"/></g></g><g data-cell-id="e9"><g><path d="M 525 130 L 525 144 Q 525 154 535 154 L 584 154 C 584 147.5 594 147.5 594 154 L 594 154 L 645 154 C 645 147.5 655 147.5 655 154 L 655 154 L 717.5 154 Q 727.5 154 727.5 162 L 727.5 166 Q 727.5 170 732.5 170 L 735 170 Q 737.5 170 737.5 180 L 737.5 247 C 744 247 744 257 737.5 257 L 737.5 257 L 737.5 393.63" fill="none" stroke="rgb(0, 0, 0)" stroke-miterlimit="10" pointer-events="stroke"/><path d="M 737.5 398.88 L 734 391.88 L 737.5 393.63 L 741 391.88 Z" fill="rgb(0, 0, 0)" stroke="rgb(0, 0, 0)" stroke-miterlimit="10" pointer-events="all"/></g></g><g data-cell-id="e10"><g><path d="M 430 130 L 430 144 Q 430 154 430 164 L 430 247 C 436.5 247 436.5 257 430 257 L 430 257 L 430 296 Q 430 306 420 306 L 312.5 306 C 312.5 299.5 302.5 299.5 302.5 306 L 302.5 306 L 227.5 306 Q 217.5 306 217.5 316 L 217.5 475.63" fill="none" stroke="rgb(0, 0, 0)" stroke-miterlimit="10" pointer-events="stroke"/><path d="M 217.5 480.88 L 214 473.88 L 217.5 475.63 L 221 473.88 Z" fill="rgb(0, 0, 0)" stroke="rgb(0, 0, 0)" stroke-miterlimit="10" pointer-events="all"/></g></g><g data-cell-id="e11"><g><path d="M 430 130 L 430 144 Q 430 154 430 164 L 430 247 C 436.5 247 436.5 257 430 257 L 430 257 L 430 296 Q 430 306 440 306 L 517.5 306 C 517.5 299.5 527.5 299.5 527.5 306 L 527.5 306 L 627.5 306 Q 637.5 306 637.5 316 L 637.5 475.63" fill="none" stroke="rgb(0, 0, 0)" stroke-miterlimit="10" pointer-events="stroke"/><path d="M 637.5 480.88 L 634 473.88 L 637.5 475.63 L 641 473.88 Z" fill="rgb(0, 0, 0)" stroke="rgb(0, 0, 0)" stroke-miterlimit="10" pointer-events="all"/></g></g><g data-cell-id="e12"><g><path d="M 637.5 482 L 637.5 296 C 644 296 644 286 637.5 286 L 637.5 286 L 637.5 262 Q 637.5 252 637.5 242 L 637.5 159 C 644 159 644 149 637.5 149 L 637.5 149 L 637.5 102 Q 637.5 92 627.5 92 L 406 92 Q 396 92 396 82 L 396 17 Q 396 7 386 7 L 366 7 Q 356 7 356 17 L 356 76 Q 356 86 346 86 L 274 86 Q 264 86 264 96 L 264 185 C 270.5 185 270.5 195 264 195 L 264 195 L 264 247 C 270.5 247 270.5 257 264 257 L 264 257 L 264 259.76" fill="none" stroke="rgb(0, 0, 0)" stroke-miterlimit="10" stroke-dasharray="3 3" pointer-events="stroke"/><path d="M 260.5 253.88 L 264 260.88 L 267.5 253.88" fill="none" stroke="rgb(0, 0, 0)" stroke-miterlimit="10" pointer-events="all"/></g><g><g fill="rgb(0, 0, 0)" font-family="&quot;Helvetica&quot;" text-anchor="middle" font-size="11px"><rect fill="rgb(255, 255, 255)" stroke="none" x="461" y="86" width="31" height="14" stroke-width="0"/><text x="475" y="96">wraps</text></g></g></g><g data-cell-id="e13"><g><path d="M 637.5 482 L 637.5 417 Q 637.5 407 627.5 407 L 440 407 Q 430 407 430 397 L 430 334.24" fill="none" stroke="rgb(0, 0, 0)" stroke-miterlimit="10" stroke-dasharray="3 3" pointer-events="stroke"/><path d="M 433.5 340.12 L 430 333.12 L 426.5 340.12" fill="none" stroke="rgb(0, 0, 0)" stroke-miterlimit="10" pointer-events="all"/></g><g><g fill="rgb(0, 0, 0)" font-family="&quot;Helvetica&quot;" text-anchor="middle" font-size="11px"><rect fill="rgb(255, 255, 255)" stroke="none" x="519" y="401" width="31" height="14" stroke-width="0"/><text x="533" y="411">wraps</text></g></g></g><g data-cell-id="e14"><g><path d="M 637.5 482 L 637.5 417 Q 637.5 407 627.5 407 L 606 407 Q 596 407 596 397 L 596 334.24" fill="none" stroke="rgb(0, 0, 0)" stroke-miterlimit="10" stroke-dasharray="3 3" pointer-events="stroke"/><path d="M 599.5 340.12 L 596 333.12 L 592.5 340.12" fill="none" stroke="rgb(0, 0, 0)" stroke-miterlimit="10" pointer-events="all"/></g><g><g fill="rgb(0, 0, 0)" font-family="&quot;Helvetica&quot;" text-anchor="middle" font-size="11px"><rect fill="rgb(255, 255, 255)" stroke="none" x="602" y="401" width="31" height="14" stroke-width="0"/><text x="616" y="411">wraps</text></g></g></g><g data-cell-id="e15"><g><path d="M 637.5 482 L 637.5 417 Q 637.5 407 647.5 407 L 752 407 Q 762 407 762 397 L 762 334.24" fill="none" stroke="rgb(0, 0, 0)" stroke-miterlimit="10" stroke-dasharray="3 3" pointer-events="stroke"/><path d="M 765.5 340.12 L 762 333.12 L 758.5 340.12" fill="none" stroke="rgb(0, 0, 0)" stroke-miterlimit="10" pointer-events="all"/></g><g><g fill="rgb(0, 0, 0)" font-family="&quot;Helvetica&quot;" text-anchor="middle" font-size="11px"><rect fill="rgb(255, 255, 255)" stroke="none" x="685" y="401" width="31" height="14" stroke-width="0"/><text x="699" y="411">wraps</text></g></g></g><g data-cell-id="e16"><g><path d="M 430 514 L 425 514 Q 420 514 420 524 L 420 552.76" fill="none" stroke="rgb(0, 0, 0)" stroke-miterlimit="10" stroke-dasharray="3 3" pointer-events="stroke"/><path d="M 416.5 546.88 L 420 553.88 L 423.5 546.88" fill="none" stroke="rgb(0, 0, 0)" stroke-miterlimit="10" pointer-events="all"/></g><g><g fill="rgb(0, 0, 0)" font-family="&quot;Helvetica&quot;" text-anchor="middle" font-size="11px"><rect fill="rgb(255, 255, 255)" stroke="none" x="399" y="524" width="44" height="14" stroke-width="0"/><text x="419.5" y="534">registers</text></g></g></g><g data-cell-id="e17"><g><path d="M 210 572 L 210 558 Q 210 548 220 548 L 408.5 548 Q 418.5 548 418.5 538 L 418.5 311 C 425 311 425 301 418.5 301 L 418.5 301 L 418.5 262 Q 418.5 252 418.5 242 L 418.5 201 C 425 201 425 191 418.5 191 L 418.5 191 L 418.5 164 Q 418.5 154 408.5 154 L 345 154 Q 335 154 335 144 L 335 132.24" fill="none" stroke="rgb(0, 0, 0)" stroke-miterlimit="10" stroke-dasharray="3 3" pointer-events="stroke"/><path d="M 338.5 138.12 L 335 131.12 L 331.5 138.12" fill="none" stroke="rgb(0, 0, 0)" stroke-miterlimit="10" pointer-events="all"/></g><g><g fill="rgb(0, 0, 0)" font-family="&quot;Helvetica&quot;" text-anchor="middle" font-size="11px"><rect fill="rgb(255, 255, 255)" stroke="none" x="400" y="408" width="38" height="14" stroke-width="0"/><text x="418" y="417.5">imports</text></g></g></g><g data-cell-id="e18"><g><path d="M 645 490 L 645 476 Q 645 466 643.75 466 L 642.5 466 C 642.5 459.5 632.5 459.5 632.5 466 L 632.5 466 L 446.5 466 Q 436.5 466 436.5 456 L 436.5 412 C 443 412 443 402 436.5 402 L 436.5 402 L 436.5 311 C 443 311 443 301 436.5 301 L 436.5 301 L 436.5 262 Q 436.5 252 436.5 242 L 436.5 201 C 443 201 443 191 436.5 191 L 436.5 191 L 436.5 164 Q 436.5 154 446.5 154 L 515 154 Q 525 154 525 144 L 525 132.24" fill="none" stroke="rgb(0, 0, 0)" stroke-miterlimit="10" stroke-dasharray="3 3" pointer-events="stroke"/><path d="M 528.5 138.12 L 525 131.12 L 521.5 138.12" fill="none" stroke="rgb(0, 0, 0)" stroke-miterlimit="10" pointer-events="all"/></g><g><g fill="rgb(0, 0, 0)" font-family="&quot;Helvetica&quot;" text-anchor="middle" font-size="11px"><rect fill="rgb(255, 255, 255)" stroke="none" x="418" y="364" width="38" height="14" stroke-width="0"/><text x="436" y="373.5">imports</text></g></g></g></g></g></g><switch><g requiredFeatures="http://www.w3.org/TR/SVG11/feature#Extensibility"/><a transform="translate(0,-5)" xlink:href="https://www.drawio.com/doc/faq/svg-export-text-problems" target="_blank"><text text-anchor="middle" font-size="10px" x="50%" y="100%">Text is not SVG - cannot display</text></a></switch></svg>
