<?xml version="1.0" encoding="UTF-8"?>
<!DOCTYPE svg PUBLIC "-//W3C//DTD SVG 1.1//EN" "http://www.w3.org/Graphics/SVG/1.1/DTD/svg11.dtd">
<svg xmlns="http://www.w3.org/2000/svg" xmlns:xlink="http://www.w3.org/1999/xlink" version="1.1" width="904px" height="914px" viewBox="-0.5 -0.5 904 914"><defs/><g><g data-cell-id="0"><g data-cell-id="1"><g data-cell-id="title"><g><rect x="0" y="39" width="860" height="34" fill="none" stroke="none" pointer-events="all"/></g><g><g transform="translate(-0.5 -0.5)"><switch><foreignObject pointer-events="none" width="100%" height="100%" requiredFeatures="http://www.w3.org/TR/SVG11/feature#Extensibility" style="overflow: visible; text-align: left;"><div xmlns="http://www.w3.org/1999/xhtml" style="display: flex; align-items: unsafe center; justify-content: unsafe center; width: 858px; height: 1px; padding-top: 56px; margin-left: 1px;"><div data-drawio-colors="color: rgb(0, 0, 0); " style="box-sizing: border-box; font-size: 0px; text-align: center; max-height: 30px; overflow: hidden;"><div style="display: inline-block; font-size: 20px; font-family: Helvetica; color: rgb(0, 0, 0); line-height: 1.2; pointer-events: all; font-weight: bold; white-space: normal; overflow-wrap: normal;">dyno-lab Architecture</div></div></div></foreignObject><text x="430" y="62" fill="rgb(0, 0, 0)" font-family="&quot;Helvetica&quot;" font-size="20px" text-anchor="middle" font-weight="bold">dyno-lab Architecture</text></switch></g></g></g><g data-cell-id="publicapi"><g><rect x="295" y="87" width="270" height="52" rx="7.8" ry="7.8" fill="#fff2cc" stroke="#d6b656" pointer-events="all"/></g><g><g transform="translate(-0.5 -0.5)"><switch><foreignObject pointer-events="none" width="100%" height="100%" requiredFeatures="http://www.w3.org/TR/SVG11/feature#Extensibility" style="overflow: visible; text-align: left;"><div xmlns="http://www.w3.org/1999/xhtml" style="display: flex; align-items: unsafe center; justify-content: unsafe center; width: 268px; height: 1px; padding-top: 113px; margin-left: 296px;"><div data-drawio-colors="color: rgb(0, 0, 0); " style="box-sizing: border-box; font-size: 0px; text-align: center; max-height: 48px; overflow: hidden;"><div style="display: inline-block; font-size: 13px; font-family: Helvetica; color: rgb(0, 0, 0); line-height: 1.2; pointer-events: all; font-weight: bold; white-space: normal; overflow-wrap: normal;">dyno_lab.__init__<br />public API — re-exports all modules</div></div></div></foreignObject><text x="430" y="117" fill="rgb(0, 0, 0)" font-family="&quot;Helvetica&quot;" font-size="13px" text-anchor="middle" font-weight="bold">dyno_lab.__init__...</text></switch></g></g></g><g data-cell-id="core_swim"><g><path d="M 0 356 L 0 330 L 860 330 L 860 356" fill="#f5f5f5" stroke="#666666" stroke-miterlimit="10" pointer-events="all"/><path d="M 0 356 L 0 540 L 860 540 L 860 356" fill="none" stroke="#666666" stroke-miterlimit="10" pointer-events="none"/><path d="M 0 356 L 860 356" fill="none" stroke="#666666" stroke-miterlimit="10" pointer-events="none"/></g><g><g transform="translate(-0.5 -0.5)"><switch><foreignObject pointer-events="none" width="100%" height="100%" requiredFeatures="http://www.w3.org/TR/SVG11/feature#Extensibility" style="overflow: visible; text-align: left;"><div xmlns="http://www.w3.org/1999/xhtml" style="display: flex; align-items: unsafe center; justify-content: unsafe center; width: 858px; height: 1px; padding-top: 343px; margin-left: 1px;"><div data-drawio-colors="color: #333333; " style="box-sizing: border-box; font-size: 0px; text-align: center; max-height: 22px; overflow: hidden;"><div style="display: inline-block; font-size: 14px; font-family: Helvetica; color: rgb(51, 51, 51); line-height: 1.2; pointer-events: all; font-weight: bold; white-space: normal; overflow-wrap: normal;">Core Utilities</div></div></div></foreignObject><text x="430" y="347" fill="#333333" font-family="&quot;Helvetica&quot;" font-size="14px" text-anchor="middle" font-weight="bold">Core Utilities</text></switch></g></g><g data-cell-id="base"><g><rect x="20" y="412" width="156" height="70" rx="10.5" ry="10.5" fill="#d5e8d4" stroke="#82b366" pointer-events="all"/></g><g><g transform="translate(-0.5 -0.5)"><switch><foreignObject pointer-events="none" width="100%" height="100%" requiredFeatures="http://www.w3.org/TR/SVG11/feature#Extensibility" style="overflow: visible; text-align: left;"><div xmlns="http://www.w3.org/1999/xhtml" style="display: flex; align-items: unsafe center; justify-content: unsafe center; width: 154px; height: 1px; padding-top: 447px; margin-left: 21px;"><div data-drawio-colors="color: rgb(0, 0, 0); " style="box-sizing: border-box; font-size: 0px; text-align: center; max-height: 66px; overflow: hidden;"><div style="display: inline-block; font-size: 12px; font-family: Helvetica; color: rgb(0, 0, 0); line-height: 1.2; pointer-events: all; white-space: normal; overflow-wrap: normal;">base<br />DynoTestCase</div></div></div></foreignObject><text x="98" y="451" fill="rgb(0, 0, 0)" font-family="&quot;Helvetica&quot;" font-size="12px" text-anchor="middle">base...</text></switch></g></g></g><g data-cell-id="proc"><g><rect x="186" y="412" width="156" height="70" rx="10.5" ry="10.5" fill="#d5e8d4" stroke="#82b366" pointer-events="all"/></g><g><g transform="translate(-0.5 -0.5)"><switch><foreignObject pointer-events="none" width="100%" height="100%" requiredFeatures="http://www.w3.org/TR/SVG11/feature#Extensibility" style="overflow: visible; text-align: left;"><div xmlns="http://www.w3.org/1999/xhtml" style="display: flex; align-items: unsafe center; justify-content: unsafe center; width: 154px; height: 1px; padding-top: 447px; margin-left: 187px;"><div data-drawio-colors="color: rgb(0, 0, 0); " style="box-sizing: border-box; font-size: 0px; text-align: center; max-height: 66px; overflow: hidden;"><div style="display: inline-block; font-size: 12px; font-family: Helvetica; color: rgb(0, 0, 0); line-height: 1.2; pointer-events: all; white-space: normal; overflow-wrap: normal;">proc<br />ProcessRecorder<br />SubprocessPatch</div></div></div></foreignObject><text x="264" y="451" fill="rgb(0, 0, 0)" font-family="&quot;Helvetica&quot;" font-size="12px" text-anchor="middle">proc...</text></switch></g></g></g><g data-cell-id="env"><g><rect x="352" y="366" width="156" height="70" rx="10.5" ry="10.5" fill="#d5e8d4" stroke="#82b366" pointer-events="all"/></g><g><g transform="translate(-0.5 -0.5)"><switch><foreignObject pointer-events="none" width="100%" height="100%" requiredFeatures="http://www.w3.org/TR/SVG11/feature#Extensibility" style="overflow: visible; text-align: left;"><div xmlns="http://www.w3.org/1999/xhtml" style="display: flex; align-items: unsafe center; justify-content: unsafe center; width: 154px; height: 1px; padding-top: 401px; margin-left: 353px;"><div data-drawio-colors="color: rgb(0, 0, 0); " style="box-sizing: border-box; font-size: 0px; text-align: center; max-height: 66px; overflow: hidden;"><div style="display: inline-block; font-size: 12px; font-family: Helvetica; color: rgb(0, 0, 0); line-height: 1.2; pointer-events: all; white-space: normal; overflow-wrap: normal;">env<br />EnvPatch · patched_env<br />env_defaults</div></div></div></foreignObject><text x="430" y="405" fill="rgb(0, 0, 0)" font-family="&quot;Helvetica&quot;" font-size="12px" text-anchor="middle">env...</text></switch></g></g></g><g data-cell-id="fs"><g><rect x="518" y="366" width="156" height="70" rx="10.5" ry="10.5" fill="#d5e8d4" stroke="#82b366" pointer-events="all"/></g><g><g transform="translate(-0.5 -0.5)"><switch><foreignObject pointer-events="none" width="100%" height="100%" requiredFeatures="http://www.w3.org/TR/SVG11/feature#Extensibility" style="overflow: visible; text-align: left;"><div xmlns="http://www.w3.org/1999/xhtml" style="display: flex; align-items: unsafe center; justify-content: unsafe center; width: 154px; height: 1px; padding-top: 401px; margin-left: 519px;"><div data-drawio-colors="color: rgb(0, 0, 0); " style="box-sizing: border-box; font-size: 0px; text-align: center; max-height: 66px; overflow: hidden;"><div style="display: inline-block; font-size: 12px; font-family: Helvetica; color: rgb(0, 0, 0); line-height: 1.2; pointer-events: all; white-space: normal; overflow-wrap: normal;">fs<br />TempWorkdir<br />make_tree</div></div></div></foreignObject><text x="596" y="405" fill="rgb(0, 0, 0)" font-family="&quot;Helvetica&quot;" font-size="12px" text-anchor="middle">fs...</text></switch></g></g></g><g data-cell-id="cli"><g><rect x="684" y="366" width="156" height="70" rx="10.5" ry="10.5" fill="#d5e8d4" stroke="#82b366" pointer-events="all"/></g><g><g transform="translate(-0.5 -0.5)"><switch><foreignObject pointer-events="none" width="100%" height="100%" requiredFeatures="http://www.w3.org/TR/SVG11/feature#Extensibility" style="overflow: visible; text-align: left;"><div xmlns="http://www.w3.org/1999/xhtml" style="display: flex; align-items: unsafe center; justify-content: unsafe center; width: 154px; height: 1px; padding-top: 401px; margin-left: 685px;"><div data-drawio-colors="color: rgb(0, 0, 0); " style="box-sizing: border-box; font-size: 0px; text-align: center; max-height: 66px; overflow: hidden;"><div style="display: inline-block; font-size: 12px; font-family: Helvetica; color: rgb(0, 0, 0); line-height: 1.2; pointer-events: all; white-space: normal; overflow-wrap: normal;">cli<br />capture_cli · CliResult<br />CLITestMixin</div></div></div></foreignObject><text x="762" y="405" fill="rgb(0, 0, 0)" font-family="&quot;Helvetica&quot;" font-size="12px" text-anchor="middle">cli...</text></switch></g></g></g><g data-cell-id="http"><g><rect x="15" y="681" width="195" height="74" rx="11.1" ry="11.1" fill="#d5e8d4" stroke="#82b366" pointer-events="all"/></g><g><g transform="translate(-0.5 -0.5)"><switch><foreignObject pointer-events="none" width="100%" height="100%" requiredFeatures="http://www.w3.org/TR/SVG11/feature#Extensibility" style="overflow: visible; text-align: left;"><div xmlns="http://www.w3.org/1999/xhtml" style="display: flex; align-items: unsafe center; justify-content: unsafe center; width: 193px; height: 1px; padding-top: 718px; margin-left: 16px;"><div data-drawio-colors="color: rgb(0, 0, 0); " style="box-sizing: border-box; font-size: 0px; text-align: center; max-height: 70px; overflow: hidden;"><div style="display: inline-block; font-size: 12px; font-family: Helvetica; color: rgb(0, 0, 0); line-height: 1.2; pointer-events: all; white-space: normal; overflow-wrap: normal;">http<br />SequenceSession<br />StaticSession · RaisingSession</div></div></div></foreignObject><text x="113" y="722" fill="rgb(0, 0, 0)" font-family="&quot;Helvetica&quot;" font-size="12px" text-anchor="middle">http...</text></switch></g></g></g><g data-cell-id="schema"><g><rect x="220" y="681" width="195" height="74" rx="11.1" ry="11.1" fill="#d5e8d4" stroke="#82b366" pointer-events="all"/></g><g><g transform="translate(-0.5 -0.5)"><switch><foreignObject pointer-events="none" width="100%" height="100%" requiredFeatures="http://www.w3.org/TR/SVG11/feature#Extensibility" style="overflow: visible; text-align: left;"><div xmlns="http://www.w3.org/1999/xhtml" style="display: flex; align-items: unsafe center; justify-content: unsafe center; width: 193px; height: 1px; padding-top: 718px; margin-left: 221px;"><div data-drawio-colors="color: rgb(0, 0, 0); " style="box-sizing: border-box; font-size: 0px; text-align: center; max-height: 70px; overflow: hidden;"><div style="display: inline-block; font-size: 12px; font-family: Helvetica; color: rgb(0, 0, 0); line-height: 1.2; pointer-events: all; white-space: normal; overflow-wrap: normal;">schema<br />assert_parity<br />assert_row_width · assert_schema_keys</div></div></div></foreignObject><text x="318" y="722" fill="rgb(0, 0, 0)" font-family="&quot;Helvetica&quot;" font-size="12px" text-anchor="middle">schema...</text></switch></g></g></g><g data-cell-id="modloader"><g><rect x="425" y="504" width="195" height="74" rx="11.1" ry="11.1" fill="#d5e8d4" stroke="#82b366" pointer-events="all"/></g><g><g transform="translate(-0.5 -0.5)"><switch><foreignObject pointer-events="none" width="100%" height="100%" requiredFeatures="http://www.w3.org/TR/SVG11/feature#Extensibility" style="overflow: visible; text-align: left;"><div xmlns="http://www.w3.org/1999/xhtml" style="display: flex; align-items: unsafe center; justify-content: unsafe center; width: 193px; height: 1px; padding-top: 541px; margin-left: 426px;"><div data-drawio-colors="color: rgb(0, 0, 0); " style="box-sizing: border-box; font-size: 0px; text-align: center; max-height: 70px; overflow: hidden;"><div style="display: inline-block; font-size: 12px; font-family: Helvetica; color: rgb(0, 0, 0); line-height: 1.2; pointer-events: all; white-space: normal; overflow-wrap: normal;">module<br />load_module_by_path</div></div></div></foreignObject><text x="523" y="545" fill="rgb(0, 0, 0)" font-family="&quot;Helvetica&quot;" font-size="12px" text-anchor="middle">module...</text></switch></g></g></g><g data-cell-id="smoke"><g><rect x="630" y="504" width="215" height="74" rx="11.1" ry="11.1" fill="#d5e8d4" stroke="#82b366" pointer-events="all"/></g><g><g transform="translate(-0.5 -0.5)"><switch><foreignObject pointer-events="none" width="100%" height="100%" requiredFeatures="http://www.w3.org/TR/SVG11/feature#Extensibility" style="overflow: visible; text-align: left;"><div xmlns="http://www.w3.org/1999/xhtml" style="display: flex; align-items: unsafe center; justify-content: unsafe center; width: 213px; height: 1px; padding-top: 541px; margin-left: 631px;"><div data-drawio-colors="color: rgb(0, 0, 0); " style="box-sizing: border-box; font-size: 0px; text-align: center; max-height: 70px; overflow: hidden;"><div style="display: inline-block; font-size: 12px; font-family: Helvetica; color: rgb(0, 0, 0); line-height: 1.2; pointer-events: all; white-space: normal; overflow-wrap: normal;">smoke<br />SmokeTest · SmokeRunner<br />SmokeResult · SmokeSummary</div></div></div></foreignObject><text x="738" y="545" fill="rgb(0, 0, 0)" font-family="&quot;Helvetica&quot;" font-size="12px" text-anchor="middle">smoke...</text></switch></g></g></g></g><g data-cell-id="pytest_swim"><g><path d="M 0 580 L 0 554 L 860 554 L 860 580" fill="#fff3e0" stroke="#e6821e" stroke-miterlimit="10" pointer-events="all"/><path d="M 0 580 L 0 662 L 860 662 L 860 580" fill="none" stroke="#e6821e" stroke-miterlimit="10" pointer-events="none"/><path d="M 0 580 L 860 580" fill="none" stroke="#e6821e" stroke-miterlimit="10" pointer-events="none"/></g><g><g transform="translate(-0.5 -0.5)"><switch><foreignObject pointer-events="none" width="100%" height="100%" requiredFeatures="http://www.w3.org/TR/SVG11/feature#Extensibility" style="overflow: visible; text-align: left;"><div xmlns="http://www.w3.org/1999/xhtml" style="display: flex; align-items: unsafe center; justify-content: unsafe center; width: 858px; height: 1px; padding-top: 567px; margin-left: 1px;"><div data-drawio-colors="color: #333333; " style="box-sizing: border-box; font-size: 0px; text-align: center; max-height: 22px; overflow: hidden;"><div style="display: inline-block; font-size: 14px; font-family: Helvetica; color: rgb(51, 51, 51); line-height: 1.2; pointer-events: all; font-weight: bold; white-space: normal; overflow-wrap: normal;">Pytest Integration</div></div></div></foreignObject><text x="430" y="571" fill="#333333" font-family="&quot;Helvetica&quot;" font-size="14px" text-anchor="middle" font-weight="bold">Pytest Integration</text></switch></g></g><g data-cell-id="markers"><g><rect x="15" y="586" width="405" height="241" rx="36.15" ry="36.15" fill="#ffe6cc" stroke="#d79b00" pointer-events="all"/></g><g><g transform="translate(-0.5 -0.5)"><switch><foreignObject pointer-events="none" width="100%" height="100%" requiredFeatures="http://www.w3.org/TR/SVG11/feature#Extensibility" style="overflow: visible; text-align: left;"><div xmlns="http://www.w3.org/1999/xhtml" style="display: flex; align-items: unsafe center; justify-content: unsafe center; width: 403px; height: 1px; padding-top: 707px; margin-left: 16px;"><div data-drawio-colors="color: rgb(0, 0, 0); " style="box-sizing: border-box; font-size: 0px; text-align: center; max-height: 237px; overflow: hidden;"><div style="display: inline-block; font-size: 12px; font-family: Helvetica; color: rgb(0, 0, 0); line-height: 1.2; pointer-events: all; white-space: normal; overflow-wrap: normal;">markers<br />MARKERS · register_markers<br />unit · integration · smoke · parity · slow · external</div></div></div></foreignObject><text x="218" y="710" fill="rgb(0, 0, 0)" font-family="&quot;Helvetica&quot;" font-size="12px" text-anchor="middle">markers...</text></switch></g></g></g><g data-cell-id="fixtures"><g><rect x="430" y="586" width="415" height="64" rx="9.6" ry="9.6" fill="#ffe6cc" stroke="#d79b00" pointer-events="all"/></g><g><g transform="translate(-0.5 -0.5)"><switch><foreignObject pointer-events="none" width="100%" height="100%" requiredFeatures="http://www.w3.org/TR/SVG11/feature#Extensibility" style="overflow: visible; text-align: left;"><div xmlns="http://www.w3.org/1999/xhtml" style="display: flex; align-items: unsafe center; justify-content: unsafe center; width: 413px; height: 1px; padding-top: 618px; margin-left: 431px;"><div data-drawio-colors="color: rgb(0, 0, 0); " style="box-sizing: border-box; font-size: 0px; text-align: center; max-height: 60px; overflow: hidden;"><div style="display: inline-block; font-size: 12px; font-family: Helvetica; color: rgb(0, 0, 0); line-height: 1.2; pointer-events: all; white-space: normal; overflow-wrap: normal;">fixtures<br />dyno_tmp · dyno_env · dyno_proc · dyno_cli<br />pytest_plugins = ["dyno_lab.fixtures"]</div></div></div></foreignObject><text x="638" y="622" fill="rgb(0, 0, 0)" font-family="&quot;Helvetica&quot;" font-size="12px" text-anchor="middle">fixtures...</text></switch></g></g></g></g><g data-cell-id="tests_swim"><g><path d="M 0 702 L 0 676 L 420 676 L 420 702" fill="#f8cecc" stroke="#b85450" stroke-miterlimit="10" pointer-events="all"/><path d="M 0 702 L 0 772 L 420 772 L 420 702" fill="none" stroke="#b85450" stroke-miterlimit="10" pointer-events="none"/><path d="M 0 702 L 420 702" fill="none" stroke="#b85450" stroke-miterlimit="10" pointer-events="none"/></g><g><g transform="translate(-0.5 -0.5)"><switch><foreignObject pointer-events="none" width="100%" height="100%" requiredFeatures="http://www.w3.org/TR/SVG11/feature#Extensibility" style="overflow: visible; text-align: left;"><div xmlns="http://www.w3.org/1999/xhtml" style="display: flex; align-items: unsafe center; justify-content: unsafe center; width: 418px; height: 1px; padding-top: 689px; margin-left: 1px;"><div data-drawio-colors="color: #333333; " style="box-sizing: border-box; font-size: 0px; text-align: center; max-height: 22px; overflow: hidden;"><div style="display: inline-block; font-size: 14px; font-family: Helvetica; color: rgb(51, 51, 51); line-height: 1.2; pointer-events: all; font-weight: bold; white-space: normal; overflow-wrap: normal;">tests/</div></div></div></foreignObject><text x="210" y="693" fill="#333333" font-family="&quot;Helvetica&quot;" font-size="14px" text-anchor="middle" font-weight="bold">tests/</text></switch></g></g><g data-cell-id="tests"><g><rect x="10" y="853" width="395" height="56" fill="none" stroke="none" pointer-events="all"/></g><g><g transform="translate(-0.5 -0.5)"><switch><foreignObject pointer-events="none" width="100%" height="100%" requiredFeatures="http://www.w3.org/TR/SVG11/feature#Extensibility" style="overflow: visible; text-align: left;"><div xmlns="http://www.w3.org/1999/xhtml" style="display: flex; align-items: unsafe flex-start; justify-content: unsafe flex-start; width: 393px; height: 1px; padding-top: 860px; margin-left: 12px;"><div data-drawio-colors="color: rgb(0, 0, 0); " style="box-sizing: border-box; font-size: 0px; text-align: left; max-height: 52px; overflow: hidden;"><div style="display: inline-block; font-size: 11px; font-family: Helvetica; color: rgb(0, 0, 0); line-height: 1.2; pointer-events: all; white-space: normal; overflow-wrap: normal;">test_base · test_proc · test_env · test_fs · test_cli<br />test_http · test_schema · test_module · test_smoke<br />109 tests — unittest + pytest</div></div></div></foreignObject><text x="12" y="871" fill="rgb(0, 0, 0)" font-family="&quot;Helvetica&quot;" font-size="11px">test_base · test_proc · test_env · test_fs · test_cli...</text></switch></g></g></g></g><g data-cell-id="consumers"><g><rect x="430" y="499" width="430" height="96" rx="14.4" ry="14.4" fill="#e1d5e7" stroke="#9673a6" pointer-events="all"/></g><g><g transform="translate(-0.5 -0.5)"><switch><foreignObject pointer-events="none" width="100%" height="100%" requiredFeatures="http://www.w3.org/TR/SVG11/feature#Extensibility" style="overflow: visible; text-align: left;"><div xmlns="http://www.w3.org/1999/xhtml" style="display: flex; align-items: unsafe center; justify-content: unsafe center; width: 428px; height: 1px; padding-top: 547px; margin-left: 431px;"><div data-drawio-colors="color: rgb(0, 0, 0); " style="box-sizing: border-box; font-size: 0px; text-align: center; max-height: 92px; overflow: hidden;"><div style="display: inline-block; font-size: 12px; font-family: Helvetica; color: rgb(0, 0, 0); line-height: 1.2; pointer-events: all; white-space: normal; overflow-wrap: normal;">Consumer Repos<br />pip install -e ./util-repos/dyno-lab<br />pytest_plugins = ["dyno_lab.fixtures"]</div></div></div></foreignObject><text x="645" y="551" fill="rgb(0, 0, 0)" font-family="&quot;Helvetica&quot;" font-size="12px" text-anchor="middle">Consumer Repos...</text></switch></g></g></g><g data-cell-id="e1"><g><path d="M 295 127 L 281 127 Q 271 127 271 117 L 271 17 Q 271 7 261 7 L 200 7 Q 190 7 190 17 L 190 136 Q 190 146 180 146 L 108 146 Q 98 146 98 156 L 98 405.63" fill="none" stroke="rgb(0, 0, 0)" stroke-miterlimit="10" pointer-events="stroke"/><path d="M 98 410.88 L 94.5 403.88 L 98 405.63 L 101.5 403.88 Z" fill="rgb(0, 0, 0)" stroke="rgb(0, 0, 0)" stroke-miterlimit="10" pointer-events="all"/></g></g><g data-cell-id="e2"><g><path d="M 430 139 L 430 265.5 Q 430 275.5 420 275.5 L 274 275.5 Q 264 275.5 264 285.5 L 264 405.63" fill="none" stroke="rgb(0, 0, 0)" stroke-miterlimit="10" pointer-events="stroke"/><path d="M 264 410.88 L 260.5 403.88 L 264 405.63 L 267.5 403.88 Z" fill="rgb(0, 0, 0)" stroke="rgb(0, 0, 0)" stroke-miterlimit="10" pointer-events="all"/></g></g><g data-cell-id="e3"><g><path d="M 430 139 L 430 359.63" fill="none" stroke="rgb(0, 0, 0)" stroke-miterlimit="10" pointer-events="stroke"/><path d="M 430 364.88 L 426.5 357.88 L 430 359.63 L 433.5 357.88 Z" fill="rgb(0, 0, 0)" stroke="rgb(0, 0, 0)" stroke-miterlimit="10" pointer-events="all"/></g></g><g data-cell-id="e4"><g><path d="M 430 139 L 430 242.5 Q 430 252.5 440 252.5 L 586 252.5 Q 596 252.5 596 262.5 L 596 359.63" fill="none" stroke="rgb(0, 0, 0)" stroke-miterlimit="10" pointer-events="stroke"/><path d="M 596 364.88 L 592.5 357.88 L 596 359.63 L 599.5 357.88 Z" fill="rgb(0, 0, 0)" stroke="rgb(0, 0, 0)" stroke-miterlimit="10" pointer-events="all"/></g></g><g data-cell-id="e5"><g><path d="M 565 113 L 579 113 Q 589 113 589 123 L 589 247.5 C 595.5 247.5 595.5 257.5 589 257.5 L 589 257.5 L 589 334 Q 589 344 590 344 L 591 344 C 591 337.5 601 337.5 601 344 L 601 344 L 640 344 Q 650 344 650 334 L 650 115 Q 650 105 660 105 L 752 105 Q 762 105 762 115 L 762 359.63" fill="none" stroke="rgb(0, 0, 0)" stroke-miterlimit="10" pointer-events="stroke"/><path d="M 762 364.88 L 758.5 357.88 L 762 359.63 L 765.5 357.88 Z" fill="rgb(0, 0, 0)" stroke="rgb(0, 0, 0)" stroke-miterlimit="10" pointer-events="all"/></g></g><g data-cell-id="e6"><g><path d="M 335 139 L 335 153 Q 335 163 345 163 L 425 163 C 425 156.5 435 156.5 435 163 L 435 163 L 584 163 C 584 156.5 594 156.5 594 163 L 594 163 L 645 163 C 645 156.5 655 156.5 655 163 L 655 163 L 757 163 C 757 156.5 767 156.5 767 163 L 767 163 L 857 163 Q 867 163 867 173 L 867 346 Q 867 356 857 356 L 767 356 C 767 349.5 757 349.5 757 356 L 757 356 L 601 356 C 601 349.5 591 349.5 591 356 L 591 356 L 435 356 C 435 349.5 425 349.5 425 356 L 425 356 L 269 356 C 269 349.5 259 349.5 259 356 L 259 356 L 112.5 356 Q 102.5 356 102.5 366 L 102.5 674.63" fill="none" stroke="rgb(0, 0, 0)" stroke-miterlimit="10" pointer-events="stroke"/><path d="M 102.5 679.88 L 99 672.88 L 102.5 674.63 L 106 672.88 Z" fill="rgb(0, 0, 0)" stroke="rgb(0, 0, 0)" stroke-miterlimit="10" pointer-events="all"/></g></g><g data-cell-id="e7"><g><path d="M 398.3 139 L 398.3 153 Q 398.3 163 408.3 163 L 425 163 C 425 156.5 435 156.5 435 163 L 435 163 L 584 163 C 584 156.5 594 156.5 594 163 L 594 163 L 645 163 C 645 156.5 655 156.5 655 163 L 655 163 L 757 163 C 757 156.5 767 156.5 767 163 L 767 163 L 884 163 Q 894 163 894 173 L 894 346 Q 894 356 884 356 L 767 356 C 767 349.5 757 349.5 757 356 L 757 356 L 601 356 C 601 349.5 591 349.5 591 356 L 591 356 L 435 356 C 435 349.5 425 349.5 425 356 L 425 356 L 317.5 356 Q 307.5 356 307.5 366 L 307.5 674.63" fill="none" stroke="rgb(0, 0, 0)" stroke-miterlimit="10" pointer-events="stroke"/><path d="M 307.5 679.88 L 304 672.88 L 307.5 674.63 L 311 672.88 Z" fill="rgb(0, 0, 0)" stroke="rgb(0, 0, 0)" stroke-miterlimit="10" pointer-events="all"/></g></g><g data-cell-id="e8"><g><path d="M 461.7 139 L 461.7 153 Q 461.7 163 471.7 163 L 502.5 163 Q 512.5 163 512.5 171 L 512.5 175 Q 512.5 179 517.5 179 L 520 179 Q 522.5 179 522.5 189 L 522.5 247.5 C 529 247.5 529 257.5 522.5 257.5 L 522.5 257.5 L 522.5 351 C 529 351 529 361 522.5 361 L 522.5 361 L 522.5 497.63" fill="none" stroke="rgb(0, 0, 0)" stroke-miterlimit="10" pointer-events="stroke"/><path d="M 522.5 502.88 L 519 495.88 L 522.5 497.63 L 526 495.88 Z" fill="rgb(0, 0, 0)" stroke="rgb(0, 0, 0)" stroke-miterlimit="10" pointer-events="all"/></g></g><g data-cell-id="e9"><g><path d="M 525 139 L 525 153 Q 525 163 535 163 L 584 163 C 584 156.5 594 156.5 594 163 L 594 163 L 645 163 C 645 156.5 655 156.5 655 163 L 655 163 L 717.5 163 Q 727.5 163 727.5 171 L 727.5 175 Q 727.5 179 732.5 179 L 735 179 Q 737.5 179 737.5 189 L 737.5 351 C 744 351 744 361 737.5 361 L 737.5 361 L 737.5 497.63" fill="none" stroke="rgb(0, 0, 0)" stroke-miterlimit="10" pointer-events="stroke"/><path d="M 737.5 502.88 L 734 495.88 L 737.5 497.63 L 741 495.88 Z" fill="rgb(0, 0, 0)" stroke="rgb(0, 0, 0)" stroke-miterlimit="10" pointer-events="all"/></g></g><g data-cell-id="e10"><g><path d="M 430 139 L 430 153 Q 430 163 430 173 L 430 351 C 436.5 351 436.5 361 430 361 L 430 361 L 430 361.75 Q 430 362.5 420 362.5 L 312.5 362.5 C 312.5 356 302.5 356 302.5 362.5 L 302.5 362.5 L 269 362.5 C 269 356 259 356 259 362.5 L 259 362.5 L 227.5 362.5 Q 217.5 362.5 217.5 372.5 L 217.5 579.63" fill="none" stroke="rgb(0, 0, 0)" stroke-miterlimit="10" pointer-events="stroke"/><path d="M 217.5 584.88 L 214 577.88 L 217.5 579.63 L 221 577.88 Z" fill="rgb(0, 0, 0)" stroke="rgb(0, 0, 0)" stroke-miterlimit="10" pointer-events="all"/></g></g><g data-cell-id="e11"><g><path d="M 430 139 L 430 153 Q 430 163 430 173 L 430 351 C 436.5 351 436.5 361 430 361 L 430 361 L 430 361.75 Q 430 362.5 440 362.5 L 517.5 362.5 C 517.5 356 527.5 356 527.5 362.5 L 527.5 362.5 L 591 362.5 C 591 356 601 356 601 362.5 L 601 362.5 L 627.5 362.5 Q 637.5 362.5 637.5 372.5 L 637.5 579.63" fill="none" stroke="rgb(0, 0, 0)" stroke-miterlimit="10" pointer-events="stroke"/><path d="M 637.5 584.88 L 634 577.88 L 637.5 579.63 L 641 577.88 Z" fill="rgb(0, 0, 0)" stroke="rgb(0, 0, 0)" stroke-miterlimit="10" pointer-events="all"/></g></g><g data-cell-id="e12"><g><path d="M 637.5 586 L 637.5 366 Q 637.5 356 637.5 352.5 L 637.5 349 C 644 349 644 339 637.5 339 L 637.5 339 L 637.5 168 C 644 168 644 158 637.5 158 L 637.5 158 L 637.5 111 Q 637.5 101 627.5 101 L 406 101 Q 396 101 396 111 L 396 158 C 402.5 158 402.5 168 396 168 L 396 168 L 396 172 Q 396 176 386 176 L 366 176 Q 356 176 356 172 L 356 168 C 362.5 168 362.5 158 356 158 L 356 158 L 356 149.5 Q 356 141 348 141 L 340 141 C 340 134.5 330 134.5 330 141 L 330 141 L 274 141 Q 264 141 264 151 L 264 351 C 270.5 351 270.5 361 264 361 L 264 361 L 264 357.5 C 270.5 357.5 270.5 367.5 264 367.5 L 264 367.5 L 264 409.76" fill="none" stroke="rgb(0, 0, 0)" stroke-miterlimit="10" stroke-dasharray="3 3" pointer-events="stroke"/><path d="M 260.5 403.88 L 264 410.88 L 267.5 403.88" fill="none" stroke="rgb(0, 0, 0)" stroke-miterlimit="10" pointer-events="all"/></g><g><g fill="rgb(0, 0, 0)" font-family="&quot;Helvetica&quot;" text-anchor="middle" font-size="11px"><rect fill="rgb(255, 255, 255)" stroke="none" x="488" y="95" width="31" height="14" stroke-width="0"/><text x="502" y="105">wraps</text></g></g></g><g data-cell-id="e13"><g><path d="M 637.5 586 L 637.5 521 Q 637.5 511 627.5 511 L 440 511 Q 430 511 430 501 L 430 438.24" fill="none" stroke="rgb(0, 0, 0)" stroke-miterlimit="10" stroke-dasharray="3 3" pointer-events="stroke"/><path d="M 433.5 444.12 L 430 437.12 L 426.5 444.12" fill="none" stroke="rgb(0, 0, 0)" stroke-miterlimit="10" pointer-events="all"/></g><g><g fill="rgb(0, 0, 0)" font-family="&quot;Helvetica&quot;" text-anchor="middle" font-size="11px"><rect fill="rgb(255, 255, 255)" stroke="none" x="519" y="505" width="31" height="14" stroke-width="0"/><text x="533" y="515">wraps</text></g></g></g><g data-cell-id="e14"><g><path d="M 637.5 586 L 637.5 521 Q 637.5 511 627.5 511 L 606 511 Q 596 511 596 501 L 596 438.24" fill="none" stroke="rgb(0, 0, 0)" stroke-miterlimit="10" stroke-dasharray="3 3" pointer-events="stroke"/><path d="M 599.5 444.12 L 596 437.12 L 592.5 444.12" fill="none" stroke="rgb(0, 0, 0)" stroke-miterlimit="10" pointer-events="all"/></g><g><g fill="rgb(0, 0, 0)" font-family="&quot;Helvetica&quot;" text-anchor="middle" font-size="11px"><rect fill="rgb(255, 255, 255)" stroke="none" x="602" y="505" width="31" height="14" stroke-width="0"/><text x="616" y="515">wraps</text></g></g></g><g data-cell-id="e15"><g><path d="M 637.5 586 L 637.5 521 Q 637.5 511 647.5 511 L 752 511 Q 762 511 762 501 L 762 438.24" fill="none" stroke="rgb(0, 0, 0)" stroke-miterlimit="10" stroke-dasharray="3 3" pointer-events="stroke"/><path d="M 765.5 444.12 L 762 437.12 L 758.5 444.12" fill="none" stroke="rgb(0, 0, 0)" stroke-miterlimit="10" pointer-events="all"/></g><g><g fill="rgb(0, 0, 0)" font-family="&quot;Helvetica&quot;" text-anchor="middle" font-size="11px"><rect fill="rgb(255, 255, 255)" stroke="none" x="685" y="505" width="31" height="14" stroke-width="0"/><text x="699" y="515">wraps</text></g></g></g><g data-cell-id="e16"><g><path d="M 430 618 L 425 618 Q 420 618 420 628 L 420 650 Q 420 660 425 660 L 427.5 660 Q 430 660 430 670 L 430 696.5 Q 430 706.5 426.12 706.5 L 422.24 706.5" fill="none" stroke="rgb(0, 0, 0)" stroke-miterlimit="10" stroke-dasharray="3 3" pointer-events="stroke"/><path d="M 428.12 703 L 421.12 706.5 L 428.12 710" fill="none" stroke="rgb(0, 0, 0)" stroke-miterlimit="10" pointer-events="all"/></g><g><g fill="rgb(0, 0, 0)" font-family="&quot;Helvetica&quot;" text-anchor="middle" font-size="11px"><rect fill="rgb(255, 255, 255)" stroke="none" x="406" y="654" width="44" height="14" stroke-width="0"/><text x="426.5" y="664">registers</text></g></g></g><g data-cell-id="e17"><g><path d="M 210 676 L 210 662 Q 210 652 220 652 L 302.5 652 C 302.5 645.5 312.5 645.5 312.5 652 L 312.5 652 L 408.5 652 Q 418.5 652 418.5 642 L 418.5 367.5 C 425 367.5 425 357.5 418.5 357.5 L 418.5 357.5 L 418.5 356.75 Q 418.5 356 418.5 346 L 418.5 280.5 C 425 280.5 425 270.5 418.5 270.5 L 418.5 270.5 L 418.5 173 Q 418.5 163 409.75 163 L 401 163 C 401 156.5 391 156.5 391 163 L 391 163 L 361 163 C 361 156.5 351 156.5 351 163 L 351 163 L 343 163 Q 335 163 335 153 L 335 147 Q 335 141 335 141.12 L 335 141.24" fill="none" stroke="rgb(0, 0, 0)" stroke-miterlimit="10" stroke-dasharray="3 3" pointer-events="stroke"/><path d="M 338.5 147.12 L 335 140.12 L 331.5 147.12" fill="none" stroke="rgb(0, 0, 0)" stroke-miterlimit="10" pointer-events="all"/></g><g><g fill="rgb(0, 0, 0)" font-family="&quot;Helvetica&quot;" text-anchor="middle" font-size="11px"><rect fill="rgb(255, 255, 255)" stroke="none" x="400" y="464" width="38" height="14" stroke-width="0"/><text x="418" y="473.5">imports</text></g></g></g><g data-cell-id="e18"><g><path d="M 645 499 L 645 485 Q 645 475 641.25 475 L 639.38 475 Q 637.5 475 627.5 475 L 601 475 C 601 468.5 591 468.5 591 475 L 591 475 L 527.5 475 C 527.5 468.5 517.5 468.5 517.5 475 L 517.5 475 L 446.5 475 Q 436.5 475 436.5 465 L 436.5 367.5 C 443 367.5 443 357.5 436.5 357.5 L 436.5 357.5 L 436.5 356.75 Q 436.5 356 436.5 346 L 436.5 257.5 C 443 257.5 443 247.5 436.5 247.5 L 436.5 247.5 L 436.5 173 Q 436.5 163 446.5 163 L 515 163 Q 525 163 525 153 L 525 141.24" fill="none" stroke="rgb(0, 0, 0)" stroke-miterlimit="10" stroke-dasharray="3 3" pointer-events="stroke"/><path d="M 528.5 147.12 L 525 140.12 L 521.5 147.12" fill="none" stroke="rgb(0, 0, 0)" stroke-miterlimit="10" pointer-events="all"/></g><g><g fill="rgb(0, 0, 0)" font-family="&quot;Helvetica&quot;" text-anchor="middle" font-size="11px"><rect fill="rgb(255, 255, 255)" stroke="none" x="418" y="373" width="38" height="14" stroke-width="0"/><text x="436" y="382.5">imports</text></g></g></g></g></g></g><switch><g requiredFeatures="http://www.w3.org/TR/SVG11/feature#Extensibility"/><a transform="translate(0,-5)" xlink:href="https://www.drawio.com/doc/faq/svg-export-text-problems" target="_blank"><text text-anchor="middle" font-size="10px" x="50%" y="100%">Text is not SVG - cannot display</text></a></switch></svg>
