<?plantuml 1.2026.2?><svg xmlns="http://www.w3.org/2000/svg" xmlns:xlink="http://www.w3.org/1999/xlink" contentStyleType="text/css" data-diagram-type="DESCRIPTION" height="1201px" preserveAspectRatio="none" style="width:567px;height:1201px;background:#FFFFFF;" version="1.1" viewBox="0 0 567 1201" width="567px" zoomAndPan="magnify"><title>dyno-lab Tooling Integrations</title><defs/><g><g class="title" data-source-line="1"><text fill="#000000" font-family="Monospace" font-size="14" font-weight="bold" lengthAdjust="spacing" textLength="206.8458" x="173.2393" y="24.9659">dyno-lab&#160;Tooling&#160;Integrations</text></g><!--entity source_github_workflows_ci_yml--><g class="entity" data-qualified-name="source_github_workflows_ci_yml" data-source-line="7" id="ent0002"><rect fill="#E0F2FE" height="58.1358" rx="2.5" ry="2.5" style="stroke:#181818;stroke-width:0.5;" width="182.6234" x="51.6" y="504.7079"/><text fill="#000000" font-family="Monospace" font-size="14" lengthAdjust="spacing" textLength="162.6234" x="61.6" y="529.6739">.github/workflows/ci.yml</text><text fill="#000000" font-family="Monospace" font-size="14" lengthAdjust="spacing" textLength="105.3356" x="61.6" y="548.7418">6&#160;detected&#160;tools</text></g><!--entity source_github_workflows_python_publish_yml--><g class="entity" data-qualified-name="source_github_workflows_python_publish_yml" data-source-line="8" id="ent0003"><rect fill="#E0F2FE" height="58.1358" rx="2.5" ry="2.5" style="stroke:#181818;stroke-width:0.5;" width="271.831" x="7" y="798.7079"/><text fill="#000000" font-family="Monospace" font-size="14" lengthAdjust="spacing" textLength="251.831" x="17" y="823.6739">.github/workflows/python-publish.yml</text><text fill="#000000" font-family="Monospace" font-size="14" lengthAdjust="spacing" textLength="105.3356" x="17" y="842.7418">7&#160;detected&#160;tools</text></g><!--entity source_github_workflows_secret_scan_yml--><g class="entity" data-qualified-name="source_github_workflows_secret_scan_yml" data-source-line="9" id="ent0004"><rect fill="#E0F2FE" height="58.1358" rx="2.5" ry="2.5" style="stroke:#181818;stroke-width:0.5;" width="246.7851" x="19.52" y="1092.7079"/><text fill="#000000" font-family="Monospace" font-size="14" lengthAdjust="spacing" textLength="226.7851" x="29.52" y="1117.6739">.github/workflows/secret-scan.yml</text><text fill="#000000" font-family="Monospace" font-size="14" lengthAdjust="spacing" textLength="105.3356" x="29.52" y="1136.7418">2&#160;detected&#160;tools</text></g><!--entity source_scripts_run_tachometer_profile_sh--><g class="entity" data-qualified-name="source_scripts_run_tachometer_profile_sh" data-source-line="10" id="ent0005"><rect fill="#E0F2FE" height="58.1358" rx="2.5" ry="2.5" style="stroke:#181818;stroke-width:0.5;" width="242.2912" x="21.77" y="126.7079"/><text fill="#000000" font-family="Monospace" font-size="14" lengthAdjust="spacing" textLength="222.2912" x="31.77" y="151.6739">scripts/run_tachometer_profile.sh</text><text fill="#000000" font-family="Monospace" font-size="14" lengthAdjust="spacing" textLength="105.3356" x="31.77" y="170.7418">3&#160;detected&#160;tools</text></g><!--entity tool_actions_checkout--><g class="entity" data-qualified-name="tool_actions_checkout" data-source-line="11" id="ent0006"><path d="M384.8021,1063.6036 C388.6539,1057.4446 393.3965,1057.5851 397.126,1063.7262 C400.4317,1056.9632 405.4334,1058.2122 409.472,1062.9387 C414.0923,1055.7913 418.3529,1055.9161 422.9939,1062.919 C427.2687,1056.6356 431.1013,1057.6236 435.1973,1063.1045 C438.5288,1058.4186 443.7424,1058.5722 446.5226,1063.7382 C449.2208,1058.0805 455.4873,1057.5886 459.0645,1062.7161 C463.1441,1056.6788 468.4419,1056.7384 472.815,1062.3702 C477.9896,1056.9347 482.7512,1057.4348 485.6016,1064.7085 C488.5726,1058.5845 494.0529,1058.6686 497.0915,1064.6443 C501.0603,1058.8108 505.4444,1059.5678 509.4544,1064.5974 C519.1357,1067.007 520.4459,1073.1667 515.4482,1080.955 C520.8931,1089.4122 519.428,1094.5155 509.4847,1097.3885 C507.2371,1103.0599 501.8773,1103.5312 498.7014,1098.3073 C495.1144,1104.8175 488.9523,1105.4068 484.3611,1099.4636 C481.6276,1105.3661 477.6571,1106.9815 472.4271,1102.2708 C469.1462,1108.7747 464.6501,1108.5988 460.5701,1103.0573 C458.0417,1110.4965 451.5243,1110.9634 447.516,1104.4411 C442.6127,1110.8389 437.1536,1108.7632 434.6665,1102.0695 C430.7306,1108.8475 424.8089,1108.6921 421.2381,1101.7131 C416.7034,1107.2315 412.0151,1105.7529 409.3415,1099.7855 C405.4643,1104.903 400.1053,1104.5251 397.5614,1098.3898 C393.1005,1103.8529 386.8786,1104.5887 383.6171,1097.0986 C376.5191,1093.0471 375.1177,1085.0642 383.6987,1081.0927 C375.4564,1075.0645 376.4035,1068.5819 384.8021,1063.6036" fill="#FEF3C7" style="stroke:#181818;stroke-width:0.5;"/><text fill="#000000" font-family="Monospace" font-size="14" lengthAdjust="spacing" textLength="111.9156" x="390.37" y="1085.2039">actions/checkout</text></g><!--entity tool_actions_download_artifact--><g class="entity" data-qualified-name="tool_actions_download_artifact" data-source-line="12" id="ent0007"><path d="M357.1855,980.9205 C361.1349,975.625 365.9532,974.1656 370.1042,980.7004 C373.2909,973.9948 377.2114,973.3609 382.3053,978.7813 C386.5128,972.5945 393.2106,974.3698 396.0591,980.3212 C398.6567,974.7108 404.2493,972.8608 408.3779,978.6695 C412.362,973.0581 418.3875,972.536 421.6586,979.4269 C424.7221,971.6279 430.874,972.1227 435.5047,977.8188 C439.0101,972.1415 444.181,972.5901 446.7954,978.6742 C450.6625,971.4914 457.8262,970.8112 461.6027,978.7629 C465.7626,972.3892 471.1781,972.674 474.564,979.5216 C477.6524,973.9853 483.0045,973.6834 485.9883,979.6257 C489.0717,972.9388 495.4255,972.1251 499.5796,978.5126 C503.9471,972.5648 509.4441,973.8554 512.1484,980.2116 C516.7459,972.5539 521.3123,973.1405 526.3926,979.7288 C529.9933,973.2811 536.3625,972.6555 540.1733,979.5111 C551.147,981.698 554.0568,989.5462 546.2576,997.9332 C550.6339,1006.5727 547.3997,1011.6508 537.9898,1012.4248 C534.4539,1018.5948 530.3239,1020.8621 524.7625,1014.5758 C521.2888,1020.8885 516.2575,1020.6321 511.9435,1015.5185 C509.1498,1020.3682 504.2699,1021.2649 500.8635,1016.2035 C497.5687,1022.6453 491.1904,1023.9261 486.3691,1017.9913 C482.9533,1024.889 476.8849,1023.5183 473.4122,1018.0508 C470.5824,1024.8069 466.3874,1025.6575 461.6983,1019.774 C457.3429,1027.9195 450.2082,1026.8582 446.436,1019.2104 C442.3884,1025.0311 437.4072,1025.7875 433.8372,1018.7426 C430.0371,1024.3984 424.9492,1024.0484 421.0031,1018.9162 C417.3218,1024.654 411.6193,1024.5421 408.6973,1018.1462 C404.2648,1023.4691 398.9012,1023.9228 395.852,1016.7268 C391.5438,1023.1054 387.4413,1021.8246 383.3796,1016.4647 C379.1276,1022.4565 373.0397,1022.1787 369.8371,1015.3557 C365.698,1021.1516 358.9686,1021.1121 355.806,1014.2713 C343.7184,1013.3681 341.4346,1006.1029 347.3508,996.5902 C344.0106,987.3781 347.396,981.892 357.1855,980.9205" fill="#FEF3C7" style="stroke:#181818;stroke-width:0.5;"/><text fill="#000000" font-family="Monospace" font-size="14" lengthAdjust="spacing" textLength="168.8114" x="361.92" y="1001.2039">actions/download-artifact</text></g><!--entity tool_actions_setup_python--><g class="entity" data-qualified-name="tool_actions_setup_python" data-source-line="13" id="ent0008"><path d="M370.4391,644.7886 C372.6516,638.7338 376.8652,638.672 380.6839,643.2395 C385.5476,637.9098 389.8869,638.5586 393.2797,644.8357 C395.1757,640.2463 399.9736,638.3921 403.4296,643.1398 C406.7891,636.8472 410.3966,636.9538 414.4651,642.4776 C418.0453,636.9911 421.783,637.8893 425.2327,642.6152 C429.0714,638.2736 432.7098,638.602 435.486,643.7618 C438.6614,637.9573 443.7179,636.3045 448.4598,641.9936 C451.5056,637.0228 454.444,637.0813 457.565,641.9238 C461.8981,636.1812 466.2261,636.8219 469.9553,642.5748 C473.998,637.6374 477.8671,638.3012 480.9286,643.6243 C483.6971,638.2513 488.4605,638.9276 491.5699,643.2501 C494.6203,637.606 499.4218,638.3211 502.1525,643.5609 C506.3774,637.9187 510.1772,638.6022 514.2137,643.771 C518.0054,638.5006 522.4572,638.814 525.6576,644.3945 C534.8026,647.0958 536.6341,655.119 530.114,661.8252 C537.1489,669.9209 534.7016,676.4588 524.1114,678.0228 C520.6294,683.6135 516.851,683.5411 513.6667,677.7495 C511.6218,683.6253 506.6828,683.2488 503.2159,679.2552 C500.469,685.1179 495.8412,685.2693 491.9438,680.4719 C488.8227,686.5877 483.0731,686.3233 480.0038,680.4204 C477.5805,685.9861 474.3516,685.365 470.4533,681.9974 C467.2992,687.1305 462.7385,687.7664 459.2269,682.3789 C456.8521,687.7606 451.1919,688.2346 447.8429,683.4721 C444.2616,689.4957 439.7183,689.169 436.031,683.5798 C432.4563,688.1587 427.2635,688.8475 424.5666,682.6464 C420.9168,687.1299 416.6118,685.6187 414.8653,680.6856 C410.4132,684.7163 406.6824,684.3805 403.5281,679.1046 C399.3918,685.2135 395.4778,683.9096 391.5984,678.8306 C389.371,683.2565 384.7423,683.123 382.0888,679.3232 C378.3147,684.9986 372.7349,684.3849 370.2362,678.0631 C360.4993,676.7773 356.9289,669.6095 361.5011,660.9989 C356.5385,652.0828 359.0667,644.6979 370.4391,644.7886" fill="#FEF3C7" style="stroke:#181818;stroke-width:0.5;"/><text fill="#000000" font-family="Monospace" font-size="14" lengthAdjust="spacing" textLength="140.2795" x="376.19" y="665.2039">actions/setup-python</text></g><!--entity tool_actions_upload_artifact--><g class="entity" data-qualified-name="tool_actions_upload_artifact" data-source-line="14" id="ent0009"><path d="M366.8794,727.9258 C369.3213,722.6573 373.442,723.1947 376.5374,727.2488 C380.6259,721.0982 385.8201,721.8212 389.7054,727.4755 C392.6709,721.4966 398.4068,721.5416 401.3435,727.5036 C404.4454,722.8247 410.1674,722.4711 412.7979,728.031 C415.9476,721.956 419.7802,722.5225 424.1735,726.6434 C427.2199,721.1369 431.977,722.2266 434.7346,726.9419 C438.1389,720.9238 442.4382,720.19 446.788,725.9765 C450.9813,720.3125 457.1443,722.1543 459.665,727.8694 C462.7698,720.8357 467.2889,721.8639 471.6972,726.5287 C474.9216,722.5288 479.4416,722.1956 481.5844,727.6588 C485.4864,721.5241 489.0824,721.4817 493.4402,727.203 C497.3915,721.731 501.8361,722.5545 504.9865,728.0465 C508.7851,722.6378 513.2172,722.328 517.1845,727.8584 C520.2919,721.467 525.6777,721.6284 529.3095,727.3327 C538.6789,731.4822 540.0609,737.7924 532.1877,744.7854 C540.2207,751.2865 538.7328,757.1544 529.8406,761.2414 C525.923,767.1051 522.0862,767.7646 517.0795,762.4892 C513.4743,767.8299 507.7487,766.9167 504.9759,761.5483 C501.7846,766.5286 498.6426,767.4309 494.739,762.267 C490.7802,769.3577 485.8229,768.297 481.5023,762.6428 C478.604,768.4047 474.7649,769.0245 470.3992,764.1788 C467.9966,769.7969 463.0082,770.1427 460.0767,764.6711 C456.4646,772.0297 452.0985,770.8722 447.1099,766.1484 C442.6045,770.7999 439.4607,769.7078 436.8158,764.2534 C433.4483,770.3394 428.117,770.0218 424.213,764.8542 C420.0632,770.3504 415.9813,769.9639 413.1326,763.6349 C408.6852,768.2214 404.7666,768.2231 401.5574,762.2745 C398.5187,767.9507 392.8167,769.181 389.1062,762.9787 C385.1565,768.0832 380.3337,768.5007 376.532,762.8062 C373.382,767.4693 368.3403,767.2262 366.3139,761.6814 C355.8235,759.9474 352.1368,752.5161 359.6928,744.0176 C354.5203,735.9123 357.2396,729.4159 366.8794,727.9258" fill="#FEF3C7" style="stroke:#181818;stroke-width:0.5;"/><text fill="#000000" font-family="Monospace" font-size="14" lengthAdjust="spacing" textLength="149.3374" x="371.66" y="749.2039">actions/upload-artifact</text></g><!--entity tool_black--><g class="entity" data-qualified-name="tool_black" data-source-line="15" id="ent0010"><path d="M422.8112,308.8532 C424.833,302.3588 430.8775,301.8391 435.0073,306.5611 C438.8781,299.9361 443.2047,299.7907 447.6324,306.0139 C452.042,300.5195 455.8921,300.7362 459.4159,306.9086 C463.661,301.1503 469.4544,301.1937 472.3093,308.3017 C480.3022,312.1633 481.0231,318.6647 474.5001,324.4906 C481.0122,330.6082 480.131,338.4189 471.4817,341.9092 C469.7548,348.1464 464.4959,350.6505 459.145,346.025 C458.1492,352.2827 452.837,353.3895 448.4839,349.5806 C441.9392,355.0675 436.5235,353.1901 434.9711,344.7403 C429.1756,350.6409 424.3728,349.2527 422.2437,341.3578 C411.6235,339.4828 410.1382,333.3657 416.1349,325.206 C410.2182,316.88 414.0106,311.1707 422.8112,308.8532" fill="#FEF3C7" style="stroke:#181818;stroke-width:0.5;"/><text fill="#000000" font-family="Monospace" font-size="14" lengthAdjust="spacing" textLength="34.2719" x="429.19" y="329.2039">black</text></g><!--entity tool_build--><g class="entity" data-qualified-name="tool_build" data-source-line="16" id="ent0011"><path d="M423.0282,811.5985 C427.1754,805.7643 431.967,805.6046 435.7822,811.9462 C438.8648,805.8018 444.2951,804.8821 448.354,810.9404 C451.1634,806.42 456.2454,805.2323 459.2228,810.7586 C463.2435,805.3371 468.4277,805.796 471.4544,811.8208 C482.3228,813.9442 481.8735,823.3509 475.8264,829.6275 C482.2788,836.3504 479.8408,842.4418 471.3224,844.6874 C469.4882,850.2538 464.1999,851.8007 459.8835,847.5921 C456.8677,853.9005 452.2794,854.7167 447.6863,849.2221 C443.6464,854.7617 437.3187,854.7966 434.5675,847.8664 C429.8136,851.781 425.1455,850.264 422.995,844.6909 C412.6763,844.2708 409.901,835.5091 414.9757,827.7866 C409.1928,819.833 412.2948,811.3363 423.0282,811.5985" fill="#FEF3C7" style="stroke:#181818;stroke-width:0.5;"/><text fill="#000000" font-family="Monospace" font-size="14" lengthAdjust="spacing" textLength="33.0959" x="429.78" y="833.2039">build</text></g><!--entity tool_gitleaks_gitleaks_action--><g class="entity" data-qualified-name="tool_gitleaks_gitleaks_action" data-source-line="17" id="ent0012"><path d="M363.4866,1148.893 C367.627,1141.5143 371.857,1142.0066 377.0958,1147.7541 C381.0075,1142.2092 385.8395,1142.4052 388.963,1148.5539 C392.2192,1142.6947 396.7025,1142.979 400.0729,1148.4418 C403.2246,1143.0893 408.1698,1141.4346 412.2506,1147.4461 C414.9364,1141.6664 420.8213,1139.9679 424.5572,1146.3866 C428.946,1140.241 433.6679,1142.4888 436.6086,1147.897 C439.1746,1143.0278 442.7211,1142.0315 446.4222,1146.733 C450.4549,1139.4053 456.9427,1141.4639 460.2878,1147.4491 C462.738,1143.0407 467.397,1142.7365 470.2031,1147.0442 C473.7561,1141.319 477.9752,1141.4517 481.8887,1146.6588 C486.6345,1141.5886 492.6664,1141.3013 495.8067,1148.4827 C498.805,1143.3534 503.7892,1142.0673 507.7006,1147.4495 C510.8313,1142.2607 514.4391,1142.0943 517.9236,1147.0946 C523.1506,1141.34 527.0626,1142.1017 530.2187,1149.0923 C539.8089,1149.8242 543.2736,1156.5209 539.5493,1165.0418 C545.4577,1175.3892 540.6616,1182.2098 529.273,1182.1943 C525.714,1186.7655 521.8013,1186.1223 518.9772,1181.3818 C516.4718,1189.1453 511.4692,1189.7071 506.1696,1184.0479 C503.0435,1189.1547 499.8217,1189.0319 495.9066,1184.927 C491.4434,1190.3778 486.6566,1192.0043 482.369,1184.7401 C478.9487,1190.7809 474.2914,1190.7686 470.304,1185.3365 C467.869,1191.7211 464.5042,1192.0873 459.7316,1187.6122 C456.0475,1193.4364 451.7673,1194.0617 447.0391,1188.8085 C442.2463,1193.4504 438.0559,1193.6466 434.5881,1187.3062 C430.8228,1191.9129 425.5224,1191.9518 422.9212,1186.0177 C419.4398,1191.3919 415.151,1190.4789 412.3538,1185.3305 C408.5966,1192.1314 403.3016,1191.4254 399.7592,1185.124 C395.4249,1189.5215 390.8675,1189.0186 388.1051,1183.3111 C384.2341,1188.9883 378.8076,1186.6124 376.6568,1181.4879 C373.741,1187.9809 367.9837,1188.2292 364.2563,1182.2979 C354.5482,1179.6607 352.9888,1171.8995 359.3231,1164.7519 C352.3684,1158.4309 355.2718,1151.2313 363.4866,1148.893" fill="#FEF3C7" style="stroke:#181818;stroke-width:0.5;"/><text fill="#000000" font-family="Monospace" font-size="14" lengthAdjust="spacing" textLength="151.7174" x="370.47" y="1169.2039">gitleaks/gitleaks-action</text></g><!--entity tool_pip--><g class="entity" data-qualified-name="tool_pip" data-source-line="18" id="ent0013"><path d="M430.2012,559.3066 C434.5455,551.6787 442.0107,550.2161 447.4651,558.0686 C454.8731,549.9547 460.9818,551.9022 465.2705,561.2494 C474.6419,562.5015 478.7019,567.3941 473.867,576.6012 C479.9578,586.3279 474.2844,592.752 464.3961,593.5496 C461.4861,603.5252 455.7952,605.8925 447.4133,599.0874 C439.0973,606.1997 431.2826,602.2965 429.2946,592.3617 C421.482,588.083 419.05,583.4608 426.5587,576.5339 C419.4908,569.3159 420.3757,562.9528 430.2012,559.3066" fill="#FEF3C7" style="stroke:#181818;stroke-width:0.5;"/><text fill="#000000" font-family="Monospace" font-size="14" lengthAdjust="spacing" textLength="20.8319" x="435.91" y="581.2039">pip</text></g><!--entity tool_pypa_gh_action_pypi_publish--><g class="entity" data-qualified-name="tool_pypa_gh_action_pypi_publish" data-source-line="19" id="ent0014"><path d="M347.3646,896.7222 C351.3144,888.9713 358.3079,890.6651 361.9552,897.0348 C366.2157,889.2076 372.7232,889.1815 377.2585,896.7618 C380.622,890.4812 386.9184,888.883 390.8436,896.2006 C393.8459,888.9272 400.808,888.1063 405.1908,894.7805 C408.3675,888.1268 414.7109,889.0387 418.1284,894.5238 C423.0305,888.7508 429.0512,889.6727 432.5657,896.1581 C436.686,889.7819 442.005,888.9724 447.113,894.9995 C451.5372,889.3273 458.1852,889.2922 461.5825,896.1823 C464.9279,888.9341 470.1805,888.5961 474.8599,894.8726 C480.1052,888.2351 484.4221,888.8164 489.2618,895.3173 C493.2263,887.3483 500.9288,887.2192 505.257,894.9468 C509.3972,889.2117 514.7567,890.0817 518.3765,895.556 C522.536,888.8381 528.4207,888.2596 532.6011,895.5347 C538.3895,889.4508 543.2198,890.3048 547.615,897.1523 C557.0716,899.2145 560.1711,904.1517 556.2301,913.3428 C560.3244,922.5295 559.0084,929.3368 547.248,929.9466 C542.7535,936.9542 538.3403,936.568 533.4488,930.3611 C527.8005,936.8559 523.3096,935.739 518.4726,929.4133 C514.8048,936.3464 509.2629,938.5739 503.316,931.964 C499.1575,937.3466 494.4898,938.6318 490.5832,931.7035 C487.0137,939.5514 479.8873,939.0745 476.3132,931.7078 C472.363,939.1923 465.4557,937.974 462.0692,931.1467 C458.5111,937.7097 450.9629,938.3596 446.7028,931.9802 C441.5664,938.2755 436.702,938.4294 433.041,930.5574 C429.7402,937.5078 424.2331,937.7067 419.1242,932.6537 C413.3081,939.1409 408.3027,937.5659 404.4889,930.4927 C400.1187,938.1854 394.5344,938.6366 389.6054,931.0366 C385.5573,935.775 380.7095,936.0667 377.42,930.1676 C371.9949,937.1736 366.572,937.7827 362.1386,929.1956 C357.3322,937.2245 352.0601,936.4291 347.0113,929.4397 C339.123,925.7585 336.2665,919.5609 344.0343,913.0381 C336.3835,906.6154 339.6495,900.0085 347.3646,896.7222" fill="#FEF3C7" style="stroke:#181818;stroke-width:0.5;"/><text fill="#000000" font-family="Monospace" font-size="14" lengthAdjust="spacing" textLength="184.9953" x="353.83" y="917.2039">pypa/gh-action-pypi-publish</text></g><!--entity tool_pytest--><g class="entity" data-qualified-name="tool_pytest" data-source-line="20" id="ent0015"><path d="M420.4493,392.7232 C423.1645,385.845 430.2222,384.2415 434.8873,390.5957 C438.1165,384.8063 443.8045,384.5653 447.742,389.7673 C451.7687,383.9968 457.6301,385.0771 460.0194,391.426 C465.7068,384.0824 470.8261,383.6968 475.404,392.4842 C487.1875,392.8154 490.6219,399.7337 484.0609,409.4341 C489.5847,419.0046 485.735,426.185 474.3591,425.6356 C472.6527,433.277 467.829,435.0862 462.0081,429.4684 C460.1812,437.0677 453.825,440.1915 447.1565,435.1624 C441.9718,439.384 435.3324,438.1444 434.695,430.4192 C427.5972,436.3782 421.033,433.7221 420.5106,424.3397 C412.4031,421.5464 408.9682,415.8936 415.3068,408.3877 C408.308,400.929 412.4814,395.2685 420.4493,392.7232" fill="#FEF3C7" style="stroke:#181818;stroke-width:0.5;"/><text fill="#000000" font-family="Monospace" font-size="14" lengthAdjust="spacing" textLength="40.4599" x="426.1" y="413.2039">pytest</text></g><!--entity tool_ruff--><g class="entity" data-qualified-name="tool_ruff" data-source-line="21" id="ent0016"><path d="M427.8832,475.9253 C432.7531,466.5258 442.1361,465.7936 447.7562,475.1296 C454.5649,467.4368 460.2465,467.4715 465.3854,476.8536 C475.941,477.5033 478.1917,484.0972 473.3755,492.5645 C478.1534,501.394 474.7504,506.3586 465.7439,508.6472 C460.6011,518.6025 454.9108,519.3056 447.2729,511.1988 C440.6235,518.788 432.3381,519.587 428.1721,508.6398 C419.1682,507.3319 416.4461,500.3738 422.689,493.5323 C415.369,486.3011 419.1346,478.416 427.8832,475.9253" fill="#FEF3C7" style="stroke:#181818;stroke-width:0.5;"/><text fill="#000000" font-family="Monospace" font-size="14" lengthAdjust="spacing" textLength="24.0659" x="434.3" y="497.2039">ruff</text></g><!--entity tool_run--><g class="entity" data-qualified-name="tool_run" data-source-line="22" id="ent0017"><path d="M428.0002,56.8706 C432.8718,47.7293 441.1748,46.1296 448.2351,54.3143 C454.0987,46.5504 462.4235,48.2883 465.8227,56.9525 C475.4123,57.6613 481.1016,62.4144 475.6144,72.5737 C480.8485,82.0202 477.3465,87.44 466.973,88.3228 C466.7346,101.0475 460.4031,106.0421 448.4097,99.8709 C437.503,104.9036 430.3406,103.4176 429.6402,89.6703 C419.9793,88.8356 416.1911,80.744 421.5439,72.7327 C416.4885,64.6057 418.9047,59.2377 428.0002,56.8706" fill="#FEF3C7" style="stroke:#181818;stroke-width:0.5;"/><text fill="#000000" font-family="Monospace" font-size="14" lengthAdjust="spacing" textLength="23.0859" x="434.79" y="77.2039">run</text></g><!--entity tool_summarize--><g class="entity" data-qualified-name="tool_summarize" data-source-line="23" id="ent0018"><path d="M403.8662,139.7082 C409.0605,132.088 414.2979,133.6617 418.7254,140.4963 C422.3419,133.3452 428.0494,133.5795 432.1302,140.0389 C436.9642,132.5754 441.7309,131.3054 447.9359,138.5673 C451.9967,131.1997 459.0965,131.4657 462.7206,139.0007 C467.3051,132.1413 474.1965,132.4184 477.4124,140.3593 C481.0489,134.5447 487.749,133.9823 490.9117,140.8631 C500.2794,140.9338 504.3894,148.7506 499.2993,156.5512 C505.2439,165.1643 501.5713,171.1668 491.9764,172.7589 C488.1944,180.6105 480.6045,180.5184 475.6862,174.0518 C472.3799,182.1689 467.0983,181.6599 461.8395,176.0165 C459.0474,183.3974 452.1639,182.8845 448.1046,177.3659 C443.2756,182.9427 438.3055,183.9218 433.9681,176.8179 C428.4102,182.4858 422.0888,181.7947 418.9919,174.0665 C414.802,181.7863 408.3119,181.8264 404.4376,173.7753 C393.8776,172.9199 391.9451,163.6176 397.3871,156.3045 C392.0733,149.1206 393.1392,140.6298 403.8662,139.7082" fill="#FEF3C7" style="stroke:#181818;stroke-width:0.5;"/><text fill="#000000" font-family="Monospace" font-size="14" lengthAdjust="spacing" textLength="73.2617" x="409.7" y="161.2039">summarize</text></g><!--entity tool_tachometer--><g class="entity" data-qualified-name="tool_tachometer" data-source-line="24" id="ent0019"><path d="M402.6672,223.6907 C405.4407,218.6174 409.996,218.9775 412.7274,223.7338 C416.8084,217.5092 422.1557,218.9347 425.6126,224.4206 C428.9305,218.9344 432.1863,218.5078 435.9278,224.0235 C438.8186,217.1195 443.3721,217.0811 448.1058,222.1488 C451.9208,216.9114 456.3124,219.0105 458.5933,223.7599 C461.7261,218.6305 465.7549,218.416 469.276,223.3474 C473.1174,217.506 478.0207,218.6284 481.0876,224.1523 C484.156,218.4488 488.7969,219.7477 491.7723,224.2497 C500.0008,228.061 500.6821,235.0747 493.5196,240.5371 C501.54,245.5006 501.021,251.1823 493.6884,256.3101 C490.5061,261.712 486.2187,262.4527 482.2912,257.0998 C479.6329,263.7654 474.5721,264.0238 470.058,259.0502 C466.0925,264.4338 462.7746,263.6977 459.0571,258.7852 C456.6491,264.4725 451.3853,264.6148 448.3816,259.3666 C444.9725,264.1032 439.875,264.5201 436.7593,259.0332 C432.7347,262.8121 428.0251,263.0921 425.8926,256.959 C422.893,263.9778 416.7563,263.2166 412.7172,258.0863 C409.1731,262.5639 403.547,262.1996 401.1947,256.7087 C392.3879,255.5597 389.4325,247.3143 394.3087,240.3911 C389.5921,230.9882 391.0116,224.8994 402.6672,223.6907" fill="#FEF3C7" style="stroke:#181818;stroke-width:0.5;"/><text fill="#000000" font-family="Monospace" font-size="14" lengthAdjust="spacing" textLength="76.4677" x="408.09" y="245.2039">tachometer</text></g><g class="entity" data-qualified-name="toolingGraphSummary" data-source-line="44" id="ent0038"><path d="M39.16,46.0679 L39.16,91.4799 L246.6712,91.4799 L246.6712,56.0679 L236.6712,46.0679 L39.16,46.0679" fill="#FEFFDD" style="stroke:#181818;stroke-width:0.5;"/><path d="M236.6712,46.0679 L236.6712,56.0679 L246.6712,56.0679 L236.6712,46.0679" fill="#FEFFDD" style="stroke:#181818;stroke-width:1;"/><text fill="#000000" font-family="Monospace" font-size="13" lengthAdjust="spacing" textLength="186.5112" x="45.16" y="64.9649">Scanned&#160;4&#160;tooling&#160;entrypoints.</text><text fill="#000000" font-family="Monospace" font-size="13" lengthAdjust="spacing" textLength="179.2182" x="45.16" y="82.6709">Detected&#160;14&#160;third-party&#160;tools.</text></g><!--link source_github_workflows_ci_yml to tool_actions_checkout--><g class="link" data-entity-1="ent0002" data-entity-2="ent0006" data-link-type="dependency" data-source-line="25" id="lnk20"><path d="M234.61,559.9379 C272.98,559.9379 308.83,559.9379 308.83,559.9379 C308.83,559.9379 308.83,1067.7279 308.83,1067.7279 C308.83,1067.7279 335.61,1067.7279 369.16,1067.7279" fill="none" id="source_github_workflows_ci_yml-to-tool_actions_checkout" style="stroke:#181818;stroke-width:1;"/><polygon fill="#181818" points="375.16,1067.7279,366.16,1063.7279,370.16,1067.7279,366.16,1071.7279,375.16,1067.7279" style="stroke:#181818;stroke-width:1;"/></g><!--link source_github_workflows_ci_yml to tool_actions_setup_python--><g class="link" data-entity-1="ent0002" data-entity-2="ent0008" data-link-type="dependency" data-source-line="26" id="lnk21"><path d="M234.69,557.0379 C300.22,557.0379 376.83,557.0379 376.83,557.0379 C376.83,557.0379 376.83,598.4979 376.83,628.9079" fill="none" id="source_github_workflows_ci_yml-to-tool_actions_setup_python" style="stroke:#181818;stroke-width:1;"/><polygon fill="#181818" points="376.83,634.9079,380.83,625.9079,376.83,629.9079,372.83,625.9079,376.83,634.9079" style="stroke:#181818;stroke-width:1;"/></g><!--link source_github_workflows_ci_yml to tool_black--><g class="link" data-entity-1="ent0002" data-entity-2="ent0010" data-link-type="dependency" data-source-line="27" id="lnk22"><path d="M142.83,504.5779 C142.83,446.8679 142.83,323.7779 142.83,323.7779 C142.83,323.7779 329.55,323.7779 407.85,323.7779" fill="none" id="source_github_workflows_ci_yml-to-tool_black" style="stroke:#181818;stroke-width:1;"/><polygon fill="#181818" points="413.85,323.7779,404.85,319.7779,408.85,323.7779,404.85,327.7779,413.85,323.7779" style="stroke:#181818;stroke-width:1;"/></g><!--link source_github_workflows_ci_yml to tool_pip--><g class="link" data-entity-1="ent0002" data-entity-2="ent0013" data-link-type="dependency" data-source-line="28" id="lnk23"><path d="M234.36,554.1379 C298.57,554.1379 373.98,554.1379 414.7,554.1379" fill="none" id="source_github_workflows_ci_yml-to-tool_pip" style="stroke:#181818;stroke-width:1;"/><polygon fill="#181818" points="420.7,554.1379,411.7,550.1379,415.7,554.1379,411.7,558.1379,420.7,554.1379" style="stroke:#181818;stroke-width:1;"/></g><!--link source_github_workflows_ci_yml to tool_pytest--><g class="link" data-entity-1="ent0002" data-entity-2="ent0015" data-link-type="dependency" data-source-line="29" id="lnk24"><path d="M234.59,508.5779 C313.53,508.5779 414.83,508.5779 414.83,508.5779 C414.83,508.5779 414.83,468.5379 414.83,438.6879" fill="none" id="source_github_workflows_ci_yml-to-tool_pytest" style="stroke:#181818;stroke-width:1;"/><polygon fill="#181818" points="414.83,432.6879,410.83,441.6879,414.83,437.6879,418.83,441.6879,414.83,432.6879" style="stroke:#181818;stroke-width:1;"/></g><!--link source_github_workflows_ci_yml to tool_ruff--><g class="link" data-entity-1="ent0002" data-entity-2="ent0016" data-link-type="dependency" data-source-line="30" id="lnk25"><path d="M234.36,512.4379 C297.7,512.4379 371.77,512.4379 413.01,512.4379" fill="none" id="source_github_workflows_ci_yml-to-tool_ruff" style="stroke:#181818;stroke-width:1;"/><polygon fill="#181818" points="419.01,512.4379,410.01,508.4379,414.01,512.4379,410.01,516.4379,419.01,512.4379" style="stroke:#181818;stroke-width:1;"/></g><!--link source_github_workflows_python_publish_yml to tool_actions_checkout--><g class="link" data-entity-1="ent0003" data-entity-2="ent0006" data-link-type="dependency" data-source-line="31" id="lnk26"><path d="M269.83,857.2279 C269.83,923.8179 269.83,1080.2179 269.83,1080.2179 C269.83,1080.2179 320.06,1080.2179 369.05,1080.2179" fill="none" id="source_github_workflows_python_publish_yml-to-tool_actions_checkout" style="stroke:#181818;stroke-width:1;"/><polygon fill="#181818" points="375.05,1080.2179,366.05,1076.2179,370.05,1080.2179,366.05,1084.2179,375.05,1080.2179" style="stroke:#181818;stroke-width:1;"/></g><!--link source_github_workflows_python_publish_yml to tool_actions_download_artifact--><g class="link" data-entity-1="ent0003" data-entity-2="ent0007" data-link-type="dependency" data-source-line="32" id="lnk27"><path d="M272.83,857.0379 C272.83,905.1679 272.83,995.7779 272.83,995.7779 C272.83,995.7779 301.99,995.7779 340.66,995.7779" fill="none" id="source_github_workflows_python_publish_yml-to-tool_actions_download_artifact" style="stroke:#181818;stroke-width:1;"/><polygon fill="#181818" points="346.66,995.7779,337.66,991.7779,341.66,995.7779,337.66,999.7779,346.66,995.7779" style="stroke:#181818;stroke-width:1;"/></g><!--link source_github_workflows_python_publish_yml to tool_actions_setup_python--><g class="link" data-entity-1="ent0003" data-entity-2="ent0008" data-link-type="dependency" data-source-line="33" id="lnk28"><path d="M271.83,798.5079 C271.83,750.3779 271.83,659.7779 271.83,659.7779 C271.83,659.7779 310.65,659.7779 354.87,659.7779" fill="none" id="source_github_workflows_python_publish_yml-to-tool_actions_setup_python" style="stroke:#181818;stroke-width:1;"/><polygon fill="#181818" points="360.87,659.7779,351.87,655.7779,355.87,659.7779,351.87,663.7779,360.87,659.7779" style="stroke:#181818;stroke-width:1;"/></g><!--link source_github_workflows_python_publish_yml to tool_actions_upload_artifact--><g class="link" data-entity-1="ent0003" data-entity-2="ent0009" data-link-type="dependency" data-source-line="34" id="lnk29"><path d="M274.83,798.3979 C274.83,774.1679 274.83,743.7779 274.83,743.7779 C274.83,743.7779 308.9,743.7779 350.31,743.7779" fill="none" id="source_github_workflows_python_publish_yml-to-tool_actions_upload_artifact" style="stroke:#181818;stroke-width:1;"/><polygon fill="#181818" points="356.31,743.7779,347.31,739.7779,351.31,743.7779,347.31,747.7779,356.31,743.7779" style="stroke:#181818;stroke-width:1;"/></g><!--link source_github_workflows_python_publish_yml to tool_build--><g class="link" data-entity-1="ent0003" data-entity-2="ent0011" data-link-type="dependency" data-source-line="35" id="lnk30"><path d="M279.09,827.7779 C329.35,827.7779 375.9,827.7779 408.38,827.7779" fill="none" id="source_github_workflows_python_publish_yml-to-tool_build" style="stroke:#181818;stroke-width:1;"/><polygon fill="#181818" points="414.38,827.7779,405.38,823.7779,409.38,827.7779,405.38,831.7779,414.38,827.7779" style="stroke:#181818;stroke-width:1;"/></g><!--link source_github_workflows_python_publish_yml to tool_pip--><g class="link" data-entity-1="ent0003" data-entity-2="ent0013" data-link-type="dependency" data-source-line="36" id="lnk31"><path d="M267.83,798.5679 C267.83,733.3479 267.83,581.5779 267.83,581.5779 C267.83,581.5779 365.4,581.5779 414.75,581.5779" fill="none" id="source_github_workflows_python_publish_yml-to-tool_pip" style="stroke:#181818;stroke-width:1;"/><polygon fill="#181818" points="420.75,581.5779,411.75,577.5779,415.75,581.5779,411.75,585.5779,420.75,581.5779" style="stroke:#181818;stroke-width:1;"/></g><!--link source_github_workflows_python_publish_yml to tool_pypa_gh_action_pypi_publish--><g class="link" data-entity-1="ent0003" data-entity-2="ent0014" data-link-type="dependency" data-source-line="37" id="lnk32"><path d="M275.83,857.1579 C275.83,881.3779 275.83,911.7779 275.83,911.7779 C275.83,911.7779 298.51,911.7779 332.35,911.7779" fill="none" id="source_github_workflows_python_publish_yml-to-tool_pypa_gh_action_pypi_publish" style="stroke:#181818;stroke-width:1;"/><polygon fill="#181818" points="338.35,911.7779,329.35,907.7779,333.35,911.7779,329.35,915.7779,338.35,911.7779" style="stroke:#181818;stroke-width:1;"/></g><!--link source_github_workflows_secret_scan_yml to tool_actions_checkout--><g class="link" data-entity-1="ent0004" data-entity-2="ent0006" data-link-type="dependency" data-source-line="38" id="lnk33"><path d="M266.76,1098.5079 C303.63,1098.5079 336.77,1098.5079 369.07,1098.5079" fill="none" id="source_github_workflows_secret_scan_yml-to-tool_actions_checkout" style="stroke:#181818;stroke-width:1;"/><polygon fill="#181818" points="375.07,1098.5079,366.07,1094.5079,370.07,1098.5079,366.07,1102.5079,375.07,1098.5079" style="stroke:#181818;stroke-width:1;"/></g><!--link source_github_workflows_secret_scan_yml to tool_gitleaks_gitleaks_action--><g class="link" data-entity-1="ent0004" data-entity-2="ent0012" data-link-type="dependency" data-source-line="39" id="lnk34"><path d="M266.76,1145.0379 C296.42,1145.0379 321.55,1145.0379 349.41,1145.0379" fill="none" id="source_github_workflows_secret_scan_yml-to-tool_gitleaks_gitleaks_action" style="stroke:#181818;stroke-width:1;"/><polygon fill="#181818" points="355.41,1145.0379,346.41,1141.0379,350.41,1145.0379,346.41,1149.0379,355.41,1145.0379" style="stroke:#181818;stroke-width:1;"/></g><!--link source_scripts_run_tachometer_profile_sh to tool_run--><g class="link" data-entity-1="ent0005" data-entity-2="ent0017" data-link-type="dependency" data-source-line="40" id="lnk35"><path d="M255.83,126.5179 C255.83,101.4479 255.83,69.3579 255.83,69.3579 C255.83,69.3579 360.93,69.3579 413.44,69.3579" fill="none" id="source_scripts_run_tachometer_profile_sh-to-tool_run" style="stroke:#181818;stroke-width:1;"/><polygon fill="#181818" points="419.44,69.3579,410.44,65.3579,414.44,69.3579,410.44,73.3579,419.44,69.3579" style="stroke:#181818;stroke-width:1;"/></g><!--link source_scripts_run_tachometer_profile_sh to tool_summarize--><g class="link" data-entity-1="ent0005" data-entity-2="ent0018" data-link-type="dependency" data-source-line="41" id="lnk36"><path d="M264.14,155.7779 C309.53,155.7779 352.72,155.7779 388.54,155.7779" fill="none" id="source_scripts_run_tachometer_profile_sh-to-tool_summarize" style="stroke:#181818;stroke-width:1;"/><polygon fill="#181818" points="394.54,155.7779,385.54,151.7779,389.54,155.7779,385.54,159.7779,394.54,155.7779" style="stroke:#181818;stroke-width:1;"/></g><!--link source_scripts_run_tachometer_profile_sh to tool_tachometer--><g class="link" data-entity-1="ent0005" data-entity-2="ent0019" data-link-type="dependency" data-source-line="42" id="lnk37"><path d="M248.83,185.1579 C248.83,209.3779 248.83,239.7779 248.83,239.7779 C248.83,239.7779 328.14,239.7779 386.62,239.7779" fill="none" id="source_scripts_run_tachometer_profile_sh-to-tool_tachometer" style="stroke:#181818;stroke-width:1;"/><polygon fill="#181818" points="392.62,239.7779,383.62,235.7779,387.62,239.7779,383.62,243.7779,392.62,239.7779" style="stroke:#181818;stroke-width:1;"/></g><?plantuml-src fLPDZziW4BtxLw3TivDsj-hUUjacLG_j9JskX0Z61WK3Wa6H--iB_fQzpjhfpSEyzsRm30CWG3AKLKgdafpH7wsbK0NwgO0Lbe3GoYMIvO108oiA3YWJbj7eIDn5A4CiAP7Z9DFNICo9T6paoLXEl8IZLl2Rb0pzqaexG-WOGtLfj68AJb25PA8yKOKSGq9I32h3aBR0TT93qCEk4C3zUN_Lzf9BVNLxAdPLAT_Krn0S0f1b8NajtGCY3ZdjBMMu8U6UXAd0WOGU3v-EJyV3xG2c2ZcerFYp58utmLws16i4S2kmFh1Zr3987IMgYVgq9Mh3nf6z5D9HAmoulVKA0w5Sbq7UOcDrBYJREVwcdc-4REduVJfsl8z9fVOPUY1r8uMISKOlsaCj5cLnwy6T1pqU3yVdrvSfCxITaffaAR4Wyh0wb-WWk8CiQJa6tgHDSUOojRSjtPA2Dn_aqW0MCpbBGYy3gpPd62zaDi94Suefugac5xVlFj8cWO7MEOQF1Z5LCi8Cf63C_9KX-uAt-k7d6T4TZ14lW731sn3H55tpp_M0EHXJepr5MP_d0oPQSuGQ0sRxShuiYHL_sO3gbwROePK7yB3MepyOBMdwxVtMtamST-9gSjrBgz6XqkknTObMmsEraWsJSVj_MoCo6mh_fRQg8ck49lFXBgrw8jp5l5NrcxpbyvsilOssbtbHOMcs9QklgL6ptiFg9yaTtC6TA0si6pZXRVN34iDFjNILdCAkLRY3ltHU5DvFjZ9QA72xv7jtHtyE02vibePt55JDbRrBcCfGLFy7?></g></svg>
