<?plantuml 1.2026.2?><svg xmlns="http://www.w3.org/2000/svg" xmlns:xlink="http://www.w3.org/1999/xlink" contentStyleType="text/css" data-diagram-type="DESCRIPTION" height="440px" preserveAspectRatio="none" style="width:450px;height:440px;background:#FFFFFF;" version="1.1" viewBox="0 0 450 440" width="450px" zoomAndPan="magnify"><title>dyno-lab Tooling Integrations</title><defs/><g><g class="title" data-source-line="1"><text fill="#000000" font-family="Monospace" font-size="14" font-weight="bold" lengthAdjust="spacing" textLength="206.8458" x="114.6966" y="24.9659">dyno-lab&#160;Tooling&#160;Integrations</text></g><!--entity source_github_workflows_ci_yml--><g class="entity" data-qualified-name="source_github_workflows_ci_yml" data-source-line="7" id="ent0002"><rect fill="#E0F2FE" height="58.1358" rx="2.5" ry="2.5" style="stroke:#181818;stroke-width:0.5;" width="182.6234" x="15.33" y="208.9846"/><text fill="#000000" font-family="Monospace" font-size="14" lengthAdjust="spacing" textLength="162.6234" x="25.33" y="233.9505">.github/workflows/ci.yml</text><text fill="#000000" font-family="Monospace" font-size="14" lengthAdjust="spacing" textLength="105.3356" x="25.33" y="253.0184">5&#160;detected&#160;tools</text></g><!--entity tool_actions_checkout--><g class="entity" data-qualified-name="tool_actions_checkout" data-source-line="8" id="ent0003"><path d="M290.9021,53.8803 C294.7539,47.7213 299.4965,47.8618 303.226,54.0028 C306.5317,47.2399 311.5334,48.4888 315.572,53.2153 C320.1923,46.0679 324.4529,46.1928 329.0939,53.1956 C333.3687,46.9122 337.2013,47.9002 341.2973,53.3812 C344.6288,48.6952 349.8424,48.8489 352.6226,54.0149 C355.3208,48.3572 361.5873,47.8653 365.1645,52.9928 C369.2441,46.9554 374.5419,47.015 378.915,52.6469 C384.0896,47.2114 388.8512,47.7115 391.7016,54.9852 C394.6726,48.8612 400.1529,48.9453 403.1915,54.921 C407.1603,49.0874 411.5444,49.8445 415.5544,54.874 C425.2357,57.2837 426.5459,63.4434 421.5482,71.2317 C426.9931,79.6889 425.528,84.7921 415.5847,87.6652 C413.3371,93.3365 407.9773,93.8078 404.8014,88.584 C401.2144,95.0942 395.0523,95.6835 390.4611,89.7403 C387.7276,95.6427 383.7571,97.2581 378.5271,92.5475 C375.2462,99.0514 370.7501,98.8755 366.6701,93.334 C364.1417,100.7731 357.6243,101.2401 353.616,94.7178 C348.7127,101.1156 343.2536,99.0399 340.7665,92.3462 C336.8306,99.1242 330.9089,98.9687 327.3381,91.9898 C322.8034,97.5081 318.1151,96.0295 315.4415,90.0621 C311.5643,95.1797 306.2053,94.8018 303.6614,88.6665 C299.2005,94.1295 292.9786,94.8653 289.7171,87.3753 C282.6191,83.3238 281.2177,75.3409 289.7987,71.3694 C281.5564,65.3412 282.5035,58.8586 290.9021,53.8803" fill="#FEF3C7" style="stroke:#181818;stroke-width:0.5;"/><text fill="#000000" font-family="Monospace" font-size="14" lengthAdjust="spacing" textLength="111.9156" x="296.47" y="75.4805">actions/checkout</text></g><!--entity tool_actions_setup_python--><g class="entity" data-qualified-name="tool_actions_setup_python" data-source-line="9" id="ent0004"><path d="M276.5291,139.0653 C278.7416,133.0104 282.9552,132.9487 286.7739,137.5162 C291.6376,132.1865 295.9769,132.8353 299.3697,139.1123 C301.2657,134.523 306.0636,132.6687 309.5196,137.4164 C312.8791,131.1239 316.4866,131.2305 320.5551,136.7543 C324.1353,131.2677 327.873,132.166 331.3227,136.8919 C335.1614,132.5503 338.7998,132.8787 341.576,138.0385 C344.7514,132.2339 349.8079,130.5811 354.5498,136.2702 C357.5956,131.2994 360.534,131.358 363.655,136.2005 C367.9881,130.4578 372.3161,131.0985 376.0453,136.8515 C380.088,131.9141 383.9571,132.5779 387.0186,137.9009 C389.7871,132.528 394.5505,133.2043 397.6599,137.5267 C400.7103,131.8827 405.5118,132.5978 408.2425,137.8376 C412.4674,132.1954 416.2672,132.8788 420.3037,138.0476 C424.0954,132.7773 428.5472,133.0907 431.7476,138.6712 C440.8926,141.3725 442.7241,149.3956 436.204,156.1019 C443.2389,164.1975 440.7916,170.7354 430.2014,172.2994 C426.7194,177.8902 422.941,177.8178 419.7567,172.0262 C417.7118,177.902 412.7728,177.5255 409.3059,173.5319 C406.559,179.3945 401.9312,179.5459 398.0338,174.7485 C394.9127,180.8644 389.1631,180.5999 386.0938,174.6971 C383.6705,180.2628 380.4416,179.6416 376.5433,176.2741 C373.3892,181.4071 368.8285,182.0431 365.3169,176.6555 C362.9421,182.0373 357.2819,182.5113 353.9329,177.7488 C350.3516,183.7723 345.8083,183.4457 342.121,177.8565 C338.5463,182.4354 333.3535,183.1241 330.6566,176.923 C327.0068,181.4066 322.7018,179.8954 320.9553,174.9623 C316.5032,178.9929 312.7724,178.6572 309.6181,173.3813 C305.4818,179.4902 301.5678,178.1863 297.6884,173.1073 C295.461,177.5332 290.8323,177.3996 288.1788,173.5998 C284.4047,179.2753 278.8249,178.6616 276.3262,172.3398 C266.5893,171.054 263.0189,163.8861 267.5911,155.2756 C262.6285,146.3595 265.1567,138.9746 276.5291,139.0653" fill="#FEF3C7" style="stroke:#181818;stroke-width:0.5;"/><text fill="#000000" font-family="Monospace" font-size="14" lengthAdjust="spacing" textLength="140.2795" x="282.28" y="159.4805">actions/setup-python</text></g><!--entity tool_pip--><g class="entity" data-qualified-name="tool_pip" data-source-line="10" id="ent0005"><path d="M336.3012,221.5833 C340.6455,213.9554 348.1107,212.4928 353.5651,220.3452 C360.9731,212.2314 367.0818,214.1788 371.3705,223.526 C380.7419,224.7781 384.8019,229.6707 379.967,238.8778 C386.0578,248.6046 380.3844,255.0287 370.4961,255.8263 C367.5861,265.8019 361.8952,268.1692 353.5133,261.3641 C345.1973,268.4763 337.3826,264.5732 335.3946,254.6384 C327.582,250.3597 325.15,245.7375 332.6587,238.8106 C325.5908,231.5925 326.4757,225.2294 336.3012,221.5833" fill="#FEF3C7" style="stroke:#181818;stroke-width:0.5;"/><text fill="#000000" font-family="Monospace" font-size="14" lengthAdjust="spacing" textLength="20.8319" x="342.01" y="243.4805">pip</text></g><!--entity tool_pytest--><g class="entity" data-qualified-name="tool_pytest" data-source-line="11" id="ent0006"><path d="M326.5393,306.9999 C329.2545,300.1216 336.3122,298.5182 340.9773,304.8723 C344.2065,299.083 349.8945,298.842 353.832,304.0439 C357.8587,298.2735 363.7201,299.3538 366.1094,305.7027 C371.7968,298.3591 376.9161,297.9735 381.494,306.7608 C393.2775,307.092 396.7119,314.0104 390.1509,323.7108 C395.6747,333.2813 391.825,340.4616 380.4491,339.9123 C378.7427,347.5537 373.919,349.3628 368.0981,343.745 C366.2712,351.3444 359.915,354.4682 353.2465,349.439 C348.0618,353.6607 341.4224,352.421 340.785,344.6959 C333.6872,350.6548 327.123,347.9988 326.6006,338.6164 C318.4931,335.823 315.0582,330.1703 321.3968,322.6644 C314.398,315.2057 318.5714,309.5452 326.5393,306.9999" fill="#FEF3C7" style="stroke:#181818;stroke-width:0.5;"/><text fill="#000000" font-family="Monospace" font-size="14" lengthAdjust="spacing" textLength="40.4599" x="332.19" y="327.4805">pytest</text></g><!--entity tool_ruff--><g class="entity" data-qualified-name="tool_ruff" data-source-line="12" id="ent0007"><path d="M333.9732,390.2019 C338.8431,380.8025 348.2261,380.0703 353.8462,389.4062 C360.6549,381.7135 366.3365,381.7482 371.4754,391.1302 C382.031,391.78 384.2817,398.3738 379.4655,406.8412 C384.2434,415.6707 380.8404,420.6353 371.8339,422.9239 C366.6911,432.8791 361.0008,433.5822 353.3629,425.4754 C346.7135,433.0647 338.4281,433.8637 334.2621,422.9164 C325.2582,421.6086 322.5361,414.6505 328.779,407.8089 C321.459,400.5778 325.2246,392.6927 333.9732,390.2019" fill="#FEF3C7" style="stroke:#181818;stroke-width:0.5;"/><text fill="#000000" font-family="Monospace" font-size="14" lengthAdjust="spacing" textLength="24.0659" x="340.39" y="411.4805">ruff</text></g><g class="entity" data-qualified-name="toolingGraphSummary" data-source-line="19" id="ent0013"><path d="M6,128.3446 L6,173.7566 L207.2842,173.7566 L207.2842,138.3446 L197.2842,128.3446 L6,128.3446" fill="#FEFFDD" style="stroke:#181818;stroke-width:0.5;"/><path d="M197.2842,128.3446 L197.2842,138.3446 L207.2842,138.3446 L197.2842,128.3446" fill="#FEFFDD" style="stroke:#181818;stroke-width:1;"/><text fill="#000000" font-family="Monospace" font-size="13" lengthAdjust="spacing" textLength="180.2842" x="12" y="147.2416">Scanned&#160;1&#160;tooling&#160;entrypoint.</text><text fill="#000000" font-family="Monospace" font-size="13" lengthAdjust="spacing" textLength="171.7822" x="12" y="164.9476">Detected&#160;5&#160;third-party&#160;tools.</text></g><!--link source_github_workflows_ci_yml to tool_actions_checkout--><g class="link" data-entity-1="ent0002" data-entity-2="ent0003" data-link-type="dependency" data-source-line="13" id="lnk8"><path d="M198.28,223.3346 C220.29,223.3346 237.56,223.3346 237.56,223.3346 C237.56,223.3346 237.56,70.0546 237.56,70.0546 C237.56,70.0546 251.63,70.0546 274.99,70.0546" fill="none" id="source_github_workflows_ci_yml-to-tool_actions_checkout" style="stroke:#181818;stroke-width:1;"/><polygon fill="#181818" points="280.99,70.0546,271.99,66.0546,275.99,70.0546,271.99,74.0546,280.99,70.0546" style="stroke:#181818;stroke-width:1;"/></g><!--link source_github_workflows_ci_yml to tool_actions_setup_python--><g class="link" data-entity-1="ent0002" data-entity-2="ent0004" data-link-type="dependency" data-source-line="14" id="lnk9"><path d="M198.24,233.1446 C245.17,233.1446 292.56,233.1446 292.56,233.1446 C292.56,233.1446 292.56,208.2446 292.56,185.0746" fill="none" id="source_github_workflows_ci_yml-to-tool_actions_setup_python" style="stroke:#181818;stroke-width:1;"/><polygon fill="#181818" points="292.56,179.0746,288.56,188.0746,292.56,184.0746,296.56,188.0746,292.56,179.0746" style="stroke:#181818;stroke-width:1;"/></g><!--link source_github_workflows_ci_yml to tool_pip--><g class="link" data-entity-1="ent0002" data-entity-2="ent0005" data-link-type="dependency" data-source-line="15" id="lnk10"><path d="M198.16,242.9546 C244.02,242.9546 290.12,242.9546 320.53,242.9546" fill="none" id="source_github_workflows_ci_yml-to-tool_pip" style="stroke:#181818;stroke-width:1;"/><polygon fill="#181818" points="326.53,242.9546,317.53,238.9546,321.53,242.9546,317.53,246.9546,326.53,242.9546" style="stroke:#181818;stroke-width:1;"/></g><!--link source_github_workflows_ci_yml to tool_pytest--><g class="link" data-entity-1="ent0002" data-entity-2="ent0006" data-link-type="dependency" data-source-line="16" id="lnk11"><path d="M198.21,252.7746 C257.06,252.7746 322.56,252.7746 322.56,252.7746 C322.56,252.7746 322.56,271.1946 322.56,291.0346" fill="none" id="source_github_workflows_ci_yml-to-tool_pytest" style="stroke:#181818;stroke-width:1;"/><polygon fill="#181818" points="322.56,297.0346,326.56,288.0346,322.56,292.0346,318.56,288.0346,322.56,297.0346" style="stroke:#181818;stroke-width:1;"/></g><!--link source_github_workflows_ci_yml to tool_ruff--><g class="link" data-entity-1="ent0002" data-entity-2="ent0007" data-link-type="dependency" data-source-line="17" id="lnk12"><path d="M106.56,267.3146 C106.56,315.4446 106.56,406.0546 106.56,406.0546 C106.56,406.0546 255.16,406.0546 319.17,406.0546" fill="none" id="source_github_workflows_ci_yml-to-tool_ruff" style="stroke:#181818;stroke-width:1;"/><polygon fill="#181818" points="325.17,406.0546,316.17,402.0546,320.17,406.0546,316.17,410.0546,325.17,406.0546" style="stroke:#181818;stroke-width:1;"/></g><?plantuml-src bLBBQiCm4BpxAvRaxFH5wAsNDYuzj9VqM32AlBP5v5qXhGdw-yfEavYaqFGevg6PPSI8HQWYSMxL1ZwPhQ46taYmyKeCKyWirWB2u4tJ2bJ6enw0B6mDEULL1w5L5Uy6OQrim0bIOQrwAmMJVAWEuPs9WrDwoj7SEIOaMKjCOGPxHOsTKb8ebEWGs4lBsP42iqLZfEqtDplsszhoBjneiuYT_Q9b-bmI4QiKdcsOWGeGkFSQoxseF8fARSeaWldgjhWlLfcst5SmKsFHPDcYtd8leyLWLluWvG61UR4g7fuVpvK1fNUvYoarNQf7jDoZvmxEk9CWFIxmA1WcYVRlSvRlw_h46Lv7nX-doFEdtwl-MpXjURKuDRwUErQ_cZvS8ICMFDmb3VVLAzUk-wvJFcPhhOZIREuEAAHn-kZOa2oobyEgbY2jyLMU9Yfnlx55XbJ1uFqD?></g></svg>
